<?xml version="1.0" encoding="utf-8"?>
<!-- Generator: Adobe Illustrator 23.0.1, SVG Export Plug-In . SVG Version: 6.00 Build 0)  -->
<svg version="1.1" id="Layer_1" xmlns="http://www.w3.org/2000/svg" xmlns:xlink="http://www.w3.org/1999/xlink" x="0px" y="0px"
	 viewBox="0 0 300 120" style="enable-background:new 0 0 300 120;" xml:space="preserve">
<style type="text/css">
	.st0{fill:none;}
	.st1{fill:#FFFFFF;}
</style>
<g>
	<path class="st0" d="M148.9,36.1v9.3c1.3-0.2,2.2-0.7,2.6-1.6c0.5-0.8,0.7-1.8,0.7-3c0-1.3-0.3-2.3-0.9-2.9
		C150.8,37.1,149.9,36.5,148.9,36.1z"/>
	<path class="st0" d="M143.5,79.6c0,0.9,0.3,1.7,0.8,2.3s1.3,1.2,2.3,1.6v-8.3c-1,0.2-1.8,0.7-2.3,1.5
		C143.8,77.6,143.5,78.5,143.5,79.6z"/>
	<path class="st0" d="M194.7,89.1c-0.7,0-1.3,0.2-1.8,0.5s-0.8,0.7-1.1,1.2s-0.5,1.1-0.6,1.8S191,94,191,94.8c0,1.7,0.2,3.1,0.7,4
		s1.4,1.4,2.7,1.4s2.2-0.5,2.7-1.4c0.6-0.9,0.8-2.4,0.8-4.4c0-1.6-0.3-2.8-0.7-3.8C196.9,89.5,196,89.1,194.7,89.1z"/>
	<path class="st0" d="M143.5,25.1c0,0.9,0.3,1.7,0.8,2.3c0.5,0.6,1.3,1.2,2.3,1.6v-8.3c-1,0.2-1.8,0.7-2.3,1.5S143.5,24,143.5,25.1z
		"/>
	<path class="st0" d="M148.9,90.6v9.3c1.3-0.2,2.2-0.7,2.6-1.6c0.5-0.8,0.7-1.8,0.7-3c0-1.3-0.3-2.3-0.9-2.9
		C150.8,91.6,149.9,91,148.9,90.6z"/>
	<path class="st0" d="M239,97.6c-0.5,0.4-0.7,1-0.7,1.7c0,0.6,0.2,1.1,0.6,1.5c0.4,0.4,1.1,0.6,2.1,0.6c0.8,0,1.5-0.2,2.1-0.6
		c0.6-0.4,0.9-1.1,0.9-2V97h-3C240.1,97,239.5,97.2,239,97.6z"/>
	<path d="M156,34.1c-0.7-0.8-1.6-1.6-2.8-2.3c-1.2-0.7-2.6-1.3-4.3-1.9v-9.1c1.9,0.3,3.4,1.3,4.4,3.1l4.2-3.1
		c-0.7-1.4-1.8-2.6-3.2-3.6s-3.2-1.6-5.4-1.8v-3.6h-2.3v3.6c-1.3,0.1-2.5,0.5-3.6,1s-2,1.2-2.7,2.1c-0.8,0.9-1.3,1.9-1.8,3
		c-0.4,1.2-0.6,2.4-0.6,3.7c0,1.3,0.2,2.5,0.5,3.4c0.4,1,0.9,1.9,1.6,2.7c0.7,0.8,1.6,1.5,2.7,2.1c1.1,0.6,2.4,1.2,3.9,1.7v10.2
		c-1.1-0.2-2.1-0.6-2.9-1.3c-0.8-0.7-1.5-1.6-2.1-2.6l-4.6,2.9c1,1.8,2.2,3.3,3.8,4.4c1.6,1.1,3.5,1.8,5.8,1.9v4.8h2.3v-4.8
		c3-0.2,5.2-1.2,6.8-3s2.3-4.2,2.3-7.2c0-1.3-0.2-2.5-0.5-3.6C157.2,35.9,156.7,34.9,156,34.1z M146.6,29c-1-0.5-1.8-1-2.3-1.6
		s-0.8-1.4-0.8-2.3c0-1.1,0.3-2.1,0.8-2.8c0.5-0.8,1.3-1.3,2.3-1.5V29z M151.5,43.8c-0.5,0.8-1.4,1.4-2.6,1.6v-9.3
		c1.1,0.5,1.9,1,2.5,1.7s0.9,1.7,0.9,2.9C152.2,41.9,152,42.9,151.5,43.8z"/>
	<polygon points="170.3,50.5 175.8,50.5 175.8,15.5 170.6,15.5 165.4,19.4 165.4,25.4 170.3,21.7 	"/>
	<path d="M196.4,28.7L185,45.5v5h18.1v-5.3H192l9.1-13.6c0.8-1.2,1.3-2.4,1.7-3.6s0.6-2.5,0.6-3.8c0-2.8-0.8-5-2.4-6.5
		c-1.6-1.5-3.9-2.3-6.7-2.3c-2.6,0-4.7,0.8-6.4,2.5c-1.7,1.6-2.7,4-2.9,7l5.5,0.8c0.1-1.7,0.5-3,1.2-3.8s1.5-1.2,2.5-1.2
		c1.3,0,2.1,0.4,2.6,1.2c0.5,0.8,0.8,1.6,0.8,2.6c0,0.7-0.1,1.4-0.3,2.2C197.2,27.2,196.8,28,196.4,28.7z"/>
	<path d="M231.4,37.8l7.2-12.2h-6.3l-3.8,7.9h-0.1l-3.8-7.9h-6.4c1.2,2,2.4,4.1,3.6,6.1c1.2,2,2.4,4,3.6,6.1l-7.5,12.7h6.3l4.2-8.4
		l4.2,8.4h6.3L231.4,37.8z"/>
	<path d="M271.8,37.9c-0.1-0.8-0.2-1.6-0.5-2.3c-0.3-0.7-0.7-1.3-1.2-1.9s-1.2-1-2.1-1.4c0.7-0.3,1.4-0.7,1.8-1.3
		c0.5-0.6,0.9-1.2,1.2-1.8c0.3-0.7,0.5-1.3,0.6-2s0.2-1.4,0.2-2c0-1.3-0.1-2.5-0.4-3.7s-0.7-2.2-1.4-3.2c-0.7-0.9-1.6-1.7-2.8-2.2
		c-1.2-0.6-2.7-0.8-4.5-0.8c-2.5,0-4.6,0.8-6.2,2.4s-2.6,3.7-2.9,6.4c0.3,0,0.7,0.1,1.2,0.2s1,0.2,1.6,0.3c0.6,0.1,1.1,0.2,1.6,0.3
		c0.5,0.1,0.9,0.1,1.2,0.2c0.2-1.4,0.5-2.5,1.1-3.2s1.4-1.1,2.5-1.1c0.7,0,1.2,0.1,1.7,0.4s0.8,0.7,1.1,1.1c0.3,0.5,0.5,1,0.6,1.6
		s0.2,1.2,0.2,1.7c0,1.5-0.3,2.7-0.9,3.5s-1.7,1.2-3.1,1.2h-2.2V35h2.2c1.5,0,2.6,0.5,3.3,1.4c0.6,0.9,1,2.4,1,4.3
		c0,1.6-0.3,2.9-1,3.8c-0.7,0.9-1.6,1.4-2.8,1.4c-2.2,0-3.5-1.4-3.7-4.2l-5.5,0.9c0.1,1.5,0.5,2.8,1,3.8c0.5,1.1,1.2,2,2,2.7
		c0.8,0.7,1.7,1.2,2.8,1.6c1.1,0.3,2.2,0.5,3.4,0.5c1.6,0,3.1-0.3,4.3-0.8c1.2-0.5,2.2-1.2,3-2.1c0.8-0.9,1.4-2,1.8-3.3
		s0.6-2.6,0.6-4.1C271.9,39.5,271.9,38.7,271.8,37.9z"/>
	<path d="M156,88.6c-0.7-0.8-1.6-1.6-2.8-2.3s-2.6-1.3-4.3-1.9v-9.1c1.9,0.3,3.4,1.3,4.4,3.1l4.2-3.1c-0.7-1.4-1.8-2.6-3.2-3.6
		s-3.2-1.6-5.4-1.8v-3.6h-2.3v3.6c-1.3,0.1-2.5,0.5-3.6,1s-2,1.2-2.7,2.1s-1.3,1.9-1.8,3c-0.4,1.2-0.6,2.4-0.6,3.7s0.2,2.5,0.5,3.4
		c0.4,1,0.9,1.9,1.6,2.7c0.7,0.8,1.6,1.5,2.7,2.1c1.1,0.6,2.4,1.2,3.9,1.7v10.2c-1.1-0.2-2.1-0.6-2.9-1.3c-0.8-0.7-1.5-1.6-2.1-2.6
		l-4.6,2.9c1,1.8,2.2,3.3,3.8,4.4c1.6,1.1,3.5,1.8,5.8,1.9v4.8h2.3v-4.8c3-0.2,5.2-1.2,6.8-3s2.3-4.2,2.3-7.2c0-1.3-0.2-2.5-0.5-3.6
		C157.2,90.4,156.7,89.4,156,88.6z M146.6,83.5c-1-0.5-1.8-1-2.3-1.6s-0.8-1.4-0.8-2.3c0-1.1,0.3-2.1,0.8-2.8
		c0.5-0.8,1.3-1.3,2.3-1.5V83.5z M151.5,98.3c-0.5,0.8-1.4,1.4-2.6,1.6v-9.3c1.1,0.5,1.9,1,2.5,1.7s0.9,1.7,0.9,2.9
		C152.2,96.4,152,97.4,151.5,98.3z"/>
	<path d="M179.7,90.1c-0.3-0.7-0.7-1.3-1.2-1.9c-0.5-0.6-1.2-1-2.1-1.4c0.7-0.3,1.3-0.7,1.8-1.3s0.9-1.2,1.2-1.8
		c0.3-0.7,0.5-1.3,0.6-2s0.2-1.4,0.2-2c0-1.3-0.1-2.5-0.4-3.7c-0.3-1.2-0.7-2.2-1.4-3.2c-0.7-0.9-1.6-1.7-2.8-2.2
		c-1.2-0.6-2.7-0.8-4.5-0.8c-2.5,0-4.6,0.8-6.2,2.4s-2.6,3.7-2.9,6.4c0.3,0,0.7,0.1,1.2,0.2c0.5,0.1,1,0.2,1.6,0.3s1.1,0.2,1.6,0.3
		s0.9,0.1,1.2,0.2c0.2-1.4,0.5-2.5,1.1-3.2s1.4-1.1,2.5-1.1c0.7,0,1.2,0.1,1.7,0.4c0.5,0.3,0.8,0.7,1.1,1.1c0.3,0.5,0.5,1,0.6,1.6
		s0.2,1.2,0.2,1.7c0,1.5-0.3,2.7-0.9,3.5c-0.6,0.8-1.7,1.2-3.1,1.2h-2.2v4.7h2.2c1.5,0,2.6,0.5,3.3,1.4c0.6,0.9,1,2.4,1,4.3
		c0,1.6-0.3,2.9-1,3.8c-0.7,0.9-1.6,1.4-2.8,1.4c-2.2,0-3.5-1.4-3.7-4.2l-5.5,0.9c0.1,1.5,0.5,2.8,1,3.8c0.5,1.1,1.2,2,2,2.7
		s1.7,1.2,2.8,1.6c1.1,0.3,2.2,0.5,3.4,0.5c1.6,0,3.1-0.3,4.3-0.8s2.2-1.2,3-2.1c0.8-0.9,1.4-2,1.8-3.3c0.4-1.3,0.6-2.6,0.6-4.1
		c0-0.9,0-1.8-0.1-2.6C180.2,91.6,180,90.8,179.7,90.1z"/>
	<path d="M201.9,87.1c-0.6-0.9-1.3-1.5-2.2-2s-1.8-0.7-2.9-0.7c-0.4,0-0.8,0-1.2,0.1c-0.5,0.1-0.8,0.2-1.2,0.4l-0.1-0.1
		c0.2-0.4,0.5-0.9,0.8-1.7c0.4-0.8,0.7-1.6,1.2-2.6c0.4-1,0.9-2,1.3-3c0.5-1.1,0.9-2.1,1.3-3c0.4-1,0.8-1.8,1.2-2.6s0.6-1.4,0.8-1.8
		h-6.1c-0.1,0.2-0.3,0.6-0.6,1.4c-0.4,0.8-0.8,1.7-1.3,2.8s-1,2.3-1.6,3.6s-1.2,2.5-1.7,3.7s-1,2.3-1.4,3.2s-0.7,1.6-0.9,2
		c-0.5,1.1-0.9,2.4-1.2,3.7c-0.3,1.4-0.4,2.8-0.4,4.4c0,3.6,0.7,6.2,2.2,7.9c1.4,1.7,3.7,2.5,6.7,2.5c3.3,0,5.6-1,7.1-3
		s2.2-4.7,2.2-8.1c0-1.4-0.2-2.8-0.5-3.9C203,89,202.5,87.9,201.9,87.1z M197.2,98.7c-0.6,0.9-1.5,1.4-2.7,1.4
		c-1.3,0-2.2-0.5-2.7-1.4s-0.7-2.2-0.7-4c0-0.8,0.1-1.5,0.2-2.2c0.1-0.7,0.3-1.3,0.6-1.8s0.6-0.9,1.1-1.2s1.1-0.5,1.8-0.5
		c1.3,0,2.2,0.5,2.6,1.4c0.5,1,0.7,2.2,0.7,3.8C198.1,96.3,197.8,97.8,197.2,98.7z"/>
	<polygon points="206,106.6 209.3,106.6 217.6,77.7 214.3,77.7 	"/>
	<path d="M230.4,100.5c-0.4-0.2-0.8-0.4-1.1-0.5c-0.3-0.2-0.6-0.3-0.7-0.4c-0.3,0.5-0.6,1-1,1.3s-0.9,0.5-1.5,0.5s-1.1-0.1-1.5-0.4
		c-0.4-0.3-0.7-0.7-0.9-1.2s-0.4-1.1-0.5-1.8s-0.1-1.5-0.1-2.3s0-1.6,0.1-2.2c0.1-0.7,0.2-1.3,0.5-1.8c0.2-0.5,0.5-0.9,1-1.2
		c0.4-0.3,0.9-0.4,1.6-0.4c1.1,0,2,0.6,2.5,1.8c0.1-0.1,0.3-0.2,0.7-0.4s0.7-0.4,1.1-0.5c0.4-0.2,0.8-0.4,1.1-0.5
		c0.3-0.2,0.6-0.3,0.7-0.4c-0.5-1.2-1.3-2.2-2.4-2.9c-1.1-0.7-2.4-1-3.8-1c-1.3,0-2.4,0.2-3.3,0.7c-0.9,0.5-1.6,1.1-2.2,1.9
		c-0.6,0.8-1,1.8-1.2,3c-0.3,1.2-0.4,2.4-0.4,3.8c0,1.4,0.1,2.7,0.3,3.9s0.6,2.2,1.1,3s1.3,1.5,2.2,2s2.1,0.7,3.5,0.7
		c1.5,0,2.7-0.3,3.8-1s1.9-1.6,2.4-2.8c-0.1-0.1-0.4-0.2-0.7-0.4C231.2,100.9,230.8,100.7,230.4,100.5z"/>
	<path d="M246.1,87.4c-0.6-0.5-1.3-0.8-2.2-1c-0.8-0.2-1.7-0.3-2.7-0.3c-1.4,0-2.7,0.3-3.8,0.8c-1.1,0.6-2,1.4-2.6,2.6
		c0.1,0.1,0.3,0.2,0.6,0.4s0.6,0.4,0.9,0.6c0.3,0.2,0.7,0.4,1,0.6s0.5,0.3,0.6,0.4c0.3-0.6,0.8-1.1,1.4-1.3c0.6-0.2,1.2-0.4,1.9-0.4
		c1,0,1.7,0.2,2.1,0.7c0.4,0.4,0.6,1,0.6,1.6v1.7h-3.2c-1.1,0-2.1,0.2-2.9,0.5c-0.8,0.3-1.5,0.7-2,1.2s-0.9,1.1-1.2,1.8
		s-0.4,1.4-0.4,2.2c0,1.7,0.4,3,1.3,4.1c0.9,1,2.2,1.5,4.1,1.5c0.8,0,1.5-0.1,2.3-0.4c0.8-0.3,1.4-0.7,1.8-1.3l0.2,0.1v1.4h4.2V92
		c0-1.1-0.2-2-0.5-2.8C247.2,88.4,246.7,87.8,246.1,87.4z M243.9,98.8c0,0.9-0.3,1.6-0.9,2c-0.6,0.4-1.3,0.6-2.1,0.6
		c-1,0-1.6-0.2-2.1-0.6c-0.4-0.4-0.6-0.9-0.6-1.5c0-0.8,0.2-1.3,0.7-1.7s1.1-0.6,1.9-0.6h3v1.8H243.9z"/>
	<path d="M260.4,86.1c-0.9,0-1.7,0.2-2.5,0.5c-0.7,0.3-1.3,1-1.8,1.9H256v-2.1h-4.1v18.7h4.2V93.9c0-1.3,0.3-2.2,0.9-2.7
		c0.6-0.6,1.5-0.9,2.5-0.9c0.4,0,0.7,0,1,0.1s0.7,0.2,1,0.4l0.8-4.1c-0.3-0.2-0.6-0.3-0.9-0.4C261.2,86.2,260.8,86.1,260.4,86.1z"/>
	<path class="st1" d="M49.4,90.8c0-0.7-0.5-1.2-1.2-1.2h-3.5V92h3.5C48.9,92,49.4,91.5,49.4,90.8z"/>
	<path class="st1" d="M48.3,95h-3.6v2.6h3.6c0.9,0,1.4-0.5,1.4-1.3C49.7,95.6,49.2,95,48.3,95z"/>
	<path class="st1" d="M76.7,32.3c14.3-4.4,27.9-10.2,40.9-17.6h-17.2c-0.2,0.6-0.6,1.2-1.3,1.6C89,22.2,78.2,26.7,66.9,29.7
		c0.5,0.7,0.8,1.5,0.7,2.6c-1.1,6.8-0.6,13.5,1.2,20.1c0.1,0.5,0.1,1,0.1,1.4c0.6-0.2,1.2-0.4,1.8-0.6c-0.2-4.3-0.3-8.5-0.5-12.8
		c-1.1-2-0.3-5,2.5-4.6c0.7,0.1,1.4,0.2,2.1,0.2C74.3,34.5,74.9,32.8,76.7,32.3z"/>
	<path class="st1" d="M34.4,105.3H125V73V58.6c-3.3,1.6-6.6,3.2-10,4.7c-4.7,2-9.5,4.3-14.3,3.3c-0.5,0.9-1.3,1.5-2.6,1.5
		c-8.5-0.2-16.5-2.4-24-6.4c-0.6-0.3-1-0.8-1.3-1.3c-0.5-0.2-0.9-0.5-1.3-0.9c-0.6,0.2-1.2,0.4-1.8,0.6c-1.6,0.6-3.4-0.6-3.9-2.2
		c-0.2-0.6-0.1-1.1,0-1.7c-0.1,0-0.1,0-0.2,0c-0.1,1.8-1.6,3.6-3.9,3.1c-6.8-1.4-13.3-3.8-19.4-7.1c-1.6-0.9-1.8-2.4-1.3-3.7
		c-0.2-0.4-0.2-0.9-0.2-1.4c0.7-6.4,1.3-12.8,2-19.2c0-0.4,0.2-0.8,0.3-1.1c-1.2-1.4-1.3-3.6,0.7-4.6c5-2.4,10-4.9,15-7.3H34.4V73
		V105.3z M49.3,100.6h-8.2v-14H49c2.8,0,4.1,1.8,4.1,3.6c0,1.7-1.1,2.9-2.4,3.2c1.5,0.2,2.7,1.7,2.7,3.4
		C53.4,98.8,52,100.6,49.3,100.6z M65.6,89.6H59v2.3h6.5V95H59v2.5h6.6v3H55.3v-14h10.2L65.6,89.6L65.6,89.6z M77.3,100.6l-0.7-2.1
		h-5.8l-0.7,2.1h-3.9l5.3-14H76l5.3,14H77.3z M98.2,100.6h-3.6v-9.4l-3.5,9.4h-1.6L86,91.2v9.4h-3.6v-14h5l2.9,7.9l2.9-7.9h5
		C98.2,86.6,98.2,100.6,98.2,100.6z M105.9,100.8c-2.8,0-4.8-0.9-6.2-2.2l1.9-2.7c1,1,2.6,1.8,4.5,1.8c1.2,0,2-0.5,2-1.2
		c0-0.8-0.9-1.1-2.4-1.4c-2.3-0.5-5.5-1-5.5-4.4c0-2.3,2-4.4,5.6-4.4c2.2,0,4.2,0.7,5.7,1.9l-2,2.6c-1.2-1-2.7-1.4-3.9-1.4
		c-1.2,0-1.7,0.5-1.7,1.1c0,0.7,0.9,1,2.4,1.3c2.3,0.5,5.5,1.2,5.5,4.3C111.7,99,109.6,100.8,105.9,100.8z"/>
	<polygon class="st1" points="71.8,95.4 75.7,95.4 73.7,89.7 	"/>
	<path class="st1" d="M48.8,32c-0.5,5-1,10-1.6,14.9c0,0.2-0.1,0.4-0.1,0.5c4.9,2.5,9.9,4.3,15.3,5.5c-1.7-6.6-2.1-13.3-1.3-20
		C57,32.2,52.9,31.9,48.8,32z"/>
	<path class="st1" d="M82.7,36.9c1.8,0.2,3.6,0.4,5.4,0.7c0.8,0.1,1.5,0.5,2,1c1.8,0.1,3.5,0.2,5.3,0.3c0.7-0.7,1.7-1.1,2.9-1
		c6.3,0.9,12.3-1.7,16.4-6.5c0.8-1,1.9-1.2,2.8-0.9c2.5-1.2,5-2.3,7.5-3.5v-9.3C111.5,25.7,97.5,32.1,82.7,36.9z"/>
	<path class="st1" d="M102,44.1c-0.1,5.4-0.3,10.7-0.4,16.1c6.1,1.6,16-4.9,20.8-7.3c0.8-0.4,1.7-0.9,2.5-1.3V33.9
		c-2,0.9-4.1,1.9-6.1,2.8c-0.3,0.1-0.6,0.2-0.9,0.3C113.6,41.4,108,43.8,102,44.1z"/>
	<path class="st1" d="M64.2,23.9c8.6-2.2,16.7-5.3,24.6-9.2H73.2c-7.5,3.7-15,7.4-22.5,11c3.8,0,7.6,0.3,11.3,1
		C62,25.5,62.6,24.3,64.2,23.9z"/>
	<path class="st1" d="M87.4,44.6c-1-0.1-1.8-0.5-2.3-1.2l-8.7-1.1c0.1,3.1,0.2,6.2,0.4,9.2c0.9,0.4,1.7,1.2,2,2.1
		c0.3,1.1,0,2.1-0.7,2.8c5.5,2.8,11.2,4.5,17.3,5v-0.1c0-0.1,0-0.2,0-0.2c0.1-5.4,0.3-10.7,0.4-16.1C93,45,90.2,44.8,87.4,44.6z"/>
	<path d="M34.4,8.4h-6.3v6.3v90.6v6.3h6.3H125h6.3v-6.3V14.7V8.4H125H34.4z M117.4,30.5c-0.9-0.3-1.9-0.1-2.8,0.9
		c-4.1,4.8-10.1,7.4-16.4,6.5c-1.2-0.2-2.2,0.3-2.9,1c-1.8-0.1-3.5-0.2-5.3-0.3c-0.5-0.5-1.1-0.9-2-1c-1.8-0.2-3.6-0.4-5.4-0.7
		c14.8-4.9,28.8-11.2,42.2-19.2V27C122.4,28.1,119.9,29.3,117.4,30.5z M124.9,33.8v17.7c-0.8,0.4-1.7,0.9-2.5,1.3
		c-4.8,2.4-14.7,8.9-20.8,7.3c0.1-5.4,0.3-10.7,0.4-16.1c6-0.4,11.6-2.8,15.9-7.2c0.3-0.1,0.6-0.2,0.9-0.3
		C120.8,35.7,122.9,34.8,124.9,33.8z M95.4,61.5v0.1c-6.1-0.5-11.8-2.2-17.3-5c0.7-0.8,1-1.8,0.7-2.8c-0.3-0.9-1-1.7-2-2.1
		c-0.1-3.1-0.2-6.2-0.4-9.2l8.7,1.1c0.5,0.6,1.3,1.1,2.3,1.2c2.8,0.2,5.6,0.3,8.3,0.5C95.6,50.7,95.4,56,95.4,61.5
		C95.3,61.3,95.3,61.4,95.4,61.5z M74.6,35.9c-0.7-0.1-1.4-0.2-2.1-0.2c-2.8-0.3-3.6,2.7-2.5,4.6c0.2,4.3,0.3,8.5,0.5,12.8
		c-0.6,0.2-1.2,0.4-1.8,0.6c0.1-0.4,0.1-0.9-0.1-1.4c-1.9-6.6-2.3-13.3-1.2-20.1c0.2-1-0.1-1.9-0.7-2.6c11.3-3,22.1-7.5,32.2-13.4
		c0.7-0.4,1.1-1,1.3-1.6h17.2c-13,7.3-26.6,13.2-40.9,17.6C74.9,32.8,74.3,34.5,74.6,35.9z M62.4,53c-5.3-1.2-10.4-3-15.3-5.5
		c0-0.2,0.1-0.3,0.1-0.5c0.5-5,1-10,1.6-14.9c4.1-0.1,8.2,0.2,12.3,1C60.3,39.7,60.7,46.4,62.4,53z M62,26.8c-3.7-0.7-7.5-1-11.3-1
		c7.5-3.7,15-7.4,22.5-11h15.6c-7.8,3.9-16,7-24.6,9.2C62.6,24.3,62,25.5,62,26.8z M59,14.7c-5,2.4-10,4.9-15,7.3
		c-2.1,1-1.9,3.2-0.7,4.6c-0.2,0.3-0.3,0.7-0.3,1.1c-0.7,6.4-1.3,12.8-2,19.2c-0.1,0.6,0,1,0.2,1.4c-0.6,1.3-0.3,2.9,1.3,3.7
		c6.1,3.3,12.5,5.7,19.4,7.1c2.3,0.5,3.8-1.3,3.9-3.1c0.1,0,0.1,0,0.2,0c-0.2,0.5-0.2,1.1,0,1.7c0.4,1.5,2.2,2.7,3.9,2.2
		c0.6-0.2,1.2-0.4,1.8-0.6c0.3,0.4,0.8,0.7,1.3,0.9c0.2,0.5,0.6,0.9,1.3,1.3c7.5,4,15.5,6.2,24,6.4c1.3,0,2.2-0.6,2.6-1.5
		c4.7,1,9.6-1.2,14.3-3.3c3.4-1.5,6.7-3,10-4.7V73v32.3H34.4V73V14.8H59V14.7z"/>
	<path d="M50.7,93.4c1.3-0.3,2.4-1.5,2.4-3.2c0-1.8-1.3-3.6-4.1-3.6h-7.9v14h8.2c2.7,0,4.1-1.8,4.1-3.8C53.4,95,52.2,93.6,50.7,93.4
		z M44.7,89.6h3.5c0.7,0,1.2,0.5,1.2,1.2S48.9,92,48.2,92h-3.5V89.6z M48.3,97.6h-3.6V95h3.6c0.9,0,1.4,0.6,1.4,1.3
		C49.7,97.1,49.2,97.6,48.3,97.6z"/>
	<polygon points="55.3,100.6 65.6,100.6 65.6,97.5 58.9,97.5 58.9,95 65.4,95 65.4,92 58.9,92 58.9,89.6 65.6,89.6 65.6,86.6 
		55.3,86.6 	"/>
	<path d="M71.5,86.6l-5.3,14h3.9l0.7-2.1h5.8l0.7,2.1h3.9l-5.3-14H71.5z M71.8,95.4l1.9-5.7l2,5.7H71.8z"/>
	<polygon points="90.2,94.5 87.3,86.6 82.3,86.6 82.3,100.6 85.9,100.6 85.9,91.1 89.4,100.6 91,100.6 94.6,91.1 94.6,100.6 
		98.2,100.6 98.2,86.6 93.2,86.6 	"/>
	<path d="M106.2,91.8c-1.5-0.3-2.4-0.5-2.4-1.3c0-0.6,0.5-1.1,1.7-1.1s2.8,0.5,3.9,1.4l2-2.6c-1.5-1.3-3.4-1.9-5.7-1.9
		c-3.6,0-5.6,2-5.6,4.4c0,3.3,3.2,3.9,5.5,4.4c1.5,0.3,2.4,0.6,2.4,1.4c0,0.7-0.8,1.2-2,1.2c-1.9,0-3.5-0.8-4.5-1.8l-1.9,2.7
		c1.4,1.3,3.4,2.2,6.2,2.2c3.8,0,5.8-1.9,5.8-4.7C111.7,93,108.5,92.3,106.2,91.8z"/>
</g>
</svg>
