<?xml version="1.0" encoding="utf-8"?>
<!-- Generator: Adobe Illustrator 23.0.1, SVG Export Plug-In . SVG Version: 6.00 Build 0)  -->
<svg version="1.1" id="Layer_1" xmlns="http://www.w3.org/2000/svg" xmlns:xlink="http://www.w3.org/1999/xlink" x="0px" y="0px"
	 viewBox="0 0 300 120" style="enable-background:new 0 0 300 120;" xml:space="preserve">
<style type="text/css">
	.st0{fill:none;}
	.st1{fill:#FFFFFF;}
</style>
<g>
	<path class="st0" d="M276.3,18.5c-1,0-1.9,0.3-2.5,0.9s-1,1.5-1,2.6v17.9c0,1.1,0.3,2,1,2.6c0.6,0.6,1.5,0.9,2.5,0.9
		s1.9-0.3,2.5-0.9c0.6-0.6,1-1.5,1-2.6V22c0-1.1-0.3-2-1-2.6C278.2,18.8,277.3,18.5,276.3,18.5z"/>
	<path class="st0" d="M252.5,95.5c-0.5,0.4-0.7,1-0.7,1.7c0,0.6,0.2,1.1,0.6,1.5c0.4,0.4,1.1,0.6,2.1,0.6c0.8,0,1.5-0.2,2.1-0.6
		c0.6-0.4,0.9-1.1,0.9-2v-1.8h-3C253.6,94.9,253,95.1,252.5,95.5z"/>
	<path class="st0" d="M211.6,76.5c0-1.1-0.3-2-1-2.6c-0.6-0.6-1.5-0.9-2.5-0.9s-1.9,0.3-2.5,0.9c-0.6,0.6-1,1.5-1,2.6v17.9
		c0,1.1,0.3,2,1,2.6c0.6,0.6,1.5,0.9,2.5,0.9s1.9-0.3,2.5-0.9c0.6-0.6,1-1.5,1-2.6V76.5z"/>
	<path class="st0" d="M139,34v9.3c1.3-0.2,2.2-0.7,2.6-1.6c0.5-0.8,0.7-1.8,0.7-3c0-1.3-0.3-2.3-0.9-2.9
		C140.9,35.1,140.1,34.5,139,34z"/>
	<path class="st0" d="M133.6,77.5c0,0.9,0.3,1.7,0.8,2.3s1.3,1.2,2.3,1.6v-8.3c-1,0.2-1.8,0.7-2.3,1.5
		C133.9,75.5,133.6,76.4,133.6,77.5z"/>
	<path class="st0" d="M133.6,23c0,0.9,0.3,1.7,0.8,2.3c0.5,0.6,1.3,1.2,2.3,1.6v-8.3c-1,0.2-1.8,0.7-2.3,1.5
		C133.9,21,133.6,21.9,133.6,23z"/>
	<path class="st0" d="M139,88.5v9.3c1.3-0.2,2.2-0.7,2.6-1.6c0.5-0.8,0.7-1.8,0.7-3c0-1.3-0.3-2.3-0.9-2.9
		C140.9,89.6,140.1,89,139,88.5z"/>
	<path d="M146.1,32c-0.7-0.8-1.6-1.6-2.8-2.3c-1.2-0.7-2.6-1.3-4.3-1.9v-9.1c1.9,0.3,3.4,1.3,4.4,3.1l4.2-3.1
		c-0.7-1.4-1.8-2.6-3.2-3.6s-3.2-1.6-5.4-1.8V9.7h-2.3v3.6c-1.3,0.1-2.5,0.5-3.6,1s-2,1.2-2.7,2.1c-0.8,0.9-1.3,1.9-1.8,3
		c-0.4,1.2-0.6,2.4-0.6,3.7c0,1.3,0.2,2.5,0.5,3.4c0.4,1,0.9,1.9,1.6,2.7c0.7,0.8,1.6,1.5,2.7,2.1c1.1,0.6,2.4,1.2,3.9,1.7v10.2
		c-1.1-0.2-2.1-0.6-2.9-1.3c-0.8-0.7-1.5-1.6-2.1-2.6l-4.6,2.9c1,1.8,2.2,3.3,3.8,4.4c1.6,1.1,3.5,1.8,5.8,1.9v4.8h2.3v-4.8
		c3-0.2,5.2-1.2,6.8-3s2.3-4.2,2.3-7.2c0-1.3-0.2-2.5-0.5-3.6C147.3,33.8,146.8,32.8,146.1,32z M136.7,27c-1-0.5-1.8-1-2.3-1.6
		s-0.8-1.4-0.8-2.3c0-1.1,0.3-2.1,0.8-2.8c0.5-0.8,1.3-1.3,2.3-1.5V27z M141.6,41.7c-0.5,0.8-1.4,1.4-2.6,1.6V34
		c1.1,0.5,1.9,1,2.5,1.7s0.9,1.7,0.9,2.9C142.4,39.9,142.1,40.9,141.6,41.7z"/>
	<polygon points="165.9,13.4 160.7,13.4 155.5,17.3 155.5,23.3 160.4,19.7 160.4,48.4 165.9,48.4 	"/>
	<path d="M192.4,28.2c-0.6-1-1.3-1.7-2.3-2.3c-1-0.6-2.2-0.9-3.8-0.9c-0.7,0-1.4,0.1-2.3,0.3c-0.8,0.2-1.6,0.6-2.4,1.3h-0.1l-0.1-8
		h11.9v-5.2h-17.1v19h5c0.4-0.9,0.9-1.5,1.5-1.9s1.3-0.6,1.9-0.6c0.8,0,1.4,0.2,1.9,0.5c0.5,0.4,0.8,0.8,1,1.4s0.4,1.3,0.5,2
		c0.1,0.8,0.1,1.5,0.1,2.3c0,0.9,0,1.8-0.1,2.6c-0.1,0.9-0.2,1.6-0.5,2.3c-0.2,0.7-0.6,1.2-1.1,1.6c-0.5,0.4-1.1,0.6-2,0.6
		c-1.1,0-2-0.3-2.6-1s-0.9-1.8-1-3.3l-5.6,0.4c0.1,1.7,0.4,3.2,0.9,4.3c0.5,1.2,1.1,2.1,1.9,2.8c0.8,0.7,1.8,1.2,2.8,1.5
		c1.1,0.3,2.3,0.5,3.6,0.5c1.8,0,3.3-0.3,4.4-0.9c1.2-0.6,2.1-1.4,2.8-2.5s1.2-2.4,1.5-4s0.5-3.4,0.5-5.4c0-1.5-0.1-3-0.3-4.3
		C193.3,30.3,192.9,29.1,192.4,28.2z"/>
	<path d="M218.6,40.1l4.2,8.4h6.3l-7.5-12.7l7.2-12.2h-6.3l-3.8,7.9h-0.1l-3.8-7.9h-6.4c1.2,2,2.4,4.1,3.6,6.1c1.2,2,2.4,4,3.6,6.1
		l-7.5,12.7h6.3L218.6,40.1z"/>
	<polygon points="247.1,17.3 247.1,23.3 251.9,19.7 251.9,48.4 257.5,48.4 257.5,13.4 252.3,13.4 	"/>
	<path d="M282.6,15.5c-0.8-0.8-1.8-1.3-2.9-1.7s-2.3-0.6-3.5-0.6s-2.3,0.2-3.4,0.6s-2,1-2.9,1.7c-0.8,0.8-1.5,1.7-2,2.8
		c-0.5,1.1-0.7,2.3-0.7,3.7v18c0,1.4,0.2,2.6,0.7,3.7c0.5,1.1,1.1,2,2,2.7c0.8,0.8,1.8,1.3,2.9,1.7s2.2,0.6,3.4,0.6
		c1.2,0,2.4-0.2,3.4-0.6c1.1-0.4,2-1,2.9-1.7c0.8-0.8,1.5-1.7,2-2.7c0.5-1.1,0.7-2.3,0.7-3.7V22c0-1.4-0.2-2.7-0.7-3.7
		C284.1,17.1,283.4,16.2,282.6,15.5z M279.8,39.9c0,1.1-0.3,2-1,2.6c-0.6,0.6-1.5,0.9-2.5,0.9s-1.9-0.3-2.5-0.9
		c-0.6-0.6-1-1.5-1-2.6V22c0-1.1,0.3-2,1-2.6c0.6-0.6,1.5-0.9,2.5-0.9s1.9,0.3,2.5,0.9s1,1.5,1,2.6V39.9z"/>
	<path d="M146.1,86.5c-0.7-0.8-1.6-1.6-2.8-2.3s-2.6-1.3-4.3-1.9v-9.1c1.9,0.3,3.4,1.3,4.4,3.1l4.2-3.1c-0.7-1.4-1.8-2.6-3.2-3.6
		s-3.2-1.6-5.4-1.8v-3.6h-2.3v3.6c-1.3,0.1-2.5,0.5-3.6,1s-2,1.2-2.7,2.1c-0.8,0.9-1.3,1.9-1.8,3c-0.4,1.2-0.6,2.4-0.6,3.7
		s0.2,2.5,0.5,3.4c0.4,1,0.9,1.9,1.6,2.7c0.7,0.8,1.6,1.5,2.7,2.1c1.1,0.6,2.4,1.2,3.9,1.7v10.2c-1.1-0.2-2.1-0.6-2.9-1.3
		c-0.8-0.7-1.5-1.6-2.1-2.6l-4.6,2.9c1,1.8,2.2,3.3,3.8,4.4c1.6,1.1,3.5,1.8,5.8,1.9v4.8h2.3V103c3-0.2,5.2-1.2,6.8-3
		s2.3-4.2,2.3-7.2c0-1.3-0.2-2.5-0.5-3.6C147.3,88.3,146.8,87.3,146.1,86.5z M136.7,81.5c-1-0.5-1.8-1-2.3-1.6s-0.8-1.4-0.8-2.3
		c0-1.1,0.3-2.1,0.8-2.8c0.5-0.8,1.3-1.3,2.3-1.5V81.5z M141.6,96.2c-0.5,0.8-1.4,1.4-2.6,1.6v-9.3c1.1,0.5,1.9,1,2.5,1.7
		s0.9,1.7,0.9,2.9C142.4,94.4,142.1,95.4,141.6,96.2z"/>
	<polygon points="165.9,67.9 160.7,67.9 155.5,71.8 155.5,77.8 160.4,74.2 160.4,102.9 165.9,102.9 	"/>
	<path d="M187.6,95.7c-0.2,0.7-0.6,1.2-1.1,1.6c-0.5,0.4-1.1,0.6-2,0.6c-1.1,0-2-0.3-2.6-1s-0.9-1.8-1-3.3l-5.6,0.4
		c0.1,1.7,0.4,3.2,0.9,4.3c0.5,1.2,1.1,2.1,1.9,2.8c0.8,0.7,1.8,1.2,2.8,1.5c1.1,0.3,2.3,0.5,3.6,0.5c1.8,0,3.3-0.3,4.4-0.9
		c1.2-0.6,2.1-1.4,2.8-2.5s1.2-2.4,1.5-4s0.5-3.4,0.5-5.4c0-1.5-0.1-3-0.3-4.3s-0.6-2.5-1.1-3.5c-0.6-1-1.3-1.7-2.3-2.3
		s-2.2-0.9-3.8-0.9c-0.7,0-1.4,0.1-2.3,0.3c-0.8,0.2-1.6,0.6-2.4,1.3h-0.1l-0.1-8h11.9v-5.2h-17.1v19h5c0.4-0.9,0.9-1.5,1.5-1.9
		s1.3-0.6,1.9-0.6c0.8,0,1.4,0.2,1.9,0.5c0.5,0.4,0.8,0.8,1,1.4c0.2,0.6,0.4,1.3,0.5,2c0.1,0.8,0.1,1.5,0.1,2.3c0,0.9,0,1.8-0.1,2.6
		C188,94.3,187.8,95,187.6,95.7z"/>
	<path d="M214.4,100.9c0.8-0.8,1.5-1.7,2-2.7c0.5-1.1,0.7-2.3,0.7-3.7v-18c0-1.4-0.2-2.7-0.7-3.7c-0.5-1.1-1.1-2-2-2.8
		c-0.8-0.8-1.8-1.3-2.9-1.7c-1.1-0.4-2.3-0.6-3.5-0.6s-2.3,0.2-3.4,0.6s-2,1-2.9,1.7c-0.8,0.8-1.5,1.7-2,2.8s-0.7,2.3-0.7,3.7v18
		c0,1.4,0.2,2.6,0.7,3.7c0.5,1.1,1.1,2,2,2.7c0.8,0.8,1.8,1.3,2.9,1.7s2.2,0.6,3.4,0.6s2.4-0.2,3.4-0.6
		C212.6,102.2,213.6,101.7,214.4,100.9z M208.1,97.9c-1,0-1.9-0.3-2.5-0.9c-0.6-0.6-1-1.5-1-2.6V76.5c0-1.1,0.3-2,1-2.6
		c0.6-0.6,1.5-0.9,2.5-0.9s1.9,0.3,2.5,0.9c0.6,0.6,1,1.5,1,2.6v17.9c0,1.1-0.3,2-1,2.6C210,97.6,209.2,97.9,208.1,97.9z"/>
	<polygon points="219.5,104.5 222.8,104.5 231.1,75.6 227.8,75.6 	"/>
	<path d="M234,86.7c-0.6,0.8-1,1.8-1.2,3c-0.3,1.2-0.4,2.4-0.4,3.8c0,1.4,0.1,2.7,0.3,3.9s0.6,2.2,1.1,3s1.3,1.5,2.2,2
		s2.1,0.7,3.5,0.7c1.5,0,2.7-0.3,3.8-1s1.9-1.6,2.4-2.8c-0.1-0.1-0.4-0.2-0.7-0.4s-0.7-0.3-1.1-0.5c-0.4-0.2-0.8-0.4-1.1-0.5
		s-0.6-0.3-0.7-0.4c-0.3,0.5-0.6,1-1,1.3s-0.9,0.5-1.5,0.5s-1.1-0.1-1.5-0.4c-0.4-0.3-0.7-0.7-0.9-1.2s-0.4-1.1-0.5-1.8
		s-0.1-1.5-0.1-2.3s0-1.6,0.1-2.2c0.1-0.7,0.2-1.3,0.5-1.8c0.2-0.5,0.5-0.9,1-1.2c0.4-0.3,0.9-0.4,1.6-0.4c1.1,0,2,0.6,2.5,1.8
		c0.1-0.1,0.3-0.2,0.7-0.4s0.7-0.4,1.1-0.5c0.4-0.2,0.8-0.4,1.1-0.5c0.3-0.2,0.6-0.3,0.7-0.4c-0.5-1.2-1.3-2.2-2.4-2.9
		c-1.1-0.7-2.4-1-3.8-1c-1.3,0-2.4,0.2-3.3,0.7C235.3,85.2,234.6,85.9,234,86.7z"/>
	<path d="M261.6,89.9c0-1.1-0.2-2-0.5-2.8c-0.4-0.7-0.8-1.3-1.4-1.8s-1.3-0.8-2.2-1c-0.8-0.2-1.7-0.3-2.7-0.3
		c-1.4,0-2.7,0.3-3.8,0.8c-1.1,0.6-2,1.4-2.6,2.6c0.1,0.1,0.3,0.2,0.6,0.4s0.6,0.4,0.9,0.6c0.3,0.2,0.7,0.4,1,0.6
		c0.3,0.2,0.5,0.3,0.6,0.4c0.3-0.6,0.8-1.1,1.4-1.3c0.6-0.2,1.2-0.4,1.9-0.4c1,0,1.7,0.2,2.1,0.7c0.4,0.4,0.6,1,0.6,1.6v1.7h-3.2
		c-1.1,0-2.1,0.2-2.9,0.5c-0.8,0.3-1.5,0.7-2,1.2s-0.9,1.1-1.2,1.8s-0.4,1.4-0.4,2.2c0,1.7,0.4,3,1.3,4.1c0.9,1,2.2,1.5,4.1,1.5
		c0.8,0,1.5-0.1,2.3-0.4c0.8-0.3,1.4-0.7,1.8-1.3l0.2,0.1v1.4h4.2V89.9H261.6z M257.5,96.8c0,0.9-0.3,1.6-0.9,2s-1.3,0.6-2.1,0.6
		c-1,0-1.6-0.2-2.1-0.6c-0.4-0.4-0.6-0.9-0.6-1.5c0-0.8,0.2-1.3,0.7-1.7s1.1-0.6,1.9-0.6h3v1.8H257.5z"/>
	<path d="M269.6,91.8c0-1.3,0.3-2.2,0.9-2.7c0.6-0.6,1.5-0.9,2.5-0.9c0.4,0,0.7,0,1,0.1s0.7,0.2,1,0.4l0.8-4.1
		c-0.3-0.2-0.6-0.3-0.9-0.4c-0.3-0.1-0.7-0.1-1.1-0.1c-0.9,0-1.7,0.2-2.5,0.5c-0.7,0.3-1.3,1-1.8,1.9h-0.1v-2.1h-4.1V103h4.1V91.8
		H269.6z"/>
	<path class="st1" d="M49,87.9c-2.3,0-3.8,1.8-3.8,4c0,2.3,1.5,4,3.8,4s3.8-1.8,3.8-4S51.3,87.9,49,87.9z"/>
	<polygon class="st1" points="61.7,93.8 65.6,93.8 63.6,88.1 	"/>
	<path class="st1" d="M111.5,74.7V17v-2.3H21V17v57.7v30.6h90.6L111.5,74.7L111.5,74.7z M32.5,46.7c0.1-2.5,1.3-3.1,2.2-4.9
		c2.1-4.2-0.3,5.3,3.1-6.4c0.3-1,0.2-2.1,0.7-3.1c2.3-4.9,6.6-6.9,11.4-8.7c0.9-0.3,1.7-0.2,2.3,0.1c0.5-0.1,1-0.1,1.5,0
		c5.3,1.3,17.4,1.7,20.9,6.6c1.3-1.3,3.1-2.1,5.2-2.2c3.2-0.1,5.8,2.2,8.3,3.3c6.8,2.9,11.5,12.8,10,20.2c-0.6,3.3-3.1,6.3-6.7,6.3
		c-2.1,0-2.9-1.4-4.5-0.1c-1.4,1.1-1.9,3-3.6,4.1c-5.3,3.5-11.4,0.7-13.5-4.4c-2,3.3-4.9,6-9,4.8c-1.9-0.5-3-1.8-4.2-3.3
		c-2.4-2.9-2.3-3.2-5.6-1.3c-3.8,2.2-6.8,3.5-10.9,0.9C36.5,56.5,32.3,51.1,32.5,46.7z M34.4,96c1.4,0,2.6-0.9,3.1-2l3.1,1.5
		c-0.9,1.8-2.7,3.8-6.2,3.8c-4.2,0-7.5-2.9-7.5-7.2s3.3-7.2,7.5-7.2c3.5,0,5.3,1.9,6.2,3.8l-3.1,1.5c-0.5-1.1-1.7-2-3.1-2
		c-2.2,0-3.8,1.8-3.8,4C30.6,94.2,32.3,96,34.4,96z M49,99.2c-4.3,0-7.5-3-7.5-7.2c0-4.3,3.2-7.2,7.5-7.2s7.5,3,7.5,7.2
		C56.4,96.2,53.2,99.2,49,99.2z M67.2,98.9l-0.7-2.1h-5.8L60,98.9h-3.9l5.3-14h4.5l5.3,14H67.2z M81.4,98.9h-9.2v-14h3.6v10.8h5.6
		V98.9z"/>
	<path d="M111.5,111.6h6.3v-6.3V14.7V8.4h-6.3H21h-6.3v6.3v90.6v6.3H21H111.5z M21,74.7V17v-2.3h90.6V17v57.7v30.6H21V74.7z"/>
	<path d="M34.4,87.9c1.4,0,2.6,0.9,3.1,2l3.1-1.5c-0.9-1.8-2.7-3.8-6.2-3.8c-4.2,0-7.5,2.9-7.5,7.2s3.3,7.2,7.5,7.2
		c3.5,0,5.3-1.9,6.2-3.8l-3.1-1.5c-0.5,1.1-1.7,2-3.1,2c-2.2,0-3.8-1.8-3.8-4C30.6,89.7,32.3,87.9,34.4,87.9z"/>
	<path d="M49,84.7c-4.3,0-7.5,3-7.5,7.2c0,4.3,3.2,7.2,7.5,7.2s7.5-3,7.5-7.2C56.4,87.7,53.2,84.7,49,84.7z M49,96
		c-2.3,0-3.8-1.8-3.8-4c0-2.3,1.5-4,3.8-4s3.8,1.8,3.8,4S51.3,96,49,96z"/>
	<path d="M61.4,85l-5.3,14H60l0.7-2.1h5.8l0.7,2.1h3.9l-5.3-14H61.4z M61.7,93.8l1.9-5.7l2,5.7H61.7z"/>
	<polygon points="75.8,85 72.2,85 72.2,98.9 81.4,98.9 81.4,95.8 75.8,95.8 	"/>
	<path class="st1" d="M57.8,34.7c0.5-1,1-2.1,1.5-3.1c-2.4-0.6-4.9-1.2-7.3-1.8c-0.1,0-0.3-0.1-0.4-0.1h-0.1c-3.3,1.2-4.7,3-5.6,5.2
		c4,0.7,8.1,1,12.1,1C57.7,35.7,57.6,35.2,57.8,34.7z"/>
	<path class="st1" d="M60.5,36c0.6,0,0.9,0.4,1,0.8c0.8,0.5,1.6,1.1,2.3,1.8c0-0.1,0.1-0.1,0.1-0.2c0.7-1.2,2.5-0.1,1.8,1.1
		c-0.2,0.3-0.4,0.5-0.6,0.8c1.6,2.3,2.4,5.1,2.2,8l0,0c0.7-0.8,2.2-1.5,2.7-2.4c0.5-0.4,0.9-0.8,1.4-1.2c-1.1-1.3-2.3-2.5-3.4-3.8
		c-2.5-0.9-3.1-4.2-0.7-5.7c3.3-2.1-4.6-2.8-5.8-3.1h-0.1c-0.6,1.2-1.2,2.4-1.8,3.7l0,0c0.1,0,0.2,0.1,0.3,0.2
		C60.1,36,60.3,36,60.5,36z"/>
	<path class="st1" d="M82.8,42.9c0.7-0.1,1,0.5,1,1.1c1.1-0.7,2.2-1.5,3.2-2.2c1.1-0.8,2.2,1.1,1.1,1.8c-1,0.6-1.9,1.3-2.9,1.9
		c0.1,0.1,0.2,0.2,0.3,0.3c0.9,1.6,1.8,3.2,2.7,4.8c1,0.2,2,0.7,2.8,0.3c1.6-0.8,1.1-2.6,0.7-4.4C91,43.2,89.3,40.4,87,38
		c-0.7,0-1.4-0.1-2.3-0.5c-1.4-0.6-5.7-5.1-6.8-0.9c-0.3,1-0.9,1.6-1.6,2c1.2,1.2,2,2.7,2.1,4.6L82.8,42.9z"/>
	<path class="st1" d="M81.1,55.3c0.7-0.8,1-2,1.8-2.8c0.9-0.9,1.8-1.5,2.9-1.8c-0.7-1.3-1.4-2.6-2.2-3.9c-0.1-0.2-0.1-0.4-0.1-0.6
		c-0.6-0.1-1-0.7-0.8-1.3l-4.5,0.3c-0.4,1.5-1.3,2.7-2.3,3.9c-0.6,0.7-1.2,1.3-1.7,1.9c0.6,0.5,1,1.3,0.9,2.3
		C75,57.5,78.9,58,81.1,55.3z"/>
	<path class="st1" d="M50.4,43.8c0.2-0.3,0.6-0.4,1-0.3c4.1,1.2,8.4-0.1,11.1-3.2c-0.8-0.9-1.8-1.7-3-2.3c-4.8,0.1-9.6-0.3-14.4-1.1
		c-0.5,1.5-0.9,3.2-1.7,4.9c-0.3,0.6-0.7,1.2-1.2,1.7C45.1,42.3,48.1,42.5,50.4,43.8z"/>
	<path class="st1" d="M52.5,49.9c-1.1-4.3-5.6-6.5-9.6-4.3c-0.8,0.4-1.5-0.2-1.6-0.9c-1.1,1.3-2.1,2.6-1.6,4.5
		C41.2,56.3,48,51.1,52.5,49.9z"/>
	<path class="st1" d="M64.9,50.4c0.9-2.9,0.4-5.9-1.1-8.4c-2.8,2.9-6.8,4.4-10.9,3.9c0.8,1.1,1.5,2.3,1.7,3.8
		c1.5,0.2,2.7,0.9,3.8,1.9c2.2,1.9,2.2,4.8,4.9,3.1c1.1-0.7,1.7-1.9,2.3-3.1C65.1,51.5,64.7,51,64.9,50.4z"/>
	<path d="M50.9,57.9c3.3-1.9,3.1-1.6,5.6,1.3c1.2,1.4,2.3,2.8,4.2,3.3c4.1,1.2,7-1.5,9-4.8c2.1,5.1,8.2,7.9,13.5,4.4
		c1.7-1.1,2.2-3,3.6-4.1c1.6-1.3,2.5,0.1,4.5,0.1c3.6,0.1,6.1-3,6.7-6.3c1.4-7.4-3.2-17.3-10-20.2c-2.5-1.1-5.1-3.4-8.3-3.3
		c-2.1,0.1-3.8,0.9-5.2,2.2C71,25.6,59,25.2,53.6,23.9c-0.6-0.1-1.1-0.1-1.5,0c-0.6-0.3-1.4-0.4-2.3-0.1c-4.9,1.8-9.1,3.8-11.4,8.7
		c-0.4,0.9-0.4,2.1-0.7,3.1c-3.3,11.7-0.9,2.2-3.1,6.4c-0.9,1.8-2.1,2.4-2.2,4.9c-0.2,4.4,4,9.8,7.5,12C44.2,61.4,47.2,60,50.9,57.9
		z M78,36.7c1.1-4.2,5.5,0.3,6.8,0.9c0.9,0.4,1.6,0.5,2.3,0.5c2.3,2.4,3.9,5.2,4.7,8.5c0.4,1.8,0.9,3.6-0.7,4.4
		c-0.8,0.4-1.9-0.1-2.8-0.3c-0.9-1.6-1.8-3.2-2.7-4.8c-0.1-0.1-0.2-0.3-0.3-0.3c1-0.6,1.9-1.3,2.9-1.9c1.1-0.8,0.1-2.6-1.1-1.8
		c-1.1,0.7-2.2,1.5-3.2,2.2c0-0.6-0.3-1.1-1-1.1l-4.3,0.3c-0.1-1.9-0.9-3.4-2.1-4.6C77.1,38.3,77.7,37.7,78,36.7z M76,49.2
		c1-1.1,1.9-2.4,2.3-3.9l4.5-0.3c-0.1,0.6,0.2,1.3,0.8,1.3c0,0.2,0,0.4,0.1,0.6c0.7,1.3,1.4,2.6,2.2,3.9c-1.1,0.3-2.1,0.9-2.9,1.8
		c-0.8,0.8-1.1,1.9-1.8,2.8c-2.2,2.7-6.1,2.2-5.9-2c0-1-0.3-1.8-0.9-2.3C74.8,50.5,75.4,49.8,76,49.2z M63.3,54.7
		c-2.7,1.7-2.7-1.2-4.9-3.1c-1.1-0.9-2.3-1.7-3.8-1.9c-0.3-1.5-0.9-2.8-1.7-3.8c4.1,0.5,8.1-1,10.9-3.9c1.5,2.5,2,5.5,1.1,8.4
		c-0.2,0.6,0.2,1.1,0.7,1.2C65.1,52.9,64.4,54.1,63.3,54.7z M59.6,35.8c0.6-1.2,1.2-2.4,1.8-3.7h0.1c1.3,0.3,9.1,1,5.8,3.1
		c-2.4,1.5-1.8,4.8,0.7,5.7c1.1,1.3,2.3,2.5,3.4,3.8c-0.5,0.4-0.9,0.8-1.4,1.2c-0.5,0.9-2,1.6-2.7,2.4l0,0c0.2-2.9-0.6-5.7-2.2-8
		c0.2-0.3,0.4-0.5,0.6-0.8c0.7-1.2-1.1-2.2-1.8-1.1c0,0.1-0.1,0.1-0.1,0.2c-0.7-0.7-1.5-1.3-2.3-1.8c-0.1-0.5-0.4-0.9-1-0.8
		c-0.2,0-0.4,0-0.6,0C59.8,35.9,59.7,35.9,59.6,35.8L59.6,35.8z M51.6,29.8L51.6,29.8c0.2,0,0.3,0.1,0.5,0.1
		c2.4,0.6,4.9,1.2,7.3,1.8c-0.5,1-1,2.1-1.5,3.1c-0.3,0.5-0.1,1,0.3,1.3c-4.1,0-8.1-0.3-12.1-1C46.9,32.8,48.3,31,51.6,29.8z
		 M43.5,41.9c0.8-1.7,1.2-3.3,1.7-4.9c4.8,0.8,9.5,1.2,14.4,1.1c1.1,0.6,2.1,1.3,3,2.3c-2.8,3.1-7,4.4-11.1,3.2
		c-0.4-0.1-0.8,0-1,0.3c-2.4-1.3-5.3-1.5-8.1-0.2C42.8,43,43.3,42.5,43.5,41.9z M41.3,44.7c0.1,0.7,0.8,1.3,1.6,0.9
		c4.1-2.2,8.5,0,9.6,4.3c-4.5,1.2-11.3,6.4-12.8-0.7C39.3,47.4,40.2,46,41.3,44.7z"/>
</g>
</svg>
