<?xml version="1.0" encoding="utf-8"?>
<!-- Generator: Adobe Illustrator 23.0.1, SVG Export Plug-In . SVG Version: 6.00 Build 0)  -->
<svg version="1.1" id="Layer_1" xmlns="http://www.w3.org/2000/svg" xmlns:xlink="http://www.w3.org/1999/xlink" x="0px" y="0px"
	 viewBox="0 0 300 120" style="enable-background:new 0 0 300 120;" xml:space="preserve">
<style type="text/css">
	.st0{fill:none;}
	.st1{fill:#FFFFFF;}
</style>
<g>
	<path class="st0" d="M245.6,95.4h-3c-0.8,0-1.5,0.2-1.9,0.6c-0.5,0.4-0.7,1-0.7,1.7c0,0.6,0.2,1.1,0.6,1.5c0.4,0.4,1.1,0.6,2.1,0.6
		c0.8,0,1.5-0.2,2.1-0.6c0.6-0.4,0.9-1.1,0.9-2v-1.8H245.6z"/>
	<path class="st0" d="M264.4,28.4c2.4,0,3.5-1.6,3.5-4.9c0-1.5-0.3-2.6-0.8-3.4c-0.6-0.8-1.5-1.2-2.7-1.2s-2.1,0.4-2.7,1.2
		c-0.6,0.8-0.8,2-0.8,3.5c0,1.7,0.3,2.9,0.9,3.7C262.3,28,263.2,28.4,264.4,28.4z"/>
	<path class="st0" d="M264.4,33c-1.2,0-2.2,0.4-2.8,1.3s-1,2.2-1,4c0,2.1,0.3,3.5,1,4.4c0.7,0.8,1.6,1.2,2.8,1.2
		c1.4,0,2.3-0.5,2.9-1.4c0.6-1,0.9-2.4,0.9-4.3C268.1,34.8,266.9,33,264.4,33z"/>
	<path class="st0" d="M150.5,34.4v9.3c1.3-0.2,2.2-0.7,2.6-1.6c0.5-0.8,0.7-1.8,0.7-3c0-1.3-0.3-2.3-0.9-2.9
		C152.4,35.5,151.6,34.9,150.5,34.4z"/>
	<path class="st0" d="M145.1,23.5c0,0.9,0.3,1.7,0.8,2.3c0.5,0.6,1.3,1.2,2.3,1.6v-8.3c-1,0.2-1.8,0.7-2.3,1.5
		C145.4,21.4,145.1,22.4,145.1,23.5z"/>
	<path class="st0" d="M150.5,89v9.3c1.3-0.2,2.2-0.7,2.6-1.6c0.5-0.8,0.7-1.8,0.7-3c0-1.3-0.3-2.3-0.9-2.9
		C152.4,90,151.6,89.4,150.5,89z"/>
	<path class="st0" d="M145.1,78c0,0.9,0.3,1.7,0.8,2.3s1.3,1.2,2.3,1.6v-8.3c-1,0.2-1.8,0.7-2.3,1.5C145.4,75.9,145.1,76.9,145.1,78
		z"/>
	<path class="st0" d="M172.8,82.9c2.4,0,3.5-1.6,3.5-4.9c0-1.5-0.3-2.6-0.8-3.4c-0.6-0.8-1.5-1.2-2.7-1.2s-2.1,0.4-2.7,1.2
		c-0.6,0.8-0.8,2-0.8,3.5c0,1.7,0.3,2.9,0.9,3.7C170.7,82.5,171.6,82.9,172.8,82.9z"/>
	<path class="st0" d="M196.3,43.9c1,0,1.9-0.3,2.5-0.9c0.6-0.6,1-1.5,1-2.6V22.5c0-1.1-0.3-2-1-2.6c-0.6-0.6-1.5-0.9-2.5-0.9
		s-1.9,0.3-2.5,0.9s-1,1.5-1,2.6v17.9c0,1.1,0.3,2,1,2.6C194.4,43.6,195.2,43.9,196.3,43.9z"/>
	<path class="st0" d="M196.3,98.4c1,0,1.9-0.3,2.5-0.9c0.6-0.6,1-1.5,1-2.6V77c0-1.1-0.3-2-1-2.6c-0.6-0.6-1.5-0.9-2.5-0.9
		s-1.9,0.3-2.5,0.9c-0.6,0.6-1,1.5-1,2.6v17.9c0,1.1,0.3,2,1,2.6C194.4,98.1,195.2,98.4,196.3,98.4z"/>
	<path class="st0" d="M172.8,98.5c1.4,0,2.3-0.5,2.9-1.4c0.6-1,0.9-2.4,0.9-4.3c0-3.5-1.3-5.2-3.8-5.2c-1.2,0-2.2,0.4-2.8,1.3
		s-1,2.2-1,4c0,2.1,0.3,3.5,1,4.4C170.7,98,171.6,98.5,172.8,98.5z"/>
	<path d="M157.6,32.4c-0.7-0.8-1.6-1.6-2.8-2.3c-1.2-0.7-2.6-1.3-4.3-1.9v-9.1c1.9,0.3,3.4,1.3,4.4,3.1l4.2-3.1
		c-0.7-1.4-1.8-2.6-3.2-3.6s-3.2-1.6-5.4-1.8v-3.6h-2.3v3.6c-1.3,0.1-2.5,0.5-3.6,1s-2,1.2-2.7,2.1c-0.8,0.9-1.3,1.9-1.8,3
		c-0.4,1.2-0.6,2.4-0.6,3.7c0,1.3,0.2,2.5,0.5,3.4c0.4,1,0.9,1.9,1.6,2.7c0.7,0.8,1.6,1.5,2.7,2.1c1.1,0.6,2.4,1.2,3.9,1.7v10.2
		c-1.1-0.2-2.1-0.6-2.9-1.3c-0.8-0.7-1.5-1.6-2.1-2.6l-4.6,2.9c1,1.8,2.2,3.3,3.8,4.4c1.6,1.1,3.5,1.8,5.8,1.9v4.8h2.3v-4.8
		c3-0.2,5.2-1.2,6.8-3s2.3-4.2,2.3-7.2c0-1.3-0.2-2.5-0.5-3.6C158.8,34.2,158.3,33.3,157.6,32.4z M148.3,27.4c-1-0.5-1.8-1-2.3-1.6
		s-0.8-1.4-0.8-2.3c0-1.1,0.3-2.1,0.8-2.8c0.5-0.8,1.3-1.3,2.3-1.5V27.4z M153.2,42.1c-0.5,0.8-1.4,1.4-2.6,1.6v-9.3
		c1.1,0.5,1.9,1,2.5,1.7s0.9,1.7,0.9,2.9C153.9,40.3,153.7,41.3,153.2,42.1z"/>
	<polygon points="177.4,48.9 177.4,13.9 172.2,13.9 167,17.7 167,23.7 171.9,20.1 171.9,48.9 	"/>
	<path d="M189.9,46.8c0.8,0.8,1.8,1.3,2.9,1.7c1.1,0.4,2.2,0.6,3.4,0.6s2.4-0.2,3.4-0.6c1.1-0.4,2-1,2.9-1.7c0.8-0.8,1.5-1.7,2-2.7
		c0.5-1.1,0.7-2.3,0.7-3.7v-18c0-1.4-0.2-2.7-0.7-3.7c-0.5-1.1-1.1-2-2-2.8c-0.8-0.8-1.8-1.3-2.9-1.7c-1.1-0.4-2.3-0.6-3.5-0.6
		s-2.3,0.2-3.4,0.6s-2,1-2.9,1.7c-0.8,0.8-1.5,1.7-2,2.8c-0.5,1.1-0.7,2.3-0.7,3.7v18c0,1.4,0.2,2.6,0.7,3.7
		C188.5,45.2,189.1,46.1,189.9,46.8z M192.8,22.4c0-1.1,0.3-2,1-2.6c0.6-0.6,1.5-0.9,2.5-0.9s1.9,0.3,2.5,0.9s1,1.5,1,2.6v17.9
		c0,1.1-0.3,2-1,2.6c-0.6,0.6-1.5,0.9-2.5,0.9s-1.9-0.3-2.5-0.9c-0.6-0.6-1-1.5-1-2.6V22.4z"/>
	<path d="M230.1,40.5l4.2,8.4h6.3l-7.5-12.7l7.2-12.2H234l-3.8,7.9h-0.1l-3.8-7.9h-6.4c1.2,2,2.4,4.1,3.6,6.1c1.2,2,2.4,4,3.6,6.1
		l-7.5,12.7h6.3L230.1,40.5z"/>
	<path d="M273,34c-0.3-0.7-0.6-1.4-1.1-1.9c-0.5-0.6-1.1-1-1.8-1.3v-0.1c1.3-0.7,2.1-1.7,2.6-3s0.7-2.6,0.7-4.2
		c0-1.7-0.2-3.2-0.7-4.4c-0.4-1.2-1.1-2.2-1.9-3s-1.8-1.4-2.9-1.8s-2.4-0.6-3.7-0.6c-2.7,0-4.9,0.8-6.5,2.5
		c-1.7,1.7-2.5,4.1-2.5,7.3c0,1.6,0.2,3,0.6,4.2c0.4,1.2,1.3,2.2,2.7,3v0.1c-1.4,0.7-2.4,1.7-2.9,3.2s-0.8,3.1-0.8,4.9
		c0,1.9,0.3,3.5,0.8,4.8s1.2,2.4,2,3.2c0.9,0.8,1.8,1.4,3,1.8c1.1,0.4,2.3,0.5,3.6,0.5c1.2,0,2.4-0.2,3.5-0.5c1.1-0.4,2.2-0.9,3-1.8
		c0.9-0.8,1.6-1.9,2.1-3.2s0.8-2.9,0.8-4.8c0-0.9-0.1-1.7-0.2-2.5C273.5,35.5,273.3,34.7,273,34z M261.7,20.1
		c0.6-0.8,1.4-1.2,2.7-1.2c1.3,0,2.2,0.4,2.7,1.2c0.6,0.8,0.8,1.9,0.8,3.4c0,3.3-1.2,4.9-3.5,4.9c-1.2,0-2.1-0.4-2.6-1.1
		c-0.6-0.7-0.9-2-0.9-3.7C260.9,22.1,261.1,21,261.7,20.1z M267.3,42.5c-0.6,1-1.6,1.4-2.9,1.4c-1.2,0-2.1-0.4-2.8-1.2
		c-0.7-0.8-1-2.3-1-4.4c0-1.8,0.3-3.2,1-4s1.6-1.3,2.8-1.3c2.5,0,3.8,1.7,3.8,5.2C268.1,40.1,267.9,41.6,267.3,42.5z"/>
	<path d="M157.6,86.9c-0.7-0.8-1.6-1.6-2.8-2.3s-2.6-1.3-4.3-1.9v-9.1c1.9,0.3,3.4,1.3,4.4,3.1l4.2-3.1c-0.7-1.4-1.8-2.6-3.2-3.6
		s-3.2-1.6-5.4-1.8v-3.6h-2.3v3.6c-1.3,0.1-2.5,0.5-3.6,1s-2,1.2-2.7,2.1c-0.8,0.9-1.3,1.9-1.8,3s-0.6,2.4-0.6,3.7s0.2,2.5,0.5,3.4
		c0.4,1,0.9,1.9,1.6,2.7c0.7,0.8,1.6,1.5,2.7,2.1c1.1,0.6,2.4,1.2,3.9,1.7v10.2c-1.1-0.2-2.1-0.6-2.9-1.3c-0.8-0.7-1.5-1.6-2.1-2.6
		l-4.6,2.9c1,1.8,2.2,3.3,3.8,4.4c1.6,1.1,3.5,1.8,5.8,1.9v4.8h2.3v-4.8c3-0.2,5.2-1.2,6.8-3s2.3-4.2,2.3-7.2c0-1.3-0.2-2.5-0.5-3.6
		C158.8,88.7,158.3,87.8,157.6,86.9z M148.3,81.9c-1-0.5-1.8-1-2.3-1.6s-0.8-1.4-0.8-2.3c0-1.1,0.3-2.1,0.8-2.8
		c0.5-0.8,1.3-1.3,2.3-1.5V81.9z M153.2,96.6c-0.5,0.8-1.4,1.4-2.6,1.6V89c1.1,0.5,1.9,1,2.5,1.7s0.9,1.7,0.9,2.9
		C153.9,94.8,153.7,95.8,153.2,96.6z"/>
	<path d="M166.2,101.4c0.9,0.8,1.8,1.4,3,1.8c1.1,0.4,2.3,0.5,3.6,0.5c1.2,0,2.4-0.2,3.5-0.5c1.1-0.4,2.2-0.9,3-1.8
		c0.9-0.8,1.6-1.9,2.1-3.2s0.8-2.9,0.8-4.8c0-0.9-0.1-1.7-0.2-2.5c-0.1-0.8-0.3-1.6-0.6-2.3s-0.6-1.4-1.1-1.9
		c-0.5-0.6-1.1-1-1.8-1.3v-0.1c1.3-0.7,2.1-1.7,2.6-3c0.5-1.2,0.7-2.6,0.7-4.2c0-1.7-0.2-3.2-0.7-4.4c-0.4-1.2-1.1-2.2-1.9-3
		c-0.8-0.8-1.8-1.4-2.9-1.8c-1.1-0.4-2.4-0.6-3.7-0.6c-2.7,0-4.9,0.8-6.5,2.5c-1.7,1.7-2.5,4.1-2.5,7.3c0,1.6,0.2,3,0.6,4.2
		c0.4,1.2,1.3,2.2,2.7,3v0.1c-1.4,0.7-2.4,1.7-2.9,3.2s-0.8,3.1-0.8,4.9c0,1.9,0.3,3.5,0.8,4.8C164.7,99.5,165.3,100.5,166.2,101.4z
		 M170.1,74.6c0.6-0.8,1.4-1.2,2.7-1.2s2.2,0.4,2.7,1.2c0.6,0.8,0.8,1.9,0.8,3.4c0,3.3-1.2,4.9-3.5,4.9c-1.2,0-2.1-0.4-2.6-1.1
		c-0.6-0.7-0.9-2-0.9-3.7C169.3,76.6,169.6,75.5,170.1,74.6z M170,88.9c0.7-0.9,1.6-1.3,2.8-1.3c2.5,0,3.8,1.7,3.8,5.2
		c0,1.9-0.3,3.3-0.9,4.3c-0.6,1-1.6,1.4-2.9,1.4c-1.2,0-2.1-0.4-2.8-1.2s-1-2.3-1-4.4C168.9,91.1,169.3,89.7,170,88.9z"/>
	<path d="M187.3,94.9c0,1.4,0.2,2.6,0.7,3.7c0.5,1.1,1.1,2,2,2.7c0.8,0.8,1.8,1.3,2.9,1.7c1.1,0.4,2.2,0.6,3.4,0.6s2.4-0.2,3.4-0.6
		c1.1-0.4,2-1,2.9-1.7c0.8-0.8,1.5-1.7,2-2.7c0.5-1.1,0.7-2.3,0.7-3.7v-18c0-1.4-0.2-2.7-0.7-3.7c-0.5-1.1-1.1-2-2-2.8
		c-0.8-0.8-1.8-1.3-2.9-1.7c-1.1-0.4-2.3-0.6-3.5-0.6s-2.3,0.2-3.4,0.6s-2,1-2.9,1.7c-0.8,0.8-1.5,1.7-2,2.8s-0.7,2.3-0.7,3.7v18
		H187.3z M192.8,76.9c0-1.1,0.3-2,1-2.6c0.6-0.6,1.5-0.9,2.5-0.9s1.9,0.3,2.5,0.9c0.6,0.6,1,1.5,1,2.6v17.9c0,1.1-0.3,2-1,2.6
		c-0.6,0.6-1.5,0.9-2.5,0.9s-1.9-0.3-2.5-0.9c-0.6-0.6-1-1.5-1-2.6V76.9z"/>
	<polygon points="219.2,76 215.9,76 207.7,105 210.9,105 	"/>
	<path d="M225.2,89.9c0.2-0.5,0.5-0.9,1-1.2c0.4-0.3,0.9-0.4,1.6-0.4c1.1,0,2,0.6,2.5,1.8c0.1-0.1,0.3-0.2,0.7-0.4
		c0.3-0.2,0.7-0.4,1.1-0.5c0.4-0.2,0.8-0.4,1.1-0.5c0.3-0.2,0.6-0.3,0.7-0.4c-0.5-1.2-1.3-2.2-2.4-2.9c-1.1-0.7-2.4-1-3.8-1
		c-1.3,0-2.4,0.2-3.3,0.7c-0.9,0.5-1.6,1.1-2.2,1.9c-0.6,0.8-1,1.8-1.2,3c-0.3,1.2-0.4,2.4-0.4,3.8c0,1.4,0.1,2.7,0.3,3.9
		s0.6,2.2,1.1,3s1.3,1.5,2.2,2s2.1,0.7,3.5,0.7c1.5,0,2.7-0.3,3.8-1s1.9-1.6,2.4-2.8c-0.1-0.1-0.4-0.2-0.7-0.4s-0.7-0.3-1.1-0.5
		c-0.4-0.2-0.8-0.4-1.1-0.5c-0.3-0.2-0.6-0.3-0.7-0.4c-0.3,0.5-0.6,1-1,1.3s-0.9,0.5-1.5,0.5s-1.1-0.1-1.5-0.4
		c-0.4-0.3-0.7-0.7-0.9-1.2s-0.4-1.1-0.5-1.8s-0.1-1.5-0.1-2.3s0-1.6,0.1-2.2C224.9,91,225,90.4,225.2,89.9z"/>
	<path d="M245.6,102v1.4h4.2V90.3c0-1.1-0.2-2-0.5-2.8c-0.4-0.7-0.8-1.3-1.4-1.8c-0.6-0.5-1.3-0.8-2.2-1c-0.8-0.2-1.7-0.3-2.7-0.3
		c-1.4,0-2.7,0.3-3.8,0.8c-1.1,0.6-2,1.4-2.6,2.6c0.1,0.1,0.3,0.2,0.6,0.4s0.6,0.4,0.9,0.6c0.3,0.2,0.7,0.4,1,0.6
		c0.3,0.2,0.5,0.3,0.6,0.4c0.3-0.6,0.8-1.1,1.4-1.3c0.6-0.2,1.2-0.4,1.9-0.4c1,0,1.7,0.2,2.1,0.7c0.4,0.4,0.6,1,0.6,1.6v1.7h-3.2
		c-1.1,0-2.1,0.2-2.9,0.5c-0.8,0.3-1.5,0.7-2,1.2s-0.9,1.1-1.2,1.8S236,97,236,97.8c0,1.7,0.4,3,1.3,4.1c0.9,1,2.2,1.5,4.1,1.5
		c0.8,0,1.5-0.1,2.3-0.4c0.8-0.3,1.4-0.7,1.8-1.3L245.6,102z M242.6,99.8c-1,0-1.6-0.2-2.1-0.6c-0.4-0.4-0.6-0.9-0.6-1.5
		c0-0.8,0.2-1.3,0.7-1.7s1.1-0.6,1.9-0.6h3v1.8c0,0.9-0.3,1.6-0.9,2C244.1,99.6,243.4,99.8,242.6,99.8z"/>
	<path d="M257.7,92.2c0-1.3,0.3-2.2,0.9-2.7c0.6-0.6,1.5-0.9,2.5-0.9c0.4,0,0.7,0,1,0.1s0.7,0.2,1,0.4l0.8-4.1
		c-0.3-0.2-0.6-0.3-0.9-0.4c-0.3-0.1-0.7-0.1-1.1-0.1c-0.9,0-1.7,0.2-2.5,0.5c-0.7,0.3-1.3,1-1.8,1.9h-0.1v-2.1h-4.1v18.7h4.1V92.2
		H257.7z"/>
	<path class="st1" d="M64.2,90.4c-2.3,0-3.8,1.8-3.8,4c0,2.3,1.5,4,3.8,4c2.3,0,3.8-1.8,3.8-4S66.5,90.4,64.2,90.4z"/>
	<path class="st1" d="M59.5,73.6c-2.3,0-3.8,1.8-3.8,4c0,2.3,1.5,4,3.8,4s3.8-1.8,3.8-4C63.3,75.4,61.8,73.6,59.5,73.6z"/>
	<path class="st1" d="M88.5,73.8h-2.3v7.7h2.3c2.5,0,3.9-1.8,3.9-3.9C92.4,75.5,91.1,73.8,88.5,73.8z"/>
	<path class="st1" d="M77,75.3c0-1-0.8-1.6-1.7-1.6h-2.8v3.1h2.8C76.2,76.9,77,76.2,77,75.3z"/>
	<path class="st1" d="M57.4,40.2c4-0.3,8.1-2.8,11.1-5.3c0.1-0.2,0.3-0.5,0.5-0.7c5.4-4.6-2-9.5-6.3-10.5c-3.6-0.9-7.2-0.7-10.7,0.1
		c-3.8,2.2-4,5.3-0.8,9.3C50.6,38.7,52.7,41,57.4,40.2z M56.2,28.3c1.9-1.9,5-2.2,7.4-0.9c2.3,1.4,0.2,5-2.1,3.6
		c-1.7-1-3.4,0.8-2.4,2.5c1.4,2.3-2.2,4.4-3.6,2.1C54,33.4,54.3,30.2,56.2,28.3z"/>
	<path class="st1" d="M123.1,72.4V40c-6.8,8.3-14.3,15.9-22.6,22.8c-0.5,0.4-1,0.5-1.6,0.5c-3.5,2.4-8.1,3.1-12.2,1.2
		c-2.5-1.1-4.4-3-5.7-5.3c-1.2,1.4-2.6,2.6-4.1,3.6c-1.2,0.8-2.4,0.1-2.9-1c-2,1.7-4.4,2.9-7.1,3.3c-7.6,1.2-15.5-3.9-15.9-11.9
		c-0.1-2.7,0.7-5.2,2.1-7.1c-1.6-0.3-3.2-0.8-4.7-1.6c-6.7-3.5-8.9-11.1-6.1-18c2.2-5.4,6.4-8.9,11-11.9H32.5v57.7v32.9h90.6V72.4z
		 M102.3,78.2v2.7h-5v-2.7H102.3z M59.5,70.4c2.1,0,3.9,0.7,5.2,1.9c1.4,1.3,2.2,3.1,2.2,5.3c0,4.3-3.2,7.2-7.5,7.2s-7.5-3-7.5-7.2
		c0-2.2,0.9-4,2.3-5.3C55.6,71.2,57.4,70.4,59.5,70.4z M45,70.4c2.3,0,3.8,0.8,4.9,1.9c0.6,0.6,1,1.2,1.3,1.8l-3.1,1.5
		c-0.5-1.1-1.7-2-3.1-2c-2.2,0-3.8,1.8-3.8,4c0,2.3,1.6,4,3.8,4c1.4,0,2.6-0.9,3.1-2l3.1,1.5c-0.9,1.8-2.7,3.8-6.2,3.8
		c-4.2,0-7.5-2.9-7.5-7.2c0-2.2,0.9-4,2.2-5.3C41.1,71.2,42.9,70.4,45,70.4z M52.7,101.4h-3.8l-2.1-8.8l-2.1,8.8h-3.8l-4-14h4
		l2.1,9.3l2.4-9.3h2.8l2.4,9.3l2.1-9.3h4.1L52.7,101.4z M64.2,101.7c-4.3,0-7.5-3-7.5-7.2c0-4.3,3.2-7.2,7.5-7.2s7.5,3,7.5,7.2
		C71.6,98.7,68.5,101.7,64.2,101.7z M72.4,84.7h-3.6V72.4v-1.7h7c1.7,0,3,0.7,3.9,1.7c0.6,0.8,1,1.8,1,3c0,2.4-1.5,3.7-2.8,4.2
		l2.8,5.1h-4.1L74.3,80h-1.8L72.4,84.7L72.4,84.7z M80.2,101.7c-4.3,0-7.5-3-7.5-7.2c0-4.3,3.2-7.2,7.5-7.2s7.5,3,7.5,7.2
		S84.5,101.7,80.2,101.7z M82.6,84.7V72.4v-1.7h5.9c2.1,0,3.9,0.6,5.2,1.7c1.5,1.2,2.4,3,2.4,5.3c0,4.3-3.2,7-7.5,7H82.6z
		 M95.4,101.4h-5.9v-14h5.9c4.4,0,7.6,2.6,7.6,7C103,98.8,99.8,101.4,95.4,101.4z"/>
	<path class="st1" d="M80.2,90.4c-2.3,0-3.8,1.8-3.8,4c0,2.3,1.5,4,3.8,4s3.8-1.8,3.8-4S82.6,90.4,80.2,90.4z"/>
	<path class="st1" d="M95.4,90.6h-2.3v7.7h2.3c2.5,0,3.9-1.8,3.9-3.9C99.3,92.3,98,90.6,95.4,90.6z"/>
	<path class="st1" d="M57.9,19c4.5,0,9,1,12.5,3.6c0.1,0.1,0.1,0.1,0.2,0.2c0.1-0.6,0.3-1.1,0.9-1.5l8.9-6.6H65.5
		C63,16.1,60.3,17.4,57.9,19z"/>
	<path class="st1" d="M79.6,54.3c-0.1-1.8,0.2-3.7,1-5.5c0.9-2.1,2.4-3.6,4.2-4.6c0-0.5,0.1-1,0.5-1.5c8-9.3,15.9-18.6,23.9-27.9
		H98.9c-9.2,8.1-17.4,18.3-27.1,25.6c0.4,0.2,0.8,0.4,1.2,0.6c3.4-3.4,7-6.6,10.9-9.4c0.7-0.5,1.4-0.5,1.9-0.2
		c1.4-1.9,2.8-3.8,4-5.9c1.3-2.3,5-0.2,3.6,2.1c-3.5,6.1-7.9,11.5-13.2,16.1c-1.2,1.1-2.8,0.4-3.4-0.7c-0.2,0.2-0.4,0.4-0.6,0.6
		c1.2,1.4,2.1,3.1,2.5,5.2c0.6,2.6,0.3,5.2-0.7,7.6C78.7,55.7,79.2,55,79.6,54.3z"/>
	<path class="st1" d="M123.1,14.7h-8.7c-0.1,0.4-0.2,0.7-0.5,1c-7.7,8.9-15.3,17.9-23,26.8c1.6,0,3.2,0.4,4.7,1.1
		c0.4-1,1.5-1.8,2.6-1.1c3.7-7,8.6-13.1,14.7-18.1c2.1-1.7,5,1.2,3,3c-6.1,5.1-10.9,11.1-14.5,18.2c1.9,2.4,2.9,5.4,2.8,8.5
		c5.1-4.7,9.9-9.8,14.4-15.2c-3.9,3.6-8.5,6.2-13.6,7.7c-2.6,0.7-3.7-3.3-1.1-4c5.6-1.6,10.3-4.7,14.2-9c1.5-1.7,3.7,0.1,3.4,1.9
		c0.5-0.7,1.1-1.4,1.6-2.1l0,0V14.7z"/>
	<path class="st1" d="M67,60.9c4.6-1.2,8.1-5.3,7.8-10.2c-0.1-1.8-0.9-3.4-2-4.6c-0.9,0-1.7-0.7-2-1.6c-1.2-0.7-2.5-1-3.9-1
		c-0.2,0.1-0.4,0.2-0.5,0.3c0.1,1.3-0.9,2.8-2.6,2.3c-5.5-1.5-10,3.7-8.3,9.1C57.1,59.8,62.5,62.1,67,60.9z M65.8,48.8
		c2.6-0.8,3.7,3.3,1.1,4c-1.2,0.4-1.4,1.6-1,2.6c0.4,1.1-0.5,2.3-1.5,2.6c-1.2,0.3-2.2-0.4-2.6-1.5C60.6,53.4,62.7,49.8,65.8,48.8z"
		/>
	<path class="st1" d="M73.6,24.9c-0.2,0.2-0.5,0.3-0.7,0.3c0.9,1.3,1.5,2.7,1.8,4.1c5-4.8,9.8-9.8,14.9-14.6H85
		c0.2,0.8,0,1.7-0.8,2.4C80.7,19.7,77.2,22.3,73.6,24.9z"/>
	<path class="st1" d="M89.3,61c8.8,2.8,14.3-8.9,7.5-14.4c-0.5,0.9-1.6,1.4-2.8,0.8c-4.2-2.1-7.5-0.2-9.1,2.9
		c0.5,0.4,0.7,1.1,0.4,1.9c-0.4,0.9-0.8,1.8-1.2,2.6C84.4,57.5,85.9,60,89.3,61z M88.7,51.7c0.7-0.2,1.5-0.4,2.2-0.6
		c2.6-0.6,3.7,3.4,1.1,4c-0.7,0.2-1.5,0.4-2.2,0.6C87.2,56.4,86.1,52.3,88.7,51.7z"/>
	<path d="M123.1,111.6h6.3v-6.3V14.7V8.4h-6.3H32.5h-6.3v6.3v90.6v6.3h6.3H123.1z M121.5,35.2c0.3-1.8-2-3.6-3.4-1.9
		c-3.8,4.4-8.6,7.5-14.2,9c-2.6,0.7-1.5,4.8,1.1,4c5.1-1.5,9.8-4.1,13.6-7.7c-4.5,5.4-9.3,10.4-14.4,15.2c0.1-3-0.9-6-2.8-8.5
		c3.6-7,8.4-13.1,14.5-18.2c2.1-1.7-0.9-4.7-3-3c-6.1,5.1-11,11.2-14.7,18.1c-1.1-0.6-2.2,0.1-2.6,1.1c-1.5-0.7-3.1-1-4.7-1.1
		c7.7-8.9,15.3-17.9,23-26.8c0.3-0.3,0.4-0.7,0.5-1h8.7v18.4l0,0C122.5,33.8,122,34.5,121.5,35.2z M78.7,48.7
		c-0.4-2-1.3-3.8-2.5-5.2c0.2-0.2,0.4-0.4,0.6-0.6c0.6,1.1,2.1,1.7,3.4,0.7c5.3-4.6,9.7-10,13.2-16.1c1.3-2.3-2.3-4.4-3.6-2.1
		c-1.2,2.1-2.5,4-4,5.9c-0.5-0.3-1.2-0.4-1.9,0.2c-3.9,2.9-7.5,6-10.9,9.4c-0.4-0.2-0.8-0.4-1.2-0.6c9.8-7.3,17.9-17.6,27.1-25.6
		h10.3c-8,9.3-15.9,18.6-23.9,27.9c-0.4,0.5-0.5,1-0.5,1.5c-1.7,1-3.2,2.6-4.2,4.6c-0.8,1.8-1.1,3.7-1,5.5c-0.5,0.7-1,1.4-1.6,2
		C79,54,79.3,51.4,78.7,48.7z M52,23.9c3.5-0.9,7.1-1,10.7-0.1c4.2,1,11.7,5.8,6.3,10.5c-0.3,0.2-0.4,0.5-0.5,0.7
		c-3,2.5-7.1,5-11.1,5.3c-4.7,0.8-6.8-1.5-6.2-7C48,29.1,48.3,26.1,52,23.9z M85,14.7h4.6c-5.1,4.8-9.9,9.9-14.9,14.6
		c-0.3-1.5-0.9-2.9-1.8-4.1c0.2-0.1,0.4-0.2,0.7-0.3c3.5-2.6,7.1-5.2,10.6-7.8C85.1,16.5,85.3,15.5,85,14.7z M71.5,21.3
		c-0.5,0.4-0.8,0.9-0.9,1.5c-0.1-0.1-0.1-0.1-0.2-0.2c-3.6-2.6-8.1-3.7-12.5-3.6c2.5-1.5,5.2-2.9,7.6-4.2h14.9L71.5,21.3z
		 M63.9,46.1c1.6,0.5,2.7-1,2.6-2.3c0.2-0.1,0.4-0.2,0.5-0.3c1.4,0,2.7,0.3,3.9,1c0.3,0.9,1.1,1.6,2,1.6c1.1,1.2,1.8,2.8,2,4.6
		c0.4,4.9-3.1,9-7.8,10.2c-4.6,1.1-9.9-1.1-11.4-5.7C53.8,49.8,58.3,44.6,63.9,46.1z M85.3,52.2c0.3-0.8,0.1-1.5-0.4-1.9
		c1.5-3,4.9-5,9.1-2.9c1.2,0.6,2.3,0,2.8-0.8c6.8,5.5,1.3,17.2-7.5,14.4c-3.4-1.1-4.9-3.5-5.2-6.2C84.6,54,85,53.1,85.3,52.2z
		 M32.5,72.4V14.7h20.8c-4.7,3-8.9,6.5-11,11.9c-2.8,6.9-0.6,14.5,6.1,18c1.5,0.8,3.1,1.3,4.7,1.6c-1.4,2-2.3,4.4-2.1,7.1
		c0.4,8,8.3,13.1,15.9,11.9c2.7-0.4,5.1-1.6,7.1-3.3c0.5,1.1,1.6,1.8,2.9,1c1.6-1,2.9-2.3,4.1-3.6c1.2,2.3,3.2,4.2,5.7,5.3
		c4,1.9,8.7,1.2,12.2-1.2c0.5,0,1.1-0.1,1.6-0.5c8.3-6.9,15.9-14.5,22.6-22.8v32.4v32.9H32.5V72.4z"/>
	<path d="M45,84.9c3.5,0,5.3-1.9,6.2-3.8l-3.1-1.5c-0.5,1.1-1.7,2-3.1,2c-2.2,0-3.8-1.8-3.8-4c0-2.3,1.6-4,3.8-4
		c1.4,0,2.6,0.9,3.1,2l3.1-1.5c-0.3-0.6-0.7-1.3-1.3-1.8c-1.1-1.1-2.6-1.9-4.9-1.9c-2.1,0-3.9,0.7-5.2,1.9c-1.4,1.3-2.2,3.1-2.2,5.3
		C37.5,82,40.8,84.9,45,84.9z"/>
	<path d="M59.5,84.9c4.3,0,7.5-3,7.5-7.2c0-2.2-0.8-4-2.2-5.3c-1.3-1.2-3.1-1.9-5.2-1.9c-2.1,0-3.9,0.7-5.2,1.9
		c-1.4,1.3-2.3,3.1-2.3,5.3C52,81.9,55.2,84.9,59.5,84.9z M59.5,81.7c-2.3,0-3.8-1.8-3.8-4c0-2.3,1.5-4,3.8-4s3.8,1.8,3.8,4
		S61.8,81.7,59.5,81.7z"/>
	<path d="M76.6,84.7h4.1l-2.8-5.1c1.3-0.5,2.8-1.8,2.8-4.2c0-1.1-0.4-2.2-1-3c-0.8-1-2.1-1.7-3.9-1.7h-7v1.7v12.3h3.6V80h1.8
		L76.6,84.7z M72.4,73.7h2.8c0.9,0,1.7,0.6,1.7,1.6s-0.8,1.6-1.7,1.6h-2.8V73.7z"/>
	<path d="M96.1,77.7c0-2.3-0.9-4.1-2.4-5.3c-1.3-1.1-3.1-1.7-5.2-1.7h-5.9v1.7v12.3h5.9C92.9,84.7,96.1,82,96.1,77.7z M88.5,81.5
		h-2.3v-7.7h2.3c2.6,0,3.9,1.7,3.9,3.8C92.4,79.7,91,81.5,88.5,81.5z"/>
	<rect x="97.3" y="78.2" width="5" height="2.7"/>
	<polygon points="50.5,96.8 48.2,87.4 45.4,87.4 43,96.8 40.9,87.4 36.8,87.4 40.8,101.4 44.7,101.4 46.8,92.7 48.9,101.4 
		52.7,101.4 56.7,87.4 52.6,87.4 	"/>
	<path d="M64.2,87.2c-4.3,0-7.5,3-7.5,7.2c0,4.3,3.2,7.2,7.5,7.2s7.5-3,7.5-7.2C71.6,90.2,68.5,87.2,64.2,87.2z M64.2,98.5
		c-2.3,0-3.8-1.8-3.8-4c0-2.3,1.5-4,3.8-4c2.3,0,3.8,1.8,3.8,4S66.5,98.5,64.2,98.5z"/>
	<path d="M80.2,87.2c-4.3,0-7.5,3-7.5,7.2c0,4.3,3.2,7.2,7.5,7.2s7.5-3,7.5-7.2S84.5,87.2,80.2,87.2z M80.2,98.5
		c-2.3,0-3.8-1.8-3.8-4c0-2.3,1.5-4,3.8-4s3.8,1.8,3.8,4S82.6,98.5,80.2,98.5z"/>
	<path d="M95.4,87.4h-5.9v14h5.9c4.4,0,7.5-2.7,7.5-7C103,90.1,99.8,87.4,95.4,87.4z M95.4,98.3h-2.3v-7.7h2.3
		c2.6,0,3.9,1.7,3.9,3.8C99.3,96.5,97.9,98.3,95.4,98.3z"/>
	<path d="M59,33.6c-1-1.7,0.7-3.5,2.4-2.5c2.3,1.4,4.4-2.2,2.1-3.6c-2.3-1.4-5.4-1.1-7.4,0.9c-1.9,1.9-2.2,5.1-0.8,7.4
		C56.9,37.9,60.5,35.9,59,33.6z"/>
	<path d="M64.4,58c1-0.3,1.9-1.5,1.5-2.6c-0.4-0.9-0.1-2.2,1-2.6c2.6-0.8,1.5-4.8-1.1-4c-3.1,0.9-5.2,4.5-3.9,7.7
		C62.3,57.6,63.3,58.3,64.4,58z"/>
	<path d="M89.9,55.7c0.7-0.2,1.5-0.4,2.2-0.6c2.6-0.6,1.5-4.7-1.1-4c-0.7,0.2-1.5,0.4-2.2,0.6C86.1,52.3,87.2,56.4,89.9,55.7z"/>
</g>
</svg>
