<?xml version="1.0" encoding="utf-8"?>
<!-- Generator: Adobe Illustrator 24.1.2, SVG Export Plug-In . SVG Version: 6.00 Build 0)  -->
<svg version="1.1" id="Layer_1" xmlns="http://www.w3.org/2000/svg" xmlns:xlink="http://www.w3.org/1999/xlink" x="0px" y="0px"
	 viewBox="0 0 153.3 120" style="enable-background:new 0 0 153.3 120;" xml:space="preserve">
<style type="text/css">
	.st0{fill:#FFFFFF;}
</style>
<g>
	<path class="st0" d="M64.2,90.4c-2.3,0-3.8,1.8-3.8,4c0,2.3,1.5,4,3.8,4c2.3,0,3.8-1.8,3.8-4S66.5,90.4,64.2,90.4z"/>
	<path class="st0" d="M57.4,40.2c4-0.3,8.1-2.8,11.1-5.3c0.1-0.2,0.3-0.5,0.5-0.7c5.4-4.6-2-9.5-6.3-10.5c-3.6-0.9-7.2-0.7-10.7,0.1
		c-3.8,2.2-4,5.3-0.8,9.3C50.6,38.7,52.7,41,57.4,40.2z M56.2,28.3c1.9-1.9,5-2.2,7.4-0.9c2.3,1.4,0.2,5-2.1,3.6
		c-1.7-1-3.4,0.8-2.4,2.5c1.4,2.3-2.2,4.4-3.6,2.1C54,33.4,54.3,30.2,56.2,28.3z"/>
	<path class="st0" d="M123.1,72.4V40c-6.8,8.3-14.3,15.9-22.6,22.8c-0.5,0.4-1,0.5-1.6,0.5c-3.5,2.4-8.1,3.1-12.2,1.2
		c-2.5-1.1-4.4-3-5.7-5.3c-1.2,1.4-2.6,2.6-4.1,3.6c-1.2,0.8-2.4,0.1-2.9-1c-2,1.7-4.4,2.9-7.1,3.3c-7.6,1.2-15.5-3.9-15.9-11.9
		c-0.1-2.7,0.7-5.2,2.1-7.1c-1.6-0.3-3.2-0.8-4.7-1.6c-6.7-3.5-8.9-11.1-6.1-18c2.2-5.4,6.4-8.9,11-11.9H32.5v57.7v32.9h90.6V72.4z
		 M52.7,101.4h-3.8l-2.1-8.8l-2.1,8.8h-3.8l-4-14h4l2.1,9.3l2.4-9.3h2.8l2.4,9.3l2.1-9.3h4.1L52.7,101.4z M64.2,101.7
		c-4.3,0-7.5-3-7.5-7.2c0-4.3,3.2-7.2,7.5-7.2s7.5,3,7.5,7.2C71.6,98.7,68.5,101.7,64.2,101.7z M80.2,101.7c-4.3,0-7.5-3-7.5-7.2
		c0-4.3,3.2-7.2,7.5-7.2s7.5,3,7.5,7.2S84.5,101.7,80.2,101.7z M95.4,101.4h-5.9v-14h5.9c4.4,0,7.6,2.6,7.6,7S99.8,101.4,95.4,101.4
		z"/>
	<path class="st0" d="M80.2,90.4c-2.3,0-3.8,1.8-3.8,4c0,2.3,1.5,4,3.8,4s3.8-1.8,3.8-4S82.6,90.4,80.2,90.4z"/>
	<path class="st0" d="M95.4,90.6h-2.3v7.7h2.3c2.5,0,3.9-1.8,3.9-3.9C99.3,92.3,98,90.6,95.4,90.6z"/>
	<path class="st0" d="M57.9,19c4.5,0,9,1,12.5,3.6c0.1,0.1,0.1,0.1,0.2,0.2c0.1-0.6,0.3-1.1,0.9-1.5l8.9-6.6H65.5
		C63,16.1,60.3,17.4,57.9,19z"/>
	<path class="st0" d="M79.6,54.3c-0.1-1.8,0.2-3.7,1-5.5c0.9-2.1,2.4-3.6,4.2-4.6c0-0.5,0.1-1,0.5-1.5c8-9.3,15.9-18.6,23.9-27.9
		H98.9c-9.2,8.1-17.4,18.3-27.1,25.6c0.4,0.2,0.8,0.4,1.2,0.6c3.4-3.4,7-6.6,10.9-9.4c0.7-0.5,1.4-0.5,1.9-0.2
		c1.4-1.9,2.8-3.8,4-5.9c1.3-2.3,5-0.2,3.6,2.1c-3.5,6.1-7.9,11.5-13.2,16.1c-1.2,1.1-2.8,0.4-3.4-0.7c-0.2,0.2-0.4,0.4-0.6,0.6
		c1.2,1.4,2.1,3.1,2.5,5.2c0.6,2.6,0.3,5.2-0.7,7.6C78.7,55.7,79.2,55,79.6,54.3z"/>
	<path class="st0" d="M123.1,14.7h-8.7c-0.1,0.4-0.2,0.7-0.5,1c-7.7,8.9-15.3,17.9-23,26.8c1.6,0,3.2,0.4,4.7,1.1
		c0.4-1,1.5-1.8,2.6-1.1c3.7-7,8.6-13.1,14.7-18.1c2.1-1.7,5,1.2,3,3c-6.1,5.1-10.9,11.1-14.5,18.2c1.9,2.4,2.9,5.4,2.8,8.5
		c5.1-4.7,9.9-9.8,14.4-15.2c-3.9,3.6-8.5,6.2-13.6,7.7c-2.6,0.7-3.7-3.3-1.1-4c5.6-1.6,10.3-4.7,14.2-9c1.5-1.7,3.7,0.1,3.4,1.9
		c0.5-0.7,1.1-1.4,1.6-2.1l0,0V14.7z"/>
	<path class="st0" d="M67,60.9c4.6-1.2,8.1-5.3,7.8-10.2c-0.1-1.8-0.9-3.4-2-4.6c-0.9,0-1.7-0.7-2-1.6c-1.2-0.7-2.5-1-3.9-1
		c-0.2,0.1-0.4,0.2-0.5,0.3c0.1,1.3-0.9,2.8-2.6,2.3c-5.5-1.5-10,3.7-8.3,9.1C57.1,59.8,62.5,62.1,67,60.9z M65.8,48.8
		c2.6-0.8,3.7,3.3,1.1,4c-1.2,0.4-1.4,1.6-1,2.6c0.4,1.1-0.5,2.3-1.5,2.6c-1.2,0.3-2.2-0.4-2.6-1.5C60.6,53.4,62.7,49.8,65.8,48.8z"
		/>
	<path class="st0" d="M73.6,24.9c-0.2,0.2-0.5,0.3-0.7,0.3c0.9,1.3,1.5,2.7,1.8,4.1c5-4.8,9.8-9.8,14.9-14.6H85
		c0.2,0.8,0,1.7-0.8,2.4C80.7,19.7,77.2,22.3,73.6,24.9z"/>
	<path class="st0" d="M89.3,61c8.8,2.8,14.3-8.9,7.5-14.4c-0.5,0.9-1.6,1.4-2.8,0.8c-4.2-2.1-7.5-0.2-9.1,2.9
		c0.5,0.4,0.7,1.1,0.4,1.9c-0.4,0.9-0.8,1.8-1.2,2.6C84.4,57.5,85.9,60,89.3,61z M88.7,51.7c0.7-0.2,1.5-0.4,2.2-0.6
		c2.6-0.6,3.7,3.4,1.1,4c-0.7,0.2-1.5,0.4-2.2,0.6C87.2,56.4,86.1,52.3,88.7,51.7z"/>
	<path d="M123.1,111.6h6.3v-6.3V14.7V8.4h-6.3H32.5h-6.3v6.3v90.6v6.3h6.3H123.1z M121.5,35.2c0.3-1.8-2-3.6-3.4-1.9
		c-3.8,4.4-8.6,7.5-14.2,9c-2.6,0.7-1.5,4.8,1.1,4c5.1-1.5,9.8-4.1,13.6-7.7c-4.5,5.4-9.3,10.4-14.4,15.2c0.1-3-0.9-6-2.8-8.5
		c3.6-7,8.4-13.1,14.5-18.2c2.1-1.7-0.9-4.7-3-3c-6.1,5.1-11,11.2-14.7,18.1c-1.1-0.6-2.2,0.1-2.6,1.1c-1.5-0.7-3.1-1-4.7-1.1
		c7.7-8.9,15.3-17.9,23-26.8c0.3-0.3,0.4-0.7,0.5-1h8.7v18.4l0,0C122.5,33.8,122,34.5,121.5,35.2z M78.7,48.7
		c-0.4-2-1.3-3.8-2.5-5.2c0.2-0.2,0.4-0.4,0.6-0.6c0.6,1.1,2.1,1.7,3.4,0.7c5.3-4.6,9.7-10,13.2-16.1c1.3-2.3-2.3-4.4-3.6-2.1
		c-1.2,2.1-2.5,4-4,5.9c-0.5-0.3-1.2-0.4-1.9,0.2c-3.9,2.9-7.5,6-10.9,9.4c-0.4-0.2-0.8-0.4-1.2-0.6c9.8-7.3,17.9-17.6,27.1-25.6
		h10.3c-8,9.3-15.9,18.6-23.9,27.9c-0.4,0.5-0.5,1-0.5,1.5c-1.7,1-3.2,2.6-4.2,4.6c-0.8,1.8-1.1,3.7-1,5.5c-0.5,0.7-1,1.4-1.6,2
		C79,54,79.3,51.4,78.7,48.7z M52,23.9c3.5-0.9,7.1-1,10.7-0.1c4.2,1,11.7,5.8,6.3,10.5c-0.3,0.2-0.4,0.5-0.5,0.7
		c-3,2.5-7.1,5-11.1,5.3c-4.7,0.8-6.8-1.5-6.2-7C48,29.1,48.3,26.1,52,23.9z M85,14.7h4.6c-5.1,4.8-9.9,9.9-14.9,14.6
		c-0.3-1.5-0.9-2.9-1.8-4.1c0.2-0.1,0.4-0.2,0.7-0.3c3.5-2.6,7.1-5.2,10.6-7.8C85.1,16.5,85.3,15.5,85,14.7z M71.5,21.3
		c-0.5,0.4-0.8,0.9-0.9,1.5c-0.1-0.1-0.1-0.1-0.2-0.2c-3.6-2.6-8.1-3.7-12.5-3.6c2.5-1.5,5.2-2.9,7.6-4.2h14.9L71.5,21.3z
		 M63.9,46.1c1.6,0.5,2.7-1,2.6-2.3c0.2-0.1,0.4-0.2,0.5-0.3c1.4,0,2.7,0.3,3.9,1c0.3,0.9,1.1,1.6,2,1.6c1.1,1.2,1.8,2.8,2,4.6
		c0.4,4.9-3.1,9-7.8,10.2c-4.6,1.1-9.9-1.1-11.4-5.7C53.8,49.8,58.3,44.6,63.9,46.1z M85.3,52.2c0.3-0.8,0.1-1.5-0.4-1.9
		c1.5-3,4.9-5,9.1-2.9c1.2,0.6,2.3,0,2.8-0.8c6.8,5.5,1.3,17.2-7.5,14.4c-3.4-1.1-4.9-3.5-5.2-6.2C84.6,54,85,53.1,85.3,52.2z
		 M32.5,72.4V14.7h20.8c-4.7,3-8.9,6.5-11,11.9c-2.8,6.9-0.6,14.5,6.1,18c1.5,0.8,3.1,1.3,4.7,1.6c-1.4,2-2.3,4.4-2.1,7.1
		c0.4,8,8.3,13.1,15.9,11.9c2.7-0.4,5.1-1.6,7.1-3.3c0.5,1.1,1.6,1.8,2.9,1c1.6-1,2.9-2.3,4.1-3.6c1.2,2.3,3.2,4.2,5.7,5.3
		c4,1.9,8.7,1.2,12.2-1.2c0.5,0,1.1-0.1,1.6-0.5c8.3-6.9,15.9-14.5,22.6-22.8v32.4v32.9H32.5V72.4z"/>
	<polygon points="50.5,96.8 48.2,87.4 45.4,87.4 43,96.8 40.9,87.4 36.8,87.4 40.8,101.4 44.7,101.4 46.8,92.7 48.9,101.4 
		52.7,101.4 56.7,87.4 52.6,87.4 	"/>
	<path d="M64.2,87.2c-4.3,0-7.5,3-7.5,7.2c0,4.3,3.2,7.2,7.5,7.2s7.5-3,7.5-7.2C71.6,90.2,68.5,87.2,64.2,87.2z M64.2,98.5
		c-2.3,0-3.8-1.8-3.8-4c0-2.3,1.5-4,3.8-4c2.3,0,3.8,1.8,3.8,4S66.5,98.5,64.2,98.5z"/>
	<path d="M80.2,87.2c-4.3,0-7.5,3-7.5,7.2c0,4.3,3.2,7.2,7.5,7.2s7.5-3,7.5-7.2S84.5,87.2,80.2,87.2z M80.2,98.5
		c-2.3,0-3.8-1.8-3.8-4c0-2.3,1.5-4,3.8-4s3.8,1.8,3.8,4S82.6,98.5,80.2,98.5z"/>
	<path d="M95.4,87.4h-5.9v14h5.9c4.4,0,7.5-2.7,7.5-7C103,90.1,99.8,87.4,95.4,87.4z M95.4,98.3h-2.3v-7.7h2.3
		c2.6,0,3.9,1.7,3.9,3.8C99.3,96.5,97.9,98.3,95.4,98.3z"/>
	<path d="M59,33.6c-1-1.7,0.7-3.5,2.4-2.5c2.3,1.4,4.4-2.2,2.1-3.6c-2.3-1.4-5.4-1.1-7.4,0.9c-1.9,1.9-2.2,5.1-0.8,7.4
		C56.9,37.9,60.5,35.9,59,33.6z"/>
	<path d="M64.4,58c1-0.3,1.9-1.5,1.5-2.6c-0.4-0.9-0.1-2.2,1-2.6c2.6-0.8,1.5-4.8-1.1-4c-3.1,0.9-5.2,4.5-3.9,7.7
		C62.3,57.6,63.3,58.3,64.4,58z"/>
	<path d="M89.9,55.7c0.7-0.2,1.5-0.4,2.2-0.6c2.6-0.6,1.5-4.7-1.1-4c-0.7,0.2-1.5,0.4-2.2,0.6C86.1,52.3,87.2,56.4,89.9,55.7z"/>
	<g>
		<path d="M41,73.2v2.9h5.7v2.8H41v4.4h-3.7v-13h10.2v2.8H41z"/>
		<path d="M49.2,70.4h3.7v13h-3.7V70.4z"/>
		<path d="M61.2,79.9h-2v3.4h-3.7v-13h5.9c1.2,0,2.2,0.2,3.1,0.6c0.9,0.4,1.5,0.9,2,1.7s0.7,1.6,0.7,2.5c0,0.9-0.2,1.8-0.7,2.5
			c-0.4,0.7-1.1,1.2-1.9,1.6l2.8,4.1h-3.9L61.2,79.9z M62.9,73.8c-0.4-0.3-1-0.5-1.7-0.5h-2v3.8h2c0.8,0,1.3-0.2,1.7-0.5
			c0.4-0.3,0.6-0.8,0.6-1.4S63.3,74.1,62.9,73.8z"/>
		<path d="M79.6,80.5v2.8H69.2v-13h10.2v2.8h-6.5v2.2h5.8v2.7h-5.8v2.4H79.6z"/>
		<path d="M80.9,76.7h5.4v2.7h-5.4V76.7z"/>
	</g>
</g>
</svg>
