<?xml version="1.0" encoding="utf-8"?>
<!-- Generator: Adobe Illustrator 23.0.1, SVG Export Plug-In . SVG Version: 6.00 Build 0)  -->
<svg version="1.1" id="Layer_1" xmlns="http://www.w3.org/2000/svg" xmlns:xlink="http://www.w3.org/1999/xlink" x="0px" y="0px"
	 viewBox="0 0 300 120" style="enable-background:new 0 0 300 120;" xml:space="preserve">
<style type="text/css">
	.st0{fill:none;}
	.st1{fill:#FFFFFF;}
</style>
<g>
	<path class="st0" d="M145.2,77.1c0,0.9,0.3,1.7,0.8,2.3s1.3,1.2,2.3,1.6v-8.3c-1,0.2-1.8,0.7-2.3,1.5
		C145.5,75.1,145.2,76,145.2,77.1z"/>
	<path class="st0" d="M150.6,33.6v9.3c1.3-0.2,2.2-0.7,2.6-1.6c0.5-0.8,0.7-1.8,0.7-3c0-1.3-0.3-2.3-0.9-2.9
		C152.5,34.6,151.7,34,150.6,33.6z"/>
	<path class="st0" d="M150.6,88.1v9.3c1.3-0.2,2.2-0.7,2.6-1.6c0.5-0.8,0.7-1.8,0.7-3c0-1.3-0.3-2.3-0.9-2.9
		C152.5,89.1,151.7,88.5,150.6,88.1z"/>
	<path class="st0" d="M264.4,43c1.3,0,2.2-0.5,2.7-1.4c0.6-0.9,0.8-2.4,0.8-4.4c0-1.6-0.3-2.8-0.7-3.8c-0.5-1-1.3-1.4-2.6-1.4
		c-0.7,0-1.3,0.2-1.8,0.5s-0.8,0.7-1.1,1.2c-0.3,0.5-0.5,1.1-0.6,1.8c-0.1,0.7-0.2,1.4-0.2,2.2c0,1.7,0.2,3.1,0.7,4
		C262.2,42.6,263.1,43,264.4,43z"/>
	<path class="st0" d="M240.8,95.1c-0.5,0.4-0.7,1-0.7,1.7c0,0.6,0.2,1.1,0.6,1.5c0.4,0.4,1.1,0.6,2.1,0.6c0.8,0,1.5-0.2,2.1-0.6
		c0.6-0.4,0.9-1.1,0.9-2v-1.8h-3C241.9,94.5,241.2,94.7,240.8,95.1z"/>
	<path class="st0" d="M196.4,43c1,0,1.9-0.3,2.5-0.9c0.6-0.6,1-1.5,1-2.6V21.6c0-1.1-0.3-2-1-2.6c-0.6-0.6-1.5-0.9-2.5-0.9
		s-1.9,0.3-2.5,0.9s-1,1.5-1,2.6v17.9c0,1.1,0.3,2,1,2.6C194.5,42.7,195.3,43,196.4,43z"/>
	<path class="st0" d="M196.4,97.5c1,0,1.9-0.3,2.5-0.9c0.6-0.6,1-1.5,1-2.6V76c0-1.1-0.3-2-1-2.6c-0.6-0.6-1.5-0.9-2.5-0.9
		s-1.9,0.3-2.5,0.9c-0.6,0.6-1,1.5-1,2.6v18c0,1.1,0.3,2,1,2.6C194.5,97.2,195.3,97.5,196.4,97.5z"/>
	<path class="st0" d="M172.9,97.5c1.3,0,2.2-0.5,2.7-1.4c0.6-0.9,0.8-2.4,0.8-4.4c0-1.6-0.3-2.8-0.7-3.8c-0.5-1-1.3-1.4-2.6-1.4
		c-0.7,0-1.3,0.2-1.8,0.5s-0.8,0.7-1.1,1.2s-0.5,1.1-0.6,1.8s-0.2,1.4-0.2,2.2c0,1.7,0.2,3.1,0.7,4
		C170.6,97.1,171.5,97.5,172.9,97.5z"/>
	<path class="st0" d="M145.2,22.6c0,0.9,0.3,1.7,0.8,2.3c0.5,0.6,1.3,1.2,2.3,1.6v-8.3c-1,0.2-1.8,0.7-2.3,1.5
		S145.2,21.5,145.2,22.6z"/>
	<path class="st1" d="M123.2,72.4V28.5c-21,18.8-47.2,47.2-68.6,30.6c-20.2-15.6-6.5-35.5,4.5-44.3H32.6v57.7v32.9h90.6V72.4z
		 M48.6,99.8h-9.2v-14H43v10.8h5.6C48.6,96.6,48.6,99.8,48.6,99.8z M56.7,100.1c-4.3,0-7.5-3-7.5-7.2c0-4.3,3.2-7.2,7.5-7.2
		s7.5,3,7.5,7.2S61,100.1,56.7,100.1z M79,97.3c-1.5,1.7-3.5,2.7-6.2,2.7c-4.2,0-7.6-2.8-7.6-7.2s3.4-7.2,7.6-7.2
		c3.1,0,4.9,1.5,6,3.2l-3,1.6c-0.6-0.9-1.6-1.7-3-1.7c-2.3,0-3.9,1.8-3.9,4c0,2.3,1.6,4,3.9,4c1.1,0,2.1-0.4,2.6-0.8v-1.2h-3.2v-3
		H79V97.3z M86.3,100.1c-2.8,0-4.8-0.9-6.2-2.2l1.9-2.7c1,1,2.6,1.8,4.5,1.8c1.2,0,2-0.5,2-1.2c0-0.8-0.9-1.1-2.4-1.4
		c-2.3-0.5-5.5-1-5.5-4.4c0-2.3,2-4.4,5.6-4.4c2.2,0,4.2,0.7,5.7,1.9l-2,2.6c-1.2-1-2.7-1.4-3.9-1.4c-1.2,0-1.7,0.5-1.7,1.1
		c0,0.7,0.9,1,2.4,1.3c2.3,0.5,5.5,1.2,5.5,4.3C92.2,98.2,90.1,100.1,86.3,100.1z"/>
	<path class="st1" d="M56.7,88.8c-2.3,0-3.8,1.8-3.8,4c0,2.3,1.5,4,3.8,4s3.8-1.8,3.8-4C60.5,90.5,59,88.8,56.7,88.8z"/>
	<path class="st1" d="M74.2,23.1c0.1-0.2,0.2-0.4,0.4-0.6c3-2.7,6-5.3,9.1-7.7H67.6c-1.1,1.8-3,4.3-5.8,7.4
		C66.1,21.6,70.3,21.8,74.2,23.1z"/>
	<path class="st1" d="M123.2,14.7H90.6c-4.3,3.2-8.5,6.6-12.5,10.2c1.7,1.1,3.4,2.5,4.8,4.4c0.3,0.4,0.5,0.7,0.8,1.1
		c3.3-2.4,6.5-4.7,9.8-7.1c2.2-1.6,4.3,2,2.1,3.6c-3.3,2.4-6.6,4.8-9.9,7.1c0.9,2.1,1.5,4.4,1.7,6.6c7.5-6.9,15.3-13.4,23.4-19.6
		c2.1-1.6,4.2,2,2.1,3.6c-9,6.8-17.5,14.1-25.6,21.8c-0.3,2.2-0.9,4.4-1.7,6.5c14.3-7.2,25.5-23.6,37.5-35l0,0L123.2,14.7
		L123.2,14.7z"/>
	<path class="st1" d="M79.6,31.9c-1.7-2.1-3.6-3.5-5.6-4.4c-0.3,1-1.2,1.8-2.5,1.4c-7.1-2.3-14.5,3.6-12.4,11.2c1,3.6,4,6.7,8,6.9
		c2.5,0.1,5.2-1.2,5.7-3.9c0.6-3.1-2.8-5.4-5.1-3c-1.9,1.9-4.8-1-3-3c4.6-4.7,12.7-1.1,12.4,5.5C76.8,50.2,68,52.9,62,49.8
		c-6.1-3.1-9-11.2-6.3-17.5c1.1-2.5,2.9-4.5,5-5.8c-1.2,0.2-2.3,0.4-3.4,0.6c-3.8,4.5-6.7,10-5.4,16c1.6,7.8,10,13,17.5,13.5
		c3.8,0.2,7.4-0.3,10.9-1.3c1.5-2.7,2.6-5.7,3.1-8.7c-0.3-0.6-0.3-1.3,0.2-1.9C83.7,40.2,82.6,35.8,79.6,31.9z"/>
	<path d="M123.2,111.6h6.3v-6.3V14.7V8.4h-6.3H32.6h-6.3v6.3v90.6v6.3h6.3H123.2z M85.7,53c0.8-2.1,1.4-4.3,1.7-6.5
		c8.1-7.7,16.7-15,25.6-21.8c2.1-1.6,0-5.2-2.1-3.6c-8.1,6.1-15.9,12.7-23.4,19.6c-0.2-2.3-0.8-4.5-1.7-6.6c3.3-2.4,6.6-4.8,9.9-7.1
		c2.2-1.6,0.1-5.2-2.1-3.6c-3.3,2.4-6.5,4.7-9.8,7.1c-0.3-0.4-0.5-0.7-0.8-1.1c-1.4-1.8-3.1-3.3-4.8-4.4c4-3.6,8.2-7,12.5-10.2h32.6
		V18l0,0C111.2,29.3,100,45.8,85.7,53z M83.1,46.5c-0.5,3-1.6,6-3.1,8.7c-3.4,1-7,1.5-10.9,1.3C61.6,56,53.2,50.8,51.6,43
		c-1.2-6,1.7-11.5,5.4-16c1.1-0.2,2.3-0.5,3.4-0.6c-2.2,1.4-4,3.3-5,5.8c-2.7,6.3,0.2,14.4,6.3,17.5c6,3,14.8,0.4,15.1-7.2
		c0.3-6.6-7.7-10.2-12.4-5.5c-1.9,1.9,1.1,4.9,3,3c2.3-2.4,5.7-0.1,5.1,3c-0.5,2.7-3.2,4-5.7,3.9c-3.9-0.2-6.9-3.2-8-6.9
		c-2.1-7.6,5.3-13.4,12.4-11.2c1.3,0.4,2.2-0.4,2.5-1.4c2.1,0.9,4,2.3,5.6,4.4c3.1,3.9,4.1,8.3,3.8,12.7
		C82.9,45.2,82.8,45.9,83.1,46.5z M67.6,14.7h16.1c-3.1,2.5-6.2,5-9.1,7.7c-0.2,0.2-0.3,0.4-0.4,0.6c-3.8-1.3-8-1.4-12.3-1
		C64.7,19,66.5,16.6,67.6,14.7z M32.6,72.4V14.7h26.5c-11,8.8-24.7,28.7-4.5,44.3c21.5,16.6,47.7-11.8,68.6-30.6v43.9v32.9H32.6
		V72.4z"/>
	<polygon points="42.9,85.8 39.3,85.8 39.3,99.8 48.6,99.8 48.6,96.7 42.9,96.7 	"/>
	<path d="M56.7,85.6c-4.3,0-7.5,3-7.5,7.2c0,4.3,3.2,7.2,7.5,7.2s7.5-3,7.5-7.2S61,85.6,56.7,85.6z M56.7,96.9c-2.3,0-3.8-1.8-3.8-4
		c0-2.3,1.5-4,3.8-4s3.8,1.8,3.8,4C60.5,95.1,59,96.9,56.7,96.9z"/>
	<path d="M72.3,94.9h3.2v1.2c-0.6,0.5-1.5,0.8-2.6,0.8c-2.3,0-3.9-1.8-3.9-4c0-2.3,1.6-4,3.9-4c1.3,0,2.4,0.7,3,1.7l3-1.6
		c-1-1.7-2.9-3.2-6-3.2c-4.2,0-7.6,2.8-7.6,7.2s3.4,7.2,7.6,7.2c2.6,0,4.7-1.1,6.2-2.7V92h-6.7L72.3,94.9L72.3,94.9z"/>
	<path d="M86.7,91.1c-1.6-0.3-2.4-0.5-2.4-1.3c0-0.6,0.5-1.1,1.7-1.1s2.8,0.5,3.9,1.4l2-2.6c-1.5-1.3-3.4-1.9-5.7-1.9
		c-3.6,0-5.6,2-5.6,4.4c0,3.3,3.2,3.9,5.5,4.4c1.5,0.3,2.4,0.6,2.4,1.4c0,0.7-0.8,1.2-2,1.2c-1.9,0-3.5-0.8-4.5-1.8l-1.9,2.7
		c1.4,1.3,3.4,2.2,6.2,2.2c3.8,0,5.8-1.9,5.8-4.7C92.2,92.2,89,91.5,86.7,91.1z"/>
	<path d="M157.7,31.6c-0.7-0.8-1.6-1.6-2.8-2.3c-1.2-0.7-2.6-1.3-4.3-1.9v-9.1c1.9,0.3,3.4,1.3,4.4,3.1l4.2-3.1
		c-0.7-1.4-1.8-2.6-3.2-3.6s-3.2-1.6-5.4-1.8V9.3h-2.3v3.6c-1.3,0.1-2.5,0.5-3.6,1s-2,1.2-2.7,2.1c-0.8,0.9-1.3,1.9-1.8,3
		s-0.6,2.4-0.6,3.7c0,1.3,0.2,2.5,0.5,3.4c0.4,1,0.9,1.9,1.6,2.7c0.7,0.8,1.6,1.5,2.7,2.1c1.1,0.6,2.4,1.2,3.9,1.7v10.2
		c-1.1-0.2-2.1-0.6-2.9-1.3c-0.8-0.7-1.5-1.6-2.1-2.6l-4.6,2.9c1,1.8,2.2,3.3,3.8,4.4c1.6,1.1,3.5,1.8,5.8,1.9v4.8h2.3v-4.8
		c3-0.2,5.2-1.2,6.8-3s2.3-4.2,2.3-7.2c0-1.3-0.2-2.5-0.5-3.6C158.9,33.4,158.4,32.4,157.7,31.6z M148.4,26.5c-1-0.5-1.8-1-2.3-1.6
		s-0.8-1.4-0.8-2.3c0-1.1,0.3-2.1,0.8-2.8c0.5-0.8,1.3-1.3,2.3-1.5V26.5z M153.3,41.3c-0.5,0.8-1.4,1.4-2.6,1.6v-9.3
		c1.1,0.5,1.9,1,2.5,1.7s0.9,1.7,0.9,2.9C154,39.4,153.8,40.4,153.3,41.3z"/>
	<polygon points="172,48 177.5,48 177.5,13 172.3,13 167.1,16.9 167.1,22.9 172,19.2 	"/>
	<path d="M190,46c0.8,0.8,1.8,1.3,2.9,1.7c1.1,0.4,2.2,0.6,3.4,0.6s2.4-0.2,3.4-0.6c1.1-0.4,2-1,2.9-1.7c0.8-0.8,1.5-1.7,2-2.7
		c0.5-1.1,0.7-2.3,0.7-3.7v-18c0-1.4-0.2-2.7-0.7-3.7c-0.5-1.1-1.1-2-2-2.8c-0.8-0.8-1.8-1.3-2.9-1.7c-1.1-0.4-2.3-0.6-3.5-0.6
		s-2.3,0.2-3.4,0.6s-2,1-2.9,1.7c-0.8,0.8-1.5,1.7-2,2.8c-0.5,1.1-0.7,2.3-0.7,3.7v18c0,1.4,0.2,2.6,0.7,3.7
		C188.6,44.3,189.2,45.2,190,46z M192.9,21.5c0-1.1,0.3-2,1-2.6c0.6-0.6,1.5-0.9,2.5-0.9s1.9,0.3,2.5,0.9s1,1.5,1,2.6v17.9
		c0,1.1-0.3,2-1,2.6c-0.6,0.6-1.5,0.9-2.5,0.9s-1.9-0.3-2.5-0.9c-0.6-0.6-1-1.5-1-2.6V21.5z"/>
	<path d="M226,48l4.2-8.4l4.2,8.4h6.3l-7.5-12.7l7.2-12.2h-6.3l-3.8,7.9h-0.1l-3.8-7.9H220c1.2,2,2.4,4.1,3.6,6.1
		c1.2,2,2.4,4,3.6,6.1L219.7,48H226z"/>
	<path d="M264.3,48.3c3.3,0,5.6-1,7.1-3s2.2-4.7,2.2-8.1c0-1.4-0.2-2.8-0.5-3.9c-0.3-1.2-0.8-2.2-1.4-3.1s-1.3-1.5-2.2-2
		c-0.9-0.5-1.8-0.7-2.9-0.7c-0.4,0-0.8,0-1.2,0.1c-0.5,0.1-0.8,0.2-1.2,0.4l-0.1-0.1c0.2-0.4,0.5-0.9,0.8-1.7s0.7-1.6,1.2-2.6
		c0.4-1,0.9-2,1.3-3c0.5-1.1,0.9-2.1,1.3-3c0.4-1,0.8-1.8,1.2-2.6c0.4-0.8,0.6-1.4,0.8-1.8h-6.1c-0.1,0.2-0.3,0.6-0.6,1.4
		c-0.4,0.8-0.8,1.7-1.3,2.8c-0.5,1.1-1,2.3-1.6,3.6c-0.6,1.3-1.2,2.5-1.7,3.7s-1,2.3-1.4,3.2c-0.4,0.9-0.7,1.6-0.9,2
		c-0.5,1.1-0.9,2.4-1.2,3.7c-0.3,1.4-0.4,2.8-0.4,4.4c0,3.6,0.7,6.2,2.2,7.9C259.1,47.4,261.3,48.3,264.3,48.3z M261.2,35.5
		c0.1-0.7,0.3-1.3,0.6-1.8c0.3-0.5,0.6-0.9,1.1-1.2c0.5-0.3,1.1-0.5,1.8-0.5c1.3,0,2.2,0.5,2.6,1.4c0.5,1,0.7,2.2,0.7,3.8
		c0,2-0.3,3.5-0.8,4.4c-0.6,0.9-1.5,1.4-2.7,1.4c-1.3,0-2.2-0.5-2.7-1.4s-0.7-2.2-0.7-4C261,36.9,261.1,36.2,261.2,35.5z"/>
	<path d="M157.7,86.1c-0.7-0.8-1.6-1.6-2.8-2.3s-2.6-1.3-4.3-1.9v-9.1c1.9,0.3,3.4,1.3,4.4,3.1l4.2-3.1c-0.7-1.4-1.8-2.6-3.2-3.6
		s-3.2-1.6-5.4-1.8v-3.6h-2.3v3.6c-1.3,0.1-2.5,0.5-3.6,1s-2,1.2-2.7,2.1c-0.8,0.9-1.3,1.9-1.8,3s-0.6,2.4-0.6,3.7s0.2,2.5,0.5,3.4
		c0.4,1,0.9,1.9,1.6,2.7c0.7,0.8,1.6,1.5,2.7,2.1c1.1,0.6,2.4,1.2,3.9,1.7v10.2c-1.1-0.2-2.1-0.6-2.9-1.3c-0.8-0.7-1.5-1.6-2.1-2.6
		l-4.6,2.9c1,1.8,2.2,3.3,3.8,4.4c1.6,1.1,3.5,1.8,5.8,1.9v4.8h2.3v-4.8c3-0.2,5.2-1.2,6.8-3s2.3-4.2,2.3-7.2c0-1.3-0.2-2.5-0.5-3.6
		C158.9,87.9,158.4,86.9,157.7,86.1z M148.4,81c-1-0.5-1.8-1-2.3-1.6s-0.8-1.4-0.8-2.3c0-1.1,0.3-2.1,0.8-2.8
		c0.5-0.8,1.3-1.3,2.3-1.5V81z M153.3,95.8c-0.5,0.8-1.4,1.4-2.6,1.6v-9.3c1.1,0.5,1.9,1,2.5,1.7s0.9,1.7,0.9,2.9
		C154,93.9,153.8,94.9,153.3,95.8z"/>
	<path d="M172.8,102.8c3.3,0,5.6-1,7.1-3s2.2-4.7,2.2-8.1c0-1.4-0.2-2.8-0.5-3.9c-0.3-1.2-0.8-2.2-1.4-3.1c-0.6-0.9-1.3-1.5-2.2-2
		s-1.8-0.7-2.9-0.7c-0.4,0-0.8,0-1.2,0.1c-0.5,0.1-0.8,0.2-1.2,0.4l-0.1-0.1c0.2-0.4,0.5-0.9,0.8-1.7s0.7-1.6,1.2-2.6s0.9-2,1.3-3
		c0.5-1.1,0.9-2.1,1.3-3c0.4-1,0.8-1.8,1.2-2.6s0.6-1.4,0.8-1.8h-6.1c-0.1,0.2-0.3,0.6-0.6,1.4c-0.4,0.8-0.8,1.7-1.3,2.8
		s-1,2.3-1.6,3.6s-1.2,2.5-1.7,3.7s-1,2.3-1.4,3.2s-0.7,1.6-0.9,2c-0.5,1.1-0.9,2.4-1.2,3.7c-0.3,1.4-0.4,2.8-0.4,4.4
		c0,3.6,0.7,6.2,2.2,7.9C167.5,101.9,169.7,102.8,172.8,102.8z M169.6,90c0.1-0.7,0.3-1.3,0.6-1.8s0.6-0.9,1.1-1.2s1.1-0.5,1.8-0.5
		c1.3,0,2.2,0.5,2.6,1.4c0.5,1,0.7,2.2,0.7,3.8c0,2-0.3,3.5-0.8,4.4c-0.6,0.9-1.5,1.4-2.7,1.4c-1.3,0-2.2-0.5-2.7-1.4
		s-0.7-2.2-0.7-4C169.4,91.4,169.5,90.7,169.6,90z"/>
	<path d="M190,100.5c0.8,0.8,1.8,1.3,2.9,1.7c1.1,0.4,2.2,0.6,3.4,0.6s2.4-0.2,3.4-0.6c1.1-0.4,2-1,2.9-1.7c0.8-0.8,1.5-1.7,2-2.7
		c0.5-1.1,0.7-2.3,0.7-3.7v-18c0-1.4-0.2-2.7-0.7-3.7c-0.5-1.1-1.1-2-2-2.8c-0.8-0.8-1.8-1.3-2.9-1.7c-1.1-0.4-2.3-0.6-3.5-0.6
		s-2.3,0.2-3.4,0.6s-2,1-2.9,1.7c-0.8,0.8-1.5,1.7-2,2.8s-0.7,2.3-0.7,3.7v18c0,1.4,0.2,2.6,0.7,3.7
		C188.6,98.8,189.2,99.7,190,100.5z M192.9,76c0-1.1,0.3-2,1-2.6c0.6-0.6,1.5-0.9,2.5-0.9s1.9,0.3,2.5,0.9c0.6,0.6,1,1.5,1,2.6v18
		c0,1.1-0.3,2-1,2.6c-0.6,0.6-1.5,0.9-2.5,0.9s-1.9-0.3-2.5-0.9c-0.6-0.6-1-1.5-1-2.6V76z"/>
	<polygon points="219.3,75.2 216,75.2 207.8,104.1 211,104.1 	"/>
	<path d="M225.3,89.1c0.2-0.5,0.5-0.9,1-1.2c0.4-0.3,0.9-0.4,1.6-0.4c1.1,0,2,0.6,2.5,1.8c0.1-0.1,0.3-0.2,0.7-0.4
		c0.3-0.2,0.7-0.4,1.1-0.5c0.4-0.2,0.8-0.4,1.1-0.5c0.3-0.2,0.6-0.3,0.7-0.4c-0.5-1.2-1.3-2.2-2.4-2.9c-1.1-0.7-2.4-1-3.8-1
		c-1.3,0-2.4,0.2-3.3,0.7c-0.9,0.5-1.6,1.1-2.2,1.9c-0.6,0.8-1,1.8-1.2,3c-0.3,1.2-0.4,2.4-0.4,3.8c0,1.4,0.1,2.7,0.3,3.9
		s0.6,2.2,1.1,3s1.3,1.5,2.2,2s2.1,0.7,3.5,0.7c1.5,0,2.7-0.3,3.8-1s1.9-1.6,2.4-2.8c-0.1-0.1-0.4-0.2-0.7-0.4s-0.7-0.3-1.1-0.5
		c-0.4-0.2-0.8-0.4-1.1-0.5c-0.3-0.2-0.6-0.3-0.7-0.4c-0.3,0.5-0.6,1-1,1.3s-0.9,0.5-1.5,0.5s-1.1-0.1-1.5-0.4
		c-0.4-0.3-0.7-0.7-0.9-1.2s-0.4-1.1-0.5-1.8s-0.1-1.5-0.1-2.3s0-1.6,0.1-2.2C225,90.1,225.1,89.6,225.3,89.1z"/>
	<path d="M236.6,87.1c0.1,0.1,0.3,0.2,0.6,0.4s0.6,0.4,0.9,0.6c0.3,0.2,0.7,0.4,1,0.6c0.3,0.2,0.5,0.3,0.6,0.4
		c0.3-0.6,0.8-1.1,1.4-1.3c0.6-0.2,1.2-0.4,1.9-0.4c1,0,1.7,0.2,2.1,0.7c0.4,0.4,0.6,1,0.6,1.6v1.7h-3.2c-1.1,0-2.1,0.2-2.9,0.5
		c-0.8,0.3-1.5,0.7-2,1.2s-0.9,1.1-1.2,1.8s-0.4,1.4-0.4,2.2c0,1.7,0.4,3,1.3,4.1c0.9,1,2.2,1.5,4.1,1.5c0.8,0,1.5-0.1,2.3-0.4
		c0.8-0.3,1.4-0.7,1.8-1.3l0.2,0.1v1.4h4.2V89.4c0-1.1-0.2-2-0.5-2.8c-0.4-0.7-0.8-1.3-1.4-1.8c-0.6-0.5-1.3-0.8-2.2-1
		c-0.8-0.2-1.7-0.3-2.7-0.3c-1.4,0-2.7,0.3-3.8,0.8C238,85,237.2,85.9,236.6,87.1z M245.7,96.3c0,0.9-0.3,1.6-0.9,2
		c-0.6,0.4-1.3,0.6-2.1,0.6c-1,0-1.6-0.2-2.1-0.6c-0.4-0.4-0.6-0.9-0.6-1.5c0-0.8,0.2-1.3,0.7-1.7s1.1-0.6,1.9-0.6h3v1.8H245.7z"/>
	<path d="M257.8,91.3c0-1.3,0.3-2.2,0.9-2.7c0.6-0.6,1.5-0.9,2.5-0.9c0.4,0,0.7,0,1,0.1s0.7,0.2,1,0.4l0.8-4.1
		c-0.3-0.2-0.6-0.3-0.9-0.4c-0.3-0.1-0.7-0.1-1.1-0.1c-0.9,0-1.7,0.2-2.5,0.5c-0.7,0.3-1.3,1-1.8,1.9h-0.1v-2.1h-4.1v18.7h4.1V91.3
		H257.8z"/>
</g>
</svg>
