<?xml version="1.0" encoding="utf-8"?>
<!-- Generator: Adobe Illustrator 23.0.1, SVG Export Plug-In . SVG Version: 6.00 Build 0)  -->
<svg version="1.1" id="Layer_1" xmlns="http://www.w3.org/2000/svg" xmlns:xlink="http://www.w3.org/1999/xlink" x="0px" y="0px"
	 viewBox="0 0 300 120" style="enable-background:new 0 0 300 120;" xml:space="preserve">
<style type="text/css">
	.st0{fill:none;}
	.st1{fill:#FFFFFF;}
</style>
<g>
	<path class="st0" d="M145.2,79.6c0,0.9,0.3,1.7,0.8,2.3s1.3,1.2,2.3,1.6v-8.3c-1,0.2-1.8,0.7-2.3,1.5S145.2,78.5,145.2,79.6z"/>
	<path class="st0" d="M150.6,90.6v9.3c1.3-0.2,2.2-0.7,2.6-1.6c0.5-0.8,0.7-1.8,0.7-3c0-1.3-0.3-2.3-0.9-2.9
		C152.5,91.6,151.7,91,150.6,90.6z"/>
	<path class="st0" d="M150.6,36.1v9.3c1.3-0.2,2.2-0.7,2.6-1.6c0.5-0.8,0.7-1.8,0.7-3c0-1.3-0.3-2.3-0.9-2.9
		C152.5,37.1,151.7,36.5,150.6,36.1z"/>
	<path class="st0" d="M145.2,25.1c0,0.9,0.3,1.7,0.8,2.3c0.5,0.6,1.3,1.2,2.3,1.6v-8.3c-1,0.2-1.8,0.7-2.3,1.5S145.2,24,145.2,25.1z
		"/>
	<path class="st0" d="M245.7,97h-3c-0.8,0-1.5,0.2-1.9,0.6c-0.5,0.4-0.7,1-0.7,1.7c0,0.6,0.2,1.1,0.6,1.5c0.4,0.4,1.1,0.6,2.1,0.6
		c0.8,0,1.5-0.2,2.1-0.6c0.6-0.4,0.9-1.1,0.9-2V97H245.7z"/>
	<path class="st0" d="M261.7,36.2c-0.3,0.5-0.5,1.1-0.6,1.8c-0.1,0.7-0.2,1.4-0.2,2.2c0,1.7,0.2,3.1,0.7,4s1.4,1.4,2.7,1.4
		c1.3,0,2.2-0.5,2.7-1.4c0.6-0.9,0.8-2.4,0.8-4.4c0-1.6-0.3-2.8-0.7-3.8c-0.5-1-1.3-1.4-2.6-1.4c-0.7,0-1.3,0.2-1.8,0.5
		C262.3,35.3,262,35.7,261.7,36.2z"/>
	<path d="M157.7,34.1c-0.7-0.8-1.6-1.6-2.8-2.3c-1.2-0.7-2.6-1.3-4.3-1.9v-9.1c1.9,0.3,3.4,1.3,4.4,3.1l4.2-3.1
		c-0.7-1.4-1.8-2.6-3.2-3.6s-3.2-1.6-5.4-1.8v-3.6h-2.3v3.6c-1.3,0.1-2.5,0.5-3.6,1s-2,1.2-2.7,2.1c-0.8,0.9-1.3,1.9-1.8,3
		c-0.4,1.2-0.6,2.4-0.6,3.7c0,1.3,0.2,2.5,0.5,3.4c0.4,1,0.9,1.9,1.6,2.7c0.7,0.8,1.6,1.5,2.7,2.1c1.1,0.6,2.4,1.2,3.9,1.7v10.2
		c-1.1-0.2-2.1-0.6-2.9-1.3c-0.8-0.7-1.5-1.6-2.1-2.6l-4.6,2.9c1,1.8,2.2,3.3,3.8,4.4c1.6,1.1,3.5,1.8,5.8,1.9v4.8h2.3v-4.8
		c3-0.2,5.2-1.2,6.8-3s2.3-4.2,2.3-7.2c0-1.3-0.2-2.5-0.5-3.6C158.9,35.9,158.4,34.9,157.7,34.1z M148.4,29c-1-0.5-1.8-1-2.3-1.6
		s-0.8-1.4-0.8-2.3c0-1.1,0.3-2.1,0.8-2.8s1.3-1.3,2.3-1.5V29z M153.3,43.8c-0.5,0.8-1.4,1.4-2.6,1.6v-9.3c1.1,0.5,1.9,1,2.5,1.7
		s0.9,1.7,0.9,2.9C154,41.9,153.8,42.9,153.3,43.8z"/>
	<polygon points="177.5,50.5 177.5,15.5 172.3,15.5 167.1,19.4 167.1,25.4 172,21.7 172,50.5 	"/>
	<path d="M193.4,21.7c0.7-0.8,1.5-1.2,2.5-1.2c1.3,0,2.1,0.4,2.6,1.2c0.5,0.8,0.8,1.6,0.8,2.6c0,0.7-0.1,1.4-0.3,2.2
		c-0.2,0.8-0.5,1.5-1,2.2l-11.3,16.9v5h18.1v-5.3h-11.1l9.1-13.6c0.8-1.2,1.3-2.4,1.7-3.6s0.6-2.5,0.6-3.8c0-2.8-0.8-5-2.4-6.5
		c-1.6-1.5-3.9-2.3-6.7-2.3c-2.6,0-4.7,0.8-6.4,2.5c-1.7,1.6-2.7,4-2.9,7l5.5,0.8C192.3,23.8,192.7,22.5,193.4,21.7z"/>
	<path d="M230.2,42.2l4.2,8.4h6.3l-7.5-12.7l7.2-12.2h-6.3l-3.8,7.9h-0.1l-3.8-7.9H220c1.2,2,2.4,4.1,3.6,6.1c1.2,2,2.4,4,3.6,6.1
		l-7.5,12.7h6.3L230.2,42.2z"/>
	<path d="M266.1,26c0.4-1,0.9-2,1.3-3c0.5-1.1,0.9-2.1,1.3-3c0.4-1,0.8-1.8,1.2-2.6c0.4-0.8,0.6-1.4,0.8-1.8h-6.1
		c-0.1,0.2-0.3,0.6-0.6,1.4c-0.4,0.8-0.8,1.7-1.3,2.8c-0.5,1.1-1,2.3-1.6,3.6c-0.6,1.3-1.2,2.5-1.7,3.7s-1,2.3-1.4,3.2
		c-0.4,0.9-0.7,1.6-0.9,2c-0.5,1.1-0.9,2.4-1.2,3.7c-0.3,1.4-0.4,2.8-0.4,4.4c0,3.6,0.7,6.2,2.2,7.9c1.4,1.7,3.7,2.5,6.7,2.5
		c3.3,0,5.6-1,7.1-3s2.2-4.7,2.2-8.1c0-1.4-0.2-2.8-0.5-3.9c-0.3-1.2-0.8-2.2-1.4-3.1s-1.3-1.5-2.2-2c-0.9-0.5-1.8-0.7-2.9-0.7
		c-0.4,0-0.8,0-1.2,0.1c-0.5,0.1-0.8,0.2-1.2,0.4l-0.1-0.1c0.2-0.4,0.5-0.9,0.8-1.7S265.7,26.9,266.1,26z M264.6,34.6
		c1.3,0,2.2,0.5,2.6,1.4c0.5,1,0.7,2.2,0.7,3.8c0,2-0.3,3.5-0.8,4.4c-0.6,0.9-1.5,1.4-2.7,1.4c-1.3,0-2.2-0.5-2.7-1.4
		s-0.7-2.2-0.7-4c0-0.8,0-1.5,0.2-2.2c0.1-0.7,0.3-1.3,0.6-1.8c0.3-0.5,0.6-0.9,1.1-1.2C263.3,34.7,263.9,34.6,264.6,34.6z"/>
	<path d="M157.7,88.6c-0.7-0.8-1.6-1.6-2.8-2.3s-2.6-1.3-4.3-1.9v-9.1c1.9,0.3,3.4,1.3,4.4,3.1l4.2-3.1c-0.7-1.4-1.8-2.6-3.2-3.6
		s-3.2-1.6-5.4-1.8v-3.6h-2.3v3.6c-1.3,0.1-2.5,0.5-3.6,1s-2,1.2-2.7,2.1c-0.8,0.9-1.3,1.9-1.8,3c-0.4,1.2-0.6,2.4-0.6,3.7
		s0.2,2.5,0.5,3.4c0.4,1,0.9,1.9,1.6,2.7c0.7,0.8,1.6,1.5,2.7,2.1c1.1,0.6,2.4,1.2,3.9,1.7v10.2c-1.1-0.2-2.1-0.6-2.9-1.3
		c-0.8-0.7-1.5-1.6-2.1-2.6l-4.6,2.9c1,1.8,2.2,3.3,3.8,4.4c1.6,1.1,3.5,1.8,5.8,1.9v4.8h2.3v-4.8c3-0.2,5.2-1.2,6.8-3
		s2.3-4.2,2.3-7.2c0-1.3-0.2-2.5-0.5-3.6C158.9,90.4,158.4,89.4,157.7,88.6z M148.4,83.5c-1-0.5-1.8-1-2.3-1.6s-0.8-1.4-0.8-2.3
		c0-1.1,0.3-2.1,0.8-2.8s1.3-1.3,2.3-1.5V83.5z M153.3,98.3c-0.5,0.8-1.4,1.4-2.6,1.6v-9.3c1.1,0.5,1.9,1,2.5,1.7s0.9,1.7,0.9,2.9
		C154,96.4,153.8,97.4,153.3,98.3z"/>
	<polygon points="169,75.3 175.8,75.3 165.6,105 171.4,105 181.9,74.9 181.9,70 163.8,70 163.8,79.7 169,79.7 	"/>
	<path d="M198.1,83.2L186.8,100v5h18.1v-5.3h-11.1l9.1-13.6c0.8-1.2,1.3-2.4,1.7-3.6c0.4-1.2,0.6-2.5,0.6-3.8c0-2.8-0.8-5-2.4-6.5
		c-1.6-1.5-3.9-2.3-6.7-2.3c-2.6,0-4.7,0.8-6.4,2.5c-1.7,1.6-2.7,4-2.9,7l5.5,0.8c0.1-1.7,0.5-3,1.2-3.8s1.5-1.2,2.5-1.2
		c1.3,0,2.1,0.4,2.6,1.2s0.8,1.6,0.8,2.6c0,0.7-0.1,1.4-0.3,2.2C198.9,81.7,198.6,82.5,198.1,83.2z"/>
	<polygon points="219.3,77.7 216,77.7 207.8,106.6 211,106.6 	"/>
	<path d="M225.3,91.6c0.2-0.5,0.5-0.9,1-1.2c0.4-0.3,0.9-0.4,1.6-0.4c1.1,0,2,0.6,2.5,1.8c0.1-0.1,0.3-0.2,0.7-0.4
		c0.3-0.2,0.7-0.4,1.1-0.5c0.4-0.2,0.8-0.4,1.1-0.5c0.3-0.2,0.6-0.3,0.7-0.4c-0.5-1.2-1.3-2.2-2.4-2.9c-1.1-0.7-2.4-1-3.8-1
		c-1.3,0-2.4,0.2-3.3,0.7c-0.9,0.5-1.6,1.1-2.2,1.9c-0.6,0.8-1,1.8-1.2,3c-0.3,1.2-0.4,2.4-0.4,3.8c0,1.4,0.1,2.7,0.3,3.9
		s0.6,2.2,1.1,3s1.3,1.5,2.2,2s2.1,0.7,3.5,0.7c1.5,0,2.7-0.3,3.8-1s1.9-1.6,2.4-2.8c-0.1-0.1-0.4-0.2-0.7-0.4s-0.7-0.3-1.1-0.5
		c-0.4-0.2-0.8-0.4-1.1-0.5c-0.3-0.2-0.6-0.3-0.7-0.4c-0.3,0.5-0.6,1-1,1.3s-0.9,0.5-1.5,0.5s-1.1-0.1-1.5-0.4
		c-0.4-0.3-0.7-0.7-0.9-1.2s-0.4-1.1-0.5-1.8s-0.1-1.5-0.1-2.3s0-1.6,0.1-2.2C225,92.6,225.1,92.1,225.3,91.6z"/>
	<path d="M249.8,105V92c0-1.1-0.2-2-0.5-2.8c-0.4-0.7-0.8-1.3-1.4-1.8c-0.6-0.5-1.3-0.8-2.2-1c-0.8-0.2-1.7-0.3-2.7-0.3
		c-1.4,0-2.7,0.3-3.8,0.8c-1.1,0.6-2,1.4-2.6,2.6c0.1,0.1,0.3,0.2,0.6,0.4s0.6,0.4,0.9,0.6c0.3,0.2,0.7,0.4,1,0.6
		c0.3,0.2,0.5,0.3,0.6,0.4c0.3-0.6,0.8-1.1,1.4-1.3c0.6-0.2,1.2-0.4,1.9-0.4c1,0,1.7,0.2,2.1,0.7c0.4,0.4,0.6,1,0.6,1.6v1.7h-3.2
		c-1.1,0-2.1,0.2-2.9,0.5c-0.8,0.3-1.5,0.7-2,1.2s-0.9,1.1-1.2,1.8s-0.4,1.4-0.4,2.2c0,1.7,0.4,3,1.3,4.1c0.9,1,2.2,1.5,4.1,1.5
		c0.8,0,1.5-0.1,2.3-0.4c0.8-0.3,1.4-0.7,1.8-1.3l0.2,0.1v1.4L249.8,105L249.8,105z M244.8,100.8c-0.6,0.4-1.3,0.6-2.1,0.6
		c-1,0-1.6-0.2-2.1-0.6c-0.4-0.4-0.6-0.9-0.6-1.5c0-0.8,0.2-1.3,0.7-1.7s1.1-0.6,1.9-0.6h3v1.8C245.7,99.8,245.4,100.4,244.8,100.8z
		"/>
	<path d="M257.8,93.8c0-1.3,0.3-2.2,0.9-2.7c0.6-0.6,1.5-0.9,2.5-0.9c0.4,0,0.7,0,1,0.1s0.7,0.2,1,0.4l0.8-4.1
		c-0.3-0.2-0.6-0.3-0.9-0.4c-0.3-0.1-0.7-0.1-1.1-0.1c-0.9,0-1.7,0.2-2.5,0.5c-0.7,0.3-1.3,1-1.8,1.9h-0.1v-2.1h-4.1v18.7h4.1V93.8
		H257.8z"/>
	<path class="st1" d="M123.2,81.3v-3.7c-0.1,0-0.1,0-0.2,0.1c-0.5,0.4-1.1,0.6-1.9,0.5c-0.1,0-0.2,0-0.4,0l0,0
		c-12.2-0.4-23.9-3.2-35-8.3c-0.8-0.4-1.2-0.9-1.4-1.4c-1.7,0.4-3.5,0.7-5.4,0.8s-2.9-1.2-3-2.7c-0.6,0.4-1.4,0.5-2.3,0.3
		c-8.1-1.9-16.1-3.7-24.2-5.6c-3.6-0.8-2.5-5.9,0.7-6.1c0.2-0.1,0.4-0.2,0.7-0.2c0.2,0,0.3,0,0.5,0c0.5-0.5,1.2-0.8,2.2-0.7
		c4.4,0.5,8.7,0.2,12.9-0.7c-6.7-2.3-13.6-4.2-20.5-5.7c-4-0.8-2.3-6.9,1.7-6c0.1,0,0.2,0.1,0.4,0.1c0.4-0.5,0.9-0.9,1.7-1.2
		c1.4-0.4,2.9-0.8,4.3-1.3c-3.8-1.1-7.5-2.3-11.3-3.4c-3.9-1.2-2.2-7.2,1.7-6c0.2,0.1,0.4,0.1,0.7,0.2c0.1-0.7,0.6-1.4,1.6-1.9
		c9.4-4.5,18.7-9,28.1-13.5h-42v66.6v24h90.6V81.3H123.2z M45.2,100.6H36v-14h3.6v10.8h5.6C45.2,97.4,45.2,100.6,45.2,100.6z
		 M59.6,94.9c0,3.5-2,5.9-6.5,5.9s-6.5-2.5-6.5-5.9v-8.3h3.7v8.2c0,1.7,0.9,2.8,2.8,2.8c1.9,0,2.8-1.2,2.8-2.8v-8.2h3.7V94.9z
		 M77.9,100.6h-3.6v-9.4l-3.5,9.4h-1.6l-3.5-9.4v9.4h-3.6v-14h5l2.9,7.9l2.9-7.9h5C77.9,86.6,77.9,100.6,77.9,100.6z M88.6,100.6
		h-8.2v-14h7.9c2.8,0,4.1,1.8,4.1,3.6c0,1.7-1.1,2.9-2.4,3.2c1.5,0.2,2.7,1.7,2.7,3.4C92.7,98.8,91.4,100.6,88.6,100.6z M105,89.6
		h-6.6v2.3h6.5V95h-6.5v2.5h6.6v3H94.7v-14H105V89.6z M114.9,100.6l-2.3-4.7h-1.8v4.7h-3.6v-14h7c3.1,0,4.9,2.1,4.9,4.7
		c0,2.4-1.5,3.7-2.8,4.2l2.8,5.1H114.9z"/>
	<path class="st1" d="M116,65c-0.3,1.2-1.3,2.2-2.9,2.1c-6.5-0.4-12.9-1.5-19.2-3.1c-0.1,0.1-0.2,0.2-0.3,0.3
		c-0.7,0.5-1.3,0.9-2,1.3c9.3,3.9,19,6,29.1,6.3c0.9-0.3,1.7-0.7,2.6-1l0,0v-7.2c-1.2,0.6-2.3,1.2-3.5,1.8
		C118.2,66.2,116.9,65.8,116,65z"/>
	<path class="st1" d="M87.7,95h-3.6v2.6h3.6c0.9,0,1.4-0.5,1.4-1.3C89.1,95.6,88.6,95,87.7,95z"/>
	<path class="st1" d="M123.2,49.5c-2.6,1.9-5.2,3.7-7.7,5.7c-0.4,1.6-1.8,2.9-3.8,2.4c-7-1.8-14-3.6-21.1-5.4
		c-0.2,0.6-0.7,1.1-1.4,1.5c-1.1,0.6-2.2,1.2-3.3,1.8c0.5-0.2,1.2-0.2,1.9,0.1c8.2,2.9,16.6,4.6,25.3,5.2c0.8,0.1,1.5,0.4,1.9,0.8
		c0.2-0.6,0.7-1.1,1.4-1.5c2.3-1.1,4.5-2.3,6.7-3.6l0,0v-7H123.2z"/>
	<path class="st1" d="M88.8,90.8c0-0.7-0.5-1.2-1.2-1.2h-3.5V92h3.5C88.3,92,88.8,91.5,88.8,90.8z"/>
	<path class="st1" d="M77.6,63.3c0.4-0.2,0.8-0.3,1.4-0.4c2.4-0.1,4.6-0.7,6.7-1.5c-2.3-1.2-2.1-4.3-0.4-5.5
		c-1.4,0.7-2.7,1.5-4.1,2.2c-1.8,1-3.5,0-4.3-1.4c-0.5,0.2-1.1,0.1-1.7-0.1c-0.3,0.5-0.9,0.9-1.6,1.2c-1.5,0.6-3.1,1.1-4.7,1.5
		l6.5,1.5C76.8,61.1,77.5,62.2,77.6,63.3z"/>
	<path class="st1" d="M113.5,89.6h-2.8v3.1h2.8c0.9,0,1.7-0.6,1.7-1.6C115.3,90.2,114.5,89.6,113.5,89.6z"/>
	<path class="st1" d="M123.2,27.9c-11.8,6.6-24.1,12.2-36.9,16.8c8.2,2.1,16.4,4.2,24.6,6.3c4-3.2,8.1-6.2,12.4-9l0,0L123.2,27.9
		L123.2,27.9z"/>
	<path class="st1" d="M69.6,37.5c11.9-9.6,28.5-12.4,39.6-22.8H86c-0.1,0.9-0.5,1.7-1.6,2.2C73.7,22,63,27.2,52.3,32.3
		C58.1,34.1,63.8,35.8,69.6,37.5z"/>
	<path class="st1" d="M78.5,52.4c1.4-0.7,2.7-1.5,4.1-2.2c-1.3-0.3-2.6-0.7-3.9-1c-1.8-0.5-2.4-2.1-2.1-3.5
		c-0.5-0.8-0.7-1.7-0.5-2.6c-0.5,1.4-1.8,2.4-3.6,1.9c-4.3-1.3-8.6-2.6-12.9-3.9c0.3,1.2,0,2.5-1.2,3.3c6.2,1.7,12.3,3.8,18.3,6.2
		C77.6,51,78.2,51.6,78.5,52.4z"/>
	<path class="st1" d="M123.2,14.7h-5.8c-0.1,0.4-0.3,0.7-0.6,1C106.3,28.7,89,31.1,76,40.4c0.4,0.8,0.4,1.7,0.2,2.5
		c0.3-0.9,0.9-1.7,2-2.1c15.7-5.2,30.7-11.9,45-20.1l0,0V14.7z"/>
	<path d="M123.2,111.6h6.3v-6.3V14.7V8.4h-6.3H32.6h-6.3v6.3v90.6v6.3h6.3H123.2z M116.5,60.1c-0.8,0.4-1.2,0.9-1.4,1.5
		c-0.5-0.4-1.1-0.8-1.9-0.8c-8.7-0.6-17.1-2.4-25.3-5.2c-0.7-0.2-1.3-0.2-1.9-0.1c1.1-0.6,2.2-1.2,3.3-1.8c0.7-0.4,1.2-0.9,1.4-1.5
		c7,1.8,14,3.6,21.1,5.4c2,0.5,3.4-0.8,3.8-2.4c2.5-2,5.1-3.9,7.7-5.7v7l0,0C121,57.9,118.8,59.1,116.5,60.1z M123.2,63.8V71l0,0
		c-0.9,0.3-1.7,0.7-2.6,1c-10.1-0.4-19.8-2.4-29.1-6.3c0.7-0.4,1.4-0.8,2-1.3c0.1-0.1,0.2-0.2,0.3-0.3c6.3,1.6,12.7,2.7,19.2,3.1
		c1.7,0.1,2.6-0.9,2.9-2.1c0.9,0.8,2.2,1.2,3.6,0.6C120.8,65,122,64.4,123.2,63.8z M110.8,51c-8.2-2.1-16.4-4.2-24.6-6.3
		c12.8-4.6,25.1-10.2,36.9-16.8V42l0,0C119,44.8,114.8,47.8,110.8,51z M78.2,40.8c-1.1,0.4-1.8,1.2-2,2.1c0.2-0.8,0.2-1.7-0.2-2.5
		c13-9.4,30.2-11.8,40.8-24.7c0.3-0.3,0.4-0.7,0.6-1h5.8v6l0,0C108.9,28.9,93.9,35.7,78.2,40.8z M86,14.7h23.1
		C98,25.1,81.4,27.9,69.5,37.5C63.8,35.8,58,34,52.3,32.3C63,27.2,73.7,22,84.4,16.9C85.5,16.4,86,15.6,86,14.7z M59.6,41.1
		c4.3,1.3,8.6,2.6,12.9,3.9c1.8,0.5,3.1-0.5,3.6-1.9c-0.2,0.9,0,1.9,0.5,2.6c-0.3,1.4,0.3,3,2.1,3.5c1.3,0.3,2.6,0.7,3.9,1
		c-1.4,0.7-2.7,1.5-4.1,2.2c-0.3-0.8-0.9-1.5-1.8-1.9c-6-2.4-12.1-4.5-18.3-6.2C59.5,43.6,59.9,42.3,59.6,41.1z M73.6,57.9
		c0.7-0.3,1.2-0.7,1.6-1.2c0.6,0.2,1.2,0.3,1.7,0.1c0.8,1.4,2.5,2.4,4.3,1.4c1.4-0.7,2.7-1.5,4.1-2.2c-1.6,1.2-1.8,4.3,0.4,5.5
		c-2.1,0.9-4.3,1.4-6.7,1.5c-0.5,0-1,0.2-1.4,0.4c-0.1-1.1-0.8-2.2-2.2-2.5l-6.5-1.5C70.5,58.9,72.1,58.4,73.6,57.9z M32.6,81.3
		V14.7h42c-9.4,4.5-18.7,9-28.1,13.5c-0.9,0.4-1.4,1.1-1.6,1.9c-0.2-0.1-0.4-0.1-0.7-0.2c-3.9-1.2-5.5,4.9-1.7,6s7.5,2.3,11.3,3.4
		c-1.4,0.4-2.9,0.8-4.3,1.3c-0.8,0.2-1.3,0.6-1.7,1.2c-0.1,0-0.2-0.1-0.4-0.1c-3.9-0.8-5.6,5.2-1.7,6c7,1.5,13.8,3.4,20.5,5.7
		c-4.2,0.9-8.5,1.2-12.9,0.7c-1-0.1-1.7,0.2-2.2,0.7c-0.2,0-0.3,0-0.5,0s-0.5,0.1-0.7,0.2c-3.2,0.2-4.2,5.3-0.7,6.1
		c8.1,1.9,16.1,3.7,24.2,5.6c0.9,0.2,1.6,0,2.3-0.3c0.1,1.4,1.1,2.8,3,2.7c1.8-0.1,3.6-0.4,5.4-0.8c0.2,0.6,0.7,1.1,1.4,1.4
		c11.1,5.1,22.8,7.9,35,8.3l0,0c0.1,0,0.2,0,0.4,0c0.8,0,1.4-0.2,1.9-0.5c0.1,0,0.1,0,0.2-0.1v3.7v24H32.6V81.3z"/>
	<polygon points="39.6,86.6 36,86.6 36,100.6 45.2,100.6 45.2,97.4 39.6,97.4 	"/>
	<path d="M55.9,94.8c0,1.7-0.9,2.8-2.8,2.8c-1.9,0-2.8-1.2-2.8-2.8v-8.2h-3.7v8.3c0,3.4,2,5.9,6.5,5.9s6.5-2.5,6.5-5.9v-8.3h-3.7
		V94.8z"/>
	<polygon points="70,94.5 67.1,86.6 62.1,86.6 62.1,100.6 65.7,100.6 65.7,91.1 69.2,100.6 70.8,100.6 74.3,91.1 74.3,100.6 
		77.9,100.6 77.9,86.6 72.9,86.6 	"/>
	<path d="M90.1,93.4c1.3-0.3,2.4-1.5,2.4-3.2c0-1.8-1.3-3.6-4.1-3.6h-7.9v14h8.2c2.7,0,4.1-1.8,4.1-3.8C92.7,95,91.6,93.6,90.1,93.4
		z M84.1,89.6h3.5c0.7,0,1.2,0.5,1.2,1.2S88.3,92,87.6,92h-3.5V89.6z M87.7,97.6h-3.6V95h3.6c0.9,0,1.4,0.6,1.4,1.3
		C89.1,97.1,88.6,97.6,87.7,97.6z"/>
	<polygon points="94.7,100.6 105,100.6 105,97.5 98.3,97.5 98.3,95 104.8,95 104.8,92 98.3,92 98.3,89.6 105,89.6 105,86.6 
		94.7,86.6 	"/>
	<path d="M118.9,91.3c0-2.6-1.8-4.7-4.9-4.7h-7v14h3.6v-4.7h1.8l2.3,4.7h4.1l-2.8-5.1C117.4,95,118.9,93.7,118.9,91.3z M113.5,92.8
		h-2.8v-3.1h2.8c0.9,0,1.7,0.6,1.7,1.6C115.3,92.2,114.5,92.8,113.5,92.8z"/>
</g>
</svg>
