<?xml version="1.0" encoding="utf-8"?>
<!-- Generator: Adobe Illustrator 23.0.1, SVG Export Plug-In . SVG Version: 6.00 Build 0)  -->
<svg version="1.1" id="Layer_1" xmlns="http://www.w3.org/2000/svg" xmlns:xlink="http://www.w3.org/1999/xlink" x="0px" y="0px"
	 viewBox="0 0 300 120" style="enable-background:new 0 0 300 120;" xml:space="preserve">
<style type="text/css">
	.st0{fill:none;}
	.st1{fill:#FFFFFF;}
</style>
<g>
	<path class="st0" d="M183.6,34.7c-1.2,0-2.2,0.4-2.8,1.3c-0.7,0.9-1,2.2-1,4c0,2.1,0.3,3.5,1,4.4c0.7,0.8,1.6,1.2,2.8,1.2
		c1.4,0,2.3-0.5,2.9-1.4c0.6-1,0.9-2.4,0.9-4.3C187.4,36.4,186.1,34.7,183.6,34.7z"/>
	<path class="st0" d="M207,75c-1,0-1.9,0.3-2.5,0.9c-0.6,0.6-1,1.5-1,2.6v17.9c0,1.1,0.3,2,1,2.6c0.6,0.6,1.5,0.9,2.5,0.9
		s1.9-0.3,2.5-0.9c0.6-0.6,1-1.5,1-2.6V78.5c0-1.1-0.3-2-1-2.6C208.9,75.3,208.1,75,207,75z"/>
	<path class="st0" d="M183.6,89.2c-1.2,0-2.2,0.4-2.8,1.3c-0.7,0.9-1,2.2-1,4c0,2.1,0.3,3.5,1,4.4c0.7,0.8,1.6,1.2,2.8,1.2
		c1.4,0,2.3-0.5,2.9-1.4c0.6-1,0.9-2.4,0.9-4.3C187.4,90.9,186.1,89.2,183.6,89.2z"/>
	<path class="st0" d="M183.6,84.5c2.4,0,3.5-1.6,3.5-4.9c0-1.5-0.3-2.6-0.8-3.4c-0.6-0.8-1.5-1.2-2.7-1.2s-2.1,0.4-2.7,1.2
		c-0.6,0.8-0.8,2-0.8,3.5c0,1.7,0.3,2.9,0.9,3.7C181.5,84.2,182.4,84.5,183.6,84.5z"/>
	<path class="st0" d="M183.6,30c2.4,0,3.5-1.6,3.5-4.9c0-1.5-0.3-2.6-0.8-3.4c-0.6-0.8-1.5-1.2-2.7-1.2s-2.1,0.4-2.7,1.2
		c-0.6,0.8-0.8,2-0.8,3.5c0,1.7,0.3,2.9,0.9,3.7C181.5,29.7,182.4,30,183.6,30z"/>
	<path class="st0" d="M132.5,79.6c0,0.9,0.3,1.7,0.8,2.3s1.3,1.2,2.3,1.6v-8.3c-1,0.2-1.8,0.7-2.3,1.5S132.5,78.5,132.5,79.6z"/>
	<path class="st0" d="M275.2,20.5c-1,0-1.9,0.3-2.5,0.9s-1,1.5-1,2.6v18c0,1.1,0.3,2,1,2.6c0.6,0.6,1.5,0.9,2.5,0.9s1.9-0.3,2.5-0.9
		c0.6-0.6,1-1.5,1-2.6V24c0-1.1-0.3-2-1-2.6C277.1,20.8,276.2,20.5,275.2,20.5z"/>
	<path class="st0" d="M251.4,97.6c-0.5,0.4-0.7,1-0.7,1.7c0,0.6,0.2,1.1,0.6,1.5c0.4,0.4,1.1,0.6,2.1,0.6c0.8,0,1.5-0.2,2.1-0.6
		c0.6-0.4,0.9-1.1,0.9-2V97h-3C252.5,97,251.9,97.2,251.4,97.6z"/>
	<path class="st0" d="M132.5,25.1c0,0.9,0.3,1.7,0.8,2.3c0.5,0.6,1.3,1.2,2.3,1.6v-8.3c-1,0.2-1.8,0.7-2.3,1.5S132.5,24,132.5,25.1z
		"/>
	<path class="st0" d="M137.9,90.6v9.3c1.3-0.2,2.2-0.7,2.6-1.6c0.5-0.8,0.7-1.8,0.7-3c0-1.3-0.3-2.3-0.9-2.9
		C139.8,91.6,139,91,137.9,90.6z"/>
	<path class="st0" d="M137.9,36.1v9.3c1.3-0.2,2.2-0.7,2.6-1.6c0.5-0.8,0.7-1.8,0.7-3c0-1.3-0.3-2.3-0.9-2.9
		C139.8,37.1,139,36.5,137.9,36.1z"/>
	<path d="M145,34.1c-0.7-0.8-1.6-1.6-2.8-2.3c-1.2-0.7-2.6-1.3-4.3-1.9v-9.1c1.9,0.3,3.4,1.3,4.4,3.1l4.2-3.1
		c-0.7-1.4-1.8-2.6-3.2-3.6s-3.2-1.6-5.4-1.8v-3.6h-2.3v3.6c-1.3,0.1-2.5,0.5-3.6,1s-2,1.2-2.7,2.1c-0.8,0.9-1.3,1.9-1.8,3
		c-0.4,1.2-0.6,2.4-0.6,3.7c0,1.3,0.2,2.5,0.5,3.4c0.4,1,0.9,1.9,1.6,2.7c0.7,0.8,1.6,1.5,2.7,2.1c1.1,0.6,2.4,1.2,3.9,1.7v10.2
		c-1.1-0.2-2.1-0.6-2.9-1.3s-1.5-1.6-2.1-2.6l-4.6,2.9c1,1.8,2.2,3.3,3.8,4.4c1.6,1.1,3.5,1.8,5.8,1.9v4.8h2.3v-4.8
		c2.9-0.2,5.2-1.2,6.8-3s2.3-4.2,2.3-7.2c0-1.3-0.2-2.5-0.5-3.6C146.2,35.9,145.7,34.9,145,34.1z M135.6,29c-1-0.5-1.8-1-2.3-1.6
		s-0.8-1.4-0.8-2.3c0-1.1,0.3-2.1,0.8-2.8s1.3-1.3,2.3-1.5V29z M140.5,43.8c-0.5,0.8-1.4,1.4-2.6,1.6v-9.3c1.1,0.5,1.9,1,2.5,1.7
		s0.9,1.7,0.9,2.9C141.3,41.9,141,42.9,140.5,43.8z"/>
	<polygon points="154.4,19.4 154.4,25.4 159.3,21.7 159.3,50.5 164.8,50.5 164.8,15.5 159.6,15.5 	"/>
	<path d="M192.2,35.6c-0.3-0.7-0.6-1.4-1.1-1.9c-0.5-0.6-1.1-1-1.8-1.3v-0.1c1.3-0.7,2.1-1.7,2.6-3c0.5-1.2,0.7-2.6,0.7-4.2
		c0-1.7-0.2-3.2-0.7-4.4c-0.4-1.2-1.1-2.2-1.9-3c-0.8-0.8-1.8-1.4-2.9-1.8c-1.1-0.4-2.4-0.6-3.7-0.6c-2.7,0-4.9,0.8-6.5,2.5
		c-1.7,1.7-2.5,4.1-2.5,7.3c0,1.6,0.2,3,0.6,4.2c0.4,1.2,1.3,2.2,2.7,3v0.1c-1.4,0.7-2.4,1.7-2.9,3.2s-0.8,3.1-0.8,4.9
		c0,1.9,0.3,3.5,0.8,4.8s1.2,2.4,2,3.2c0.9,0.8,1.8,1.4,3,1.8c1.1,0.4,2.3,0.5,3.6,0.5c1.2,0,2.4-0.2,3.5-0.5c1.1-0.4,2.2-0.9,3-1.8
		c0.9-0.8,1.6-1.9,2.1-3.2s0.8-2.9,0.8-4.8c0-0.9-0.1-1.7-0.2-2.5C192.7,37.1,192.5,36.3,192.2,35.6z M180.9,21.8
		c0.6-0.8,1.4-1.2,2.7-1.2s2.2,0.4,2.7,1.2c0.6,0.8,0.8,1.9,0.8,3.4c0,3.3-1.2,4.9-3.5,4.9c-1.2,0-2.1-0.4-2.6-1.1
		c-0.6-0.7-0.9-2-0.9-3.7C180.1,23.7,180.3,22.6,180.9,21.8z M186.5,44.1c-0.6,1-1.6,1.4-2.9,1.4c-1.2,0-2.1-0.4-2.8-1.2
		s-1-2.3-1-4.4c0-1.8,0.3-3.2,1-4c0.7-0.9,1.6-1.3,2.8-1.3c2.5,0,3.8,1.7,3.8,5.2C187.4,41.8,187.1,43.2,186.5,44.1z"/>
	<path d="M228,50.5l-7.5-12.7l7.2-12.2h-6.3l-3.8,7.9l0,0l-3.8-7.9h-6.4c1.2,2,2.4,4.1,3.6,6.1c1.2,2,2.4,4,3.6,6.1l-7.5,12.7h6.3
		l4.2-8.4l4.2,8.4H228z"/>
	<polygon points="250.8,50.5 256.4,50.5 256.4,15.5 251.1,15.5 246,19.4 246,25.4 250.8,21.7 	"/>
	<path d="M281.5,17.5c-0.8-0.8-1.8-1.3-2.9-1.7c-1.1-0.4-2.3-0.6-3.5-0.6s-2.3,0.2-3.4,0.6s-2,1-2.9,1.7c-0.8,0.8-1.5,1.7-2,2.8
		c-0.5,1.1-0.7,2.3-0.7,3.7v18c0,1.4,0.2,2.6,0.7,3.7c0.5,1.1,1.1,2,2,2.7c0.8,0.8,1.8,1.3,2.9,1.7s2.2,0.6,3.4,0.6
		c1.2,0,2.4-0.2,3.4-0.6c1.1-0.4,2-1,2.9-1.7c0.8-0.8,1.5-1.7,2-2.7c0.5-1.1,0.7-2.3,0.7-3.7V24c0-1.4-0.2-2.7-0.7-3.7
		C283,19.2,282.3,18.3,281.5,17.5z M278.7,42c0,1.1-0.3,2-1,2.6c-0.6,0.6-1.5,0.9-2.5,0.9s-1.9-0.3-2.5-0.9c-0.6-0.6-1-1.5-1-2.6V24
		c0-1.1,0.3-2,1-2.6c0.6-0.6,1.5-0.9,2.5-0.9s1.9,0.3,2.5,0.9s1,1.5,1,2.6V42z"/>
	<path d="M145,88.6c-0.7-0.8-1.6-1.6-2.8-2.3s-2.6-1.3-4.3-1.9v-9.1c1.9,0.3,3.4,1.3,4.4,3.1l4.2-3.1c-0.7-1.4-1.8-2.6-3.2-3.6
		s-3.2-1.6-5.4-1.8v-3.6h-2.3v3.6c-1.3,0.1-2.5,0.5-3.6,1s-2,1.2-2.7,2.1c-0.8,0.9-1.3,1.9-1.8,3c-0.4,1.2-0.6,2.4-0.6,3.7
		s0.2,2.5,0.5,3.4c0.4,1,0.9,1.9,1.6,2.7s1.6,1.5,2.7,2.1c1.1,0.6,2.4,1.2,3.9,1.7v10.2c-1.1-0.2-2.1-0.6-2.9-1.3s-1.5-1.6-2.1-2.6
		l-4.6,2.9c1,1.8,2.2,3.3,3.8,4.4c1.6,1.1,3.5,1.8,5.8,1.9v4.8h2.3v-4.8c2.9-0.2,5.2-1.2,6.8-3s2.3-4.2,2.3-7.2
		c0-1.3-0.2-2.5-0.5-3.6C146.2,90.4,145.7,89.4,145,88.6z M135.6,83.5c-1-0.5-1.8-1-2.3-1.6s-0.8-1.4-0.8-2.3c0-1.1,0.3-2.1,0.8-2.8
		s1.3-1.3,2.3-1.5V83.5z M140.5,98.3c-0.5,0.8-1.4,1.4-2.6,1.6v-9.3c1.1,0.5,1.9,1,2.5,1.7s0.9,1.7,0.9,2.9
		C141.3,96.4,141,97.4,140.5,98.3z"/>
	<polygon points="154.4,73.9 154.4,79.9 159.3,76.2 159.3,105 164.8,105 164.8,70 159.6,70 	"/>
	<path d="M192.2,90.1c-0.3-0.7-0.6-1.4-1.1-1.9c-0.5-0.6-1.1-1-1.8-1.3v-0.1c1.3-0.7,2.1-1.7,2.6-3c0.5-1.2,0.7-2.6,0.7-4.2
		c0-1.7-0.2-3.2-0.7-4.4c-0.4-1.2-1.1-2.2-1.9-3c-0.8-0.8-1.8-1.4-2.9-1.8c-1.1-0.4-2.4-0.6-3.7-0.6c-2.7,0-4.9,0.8-6.5,2.5
		c-1.7,1.7-2.5,4.1-2.5,7.3c0,1.6,0.2,3,0.6,4.2c0.4,1.2,1.3,2.2,2.7,3v0.1c-1.4,0.7-2.4,1.7-2.9,3.2S174,93.2,174,95
		c0,1.9,0.3,3.5,0.8,4.8s1.2,2.4,2,3.2c0.9,0.8,1.8,1.4,3,1.8c1.1,0.4,2.3,0.5,3.6,0.5c1.2,0,2.4-0.2,3.5-0.5c1.1-0.4,2.2-0.9,3-1.8
		c0.9-0.8,1.6-1.9,2.1-3.2s0.8-2.9,0.8-4.8c0-0.9-0.1-1.7-0.2-2.5C192.7,91.6,192.5,90.8,192.2,90.1z M180.9,76.3
		c0.6-0.8,1.4-1.2,2.7-1.2s2.2,0.4,2.7,1.2c0.6,0.8,0.8,1.9,0.8,3.4c0,3.3-1.2,4.9-3.5,4.9c-1.2,0-2.1-0.4-2.6-1.1
		c-0.6-0.7-0.9-2-0.9-3.7C180.1,78.3,180.3,77.1,180.9,76.3z M186.5,98.7c-0.6,1-1.6,1.4-2.9,1.4c-1.2,0-2.1-0.4-2.8-1.2
		s-1-2.3-1-4.4c0-1.8,0.3-3.2,1-4c0.7-0.9,1.6-1.3,2.8-1.3c2.5,0,3.8,1.7,3.8,5.2C187.4,96.3,187.1,97.7,186.5,98.7z"/>
	<path d="M213.3,72c-0.8-0.8-1.8-1.3-2.9-1.7c-1.1-0.4-2.3-0.6-3.5-0.6s-2.3,0.2-3.4,0.6s-2,1-2.9,1.7c-0.8,0.8-1.5,1.7-2,2.8
		s-0.7,2.3-0.7,3.7v18c0,1.4,0.2,2.6,0.7,3.7c0.5,1.1,1.1,2,2,2.7c0.8,0.8,1.8,1.3,2.9,1.7c1.1,0.4,2.2,0.6,3.4,0.6s2.4-0.2,3.4-0.6
		c1.1-0.4,2-1,2.9-1.7c0.8-0.8,1.5-1.7,2-2.7c0.5-1.1,0.7-2.3,0.7-3.7v-18c0-1.4-0.2-2.7-0.7-3.7C214.8,73.7,214.2,72.8,213.3,72z
		 M210.5,96.5c0,1.1-0.3,2-1,2.6c-0.6,0.6-1.5,0.9-2.5,0.9s-1.9-0.3-2.5-0.9c-0.6-0.6-1-1.5-1-2.6V78.6c0-1.1,0.3-2,1-2.6
		c0.6-0.6,1.5-0.9,2.5-0.9s1.9,0.3,2.5,0.9c0.6,0.6,1,1.5,1,2.6V96.5z"/>
	<polygon points="218.4,106.6 221.7,106.6 230,77.7 226.7,77.7 	"/>
	<path d="M242.9,100.5c-0.4-0.2-0.8-0.4-1.1-0.5c-0.3-0.2-0.6-0.3-0.7-0.4c-0.3,0.5-0.6,1-1,1.3s-0.9,0.5-1.5,0.5s-1.1-0.1-1.5-0.4
		c-0.4-0.3-0.7-0.7-0.9-1.2s-0.4-1.1-0.5-1.8s-0.1-1.5-0.1-2.3s0-1.6,0.1-2.2c0.1-0.7,0.2-1.3,0.5-1.8c0.2-0.5,0.5-0.9,1-1.2
		c0.4-0.3,0.9-0.4,1.6-0.4c1.1,0,2,0.6,2.5,1.8c0.1-0.1,0.3-0.2,0.7-0.4c0.3-0.2,0.7-0.4,1.1-0.5c0.4-0.2,0.8-0.4,1.1-0.5
		c0.3-0.2,0.6-0.3,0.7-0.4c-0.5-1.2-1.3-2.2-2.4-2.9c-1.1-0.7-2.4-1-3.8-1c-1.3,0-2.4,0.2-3.3,0.7c-0.9,0.5-1.6,1.1-2.2,1.9
		c-0.6,0.8-1,1.8-1.2,3c-0.3,1.2-0.4,2.4-0.4,3.8c0,1.4,0.1,2.7,0.3,3.9s0.6,2.2,1.1,3s1.3,1.5,2.2,2s2.1,0.7,3.5,0.7
		c1.5,0,2.7-0.3,3.8-1s1.9-1.6,2.4-2.8c-0.1-0.1-0.4-0.2-0.7-0.4C243.6,100.9,243.3,100.7,242.9,100.5z"/>
	<path d="M258.5,87.4c-0.6-0.5-1.3-0.8-2.2-1c-0.8-0.2-1.7-0.3-2.7-0.3c-1.4,0-2.7,0.3-3.8,0.8c-1.1,0.6-2,1.4-2.6,2.6
		c0.1,0.1,0.3,0.2,0.6,0.4s0.6,0.4,0.9,0.6s0.7,0.4,1,0.6c0.3,0.2,0.5,0.3,0.6,0.4c0.3-0.6,0.8-1.1,1.4-1.3c0.6-0.2,1.2-0.4,1.9-0.4
		c1,0,1.7,0.2,2.1,0.7c0.4,0.4,0.6,1,0.6,1.6v1.7h-3.2c-1.1,0-2.1,0.2-2.9,0.5c-0.8,0.3-1.5,0.7-2,1.2s-0.9,1.1-1.2,1.8
		s-0.4,1.4-0.4,2.2c0,1.7,0.4,3,1.3,4.1c0.9,1,2.2,1.5,4.1,1.5c0.8,0,1.5-0.1,2.3-0.4c0.8-0.3,1.4-0.7,1.8-1.3l0.2,0.1v1.4h4.1V92
		c0-1.1-0.2-2-0.5-2.8C259.6,88.4,259.2,87.8,258.5,87.4z M256.4,98.8c0,0.9-0.3,1.6-0.9,2s-1.3,0.6-2.1,0.6c-1,0-1.6-0.2-2.1-0.6
		c-0.4-0.4-0.6-0.9-0.6-1.5c0-0.8,0.2-1.3,0.7-1.7s1.1-0.6,1.9-0.6h3v1.8H256.4z"/>
	<path d="M272.8,86.1c-0.9,0-1.7,0.2-2.5,0.5c-0.7,0.3-1.3,1-1.8,1.9h-0.1v-2.1h-4.1v18.7h4.2V93.9c0-1.3,0.3-2.2,0.9-2.7
		c0.6-0.6,1.5-0.9,2.5-0.9c0.4,0,0.7,0,1,0.1s0.7,0.2,1,0.4l0.8-4.1c-0.3-0.2-0.6-0.3-0.9-0.4C273.6,86.2,273.2,86.1,272.8,86.1z"/>
	<path class="st1" d="M34.6,89.6h-2.8v3.1h2.8c0.9,0,1.7-0.6,1.7-1.6C36.3,90.2,35.5,89.6,34.6,89.6z"/>
	<path class="st1" d="M39.9,61.4c7.5,0,14.9,0,22.4,0.1c-2.4-1.1-4.7-2.3-6.3-4.6c-2.9-4.4-1.6-11.2-1.6-16.2c0-2.6-0.3-5.6,0.5-8.1
		c0.6-1.7,2-2.6,2.7-4c0.1-0.2,1.4-0.9,1.4-0.8c-0.2-0.7-3.8,0.1-4.3,0.1c-2.1,0.1-3.5,0.1-5.5-0.5c-0.6-0.2-1-0.5-1.4-0.9
		c-0.2,0-0.5,0-0.8-0.1c-3,2.2-3.6,3.8-1.7,4.9c0.6,0.4,1.2,0.9,1.6,1.5c0.7,1.4,1.3,2.3,1.6,3.8c0.8,3.8,0.6,9.1,0.6,12.9
		C49.3,57,44.9,59,39.9,61.4z"/>
	<path class="st1" d="M65.2,23.2c0.7,0.8,1.3,1.8,1.6,2.8c10.7-3.2,21.1-7,31.3-11.3H74.8c-0.3,0.3-0.7,0.5-1.2,0.7
		c-5.7,2-11.4,4-17.1,6C59.7,21,62.7,20.5,65.2,23.2z"/>
	<path class="st1" d="M112.6,15c-15.5,7.4-31.5,13.4-48.1,18.2c-0.5,0.2-1,0.2-1.5,0.1c-0.5,0.4-1,0.9-1.5,1.8
		c-1.6,3.1-0.9,7.3-0.9,10.7c-0.1,5.1,1.5,8.7,6.1,11c1.6,0.8,2.9,1.6,4.2,2.6c14.2-5.3,28-11.2,41.6-17.9l0,0v-9.8
		c-14.4,6.5-28.7,13-43.1,19.6c-1.2,0.6-2.3-1.2-1.1-1.8c14.7-6.7,29.4-13.4,44.1-20l0,0V15H112.6z"/>
	<path class="st1" d="M22.1,105.3h90.6V71.8V48.5c-13.2,6.3-26.6,12-40.4,17.1c-0.8,0.3-1.5,0.2-2.1,0c-0.3,1.2-1.3,2.2-2.9,2.2
		c-11.5,0-23.1-0.1-34.6-0.1c-1.6,0-2.6-1-2.9-2.3c-1.7-1-2.5-3.2-0.6-4.7c1.7-1.4,3.2-2.3,5.2-3.3c1.9-0.8,3.8-1.6,5.7-2.5
		c2.4-2.9,3.2-6,2.3-9.3c0.3-3.8,0.3-7.1-2.2-10.4c-1.2-1.6-2.4-2-3.2-4c-2.2-5.7,1.7-9.5,6.4-10.7c0.3-0.8,0.9-1.6,2-1.9
		c3.8-1.3,7.6-2.6,11.4-3.9H22.1v57V105.3z M35.9,100.6l-2.3-4.7h-1.8v4.7h-3.6v-14h7c3.1,0,4.9,2.1,4.9,4.7c0,2.4-1.5,3.7-2.8,4.2
		l2.8,5.1H35.9z M51.6,100.6l-0.7-2.1h-5.8l-0.7,2.1h-3.9l5.3-14h4.5l5.3,14H51.6z M60.2,100.6h-3.6v-14h3.6V100.6z M71.9,100.6
		h-9.2v-14h3.6v10.8h5.6V100.6z M79,100.8c-2.8,0-4.8-0.9-6.2-2.2l1.9-2.7c1,1,2.6,1.8,4.5,1.8c1.2,0,2-0.5,2-1.2
		c0-0.8-0.9-1.1-2.4-1.4c-2.3-0.5-5.5-1-5.5-4.4c0-2.3,2-4.4,5.6-4.4c2.2,0,4.2,0.7,5.7,1.9l-2,2.6c-1.2-1-2.7-1.4-3.9-1.4
		c-1.2,0-1.7,0.5-1.7,1.1c0,0.7,0.9,1,2.4,1.3c2.3,0.5,5.5,1.2,5.5,4.3C84.8,99,82.7,100.8,79,100.8z"/>
	<polygon class="st1" points="46.1,95.4 50,95.4 48,89.7 	"/>
	<path d="M22.1,8.4h-6.3v6.3v90.6v6.3h6.3h90.6h6.3v-6.3V14.7V8.4h-6.3H22.1z M68.5,49.5c-1.2,0.6-0.2,2.4,1.1,1.8
		c14.4-6.5,28.7-13,43.1-19.6v9.8l0,0c-13.6,6.6-27.4,12.6-41.6,17.9c-1.3-1-2.6-1.9-4.2-2.6c-4.6-2.3-6.2-5.9-6.1-11
		c0-3.4-0.6-7.6,0.9-10.7c0.4-0.9,0.9-1.4,1.5-1.8c0.4,0.1,0.9,0.1,1.5-0.1c16.5-4.7,32.6-10.8,48.1-18.2v14.5l0,0
		C97.9,36.2,83.2,42.8,68.5,49.5z M48.6,36.6c-0.3-1.5-0.9-2.4-1.6-3.8c-0.4-0.6-1-1.1-1.6-1.5c-1.9-1.1-1.3-2.7,1.7-4.9
		c0.3,0.1,0.5,0.1,0.8,0.1c0.3,0.4,0.8,0.7,1.4,0.9c2,0.6,3.4,0.6,5.5,0.5c0.5,0,4.1-0.8,4.3-0.1c0-0.1-1.3,0.6-1.4,0.8
		c-0.7,1.4-2.1,2.3-2.7,4c-0.8,2.5-0.5,5.5-0.5,8.1c-0.1,5-1.3,11.7,1.6,16.2c1.5,2.4,3.9,3.5,6.3,4.6c-7.5,0-14.9,0-22.4-0.1
		c5-2.4,9.4-4.5,9.3-11.9C49.2,45.8,49.4,40.4,48.6,36.6z M74.8,14.7H98C87.8,19,77.4,22.8,66.7,26c-0.3-1.1-0.8-2-1.6-2.8
		c-2.5-2.7-5.6-2.2-8.6-1.8c5.7-1.9,11.4-3.9,17.1-6C74.1,15.3,74.5,15,74.8,14.7z M56.7,14.7c-3.8,1.3-7.6,2.6-11.4,3.9
		c-1.1,0.4-1.7,1.1-2,1.9c-4.7,1.2-8.6,5-6.4,10.7c0.8,2,2,2.4,3.2,4c2.5,3.3,2.5,6.7,2.2,10.4c0.9,3.3,0.1,6.4-2.3,9.3
		c-1.9,0.9-3.8,1.7-5.7,2.5c-2,1-3.4,1.9-5.2,3.3c-1.9,1.5-1,3.7,0.6,4.7c0.3,1.2,1.3,2.3,2.9,2.3c11.5,0,23.1,0.1,34.6,0.1
		c1.6,0,2.6-1,2.9-2.2c0.6,0.3,1.3,0.3,2.1,0c13.7-5.1,27.2-10.8,40.4-17.1v23.3v33.5H22.1V71.8v-57h34.6V14.7z"/>
	<path d="M40,91.3c0-2.6-1.8-4.7-4.9-4.7h-7v14h3.6v-4.7h1.8l2.3,4.7H40l-2.8-5.1C38.5,95,40,93.7,40,91.3z M34.6,92.8h-2.8v-3.1
		h2.8c0.9,0,1.7,0.6,1.7,1.6C36.3,92.2,35.5,92.8,34.6,92.8z"/>
	<path d="M45.7,86.6l-5.3,14h3.9l0.7-2.1h5.8l0.7,2.1h3.9l-5.3-14H45.7z M46.1,95.4l1.9-5.7l2,5.7H46.1z"/>
	<rect x="56.6" y="86.6" width="3.6" height="14"/>
	<polygon points="66.3,86.6 62.7,86.6 62.7,100.6 71.9,100.6 71.9,97.4 66.3,97.4 	"/>
	<path d="M79.3,91.8c-1.5-0.3-2.4-0.5-2.4-1.3c0-0.6,0.5-1.1,1.7-1.1s2.8,0.5,3.9,1.4l2-2.6c-1.5-1.3-3.4-1.9-5.7-1.9
		c-3.6,0-5.6,2-5.6,4.4c0,3.3,3.2,3.9,5.5,4.4c1.5,0.3,2.4,0.6,2.4,1.4c0,0.7-0.8,1.2-2,1.2c-1.9,0-3.5-0.8-4.5-1.8l-1.9,2.7
		c1.4,1.3,3.4,2.2,6.2,2.2c3.8,0,5.8-1.9,5.8-4.7C84.8,93,81.6,92.3,79.3,91.8z"/>
</g>
</svg>
