<?xml version="1.0" encoding="utf-8"?>
<!-- Generator: Adobe Illustrator 24.1.2, SVG Export Plug-In . SVG Version: 6.00 Build 0)  -->
<svg version="1.1" id="Layer_1" xmlns="http://www.w3.org/2000/svg" xmlns:xlink="http://www.w3.org/1999/xlink" x="0px" y="0px"
	 viewBox="0 0 153.3 120" style="enable-background:new 0 0 153.3 120;" xml:space="preserve">
<style type="text/css">
	.st0{fill:none;stroke:#000000;stroke-width:7;stroke-miterlimit:10;}
	.st1{fill:none;stroke:#000000;stroke-width:6;stroke-miterlimit:10;}
	.st2{fill:none;stroke:#000000;stroke-width:3;stroke-miterlimit:10;}
</style>
<g>
	<path d="M39.2,101.5c-1.1-0.3-2-0.7-2.7-1.2l1.4-3.1c0.7,0.4,1.4,0.8,2.3,1c0.9,0.3,1.7,0.4,2.6,0.4c1.6,0,2.4-0.4,2.4-1.2
		c0-0.4-0.2-0.7-0.7-0.9c-0.5-0.2-1.2-0.4-2.2-0.6c-1.1-0.2-2-0.5-2.8-0.8s-1.4-0.7-1.9-1.3c-0.5-0.6-0.8-1.4-0.8-2.4
		c0-0.9,0.2-1.7,0.7-2.4c0.5-0.7,1.2-1.3,2.2-1.7c1-0.4,2.2-0.6,3.6-0.6c1,0,1.9,0.1,2.9,0.3c0.9,0.2,1.8,0.5,2.5,1L47.3,91
		c-1.4-0.8-2.8-1.1-4.1-1.1c-0.8,0-1.4,0.1-1.8,0.4s-0.6,0.6-0.6,1c0,0.4,0.2,0.7,0.7,0.9c0.4,0.2,1.2,0.4,2.2,0.6
		c1.1,0.2,2,0.5,2.8,0.8c0.7,0.3,1.4,0.7,1.9,1.3c0.5,0.6,0.8,1.4,0.8,2.4c0,0.9-0.2,1.7-0.7,2.4c-0.5,0.7-1.2,1.3-2.2,1.7
		c-1,0.4-2.2,0.6-3.6,0.6C41.4,102,40.3,101.8,39.2,101.5z"/>
	<path d="M60.9,98.8h-6.2l-1.2,2.9h-4.2L55.8,87h4.1l6.5,14.7h-4.3L60.9,98.8z M59.7,95.7L57.8,91l-1.9,4.7H59.7z"/>
	<path d="M81.5,87v14.7h-3.4l-6.5-7.8v7.8h-4.1V87H71l6.5,7.8V87H81.5z"/>
	<path d="M84.5,87h7c1.6,0,3,0.3,4.3,0.9s2.2,1.5,2.9,2.6c0.7,1.1,1,2.4,1,3.9c0,1.5-0.3,2.8-1,3.9c-0.7,1.1-1.7,2-2.9,2.6
		c-1.2,0.6-2.7,0.9-4.3,0.9h-7V87z M91.3,98.3c1.3,0,2.3-0.4,3-1.1c0.8-0.7,1.1-1.7,1.1-3c0-1.3-0.4-2.2-1.1-3
		c-0.8-0.7-1.8-1.1-3-1.1h-2.6v8.1H91.3z"/>
</g>
<rect x="29.4" y="11.6" class="st0" width="97" height="97"/>
<path class="st1" d="M100.7,63.4c-3.3,0-9.1,0.1-22.1,0.6c-11.6,0.4-13.8,0.3-20.5,0.1c-7-0.2,13.4-40.9,22.6-40.9
	C94.6,23.2,107.5,63.4,100.7,63.4z"/>
<circle class="st2" cx="73.4" cy="39.3" r="1.2"/>
<circle class="st2" cx="68.8" cy="54" r="1.2"/>
<circle class="st2" cx="87.4" cy="40.9" r="1.2"/>
<circle class="st2" cx="78.6" cy="47" r="1.2"/>
<circle class="st2" cx="80.3" cy="35.1" r="1.2"/>
<circle class="st2" cx="83.3" cy="56.6" r="1.2"/>
<circle class="st2" cx="89.3" cy="47.9" r="1.2"/>
</svg>
