<?xml version="1.0" encoding="utf-8"?>
<!-- Generator: Adobe Illustrator 23.0.1, SVG Export Plug-In . SVG Version: 6.00 Build 0)  -->
<svg version="1.1" id="Layer_1" xmlns="http://www.w3.org/2000/svg" xmlns:xlink="http://www.w3.org/1999/xlink" x="0px" y="0px"
	 viewBox="0 0 300 120" style="enable-background:new 0 0 300 120;" xml:space="preserve">
<style type="text/css">
	.st0{fill:none;}
	.st1{fill:#FFFFFF;}
</style>
<g>
	<path class="st0" d="M184.5,81.7c2.4,0,3.5-1.6,3.5-4.9c0-1.5-0.3-2.6-0.8-3.4c-0.6-0.8-1.5-1.2-2.7-1.2s-2.1,0.4-2.7,1.2
		s-0.8,2-0.8,3.5c0,1.7,0.3,2.9,0.9,3.7C182.4,81.4,183.3,81.7,184.5,81.7z"/>
	<path class="st0" d="M207.9,72.2c-1,0-1.9,0.3-2.5,0.9c-0.6,0.6-1,1.5-1,2.6v17.9c0,1.1,0.3,2,1,2.6c0.6,0.6,1.5,0.9,2.5,0.9
		s1.9-0.3,2.5-0.9c0.6-0.6,1-1.5,1-2.6V75.7c0-1.1-0.3-2-1-2.6C209.8,72.5,209,72.2,207.9,72.2z"/>
	<path class="st0" d="M184.5,86.4c-1.2,0-2.2,0.4-2.8,1.3c-0.7,0.9-1,2.2-1,4c0,2.1,0.3,3.5,1,4.4c0.7,0.8,1.6,1.2,2.8,1.2
		c1.4,0,2.3-0.5,2.9-1.4c0.6-1,0.9-2.4,0.9-4.3C188.2,88.1,187,86.4,184.5,86.4z"/>
	<path class="st0" d="M252.3,94.8c-0.5,0.4-0.7,1-0.7,1.7c0,0.6,0.2,1.1,0.6,1.5c0.4,0.4,1.1,0.6,2.1,0.6c0.8,0,1.5-0.2,2.1-0.6
		c0.6-0.4,0.9-1.1,0.9-2v-1.8h-3C253.4,94.2,252.8,94.4,252.3,94.8z"/>
	<path class="st0" d="M184.5,17.7c-1,0-1.9,0.3-2.5,0.9s-1,1.5-1,2.6v17.9c0,1.1,0.3,2,1,2.6c0.6,0.6,1.5,0.9,2.5,0.9
		s1.9-0.3,2.5-0.9c0.6-0.6,1-1.5,1-2.6V21.2c0-1.1-0.3-2-1-2.6C186.4,18,185.6,17.7,184.5,17.7z"/>
	<path class="st0" d="M138.8,33.3v9.3c1.3-0.2,2.2-0.7,2.6-1.6c0.5-0.8,0.7-1.8,0.7-3c0-1.3-0.3-2.3-0.9-2.9
		C140.7,34.3,139.9,33.7,138.8,33.3z"/>
	<path class="st0" d="M133.4,22.3c0,0.9,0.3,1.7,0.8,2.3c0.5,0.6,1.3,1.2,2.3,1.6V18c-1,0.2-1.8,0.7-2.3,1.5S133.4,21.2,133.4,22.3z
		"/>
	<path class="st0" d="M138.8,87.8v9.3c1.3-0.2,2.2-0.7,2.6-1.6c0.5-0.8,0.7-1.8,0.7-3c0-1.3-0.3-2.3-0.9-2.9
		C140.7,88.8,139.9,88.2,138.8,87.8z"/>
	<path class="st0" d="M133.4,76.8c0,0.9,0.3,1.7,0.8,2.3s1.3,1.2,2.3,1.6v-8.3c-1,0.2-1.8,0.7-2.3,1.5
		C133.7,74.8,133.4,75.7,133.4,76.8z"/>
	<path d="M145.9,31.3c-0.7-0.8-1.6-1.6-2.8-2.3c-1.2-0.7-2.6-1.3-4.3-1.9V18c1.9,0.3,3.4,1.3,4.4,3.1l4.2-3.1
		c-0.7-1.4-1.8-2.6-3.2-3.6s-3.2-1.6-5.4-1.8V9h-2.3v3.6c-1.3,0.1-2.5,0.5-3.6,1s-2,1.2-2.7,2.1c-0.8,0.9-1.3,1.9-1.8,3
		c-0.4,1.2-0.6,2.4-0.6,3.7c0,1.3,0.2,2.5,0.5,3.4c0.4,1,0.9,1.9,1.6,2.7c0.7,0.8,1.6,1.5,2.7,2.1c1.1,0.6,2.4,1.2,3.9,1.7v10.2
		c-1.1-0.2-2.1-0.6-2.9-1.3c-0.8-0.7-1.5-1.6-2.1-2.6l-4.6,2.9c1,1.8,2.2,3.3,3.8,4.4c1.6,1.1,3.5,1.8,5.8,1.9v4.8h2.3v-4.8
		c3-0.2,5.2-1.2,6.8-3s2.3-4.2,2.3-7.2c0-1.3-0.2-2.5-0.5-3.6C147.1,33.1,146.6,32.1,145.9,31.3z M136.5,26.2c-1-0.5-1.8-1-2.3-1.6
		s-0.8-1.4-0.8-2.3c0-1.1,0.3-2.1,0.8-2.8c0.5-0.8,1.3-1.3,2.3-1.5V26.2z M141.4,41c-0.5,0.8-1.4,1.4-2.6,1.6v-9.3
		c1.1,0.5,1.9,1,2.5,1.7s0.9,1.7,0.9,2.9C142.2,39.1,141.9,40.1,141.4,41z"/>
	<path d="M158.2,18.9c0.7-0.8,1.5-1.2,2.5-1.2c1.2,0,2.1,0.4,2.6,1.2c0.5,0.8,0.8,1.6,0.8,2.6c0,0.7-0.1,1.4-0.3,2.2
		c-0.2,0.8-0.5,1.5-1,2.2l-11.3,16.9v5h18.1v-5.3h-11.1l9.1-13.6c0.8-1.2,1.4-2.4,1.7-3.6c0.4-1.2,0.6-2.5,0.6-3.8
		c0-2.8-0.8-5-2.4-6.5c-1.6-1.5-3.9-2.3-6.7-2.3c-2.6,0-4.7,0.8-6.4,2.5c-1.7,1.6-2.7,4-2.9,7L157,23
		C157.1,21,157.5,19.7,158.2,18.9z"/>
	<path d="M190.8,14.7c-0.8-0.8-1.8-1.3-2.9-1.7c-1.1-0.4-2.3-0.6-3.5-0.6s-2.3,0.2-3.4,0.6s-2,1-2.9,1.7c-0.8,0.8-1.5,1.7-2,2.8
		c-0.5,1.1-0.7,2.3-0.7,3.7v18c0,1.4,0.2,2.6,0.7,3.7c0.5,1.1,1.1,2,2,2.7c0.8,0.8,1.8,1.3,2.9,1.7c1.1,0.4,2.2,0.6,3.4,0.6
		s2.4-0.2,3.4-0.6s2-1,2.9-1.7c0.8-0.8,1.5-1.7,2-2.7c0.5-1.1,0.7-2.3,0.7-3.7v-18c0-1.4-0.2-2.7-0.7-3.7
		C192.3,16.4,191.7,15.5,190.8,14.7z M188,39.2c0,1.1-0.3,2-1,2.6c-0.6,0.6-1.5,0.9-2.5,0.9s-1.9-0.3-2.5-0.9c-0.6-0.6-1-1.5-1-2.6
		V21.3c0-1.1,0.3-2,1-2.6c0.6-0.6,1.5-0.9,2.5-0.9s1.9,0.3,2.5,0.9s1,1.5,1,2.6V39.2z"/>
	<path d="M228.9,47.7L221.4,35l7.2-12.2h-6.3l-3.8,7.9h-0.1l-3.8-7.9h-6.4c1.2,2,2.4,4.1,3.6,6.1c1.2,2,2.4,4,3.6,6.1l-7.5,12.7h6.3
		l4.2-8.4l4.2,8.4H228.9z"/>
	<path d="M261.2,32.8c-0.3-0.7-0.7-1.3-1.2-1.9s-1.2-1-2.1-1.4c0.7-0.3,1.3-0.7,1.8-1.3c0.5-0.6,0.9-1.2,1.2-1.8
		c0.3-0.7,0.5-1.3,0.6-2s0.2-1.4,0.2-2c0-1.3-0.1-2.5-0.4-3.7s-0.7-2.2-1.4-3.2c-0.7-0.9-1.6-1.7-2.8-2.2c-1.2-0.6-2.7-0.8-4.5-0.8
		c-2.5,0-4.6,0.8-6.2,2.4s-2.6,3.7-2.9,6.4c0.3,0,0.7,0.1,1.2,0.2s1,0.2,1.6,0.3c0.6,0.1,1.1,0.2,1.6,0.3c0.5,0.1,0.9,0.1,1.2,0.2
		c0.2-1.4,0.5-2.5,1.1-3.2s1.4-1.1,2.5-1.1c0.7,0,1.2,0.1,1.7,0.4s0.8,0.7,1.1,1.1c0.3,0.5,0.5,1,0.6,1.6s0.2,1.2,0.2,1.7
		c0,1.5-0.3,2.7-0.9,3.5s-1.7,1.2-3.1,1.2h-2.2v4.7h2.2c1.5,0,2.6,0.5,3.3,1.4c0.6,0.9,1,2.4,1,4.3c0,1.6-0.3,2.9-1,3.8
		c-0.7,0.9-1.6,1.4-2.8,1.4c-2.2,0-3.5-1.4-3.7-4.2l-5.5,0.9c0.1,1.5,0.5,2.8,1,3.8s1.2,2,2,2.7s1.7,1.2,2.8,1.6
		c1.1,0.3,2.2,0.5,3.4,0.5c1.6,0,3.1-0.3,4.3-0.8c1.2-0.5,2.2-1.2,3-2.1c0.8-0.9,1.4-2,1.8-3.3s0.6-2.6,0.6-4.1c0-0.9,0-1.8-0.1-2.6
		C261.7,34.3,261.5,33.5,261.2,32.8z"/>
	<path d="M284.3,25.1c0.4-1.2,0.6-2.5,0.6-3.8c0-2.8-0.8-5-2.4-6.5s-3.9-2.3-6.7-2.3c-2.6,0-4.7,0.8-6.4,2.5c-1.7,1.6-2.7,4-2.9,7
		l5.5,0.8c0.1-1.7,0.5-3,1.2-3.8s1.5-1.2,2.5-1.2c1.2,0,2.1,0.4,2.6,1.2c0.5,0.8,0.8,1.6,0.8,2.6c0,0.7-0.1,1.4-0.3,2.2
		c-0.2,0.8-0.5,1.5-1,2.2l-11.3,16.9v5h18.1v-5.3h-11.1l9.1-13.6C283.4,27.5,283.9,26.3,284.3,25.1z"/>
	<path d="M145.9,85.8c-0.7-0.8-1.6-1.6-2.8-2.3s-2.6-1.3-4.3-1.9v-9.1c1.9,0.3,3.4,1.3,4.4,3.1l4.2-3.1c-0.7-1.4-1.8-2.6-3.2-3.6
		s-3.2-1.6-5.4-1.8v-3.6h-2.3v3.6c-1.3,0.1-2.5,0.5-3.6,1s-2,1.2-2.7,2.1c-0.8,0.9-1.3,1.9-1.8,3c-0.4,1.2-0.6,2.4-0.6,3.7
		s0.2,2.5,0.5,3.4c0.4,1,0.9,1.9,1.6,2.7c0.7,0.8,1.6,1.5,2.7,2.1c1.1,0.6,2.4,1.2,3.9,1.7V97c-1.1-0.2-2.1-0.6-2.9-1.3
		c-0.8-0.7-1.5-1.6-2.1-2.6l-4.6,2.9c1,1.8,2.2,3.3,3.8,4.4c1.6,1.1,3.5,1.8,5.8,1.9v4.8h2.3v-4.8c3-0.2,5.2-1.2,6.8-3
		s2.3-4.2,2.3-7.2c0-1.3-0.2-2.5-0.5-3.6C147.1,87.6,146.6,86.6,145.9,85.8z M136.5,80.7c-1-0.5-1.8-1-2.3-1.6s-0.8-1.4-0.8-2.3
		c0-1.1,0.3-2.1,0.8-2.8c0.5-0.8,1.3-1.3,2.3-1.5V80.7z M141.4,95.5c-0.5,0.8-1.4,1.4-2.6,1.6v-9.3c1.1,0.5,1.9,1,2.5,1.7
		s0.9,1.7,0.9,2.9C142.2,93.6,141.9,94.6,141.4,95.5z"/>
	<polygon points="168.7,83.1 163.2,83.1 163.2,91.9 156.6,91.9 166.2,67.2 160.3,67.2 150.6,92.3 150.6,97.1 163.2,97.1 
		163.2,102.2 168.7,102.2 168.7,97.1 171.3,97.1 171.3,91.9 168.7,91.9 	"/>
	<path d="M193.1,87.3c-0.3-0.7-0.6-1.4-1.1-1.9c-0.5-0.6-1.1-1-1.8-1.3V84c1.3-0.7,2.1-1.7,2.6-3c0.5-1.2,0.7-2.6,0.7-4.2
		c0-1.7-0.2-3.2-0.7-4.4s-1.1-2.2-1.9-3c-0.8-0.8-1.8-1.4-2.9-1.8s-2.4-0.6-3.7-0.6c-2.7,0-4.9,0.8-6.5,2.5
		c-1.7,1.7-2.5,4.1-2.5,7.3c0,1.6,0.2,3,0.6,4.2c0.4,1.2,1.3,2.2,2.7,3v0.1c-1.4,0.7-2.4,1.7-2.9,3.2s-0.8,3.1-0.8,4.9
		c0,1.9,0.3,3.5,0.8,4.8s1.2,2.4,2,3.2c0.9,0.8,1.8,1.4,3,1.8s2.3,0.5,3.6,0.5c1.2,0,2.4-0.2,3.5-0.5c1.1-0.4,2.2-0.9,3-1.8
		c0.9-0.8,1.6-1.9,2.1-3.2s0.8-2.9,0.8-4.8c0-0.9-0.1-1.7-0.2-2.5C193.6,88.8,193.4,88,193.1,87.3z M181.8,73.5
		c0.6-0.8,1.4-1.2,2.7-1.2c1.2,0,2.2,0.4,2.7,1.2c0.6,0.8,0.8,1.9,0.8,3.4c0,3.3-1.2,4.9-3.5,4.9c-1.2,0-2.1-0.4-2.6-1.1
		c-0.6-0.7-0.9-2-0.9-3.7C181,75.5,181.2,74.3,181.8,73.5z M187.4,95.9c-0.6,1-1.6,1.4-2.9,1.4c-1.2,0-2.1-0.4-2.8-1.2s-1-2.3-1-4.4
		c0-1.8,0.3-3.2,1-4c0.7-0.9,1.6-1.3,2.8-1.3c2.5,0,3.8,1.7,3.8,5.2C188.2,93.5,188,94.9,187.4,95.9z"/>
	<path d="M214.2,69.2c-0.8-0.8-1.8-1.3-2.9-1.7s-2.3-0.6-3.5-0.6s-2.3,0.2-3.4,0.6s-2,1-2.9,1.7c-0.8,0.8-1.5,1.7-2,2.8
		s-0.7,2.3-0.7,3.7v18c0,1.4,0.2,2.6,0.7,3.7c0.5,1.1,1.1,2,2,2.7c0.8,0.8,1.8,1.3,2.9,1.7s2.2,0.6,3.4,0.6s2.4-0.2,3.4-0.6
		c1.1-0.4,2-1,2.9-1.7c0.8-0.8,1.5-1.7,2-2.7c0.5-1.1,0.7-2.3,0.7-3.7v-18c0-1.4-0.2-2.7-0.7-3.7C215.7,70.9,215.1,70,214.2,69.2z
		 M211.4,93.7c0,1.1-0.3,2-1,2.6c-0.6,0.6-1.5,0.9-2.5,0.9s-1.9-0.3-2.5-0.9c-0.6-0.6-1-1.5-1-2.6V75.8c0-1.1,0.3-2,1-2.6
		c0.6-0.6,1.5-0.9,2.5-0.9s1.9,0.3,2.5,0.9c0.6,0.6,1,1.5,1,2.6V93.7z"/>
	<polygon points="219.3,103.8 222.6,103.8 230.9,74.9 227.6,74.9 	"/>
	<path d="M243.8,97.7c-0.4-0.2-0.8-0.4-1.1-0.5c-0.3-0.2-0.6-0.3-0.7-0.4c-0.3,0.5-0.6,1-1,1.3s-0.9,0.5-1.5,0.5s-1.1-0.1-1.5-0.4
		c-0.4-0.3-0.7-0.7-0.9-1.2s-0.4-1.1-0.5-1.8s-0.1-1.5-0.1-2.3s0-1.6,0.1-2.2c0.1-0.7,0.2-1.3,0.5-1.8c0.2-0.5,0.5-0.9,1-1.2
		c0.4-0.3,0.9-0.4,1.6-0.4c1.1,0,2,0.6,2.5,1.8c0.1-0.1,0.3-0.2,0.7-0.4c0.3-0.2,0.7-0.4,1.1-0.5c0.4-0.2,0.8-0.4,1.1-0.5
		c0.3-0.2,0.6-0.3,0.7-0.4c-0.5-1.2-1.3-2.2-2.4-2.9c-1.1-0.7-2.4-1-3.8-1c-1.3,0-2.4,0.2-3.3,0.7c-0.9,0.5-1.6,1.1-2.2,1.9
		c-0.6,0.8-1,1.8-1.2,3c-0.3,1.2-0.4,2.4-0.4,3.8c0,1.4,0.1,2.7,0.3,3.9s0.6,2.2,1.1,3s1.3,1.5,2.2,2s2.1,0.7,3.5,0.7
		c1.5,0,2.7-0.3,3.8-1s1.9-1.6,2.4-2.8c-0.1-0.1-0.4-0.2-0.7-0.4C244.5,98.1,244.2,97.9,243.8,97.7z"/>
	<path d="M259.4,84.6c-0.6-0.5-1.3-0.8-2.2-1c-0.8-0.2-1.7-0.3-2.7-0.3c-1.4,0-2.7,0.3-3.8,0.8c-1.1,0.6-2,1.4-2.6,2.6
		c0.1,0.1,0.3,0.2,0.6,0.4s0.6,0.4,0.9,0.6c0.3,0.2,0.7,0.4,1,0.6c0.3,0.2,0.5,0.3,0.6,0.4c0.3-0.6,0.8-1.1,1.4-1.3
		c0.6-0.2,1.2-0.4,1.9-0.4c1,0,1.7,0.2,2.1,0.7c0.4,0.4,0.6,1,0.6,1.6V91H254c-1.1,0-2.1,0.2-2.9,0.5c-0.8,0.3-1.5,0.7-2,1.2
		s-0.9,1.1-1.2,1.8s-0.4,1.4-0.4,2.2c0,1.7,0.4,3,1.3,4.1c0.9,1,2.2,1.5,4.1,1.5c0.8,0,1.5-0.1,2.3-0.4c0.8-0.3,1.4-0.7,1.8-1.3
		l0.2,0.1v1.4h4.2V89c0-1.1-0.2-2-0.5-2.8C260.5,85.6,260,85,259.4,84.6z M257.3,96c0,0.9-0.3,1.6-0.9,2s-1.3,0.6-2.1,0.6
		c-1,0-1.6-0.2-2.1-0.6c-0.4-0.4-0.6-0.9-0.6-1.5c0-0.8,0.2-1.3,0.7-1.7s1.1-0.6,1.9-0.6h3V96H257.3z"/>
	<path d="M273.7,83.4c-0.9,0-1.7,0.2-2.5,0.5c-0.7,0.3-1.3,1-1.8,1.9h-0.1v-2.1h-4.1v18.7h4.1V91c0-1.3,0.3-2.2,0.9-2.7
		c0.6-0.6,1.5-0.9,2.5-0.9c0.4,0,0.7,0,1,0.1s0.7,0.2,1,0.4l0.8-4.1c-0.3-0.2-0.6-0.3-0.9-0.4C274.5,83.4,274.1,83.4,273.7,83.4z"/>
	<path class="st1" d="M73.6,51.2c12.8,0.3,25.6,0.2,38.4-0.3v-8.8c-13.1,0.2-26.2,0.3-39.4,0.5c-2.6,0-3.5-2.5-2.8-4.3
		C63.2,30.8,53,29,44.6,34.4c0.1,0.5,0.1,1-0.1,1.5c4.3-0.1,8.7-0.3,12.8,0.3c4.1,0.6,7.2,3.5,7.2,7.8c0,4.4-3.5,7.8-7.5,9
		c-5,1.5-10.1-0.5-15.1,0c2.5,2.8,5.8,4.5,9.7,5.5c4.1,1.1,15.2,3.1,17.7-2.3c0.3-0.7,0.8-1.2,1.3-1.4
		C70.3,53.1,71.3,51.1,73.6,51.2z"/>
	<path class="st1" d="M21.4,72.4v32.9H112V72.4V57.2c-12.3,0.5-24.6,0.6-37,0.3c0.1,0.6,0.1,1.3-0.3,2c-3.7,7.9-13.5,6.9-20.8,5.9
		c-8.5-1.2-16.1-5-20-12.9c-1.3-2.6,1.1-4.9,3.3-4.7c0.1,0,0.1-0.1,0.2-0.1c3.4-1.2,6.5-1.1,10-0.7c2.8,0.3,7.6,1.4,9.9-1
		c4.2-4.4-7.2-3.6-8.6-3.6c-3.8,0-7.6,0-11.4,0c-2.7,0-4.1-3.4-2.2-5.3c0.9-1,1.9-1.9,2.8-2.9c-0.5-1-0.4-2.2,0.8-3.2
		c11.2-8.7,26.2-7.8,35.7,3.1c0.6,0.7,0.8,1.5,0.8,2.2c12.3-0.2,24.5-0.3,36.8-0.5V14.7H21.4V72.4z M37.5,89.7h-3.9v10.8H30V89.7h-4
		v-3.1h11.4L37.5,89.7L37.5,89.7z M45.5,100.8c-4.3,0-7.5-3-7.5-7.2s3.2-7.2,7.5-7.2s7.5,3,7.5,7.2S49.8,100.8,45.5,100.8z
		 M61.6,100.8c-4.3,0-7.5-3-7.5-7.2s3.2-7.2,7.5-7.2s7.5,3,7.5,7.2S65.8,100.8,61.6,100.8z M80.1,100.6h-9.2v-14h3.6v10.8h5.6V100.6
		z M87.1,100.8c-2.8,0-4.8-0.9-6.2-2.2l1.9-2.7c1,1,2.6,1.8,4.5,1.8c1.2,0,2-0.5,2-1.2c0-0.8-0.9-1.1-2.4-1.4
		c-2.3-0.5-5.5-1-5.5-4.4c0-2.3,2-4.4,5.6-4.4c2.2,0,4.2,0.7,5.7,1.9l-2,2.6c-1.2-1-2.7-1.4-3.9-1.4c-1.2,0-1.7,0.5-1.7,1.1
		c0,0.7,0.9,1,2.4,1.3c2.3,0.5,5.5,1.2,5.5,4.3C93,99,90.9,100.8,87.1,100.8z"/>
	<path class="st1" d="M45.5,89.6c-2.3,0-3.8,1.8-3.8,4c0,2.3,1.5,4,3.8,4s3.8-1.8,3.8-4C49.3,91.3,47.8,89.6,45.5,89.6z"/>
	<path class="st1" d="M61.6,89.6c-2.3,0-3.8,1.8-3.8,4c0,2.3,1.5,4,3.8,4s3.8-1.8,3.8-4C65.3,91.3,63.9,89.6,61.6,89.6z"/>
	<path d="M21.4,8.4h-6.3v6.3v90.6v6.3h6.3H112h6.3v-6.3V14.7V8.4H112H21.4z M70.6,54.9c-0.5,0.2-1,0.7-1.3,1.4
		c-2.5,5.4-13.6,3.3-17.7,2.3c-3.9-1-7.2-2.7-9.7-5.5c5-0.5,10.1,1.4,15.1,0c4.1-1.2,7.5-4.6,7.5-9c0-4.3-3.1-7.3-7.2-7.8
		c-4.1-0.6-8.5-0.5-12.8-0.3c0.2-0.5,0.2-1,0.1-1.5c8.4-5.4,18.5-3.5,25.2,3.9c-0.7,1.9,0.3,4.3,2.8,4.3c13.1-0.2,26.2-0.3,39.4-0.5
		V51c-12.8,0.5-25.6,0.6-38.4,0.3C71.3,51.1,70.3,53.1,70.6,54.9z M112,35.8c-12.2,0.2-24.5,0.3-36.8,0.5c0-0.7-0.2-1.5-0.8-2.2
		C64.9,23.2,49.9,22.3,38.7,31c-1.2,0.9-1.3,2.1-0.8,3.2c-0.9,1-1.9,1.9-2.8,2.9c-1.9,1.9-0.5,5.3,2.2,5.3c3.8,0,7.6,0,11.4,0
		c1.5,0,12.8-0.8,8.6,3.6c-2.3,2.4-7.1,1.3-9.9,1c-3.5-0.4-6.7-0.5-10,0.7c-0.1,0-0.1,0.1-0.2,0.1c-2.1-0.2-4.6,2.1-3.3,4.7
		c3.9,7.9,11.5,11.7,20,12.9c7.3,1,17.1,2,20.8-5.9c0.3-0.7,0.4-1.4,0.3-2c12.3,0.3,24.7,0.2,37-0.3v15.2v32.9H21.4V72.4V14.7H112
		V35.8z"/>
	<polygon points="26,89.7 30,89.7 30,100.6 33.6,100.6 33.6,89.7 37.5,89.7 37.5,86.6 26,86.6 	"/>
	<path d="M45.5,86.4c-4.3,0-7.5,3-7.5,7.2s3.2,7.2,7.5,7.2s7.5-3,7.5-7.2S49.8,86.4,45.5,86.4z M45.5,97.6c-2.3,0-3.8-1.8-3.8-4
		c0-2.3,1.5-4,3.8-4s3.8,1.8,3.8,4C49.3,95.9,47.8,97.6,45.5,97.6z"/>
	<path d="M61.6,86.4c-4.3,0-7.5,3-7.5,7.2s3.2,7.2,7.5,7.2s7.5-3,7.5-7.2S65.8,86.4,61.6,86.4z M61.6,97.6c-2.3,0-3.8-1.8-3.8-4
		c0-2.3,1.5-4,3.8-4s3.8,1.8,3.8,4C65.3,95.9,63.9,97.6,61.6,97.6z"/>
	<polygon points="74.4,86.6 70.8,86.6 70.8,100.6 80.1,100.6 80.1,97.4 74.4,97.4 	"/>
	<path d="M87.5,91.8c-1.6-0.3-2.4-0.5-2.4-1.3c0-0.6,0.5-1.1,1.7-1.1s2.8,0.5,3.9,1.4l2-2.6c-1.5-1.3-3.4-1.9-5.7-1.9
		c-3.6,0-5.6,2-5.6,4.4c0,3.3,3.2,3.9,5.5,4.4c1.5,0.3,2.4,0.6,2.4,1.4c0,0.7-0.8,1.2-2,1.2c-1.9,0-3.5-0.8-4.5-1.8l-1.9,2.7
		c1.4,1.3,3.4,2.2,6.2,2.2c3.8,0,5.8-1.9,5.8-4.7C93,93,89.8,92.3,87.5,91.8z"/>
</g>
</svg>
