<?xml version="1.0" encoding="utf-8"?>
<!-- Generator: Adobe Illustrator 24.1.2, SVG Export Plug-In . SVG Version: 6.00 Build 0)  -->
<svg version="1.1" id="Layer_1" xmlns="http://www.w3.org/2000/svg" xmlns:xlink="http://www.w3.org/1999/xlink" x="0px" y="0px"
	 viewBox="0 0 153.3 120" style="enable-background:new 0 0 153.3 120;" xml:space="preserve">
<style type="text/css">
	.st0{fill:none;stroke:#000000;stroke-width:7;stroke-miterlimit:10;}
</style>
<g>
	<path d="M58.2,87.4l-4.4,13.5h-4.1l-2.6-8.2l-2.7,8.2h-4.1L36,87.4h3.9l2.7,8.6l2.9-8.6H49l2.7,8.7l2.8-8.7H58.2z"/>
	<path d="M68.2,98.3h-5.7l-1.1,2.6h-3.9l6-13.5h3.8l6,13.5h-4L68.2,98.3z M67.1,95.4l-1.7-4.3l-1.7,4.3H67.1z"/>
	<path d="M76.5,90.4h-4.2v-3h12.1v3h-4.1v10.5h-3.8V90.4z"/>
	<path d="M96.7,97.9v3H85.9V87.4h10.6v3h-6.8v2.3h6v2.9h-6v2.5H96.7z"/>
	<path d="M104.8,97.3h-2.1v3.6h-3.8V87.4h6.2c1.2,0,2.3,0.2,3.2,0.6c0.9,0.4,1.6,1,2.1,1.7c0.5,0.8,0.7,1.6,0.7,2.7
		c0,1-0.2,1.8-0.7,2.6c-0.5,0.7-1.1,1.3-2,1.7l2.9,4.2h-4.1L104.8,97.3z M106.6,90.9c-0.4-0.3-1-0.5-1.8-0.5h-2.1v4h2.1
		c0.8,0,1.4-0.2,1.8-0.5c0.4-0.3,0.6-0.8,0.6-1.5C107.2,91.7,107,91.2,106.6,90.9z"/>
</g>
<path d="M96,48.7c5.6-0.7,10.2-5.2,10.7-10.9c0.3-3-0.4-6-2.1-8.5c-2.2-3.2-7.8-5.2-7.2-9.6c0.4-3-3.1-3.7-5-2.2
	c-0.9,0-1.9,0.5-2.5,1.5c-3.7,6.2-9.7,13.6-7.2,21.2C84.5,45.8,90.2,49.4,96,48.7z M92.8,26.1c0.5,0.8,1.1,1.5,1.7,2.1
	c2.9,2.9,7.4,5.2,5.8,10.1c-2.1,6.6-11.7,4.7-11.9-1.9C88.3,33.1,90.6,29.4,92.8,26.1z"/>
<rect x="29.4" y="11.6" class="st0" width="97" height="97"/>
<path d="M71.2,55.2c5.6-0.7,10.2-5.2,10.7-10.9c0.3-3-0.4-6-2.1-8.5c-2.2-3.2-7.8-5.2-7.2-9.6c0.4-3-3.1-3.7-5-2.2
	c-0.9,0-1.9,0.5-2.5,1.5c-3.7,6.2-9.7,13.6-7.2,21.2C59.7,52.3,65.4,55.9,71.2,55.2z M68,32.6c0.5,0.8,1.1,1.5,1.7,2.1
	c2.9,2.9,7.4,5.2,5.8,10.1c-2.1,6.6-11.7,4.7-11.9-1.9C63.5,39.6,65.8,35.9,68,32.6z"/>
<path d="M90.5,80.2c5.6-0.7,10.2-5.2,10.7-10.9c0.3-3-0.4-6-2.1-8.5c-2.2-3.2-7.8-5.2-7.2-9.6c0.4-3-3.1-3.7-5-2.2
	c-0.9,0-1.9,0.5-2.5,1.5c-3.7,6.2-9.7,13.6-7.2,21.2C79,77.3,84.7,80.9,90.5,80.2z M87.3,57.6c0.5,0.8,1.1,1.5,1.7,2.1
	c2.9,2.9,7.4,5.2,5.8,10.1c-2.1,6.6-11.7,4.7-11.9-1.9C82.8,64.6,85.1,60.9,87.3,57.6z"/>
</svg>
