<?xml version="1.0" encoding="utf-8"?>
<!-- Generator: Adobe Illustrator 23.0.1, SVG Export Plug-In . SVG Version: 6.00 Build 0)  -->
<svg version="1.1" id="Layer_1" xmlns="http://www.w3.org/2000/svg" xmlns:xlink="http://www.w3.org/1999/xlink" x="0px" y="0px"
	 viewBox="0 0 300 120" style="enable-background:new 0 0 300 120;" xml:space="preserve">
<style type="text/css">
	.st0{fill:none;}
	.st1{fill:#FFFFFF;}
</style>
<g>
	<path class="st0" d="M139.1,88.5v9.3c1.3-0.2,2.2-0.7,2.6-1.6c0.5-0.8,0.7-1.8,0.7-3c0-1.3-0.3-2.3-0.9-2.9
		C141,89.5,140.2,89,139.1,88.5z"/>
	<path class="st0" d="M133.7,77.5c0,0.9,0.3,1.7,0.8,2.3s1.3,1.2,2.3,1.6v-8.3c-1,0.2-1.8,0.7-2.3,1.5
		C134,75.5,133.7,76.4,133.7,77.5z"/>
	<path class="st0" d="M208.3,72.9c-1,0-1.9,0.3-2.5,0.9c-0.6,0.6-1,1.5-1,2.6v17.9c0,1.1,0.3,2,1,2.6c0.6,0.6,1.5,0.9,2.5,0.9
		s1.9-0.3,2.5-0.9c0.6-0.6,1-1.5,1-2.6V76.4c0-1.1-0.3-2-1-2.6C210.1,73.2,209.3,72.9,208.3,72.9z"/>
	<path class="st0" d="M139.1,34v9.3c1.3-0.2,2.2-0.7,2.6-1.6c0.5-0.8,0.7-1.8,0.7-3c0-1.3-0.3-2.3-0.9-2.9
		C141,35,140.2,34.5,139.1,34z"/>
	<path class="st0" d="M133.7,23c0,0.9,0.3,1.7,0.8,2.3c0.5,0.6,1.3,1.2,2.3,1.6v-8.3c-1,0.2-1.8,0.7-2.3,1.5
		C134,21,133.7,21.9,133.7,23z"/>
	<path class="st0" d="M252.7,95.5c-0.5,0.4-0.7,1-0.7,1.7c0,0.6,0.2,1.1,0.6,1.5c0.4,0.4,1.1,0.6,2.1,0.6c0.8,0,1.5-0.2,2.1-0.6
		c0.6-0.4,0.9-1.1,0.9-2v-1.8h-3C253.8,94.9,253.1,95.1,252.7,95.5z"/>
	<path class="st0" d="M276.4,18.4c-1,0-1.9,0.3-2.5,0.9s-1,1.5-1,2.6v17.9c0,1.1,0.3,2,1,2.6c0.6,0.6,1.5,0.9,2.5,0.9
		s1.9-0.3,2.5-0.9c0.6-0.6,1-1.5,1-2.6V22c0-1.1-0.3-2-1-2.6C278.3,18.7,277.5,18.4,276.4,18.4z"/>
	<path d="M146.2,32c-0.7-0.8-1.6-1.6-2.8-2.3c-1.2-0.7-2.6-1.3-4.3-1.9v-9.1c1.9,0.3,3.4,1.3,4.4,3.1l4.2-3.1
		c-0.7-1.4-1.8-2.6-3.2-3.6s-3.2-1.6-5.4-1.8V9.7h-2.3v3.6c-1.3,0.1-2.5,0.5-3.6,1s-2,1.2-2.7,2.1c-0.8,0.9-1.3,1.9-1.8,3
		s-0.6,2.4-0.6,3.7c0,1.3,0.2,2.5,0.5,3.4c0.4,1,0.9,1.9,1.6,2.7c0.7,0.8,1.6,1.5,2.7,2.1c1.1,0.6,2.4,1.2,3.9,1.7v10.2
		c-1.1-0.2-2.1-0.6-2.9-1.3c-0.8-0.7-1.5-1.6-2.1-2.6l-4.6,2.9c1,1.8,2.2,3.3,3.8,4.4c1.6,1.1,3.5,1.8,5.8,1.9v4.8h2.3v-4.8
		c3-0.2,5.2-1.2,6.8-3s2.3-4.2,2.3-7.2c0-1.3-0.2-2.5-0.5-3.6C147.4,33.8,146.9,32.8,146.2,32z M136.9,26.9c-1-0.5-1.8-1-2.3-1.6
		s-0.8-1.4-0.8-2.3c0-1.1,0.3-2.1,0.8-2.8c0.5-0.8,1.3-1.3,2.3-1.5V26.9z M141.8,41.7c-0.5,0.8-1.4,1.4-2.6,1.6V34
		c1.1,0.5,1.9,1,2.5,1.7s0.9,1.7,0.9,2.9C142.5,39.8,142.3,40.8,141.8,41.7z"/>
	<polygon points="155.6,17.3 155.6,23.3 160.5,19.6 160.5,48.4 166,48.4 166,13.4 160.8,13.4 	"/>
	<polygon points="192.5,29.3 186.9,29.3 186.9,38.1 180.3,38.1 189.9,13.4 184.1,13.4 174.3,38.5 174.3,43.3 186.9,43.3 186.9,48.4 
		192.5,48.4 192.5,43.3 195,43.3 195,38.1 192.5,38.1 	"/>
	<path d="M229.2,48.4l-7.5-12.7l7.2-12.2h-6.3l-3.8,7.9h-0.1l-3.8-7.9h-6.4c1.2,2,2.4,4.1,3.6,6.1c1.2,2,2.4,4,3.6,6.1l-7.5,12.7
		h6.3l4.2-8.4l4.2,8.4H229.2z"/>
	<polygon points="252.1,48.4 257.6,48.4 257.6,13.4 252.4,13.4 247.2,17.3 247.2,23.3 252.1,19.6 	"/>
	<path d="M282.7,15.4c-0.8-0.8-1.8-1.3-2.9-1.7s-2.3-0.6-3.5-0.6s-2.3,0.2-3.4,0.6s-2,1-2.9,1.7c-0.8,0.8-1.5,1.7-2,2.8
		c-0.5,1.1-0.7,2.3-0.7,3.7v18c0,1.4,0.2,2.6,0.7,3.7c0.5,1.1,1.1,2,2,2.7c0.8,0.8,1.8,1.3,2.9,1.7s2.2,0.6,3.4,0.6s2.4-0.2,3.4-0.6
		c1.1-0.4,2-1,2.9-1.7c0.8-0.8,1.5-1.7,2-2.7c0.5-1.1,0.7-2.3,0.7-3.7v-18c0-1.4-0.2-2.7-0.7-3.7C284.2,17.1,283.6,16.2,282.7,15.4z
		 M279.9,39.9c0,1.1-0.3,2-1,2.6c-0.6,0.6-1.5,0.9-2.5,0.9s-1.9-0.3-2.5-0.9c-0.6-0.6-1-1.5-1-2.6V22c0-1.1,0.3-2,1-2.6
		c0.6-0.6,1.5-0.9,2.5-0.9s1.9,0.3,2.5,0.9s1,1.5,1,2.6V39.9z"/>
	<path d="M146.2,86.5c-0.7-0.8-1.6-1.6-2.8-2.3s-2.6-1.3-4.3-1.9v-9.1c1.9,0.3,3.4,1.3,4.4,3.1l4.2-3.1c-0.7-1.4-1.8-2.6-3.2-3.6
		s-3.2-1.6-5.4-1.8v-3.6h-2.3v3.6c-1.3,0.1-2.5,0.5-3.6,1s-2,1.2-2.7,2.1c-0.8,0.9-1.3,1.9-1.8,3s-0.6,2.4-0.6,3.7s0.2,2.5,0.5,3.4
		c0.4,1,0.9,1.9,1.6,2.7c0.7,0.8,1.6,1.5,2.7,2.1c1.1,0.6,2.4,1.2,3.9,1.7v10.2c-1.1-0.2-2.1-0.6-2.9-1.3c-0.8-0.7-1.5-1.6-2.1-2.6
		l-4.6,2.9c1,1.8,2.2,3.3,3.8,4.4c1.6,1.1,3.5,1.8,5.8,1.9v4.8h2.3V103c3-0.2,5.2-1.2,6.8-3s2.3-4.2,2.3-7.2c0-1.3-0.2-2.5-0.5-3.6
		C147.4,88.3,146.9,87.3,146.2,86.5z M136.9,81.4c-1-0.5-1.8-1-2.3-1.6s-0.8-1.4-0.8-2.3c0-1.1,0.3-2.1,0.8-2.8
		c0.5-0.8,1.3-1.3,2.3-1.5V81.4z M141.8,96.2c-0.5,0.8-1.4,1.4-2.6,1.6v-9.3c1.1,0.5,1.9,1,2.5,1.7s0.9,1.7,0.9,2.9
		C142.5,94.3,142.3,95.3,141.8,96.2z"/>
	<polygon points="155.6,71.8 155.6,77.8 160.5,74.1 160.5,102.9 166,102.9 166,67.9 160.8,67.9 	"/>
	<polygon points="192.5,83.8 186.9,83.8 186.9,92.6 180.3,92.6 189.9,67.9 184.1,67.9 174.3,93 174.3,97.8 186.9,97.8 186.9,102.9 
		192.5,102.9 192.5,97.8 195,97.8 195,92.6 192.5,92.6 	"/>
	<path d="M214.6,69.9c-0.8-0.8-1.8-1.3-2.9-1.7c-1.1-0.4-2.3-0.6-3.5-0.6s-2.3,0.2-3.4,0.6s-2,1-2.9,1.7c-0.8,0.8-1.5,1.7-2,2.8
		s-0.7,2.3-0.7,3.7v18c0,1.4,0.2,2.6,0.7,3.7c0.5,1.1,1.1,2,2,2.7c0.8,0.8,1.8,1.3,2.9,1.7c1.1,0.4,2.2,0.6,3.4,0.6s2.4-0.2,3.4-0.6
		c1.1-0.4,2-1,2.9-1.7c0.8-0.8,1.5-1.7,2-2.7c0.5-1.1,0.7-2.3,0.7-3.7v-18c0-1.4-0.2-2.7-0.7-3.7C216,71.6,215.4,70.7,214.6,69.9z
		 M211.7,94.4c0,1.1-0.3,2-1,2.6c-0.6,0.6-1.5,0.9-2.5,0.9s-1.9-0.3-2.5-0.9c-0.6-0.6-1-1.5-1-2.6V76.5c0-1.1,0.3-2,1-2.6
		c0.6-0.6,1.5-0.9,2.5-0.9s1.9,0.3,2.5,0.9c0.6,0.6,1,1.5,1,2.6V94.4z"/>
	<polygon points="219.7,104.5 222.9,104.5 231.3,75.6 227.9,75.6 	"/>
	<path d="M244.1,98.4c-0.4-0.2-0.8-0.4-1.1-0.5c-0.3-0.2-0.6-0.3-0.7-0.4c-0.3,0.5-0.6,1-1,1.3s-0.9,0.5-1.5,0.5s-1.1-0.1-1.5-0.4
		c-0.4-0.3-0.7-0.7-0.9-1.2s-0.4-1.1-0.5-1.8s-0.1-1.5-0.1-2.3s0-1.6,0.1-2.2c0.1-0.7,0.2-1.3,0.5-1.8c0.2-0.5,0.5-0.9,1-1.2
		c0.4-0.3,0.9-0.4,1.6-0.4c1.1,0,2,0.6,2.5,1.8c0.1-0.1,0.3-0.2,0.7-0.4c0.3-0.2,0.7-0.4,1.1-0.5c0.4-0.2,0.8-0.4,1.1-0.5
		c0.3-0.2,0.6-0.3,0.7-0.4c-0.5-1.2-1.3-2.2-2.4-2.9c-1.1-0.7-2.4-1-3.8-1c-1.3,0-2.4,0.2-3.3,0.7c-0.9,0.5-1.6,1.1-2.2,1.9
		c-0.6,0.8-1,1.8-1.2,3c-0.3,1.2-0.4,2.4-0.4,3.8c0,1.4,0.1,2.7,0.3,3.9s0.6,2.2,1.1,3s1.3,1.5,2.2,2s2.1,0.7,3.5,0.7
		c1.5,0,2.7-0.3,3.8-1s1.9-1.6,2.4-2.8c-0.1-0.1-0.4-0.2-0.7-0.4C244.9,98.8,244.5,98.6,244.1,98.4z"/>
	<path d="M259.8,85.3c-0.6-0.5-1.3-0.8-2.2-1c-0.8-0.2-1.7-0.3-2.7-0.3c-1.4,0-2.7,0.3-3.8,0.8c-1.1,0.6-2,1.4-2.6,2.6
		c0.1,0.1,0.3,0.2,0.6,0.4s0.6,0.4,0.9,0.6c0.3,0.2,0.7,0.4,1,0.6c0.3,0.2,0.5,0.3,0.6,0.4c0.3-0.6,0.8-1.1,1.4-1.3
		c0.6-0.2,1.2-0.4,1.9-0.4c1,0,1.7,0.2,2.1,0.7c0.4,0.4,0.6,1,0.6,1.6v1.7h-3.2c-1.1,0-2.1,0.2-2.9,0.5c-0.8,0.3-1.5,0.7-2,1.2
		s-0.9,1.1-1.2,1.8s-0.4,1.4-0.4,2.2c0,1.7,0.4,3,1.3,4.1c0.9,1,2.2,1.5,4.1,1.5c0.8,0,1.5-0.1,2.3-0.4c0.8-0.3,1.4-0.7,1.8-1.3
		l0.2,0.1v1.4h4.2V89.7c0-1.1-0.2-2-0.5-2.8C260.9,86.4,260.4,85.8,259.8,85.3z M257.6,96.7c0,0.9-0.3,1.6-0.9,2s-1.3,0.6-2.1,0.6
		c-1,0-1.6-0.2-2.1-0.6c-0.4-0.4-0.6-0.9-0.6-1.5c0-0.8,0.2-1.3,0.7-1.7s1.1-0.6,1.9-0.6h3v1.8H257.6z"/>
	<path d="M274.1,84.1c-0.9,0-1.7,0.2-2.5,0.5c-0.7,0.3-1.3,1-1.8,1.9h-0.1v-2.1h-4.1V103h4.1V91.8c0-1.3,0.3-2.2,0.9-2.7
		c0.6-0.6,1.5-0.9,2.5-0.9c0.4,0,0.7,0,1,0.1s0.7,0.2,1,0.4l0.8-4.1c-0.3-0.2-0.6-0.3-0.9-0.4C274.8,84.1,274.5,84.1,274.1,84.1z"/>
	<path class="st1" d="M32.4,90c-2.3,0-3.8,1.8-3.8,4c0,2.3,1.5,4,3.8,4s3.8-1.8,3.8-4S34.7,90,32.4,90z"/>
	<path class="st1" d="M38.2,73.3h-2.8v3.1h2.8c0.9,0,1.7-0.6,1.7-1.6C39.9,73.9,39.1,73.3,38.2,73.3z"/>
	<path class="st1" d="M48.1,90.1h-2.8v3.1h2.8c0.9,0,1.7-0.6,1.7-1.6C49.9,90.7,49.1,90.1,48.1,90.1z"/>
	<path class="st1" d="M52.4,73.2c-2.3,0-3.8,1.8-3.8,4c0,2.3,1.5,4,3.8,4s3.8-1.8,3.8-4S54.7,73.2,52.4,73.2z"/>
	<path d="M20.9,8.4h-6.3v6.3v90.6v6.3h6.3h90.6h6.3v-6.3V14.7V8.4h-6.3H20.9z M111.4,72.4v32.9H20.9V72.4V14.7h90.6L111.4,72.4
		L111.4,72.4z"/>
	<polygon points="29.2,84.2 29.2,72.4 29.2,70.3 25.6,70.3 25.6,72.4 25.6,84.2 	"/>
	<path d="M35.4,79.5h1.8l2.3,4.7h4.1l-2.8-5.1c1.3-0.5,2.8-1.8,2.8-4.2c0-0.9-0.2-1.8-0.7-2.5c-0.8-1.3-2.2-2.1-4.2-2.1h-7v2.1v11.9
		h3.6v-4.8H35.4z M38.2,76.4h-2.8v-3.1h2.8c0.9,0,1.7,0.6,1.7,1.6C39.9,75.8,39.1,76.4,38.2,76.4z"/>
	<path d="M32.4,86.8c-4.3,0-7.5,3-7.5,7.2c0,4.3,3.2,7.2,7.5,7.2s7.5-3,7.5-7.2S36.7,86.8,32.4,86.8z M32.4,98.1
		c-2.3,0-3.8-1.8-3.8-4c0-2.3,1.5-4,3.8-4s3.8,1.8,3.8,4S34.7,98.1,32.4,98.1z"/>
	<path d="M53.5,91.7c0-2.6-1.8-4.7-4.9-4.7h-7v14h3.6v-4.7H47l2.3,4.7h4.1l-2.8-5.1C52.1,95.4,53.5,94.1,53.5,91.7z M48.1,93.2h-2.8
		v-3.1h2.8c0.9,0,1.7,0.6,1.7,1.6C49.9,92.6,49.1,93.2,48.1,93.2z"/>
	<polygon points="55.5,101 65.8,101 65.8,98 59.1,98 59.1,95.5 65.6,95.5 65.6,92.4 59.1,92.4 59.1,90.1 65.8,90.1 65.8,87 55.5,87 
			"/>
	<path class="st1" d="M60.8,43.5c1.5,0,4.9,0.9,3.1-1.3c-1.9-2.3-6-2.5-8.2-0.6c-0.6,0.5-1,1.1-1.4,1.7
		C56.5,43.4,58.7,43.4,60.8,43.5z"/>
	<path class="st1" d="M20.9,72.4v32.9h90.6V72.4V14.7H20.9V72.4z M32.4,101.3c-4.3,0-7.5-3-7.5-7.2c0-4.3,3.2-7.2,7.5-7.2
		s7.5,3,7.5,7.2S36.7,101.3,32.4,101.3z M31.7,72.4v-2.1h7c2,0,3.4,0.8,4.2,2.1c0.4,0.7,0.7,1.6,0.7,2.5c0,2.4-1.5,3.7-2.8,4.2
		l2.8,5.1h-4.1l-2.3-4.7h-1.8v4.7h-3.6V72.4H31.7z M59.8,77.3c0,4.3-3.2,7.2-7.5,7.2s-7.5-3-7.5-7.2c0-2,0.7-3.6,1.9-4.9
		c1.3-1.5,3.3-2.3,5.6-2.3s4.3,0.9,5.6,2.3C59.1,73.6,59.8,75.3,59.8,77.3z M49.5,101l-2.3-4.7h-1.8v4.7h-3.6V87h7
		c3.1,0,4.9,2.1,4.9,4.7c0,2.4-1.5,3.7-2.8,4.2l2.8,5.1H49.5z M65.8,90.1h-6.6v2.3h6.5v3.1h-6.5V98h6.6v3H55.5V87h10.2v3.1H65.8z
		 M74.7,84.2h-3.5l-5.9-8.4v8.4h-3.6V72.3v-2.1h3.7l1.5,2.1l4.2,5.9v-5.9v-2.1h3.6v2.1C74.7,72.3,74.7,84.2,74.7,84.2z M90.1,24.7
		c1.6-0.2,2.6,0.7,2.9,1.9c0.9-0.7,2-0.9,3.3-0.1c8.2,4.9,11.3,14.4,8.2,23.4c-2.9,8.3-10.2,14.4-19,10.6
		C67.8,53,70.9,26.6,90.1,24.7z M70.6,41.4c3.3,10.3-10.4,8.5-16.7,8.2c0.3,0.9,0.7,1.7,1.3,2.4c2.5,3,6.8,3.8,10.5,3
		c3.9-0.9,5.6,5.1,1.7,6c-7.4,1.7-15.9-1.1-19-8.5c-2.6-6.3-0.4-14.6,6.2-17.4C60.3,32.6,68.5,34.9,70.6,41.4z M27.9,26.1
		c1.9-3.1,5.3-2.9,8.5-2.9c5.5-0.1,11-0.1,16.5-0.1c4,0,4,6.2,0,6.3c-4.3,0-8.6,0.1-12.9,0.1c-1.1,0-5.2-0.5-5.9,0
		c-1.2,0.9-0.6,2.1-0.7,3.5c-0.1,2-0.1,4.1,0,6.1c4.2-0.1,2.1-0.2,6.3-0.4c4-0.1,4,6.1,0,6.3c-4.1,0.1-1.9,0.2-6,0.4
		c0.3,4.7,0.7,9.4,0.9,14c0.2,4-6.1,4-6.3,0c-0.3-6.6-0.6-13.2-0.9-19.8C27.2,35.6,25.7,29.7,27.9,26.1z M25.6,70.3h3.6v2.1v11.9
		h-3.6V72.4V70.3z"/>
	<path class="st1" d="M85.4,53.2c6.9,5,12.6-1.1,13.7-7.9c1-5.5-1.4-10.6-6.1-13.4c-0.7-0.4-1.1-1-1.3-1.6c-0.4,0.3-1,0.6-1.6,0.6
		C78.4,32.1,76.8,47,85.4,53.2z"/>
	<path d="M46.8,72.4c-1.2,1.3-1.9,2.9-1.9,4.9c0,4.3,3.2,7.2,7.5,7.2s7.5-3,7.5-7.2c0-2-0.7-3.6-1.9-4.9c-1.3-1.5-3.3-2.3-5.6-2.3
		C50.1,70,48.1,70.9,46.8,72.4z M52.4,81.3c-2.3,0-3.8-1.8-3.8-4c0-2.3,1.5-4,3.8-4s3.8,1.8,3.8,4S54.7,81.3,52.4,81.3z"/>
	<polygon points="71,70.3 71,72.4 71,78.3 66.9,72.4 65.4,70.3 61.7,70.3 61.7,72.4 61.7,84.2 65.3,84.2 65.3,75.8 71.2,84.2 
		74.7,84.2 74.7,72.4 74.7,70.3 	"/>
	<path d="M28.3,59.3c0.2,4,6.4,4,6.3,0c-0.2-4.6-0.6-9.3-0.9-14c4.1-0.1,1.9-0.2,6-0.4c4-0.1,4-6.4,0-6.3c-4.2,0.1-2.1,0.2-6.3,0.4
		c-0.1-2-0.1-4.1,0-6.1c0-1.4-0.6-2.6,0.7-3.5c0.7-0.5,4.8,0,5.9,0c4.3,0,8.6-0.1,12.9-0.1c4,0,4-6.3,0-6.3c-5.5,0-11,0-16.5,0.1
		c-3.2,0.1-6.7-0.1-8.5,2.9c-2.2,3.6-0.6,9.5-0.5,13.4C27.7,46.1,28,52.7,28.3,59.3z"/>
	<path d="M48.3,52.5c3.1,7.4,11.6,10.2,19,8.5c3.9-0.9,2.3-7-1.7-6c-3.7,0.9-8,0.1-10.5-3c-0.6-0.7-1-1.5-1.3-2.4
		c6.3,0.2,19.9,2.1,16.7-8.2c-2-6.4-10.3-8.8-16-6.3C48,37.9,45.7,46.1,48.3,52.5z M64,42.2c1.8,2.1-1.6,1.3-3.1,1.3
		c-2.2,0-4.3-0.1-6.5-0.1c0.4-0.7,0.8-1.3,1.4-1.7C58,39.7,62,39.9,64,42.2z"/>
	<path d="M85.3,60.4c8.8,3.8,16.2-2.3,19-10.6c3.1-9,0-18.5-8.2-23.4c-1.2-0.7-2.4-0.5-3.3,0.1c-0.3-1.2-1.3-2.1-2.9-1.9
		C70.9,26.6,67.8,53,85.3,60.4z M90.1,30.9c0.7-0.1,1.2-0.3,1.6-0.6c0.2,0.6,0.6,1.2,1.3,1.6c4.7,2.8,7.1,7.9,6.1,13.4
		c-1.2,6.9-6.8,13-13.7,7.9C76.8,47,78.4,32.1,90.1,30.9z"/>
</g>
</svg>
