<?xml version="1.0" encoding="utf-8"?>
<!-- Generator: Adobe Illustrator 23.0.1, SVG Export Plug-In . SVG Version: 6.00 Build 0)  -->
<svg version="1.1" id="Layer_1" xmlns="http://www.w3.org/2000/svg" xmlns:xlink="http://www.w3.org/1999/xlink" x="0px" y="0px"
	 viewBox="0 0 300 120" style="enable-background:new 0 0 300 120;" xml:space="preserve">
<style type="text/css">
	.st0{fill:none;}
	.st1{fill:#FFFFFF;}
</style>
<g>
	<path class="st0" d="M150.5,36.1v9.3c1.3-0.2,2.2-0.7,2.6-1.6c0.5-0.8,0.7-1.8,0.7-3c0-1.3-0.3-2.3-0.9-2.9
		C152.4,37.1,151.6,36.5,150.5,36.1z"/>
	<path class="st0" d="M145.1,25.1c0,0.9,0.3,1.7,0.8,2.3c0.5,0.6,1.3,1.2,2.3,1.6v-8.3c-1,0.2-1.8,0.7-2.3,1.5S145.1,24,145.1,25.1z
		"/>
	<path class="st0" d="M150.5,90.6v9.3c1.3-0.2,2.2-0.7,2.6-1.6c0.5-0.8,0.7-1.8,0.7-3c0-1.3-0.3-2.3-0.9-2.9
		C152.4,91.6,151.6,91,150.5,90.6z"/>
	<path class="st0" d="M145.1,79.6c0,0.9,0.3,1.7,0.8,2.3s1.3,1.2,2.3,1.6v-8.3c-1,0.2-1.8,0.7-2.3,1.5S145.1,78.5,145.1,79.6z"/>
	<path class="st0" d="M240.6,97.6c-0.5,0.4-0.7,1-0.7,1.7c0,0.6,0.2,1.1,0.6,1.5c0.4,0.4,1.1,0.6,2.1,0.6c0.8,0,1.5-0.2,2.1-0.6
		c0.6-0.4,0.9-1.1,0.9-2V97h-3C241.7,97,241.1,97.2,240.6,97.6z"/>
	<path class="st0" d="M196.1,45.6c1.4,0,2.3-0.5,2.9-1.4c0.6-1,0.9-2.4,0.9-4.3c0-3.5-1.3-5.2-3.8-5.2c-1.2,0-2.2,0.4-2.8,1.3
		s-1,2.2-1,4c0,2.1,0.3,3.5,1,4.4C194,45.2,195,45.6,196.1,45.6z"/>
	<path class="st0" d="M196.1,30c2.4,0,3.5-1.6,3.5-4.9c0-1.5-0.3-2.6-0.8-3.4c-0.6-0.8-1.5-1.2-2.7-1.2s-2.1,0.4-2.7,1.2
		c-0.6,0.8-0.8,2-0.8,3.5c0,1.7,0.3,2.9,0.9,3.7C194.1,29.7,195,30,196.1,30z"/>
	<path d="M157.6,34.1c-0.7-0.8-1.6-1.6-2.8-2.3c-1.2-0.7-2.6-1.3-4.3-1.9v-9.1c1.9,0.3,3.4,1.3,4.4,3.1l4.2-3.1
		c-0.7-1.4-1.8-2.6-3.2-3.6s-3.2-1.6-5.4-1.8v-3.6h-2.3v3.6c-1.3,0.1-2.5,0.5-3.6,1s-2,1.2-2.7,2.1c-0.8,0.9-1.3,1.9-1.8,3
		c-0.4,1.2-0.6,2.4-0.6,3.7c0,1.3,0.2,2.5,0.5,3.4c0.4,1,0.9,1.9,1.6,2.7c0.7,0.8,1.6,1.5,2.7,2.1c1.1,0.6,2.4,1.2,3.9,1.7v10.2
		c-1.1-0.2-2.1-0.6-2.9-1.3c-0.8-0.7-1.5-1.6-2.1-2.6l-4.6,2.9c1,1.8,2.2,3.3,3.8,4.4c1.6,1.1,3.5,1.8,5.8,1.9v4.8h2.3v-4.8
		c3-0.2,5.2-1.2,6.8-3s2.3-4.2,2.3-7.2c0-1.3-0.2-2.5-0.5-3.6C158.8,35.9,158.3,34.9,157.6,34.1z M148.2,29c-1-0.5-1.8-1-2.3-1.6
		s-0.8-1.4-0.8-2.3c0-1.1,0.3-2.1,0.8-2.8s1.3-1.3,2.3-1.5V29z M153.1,43.8c-0.5,0.8-1.4,1.4-2.6,1.6v-9.3c1.1,0.5,1.9,1,2.5,1.7
		s0.9,1.7,0.9,2.9S153.6,42.9,153.1,43.8z"/>
	<polygon points="167,25.4 171.9,21.7 171.9,50.5 177.4,50.5 177.4,15.5 172.2,15.5 167,19.4 	"/>
	<path d="M189.6,48.5c0.9,0.8,1.8,1.4,3,1.8s2.3,0.5,3.6,0.5c1.2,0,2.4-0.2,3.5-0.5s2.2-0.9,3-1.8c0.9-0.8,1.6-1.9,2.1-3.2
		s0.8-2.9,0.8-4.8c0-0.9-0.1-1.7-0.2-2.5c-0.1-0.8-0.3-1.6-0.6-2.3c-0.3-0.7-0.6-1.4-1.1-1.9c-0.5-0.6-1.1-1-1.8-1.3v-0.1
		c1.3-0.7,2.1-1.7,2.6-3c0.5-1.2,0.7-2.6,0.7-4.2c0-1.7-0.2-3.2-0.7-4.4c-0.4-1.2-1.1-2.2-1.9-3c-0.8-0.8-1.8-1.4-2.9-1.8
		c-1.1-0.4-2.4-0.6-3.7-0.6c-2.7,0-4.9,0.8-6.5,2.5c-1.7,1.7-2.5,4.1-2.5,7.3c0,1.6,0.2,3,0.6,4.2c0.4,1.2,1.3,2.2,2.7,3v0.1
		c-1.4,0.7-2.4,1.7-2.9,3.2s-0.8,3.1-0.8,4.9c0,1.9,0.3,3.5,0.8,4.8S188.7,47.7,189.6,48.5z M193.5,21.8c0.6-0.8,1.4-1.2,2.7-1.2
		c1.2,0,2.2,0.4,2.7,1.2c0.6,0.8,0.8,1.9,0.8,3.4c0,3.3-1.2,4.9-3.5,4.9c-1.2,0-2.1-0.4-2.6-1.1c-0.6-0.7-0.9-2-0.9-3.7
		C192.7,23.7,192.9,22.6,193.5,21.8z M193.3,36c0.7-0.9,1.6-1.3,2.8-1.3c2.5,0,3.8,1.7,3.8,5.2c0,1.9-0.3,3.3-0.9,4.3
		c-0.6,1-1.6,1.4-2.9,1.4c-1.2,0-2.1-0.4-2.8-1.2s-1-2.3-1-4.4C192.3,38.2,192.6,36.8,193.3,36z"/>
	<path d="M225.9,50.5l4.2-8.4l4.2,8.4h6.3l-7.5-12.7l7.2-12.2H234l-3.8,7.9h-0.1l-3.8-7.9h-6.4c1.2,2,2.4,4.1,3.6,6.1
		c1.2,2,2.4,4,3.6,6.1l-7.5,12.7H225.9z"/>
	<path d="M272.9,35.6c-0.3-0.7-0.7-1.3-1.2-1.9s-1.2-1-2.1-1.4c0.7-0.3,1.3-0.7,1.8-1.3c0.5-0.6,0.9-1.2,1.2-1.8
		c0.3-0.7,0.5-1.3,0.6-2s0.2-1.4,0.2-2c0-1.3-0.1-2.5-0.4-3.7s-0.7-2.2-1.4-3.2c-0.7-0.9-1.6-1.7-2.8-2.2c-1.2-0.6-2.7-0.8-4.5-0.8
		c-2.5,0-4.6,0.8-6.2,2.4s-2.6,3.7-2.9,6.4c0.3,0,0.7,0.1,1.2,0.2c0.5,0.1,1,0.2,1.6,0.3c0.6,0.1,1.1,0.2,1.6,0.3
		c0.5,0.1,0.9,0.1,1.2,0.2c0.2-1.4,0.5-2.5,1.1-3.2s1.4-1.1,2.5-1.1c0.7,0,1.2,0.1,1.7,0.4s0.8,0.7,1.1,1.1c0.3,0.5,0.5,1,0.6,1.6
		s0.2,1.2,0.2,1.7c0,1.5-0.3,2.7-0.9,3.5s-1.7,1.2-3.1,1.2h-2.2V35h2.2c1.5,0,2.6,0.5,3.3,1.4c0.6,0.9,1,2.4,1,4.3
		c0,1.6-0.3,2.9-1,3.8c-0.7,0.9-1.6,1.4-2.8,1.4c-2.2,0-3.5-1.4-3.7-4.2l-5.5,0.9c0.1,1.5,0.5,2.8,1,3.8c0.5,1.1,1.2,2,2,2.7
		s1.7,1.2,2.8,1.6c1.1,0.3,2.2,0.5,3.4,0.5c1.6,0,3.1-0.3,4.3-0.8c1.2-0.5,2.2-1.2,3-2.1s1.4-2,1.8-3.3s0.6-2.6,0.6-4.1
		c0-0.9,0-1.8-0.1-2.6C273.4,37.1,273.2,36.3,272.9,35.6z"/>
	<path d="M157.6,88.6c-0.7-0.8-1.6-1.6-2.8-2.3s-2.6-1.3-4.3-1.9v-9.1c1.9,0.3,3.4,1.3,4.4,3.1l4.2-3.1c-0.7-1.4-1.8-2.6-3.2-3.6
		s-3.2-1.6-5.4-1.8v-3.6h-2.3v3.6c-1.3,0.1-2.5,0.5-3.6,1s-2,1.2-2.7,2.1c-0.8,0.9-1.3,1.9-1.8,3c-0.4,1.2-0.6,2.4-0.6,3.7
		s0.2,2.5,0.5,3.4c0.4,1,0.9,1.9,1.6,2.7c0.7,0.8,1.6,1.5,2.7,2.1c1.1,0.6,2.4,1.2,3.9,1.7v10.2c-1.1-0.2-2.1-0.6-2.9-1.3
		c-0.8-0.7-1.5-1.6-2.1-2.6l-4.6,2.9c1,1.8,2.2,3.3,3.8,4.4c1.6,1.1,3.5,1.8,5.8,1.9v4.8h2.3v-4.8c3-0.2,5.2-1.2,6.8-3
		s2.3-4.2,2.3-7.2c0-1.3-0.2-2.5-0.5-3.6C158.8,90.4,158.3,89.4,157.6,88.6z M148.2,83.5c-1-0.5-1.8-1-2.3-1.6s-0.8-1.4-0.8-2.3
		c0-1.1,0.3-2.1,0.8-2.8s1.3-1.3,2.3-1.5V83.5z M153.1,98.3c-0.5,0.8-1.4,1.4-2.6,1.6v-9.3c1.1,0.5,1.9,1,2.5,1.7s0.9,1.7,0.9,2.9
		S153.6,97.4,153.1,98.3z"/>
	<path d="M175.7,97.8c-0.2,0.7-0.6,1.2-1.1,1.6c-0.5,0.4-1.1,0.6-2,0.6c-1.1,0-2-0.3-2.6-1s-0.9-1.8-1-3.3l-5.6,0.4
		c0.1,1.7,0.4,3.2,0.9,4.3c0.5,1.2,1.1,2.1,1.9,2.8c0.8,0.7,1.8,1.2,2.8,1.5c1.1,0.3,2.3,0.5,3.6,0.5c1.8,0,3.3-0.3,4.4-0.9
		c1.2-0.6,2.1-1.4,2.8-2.5s1.2-2.4,1.5-4s0.5-3.4,0.5-5.4c0-1.5-0.1-3-0.3-4.3s-0.6-2.5-1.1-3.5c-0.6-1-1.3-1.7-2.3-2.3
		s-2.2-0.9-3.8-0.9c-0.7,0-1.4,0.1-2.3,0.3c-0.8,0.2-1.6,0.6-2.4,1.3h-0.1l-0.1-8h11.9v-5h-17.1v19h5c0.4-0.9,0.9-1.5,1.5-1.9
		s1.3-0.6,1.9-0.6c0.8,0,1.4,0.2,1.9,0.5c0.5,0.4,0.8,0.8,1,1.4c0.2,0.6,0.4,1.3,0.5,2c0.1,0.8,0.1,1.5,0.1,2.3c0,0.9,0,1.8-0.1,2.6
		C176.1,96.3,175.9,97.1,175.7,97.8z"/>
	<polygon points="203.8,85.8 198.3,85.8 198.3,94.7 191.6,94.7 201.3,70 195.4,70 185.7,95.1 185.7,99.9 198.3,99.9 198.3,105 
		203.8,105 203.8,99.9 206.4,99.9 206.4,94.7 203.8,94.7 	"/>
	<polygon points="219.2,77.7 215.9,77.7 207.6,106.6 210.9,106.6 	"/>
	<path d="M225.2,91.6c0.2-0.5,0.5-0.9,1-1.2c0.4-0.3,0.9-0.4,1.6-0.4c1.1,0,2,0.6,2.5,1.8c0.1-0.1,0.3-0.2,0.7-0.4
		c0.3-0.2,0.7-0.4,1.1-0.5c0.4-0.2,0.8-0.4,1.1-0.5c0.3-0.2,0.6-0.3,0.7-0.4c-0.5-1.2-1.3-2.2-2.4-2.9c-1.1-0.7-2.4-1-3.8-1
		c-1.3,0-2.4,0.2-3.3,0.7c-0.9,0.5-1.6,1.1-2.2,1.9c-0.6,0.8-1,1.8-1.2,3c-0.3,1.2-0.4,2.4-0.4,3.8c0,1.4,0.1,2.7,0.3,3.9
		s0.6,2.2,1.1,3s1.3,1.5,2.2,2s2.1,0.7,3.5,0.7c1.5,0,2.7-0.3,3.8-1s1.9-1.6,2.4-2.8c-0.1-0.1-0.4-0.2-0.7-0.4s-0.7-0.3-1.1-0.5
		c-0.4-0.2-0.8-0.4-1.1-0.5c-0.3-0.2-0.6-0.3-0.7-0.4c-0.3,0.5-0.6,1-1,1.3s-0.9,0.5-1.5,0.5s-1.1-0.1-1.5-0.4
		c-0.4-0.3-0.7-0.7-0.9-1.2s-0.4-1.1-0.5-1.8s-0.1-1.5-0.1-2.3s0-1.6,0.1-2.2C224.8,92.6,225,92.1,225.2,91.6z"/>
	<path d="M236.5,89.6c0.1,0.1,0.3,0.2,0.6,0.4s0.6,0.4,0.9,0.6c0.3,0.2,0.7,0.4,1,0.6c0.3,0.2,0.5,0.3,0.6,0.4
		c0.3-0.6,0.8-1.1,1.4-1.3c0.6-0.2,1.2-0.4,1.9-0.4c1,0,1.7,0.2,2.1,0.7c0.4,0.4,0.6,1,0.6,1.6v1.7h-3.2c-1.1,0-2.1,0.2-2.9,0.5
		c-0.8,0.3-1.5,0.7-2,1.2s-0.9,1.1-1.2,1.8s-0.4,1.4-0.4,2.2c0,1.7,0.4,3,1.3,4.1c0.9,1,2.2,1.5,4.1,1.5c0.8,0,1.5-0.1,2.3-0.4
		c0.8-0.3,1.4-0.7,1.8-1.3l0.2,0.1v1.4h4.2V92c0-1.1-0.2-2-0.5-2.8c-0.4-0.7-0.8-1.3-1.4-1.8c-0.6-0.5-1.3-0.8-2.2-1
		c-0.8-0.2-1.7-0.3-2.7-0.3c-1.4,0-2.7,0.3-3.8,0.8C237.9,87.5,237,88.4,236.5,89.6z M245.6,98.8c0,0.9-0.3,1.6-0.9,2
		c-0.6,0.4-1.3,0.6-2.1,0.6c-1,0-1.6-0.2-2.1-0.6c-0.4-0.4-0.6-0.9-0.6-1.5c0-0.8,0.2-1.3,0.7-1.7s1.1-0.6,1.9-0.6h3v1.8H245.6z"/>
	<path d="M253.5,86.3V105h4.1V93.8c0-1.3,0.3-2.2,0.9-2.7c0.6-0.6,1.5-0.9,2.5-0.9c0.4,0,0.7,0,1,0.1s0.7,0.2,1,0.4l0.8-4.1
		c-0.3-0.2-0.6-0.3-0.9-0.4c-0.3-0.1-0.7-0.1-1.1-0.1c-0.9,0-1.7,0.2-2.5,0.5c-0.7,0.3-1.3,1-1.8,1.9h-0.1v-2.1L253.5,86.3
		L253.5,86.3z"/>
	<polygon class="st1" points="57.3,77.9 61.2,77.9 59.2,72.2 	"/>
	<path class="st1" d="M45.8,72.1H43v3.1h2.8c0.9,0,1.7-0.6,1.7-1.6C47.5,72.7,46.7,72.1,45.8,72.1z"/>
	<path class="st1" d="M66.1,88.8c-2.3,0-3.8,1.8-3.8,4c0,2.3,1.5,4,3.8,4c2.3,0,3.8-1.8,3.8-4C69.9,90.5,68.4,88.8,66.1,88.8z"/>
	<path class="st1" d="M51.9,88.9h-2.8V92h2.8c0.9,0,1.7-0.6,1.7-1.6C53.6,89.5,52.9,88.9,51.9,88.9z"/>
	<path class="st1" d="M110.7,29.4c0.9,7.4,1.4,14.8,1.5,22.3c3.8-1.8,7.4-3.8,11-5.9V16.2c-4.4,3.9-8.7,8-12.9,12.1
		C110.6,28.6,110.7,29,110.7,29.4z"/>
	<path class="st1" d="M49.6,31.4c-0.1,0-0.2,0-0.3,0c0.1,7.4,0.1,14.7,0.2,22.1c18.8,0.8,37.7,1.2,56.5,1.1c0-7.7-0.5-15.4-1.3-23
		c-0.5,0.6-1.2,0.9-2.2,0.9C84.8,32,67.2,31.7,49.6,31.4z M72.6,38.3c-5.4-0.3-10.7-0.6-16.1-1c0.1,1.6,0.2,3.2,0.3,4.8
		c4.1,0.1,8.2,0.2,12.3,0.3c1.3,0,1.3,2.1,0,2.1c-4-0.1-8.1-0.2-12.1-0.3c0.1,1.6,0.3,3.2,0.5,4.8c0.2,1.3-1.9,1.3-2.1,0
		c-0.5-4.2-0.9-8.5-1-12.8c0-0.5,0.5-1.1,1-1c5.7,0.3,11.5,0.7,17.2,1C73.9,36.3,73.9,38.3,72.6,38.3z M87,45.1
		c-3.2,0.2-6.6-0.3-9.9-0.5c-1.3-0.1-1.3-2.2,0-2.1c2.8,0.1,5.6,0.3,8.4,0.4c0.5,0,1.3,0.2,1.4-0.1c0-0.2-1.1-0.7-1.2-0.8
		c-1.3-0.7-2.7-1.3-4.2-1.5c-3.3-0.4-7.9,2.9-4.6,6.2c2.4,2.3,6.1,1.6,9,1c1.3-0.3,1.9,1.7,0.6,2c-4.2,0.9-10.2,1.5-12.3-3.4
		c-1.5-3.5,1.3-7,4.8-7.8c2.2-0.5,4.6,0.1,6.6,1.1c1.3,0.6,3.8,1.7,3.9,3.5C89.5,44.6,88.2,45.1,87,45.1z"/>
	<path class="st1" d="M123.3,71.8V53c-3.6,2-7.3,4-11.1,5.7c-0.4,2.1-2.7,2.8-4.4,2.1c-20.1,0.2-40.1-0.2-60.1-1.1
		c-1.3-0.1-2.2-0.8-2.7-1.8c-1-0.4-1.7-1.3-1.7-2.7c-0.1-8.9-0.2-17.8-0.3-26.7c0-0.5,0.1-1,0.3-1.4c-0.2-1.1,0.2-2.2,1.5-2.9
		c5.7-3,11.3-6.1,16.8-9.5H32.7v57v33.5h90.6V71.8z M69.6,69.1l0.6,2.7l1.5,6.6l1.7-6.6l0.7-2.7h2.8l0.7,2.7l1.7,6.6l1.5-6.6
		l0.6-2.7h4.1l-0.8,2.7L81.4,83h-3.8l-2.1-8.8L73.4,83h-3.8l-3.2-11.3L65.6,69h4V69.1z M57,69.1h4.5l1,2.7l4.3,11.3h-3.9L62.2,81
		h-5.8l-0.7,2.1h-3.9L56,71.8L57,69.1z M42.9,99.8h-3.6v-14h3.6V99.8z M42.9,78.3V83h-3.6V71.7V69h7c2.3,0,3.8,1.1,4.5,2.7
		c0.2,0.6,0.4,1.2,0.4,2c0,2.4-1.5,3.7-2.8,4.2l2.8,5.1h-4.1l-2.3-4.7H42.9z M53.2,99.8l-2.3-4.7h-1.8v4.7h-3.6v-14h7
		c3.1,0,4.9,2.1,4.9,4.7c0,2.4-1.5,3.7-2.8,4.2l2.8,5.1H53.2z M66.1,100.1c-4.3,0-7.5-3-7.5-7.2c0-4.3,3.2-7.2,7.5-7.2
		s7.5,3,7.5,7.2C73.5,97.1,70.4,100.1,66.1,100.1z M88.4,99.8h-3.5L79,91.4v8.4h-3.6v-14h3.7l5.7,8v-8h3.6
		C88.4,85.8,88.4,99.8,88.4,99.8z"/>
	<path class="st1" d="M55.9,25.3c15.5,0.3,31,0.6,46.5,0.8c0.5,0,0.9,0.1,1.3,0.3c0.1-0.4,0.4-0.8,0.7-1.1c3.6-3.6,7.2-7.1,11-10.5
		h-42C67.6,18.4,61.9,21.9,55.9,25.3z"/>
	<path d="M32.7,8.4h-6.3v6.3v90.6v6.3h6.3h90.6h6.3v-6.3V14.7V8.4h-6.3H32.7z M32.7,71.8v-57h28.8c-5.5,3.3-11.1,6.5-16.8,9.5
		c-1.3,0.7-1.7,1.8-1.5,2.9c-0.2,0.4-0.3,0.8-0.3,1.4c0.1,8.9,0.2,17.8,0.3,26.7c0,1.4,0.7,2.3,1.7,2.7c0.4,1,1.3,1.7,2.7,1.8
		c20,0.9,40.1,1.3,60.1,1.1c1.7,0.7,4,0,4.4-2.1c3.8-1.7,7.5-3.7,11.1-5.7v18.8v33.5H32.7V71.8z M123.3,45.8
		c-3.6,2.1-7.3,4.1-11,5.9c-0.1-7.5-0.6-14.9-1.5-22.3c-0.1-0.4-0.2-0.8-0.4-1.1c4.2-4.2,8.5-8.2,12.9-12.1V45.8z M104.5,25.3
		c-0.4,0.4-0.6,0.7-0.7,1.1c-0.4-0.2-0.8-0.3-1.3-0.3c-15.5-0.3-31-0.6-46.5-0.8c5.9-3.3,11.7-6.9,17.4-10.5h42.2
		C111.8,18.1,108.1,21.7,104.5,25.3z M106,54.5c-18.8,0.1-37.7-0.2-56.5-1.1c-0.1-7.4-0.1-14.7-0.2-22.1c0.1,0,0.2,0,0.3,0
		c17.6,0.3,35.3,0.6,52.9,0.9c1,0,1.7-0.3,2.2-0.9C105.5,39.1,106,46.8,106,54.5z"/>
	<path d="M51.3,83l-2.8-5.1c1.3-0.5,2.8-1.8,2.8-4.2c0-0.7-0.1-1.4-0.4-2c-0.7-1.6-2.2-2.7-4.5-2.7h-7v2.7V83H43v-4.7h1.8l2.3,4.7
		H51.3z M45.8,75.2H43v-3.1h2.8c0.9,0,1.7,0.6,1.7,1.6C47.5,74.6,46.7,75.2,45.8,75.2z"/>
	<path d="M55.6,83l0.7-2.1h5.8l0.7,2.1h3.9l-4.3-11.3l-1-2.7H57l-1,2.7L51.7,83H55.6z M57.3,77.9l1.9-5.7l2,5.7H57.3z"/>
	<polygon points="69.5,83 73.4,83 75.5,74.3 77.6,83 81.4,83 84.6,71.8 85.4,69.1 81.3,69.1 80.7,71.8 79.2,78.4 77.5,71.8 
		76.9,69.1 74.1,69.1 73.4,71.8 71.7,78.4 70.2,71.8 69.6,69.1 65.5,69.1 66.3,71.8 	"/>
	<rect x="39.3" y="85.8" width="3.6" height="14"/>
	<path d="M57.3,90.5c0-2.6-1.8-4.7-4.9-4.7h-7v14H49v-4.7h1.8l2.3,4.7h4.1l-2.8-5.1C55.8,94.2,57.3,92.9,57.3,90.5z M51.9,92h-2.8
		v-3.1h2.8c0.9,0,1.7,0.6,1.7,1.6C53.6,91.4,52.9,92,51.9,92z"/>
	<path d="M66.1,85.6c-4.3,0-7.5,3-7.5,7.2c0,4.3,3.2,7.2,7.5,7.2s7.5-3,7.5-7.2C73.5,88.6,70.4,85.6,66.1,85.6z M66.1,96.9
		c-2.3,0-3.8-1.8-3.8-4c0-2.3,1.5-4,3.8-4c2.3,0,3.8,1.8,3.8,4C69.9,95.1,68.4,96.9,66.1,96.9z"/>
	<polygon points="84.7,93.9 79.1,85.8 75.4,85.8 75.4,99.8 79,99.8 79,91.4 84.9,99.8 88.4,99.8 88.4,85.8 84.7,85.8 	"/>
	<path d="M72.6,36.2c-5.7-0.3-11.5-0.7-17.2-1c-0.5,0-1.1,0.5-1,1c0.2,4.3,0.5,8.5,1,12.8c0.2,1.3,2.2,1.3,2.1,0
		c-0.2-1.6-0.3-3.2-0.5-4.8c4,0.1,8.1,0.2,12.1,0.3c1.3,0,1.3-2.1,0-2.1c-4.1-0.1-8.2-0.2-12.3-0.3c-0.1-1.6-0.2-3.2-0.3-4.8
		c5.4,0.3,10.7,0.6,16.1,1C73.9,38.3,73.9,36.3,72.6,36.2z"/>
	<path d="M85.5,39.7c-2-1-4.4-1.6-6.6-1.1c-3.4,0.8-6.3,4.2-4.8,7.8c2.1,4.9,8.1,4.3,12.3,3.4c1.3-0.3,0.8-2.3-0.6-2
		c-2.9,0.6-6.6,1.4-9-1c-3.3-3.3,1.3-6.6,4.6-6.2c1.5,0.2,2.9,0.8,4.2,1.5c0.2,0.1,1.3,0.6,1.2,0.8c-0.1,0.3-0.9,0.1-1.4,0.1
		c-2.8-0.1-5.6-0.3-8.4-0.4c-1.3-0.1-1.3,2,0,2.1c3.2,0.2,6.6,0.7,9.9,0.5c1.2-0.1,2.6-0.5,2.5-2C89.3,41.3,86.8,40.3,85.5,39.7z"/>
</g>
</svg>
