<?xml version="1.0" encoding="utf-8"?>
<!-- Generator: Adobe Illustrator 23.0.1, SVG Export Plug-In . SVG Version: 6.00 Build 0)  -->
<svg version="1.1" id="Layer_1" xmlns="http://www.w3.org/2000/svg" xmlns:xlink="http://www.w3.org/1999/xlink" x="0px" y="0px"
	 viewBox="0 0 300 120" style="enable-background:new 0 0 300 120;" xml:space="preserve">
<style type="text/css">
	.st0{fill:none;}
	.st1{fill:#FFFFFF;}
</style>
<g>
	<path class="st0" d="M177.5,84c2.4,0,3.5-1.6,3.5-4.9c0-1.5-0.3-2.6-0.8-3.4s-1.5-1.2-2.7-1.2s-2.1,0.4-2.7,1.2
		c-0.6,0.8-0.8,2-0.8,3.5c0,1.7,0.3,2.9,0.9,3.7C175.4,83.6,176.3,84,177.5,84z"/>
	<path class="st0" d="M177.5,99.5c1.4,0,2.3-0.5,2.9-1.4c0.6-1,0.9-2.4,0.9-4.3c0-3.5-1.3-5.2-3.8-5.2c-1.2,0-2.2,0.4-2.8,1.3
		c-0.7,0.9-1,2.2-1,4c0,2.1,0.3,3.5,1,4.4C175.4,99.1,176.3,99.5,177.5,99.5z"/>
	<path class="st0" d="M227.8,78c0-1.1-0.3-2-1-2.6c-0.6-0.6-1.5-0.9-2.5-0.9s-1.9,0.3-2.5,0.9c-0.6,0.6-1,1.5-1,2.6v17.9
		c0,1.1,0.3,2,1,2.6c0.6,0.6,1.5,0.9,2.5,0.9s1.9-0.3,2.5-0.9c0.6-0.6,1-1.5,1-2.6V78z"/>
	<path class="st0" d="M177.6,44.9c1,0,1.9-0.3,2.5-0.9c0.6-0.6,1-1.5,1-2.6V23.5c0-1.1-0.3-2-1-2.6c-0.6-0.6-1.5-0.9-2.5-0.9
		s-1.9,0.3-2.5,0.9s-1,1.5-1,2.6v17.9c0,1.1,0.3,2,1,2.6C175.7,44.6,176.5,44.9,177.6,44.9z"/>
	<path class="st0" d="M131.8,35.5v9.3c1.3-0.2,2.2-0.7,2.6-1.6c0.5-0.8,0.7-1.8,0.7-3c0-1.3-0.3-2.3-0.9-2.9
		C133.7,36.6,132.9,36,131.8,35.5z"/>
	<path class="st0" d="M126.5,79c0,0.9,0.3,1.7,0.8,2.3s1.3,1.2,2.3,1.6v-8.3c-1,0.2-1.8,0.7-2.3,1.5C126.7,77,126.5,77.9,126.5,79z"
		/>
	<path class="st0" d="M126.5,24.5c0,0.9,0.3,1.7,0.8,2.3c0.5,0.6,1.3,1.2,2.3,1.6v-8.3c-1,0.2-1.8,0.7-2.3,1.5
		C126.7,22.5,126.5,23.4,126.5,24.5z"/>
	<path class="st0" d="M131.8,90v9.3c1.3-0.2,2.2-0.7,2.6-1.6c0.5-0.8,0.7-1.8,0.7-3c0-1.3-0.3-2.3-0.9-2.9
		C133.7,91.1,132.9,90.5,131.8,90z"/>
	<path class="st0" d="M268.8,97c-0.5,0.4-0.7,1-0.7,1.7c0,0.6,0.2,1.1,0.6,1.5s1.1,0.6,2.1,0.6c0.8,0,1.5-0.2,2.1-0.6
		c0.6-0.4,0.9-1.1,0.9-2v-1.8h-3C269.9,96.4,269.2,96.6,268.8,97z"/>
	<path class="st0" d="M269.2,34c-0.7,0-1.3,0.2-1.8,0.5s-0.8,0.7-1.1,1.2c-0.3,0.5-0.5,1.1-0.6,1.8c-0.1,0.7-0.2,1.4-0.2,2.2
		c0,1.7,0.2,3.1,0.7,4s1.4,1.4,2.7,1.4c1.3,0,2.2-0.5,2.7-1.4c0.6-0.9,0.8-2.4,0.8-4.4c0-1.6-0.3-2.8-0.7-3.8
		C271.4,34.5,270.5,34,269.2,34z"/>
	<path d="M138.9,33.5c-0.7-0.8-1.6-1.6-2.8-2.3c-1.2-0.7-2.6-1.3-4.3-1.9v-9.1c1.9,0.3,3.4,1.3,4.4,3.1l4.2-3.1
		c-0.7-1.4-1.8-2.6-3.2-3.6s-3.2-1.6-5.4-1.8v-3.6h-2.3v3.6c-1.3,0.1-2.5,0.5-3.6,1s-2,1.2-2.7,2.1c-0.8,0.9-1.3,1.9-1.8,3
		c-0.4,1.2-0.6,2.4-0.6,3.7c0,1.3,0.2,2.5,0.5,3.4c0.4,1,0.9,1.9,1.6,2.7c0.7,0.8,1.6,1.5,2.7,2.1s2.4,1.2,3.9,1.7v10.2
		c-1.1-0.2-2.1-0.6-2.9-1.3s-1.5-1.6-2.1-2.6l-4.6,2.9c1,1.8,2.2,3.3,3.8,4.4c1.6,1.1,3.5,1.8,5.8,1.9v4.8h2.3V50
		c3-0.2,5.2-1.2,6.8-3s2.3-4.2,2.3-7.2c0-1.3-0.2-2.5-0.5-3.6C140.1,35.3,139.6,34.3,138.9,33.5z M129.6,28.5c-1-0.5-1.8-1-2.3-1.6
		s-0.8-1.4-0.8-2.3c0-1.1,0.3-2.1,0.8-2.8c0.5-0.8,1.3-1.3,2.3-1.5V28.5z M134.5,43.2c-0.5,0.8-1.4,1.4-2.6,1.6v-9.3
		c1.1,0.5,1.9,1,2.5,1.7s0.9,1.7,0.9,2.9C135.2,41.4,135,42.4,134.5,43.2z"/>
	<polygon points="161.8,30.8 156.2,30.8 156.2,39.6 149.6,39.6 159.2,14.9 153.4,14.9 143.6,40 143.6,44.9 156.2,44.9 156.2,49.9 
		161.8,49.9 161.8,44.9 164.3,44.9 164.3,39.6 161.8,39.6 	"/>
	<path d="M174.1,49.6c1.1,0.4,2.2,0.6,3.4,0.6s2.4-0.2,3.4-0.6c1.1-0.4,2-1,2.9-1.7c0.8-0.8,1.5-1.7,2-2.7c0.5-1.1,0.7-2.3,0.7-3.7
		v-18c0-1.4-0.2-2.7-0.7-3.7c-0.5-1.1-1.1-2-2-2.8c-0.8-0.8-1.8-1.3-2.9-1.7c-1.1-0.4-2.3-0.6-3.5-0.6s-2.3,0.2-3.4,0.6
		s-2,1-2.9,1.7c-0.8,0.8-1.5,1.7-2,2.8c-0.5,1.1-0.7,2.3-0.7,3.7v18c0,1.4,0.2,2.6,0.7,3.7c0.5,1.1,1.1,2,2,2.7
		C172.1,48.7,173,49.2,174.1,49.6z M174.1,23.5c0-1.1,0.3-2,1-2.6c0.6-0.6,1.5-0.9,2.5-0.9s1.9,0.3,2.5,0.9s1,1.5,1,2.6v17.9
		c0,1.1-0.3,2-1,2.6c-0.6,0.6-1.5,0.9-2.5,0.9s-1.9-0.3-2.5-0.9c-0.6-0.6-1-1.5-1-2.6V23.5z"/>
	<path d="M207.3,49.9l4.2-8.4l4.2,8.4h6.3l-7.5-12.7l7.2-12.2h-6.3l-3.8,7.9h-0.1l-3.8-7.9h-6.4c1.2,2,2.4,4.1,3.6,6.1
		c1.2,2,2.4,4,3.6,6.1L201,49.9H207.3z"/>
	<polygon points="253.3,49.9 253.3,44.9 255.9,44.9 255.9,39.6 253.3,39.6 253.3,30.8 247.8,30.8 247.8,39.6 241.2,39.6 250.8,14.9 
		244.9,14.9 235.2,40 235.2,44.9 247.8,44.9 247.8,49.9 	"/>
	<path d="M276.4,32c-0.6-0.9-1.3-1.5-2.2-2c-0.9-0.5-1.8-0.7-2.9-0.7c-0.4,0-0.8,0-1.2,0.1c-0.5,0.1-0.8,0.2-1.2,0.4l-0.1-0.1
		c0.2-0.4,0.5-0.9,0.8-1.7s0.7-1.6,1.2-2.6c0.4-1,0.9-2,1.3-3c0.5-1.1,0.9-2.1,1.3-3c0.4-1,0.8-1.8,1.2-2.6c0.4-0.8,0.6-1.4,0.8-1.8
		h-6.1c-0.1,0.2-0.3,0.6-0.6,1.4c-0.4,0.8-0.8,1.7-1.3,2.8c-0.5,1.1-1,2.3-1.6,3.6c-0.6,1.3-1.2,2.5-1.7,3.7s-1,2.3-1.4,3.2
		c-0.4,0.9-0.7,1.6-0.9,2c-0.5,1.1-0.9,2.4-1.2,3.7c-0.3,1.4-0.4,2.8-0.4,4.4c0,3.6,0.7,6.2,2.2,7.9c1.4,1.7,3.7,2.5,6.7,2.5
		c3.3,0,5.6-1,7.1-3s2.2-4.7,2.2-8.1c0-1.4-0.2-2.8-0.5-3.9C277.5,33.9,277,32.9,276.4,32z M271.8,43.6c-0.6,0.9-1.5,1.4-2.7,1.4
		c-1.3,0-2.2-0.5-2.7-1.4s-0.7-2.2-0.7-4c0-0.8,0-1.5,0.2-2.2c0.1-0.7,0.3-1.3,0.6-1.8c0.3-0.5,0.6-0.9,1.1-1.2
		c0.5-0.3,1.1-0.5,1.8-0.5c1.3,0,2.2,0.5,2.6,1.4c0.5,1,0.7,2.2,0.7,3.8C272.6,41.2,272.3,42.7,271.8,43.6z"/>
	<path d="M138.9,88c-0.7-0.8-1.6-1.6-2.8-2.3s-2.6-1.3-4.3-1.9v-9.1c1.9,0.3,3.4,1.3,4.4,3.1l4.2-3.1c-0.7-1.4-1.8-2.6-3.2-3.6
		s-3.2-1.6-5.4-1.8v-3.6h-2.3v3.6c-1.3,0.1-2.5,0.5-3.6,1s-2,1.2-2.7,2.1c-0.8,0.9-1.3,1.9-1.8,3c-0.4,1.2-0.6,2.4-0.6,3.7
		s0.2,2.5,0.5,3.4c0.4,1,0.9,1.9,1.6,2.7s1.6,1.5,2.7,2.1s2.4,1.2,3.9,1.7v10.2c-1.1-0.2-2.1-0.6-2.9-1.3s-1.5-1.6-2.1-2.6l-4.6,2.9
		c1,1.8,2.2,3.3,3.8,4.4c1.6,1.1,3.5,1.8,5.8,1.9v4.8h2.3v-4.8c3-0.2,5.2-1.2,6.8-3s2.3-4.2,2.3-7.2c0-1.3-0.2-2.5-0.5-3.6
		C140.1,89.8,139.6,88.8,138.9,88z M129.6,83c-1-0.5-1.8-1-2.3-1.6s-0.8-1.4-0.8-2.3c0-1.1,0.3-2.1,0.8-2.8c0.5-0.8,1.3-1.3,2.3-1.5
		V83z M134.5,97.7c-0.5,0.8-1.4,1.4-2.6,1.6V90c1.1,0.5,1.9,1,2.5,1.7s0.9,1.7,0.9,2.9C135.2,95.9,135,96.9,134.5,97.7z"/>
	<polygon points="148.3,73.3 148.3,79.3 153.2,75.7 153.2,104.4 158.8,104.4 158.8,69.4 153.5,69.4 	"/>
	<path d="M168.9,89.5c-0.5,1.5-0.8,3.1-0.8,4.9c0,1.9,0.3,3.5,0.8,4.8s1.2,2.4,2,3.2c0.9,0.8,1.8,1.4,3,1.8c1.1,0.4,2.3,0.5,3.6,0.5
		c1.2,0,2.4-0.2,3.5-0.5c1.1-0.4,2.2-0.9,3-1.8c0.9-0.8,1.6-1.9,2.1-3.2s0.8-2.9,0.8-4.8c0-0.9-0.1-1.7-0.2-2.5
		c-0.1-0.8-0.3-1.6-0.6-2.3s-0.6-1.4-1.1-1.9c-0.5-0.6-1.1-1-1.8-1.3v-0.1c1.3-0.7,2.1-1.7,2.6-3c0.5-1.2,0.7-2.6,0.7-4.2
		c0-1.7-0.2-3.2-0.7-4.4s-1.1-2.2-1.9-3c-0.8-0.8-1.8-1.4-2.9-1.8c-1.1-0.4-2.4-0.6-3.7-0.6c-2.7,0-4.9,0.8-6.5,2.5
		c-1.7,1.7-2.5,4.1-2.5,7.3c0,1.6,0.2,3,0.6,4.2s1.3,2.2,2.7,3v0.1C170.5,87,169.5,88,168.9,89.5z M174.8,75.7
		c0.6-0.8,1.4-1.2,2.7-1.2c1.2,0,2.2,0.4,2.7,1.2s0.8,1.9,0.8,3.4c0,3.3-1.2,4.9-3.5,4.9c-1.2,0-2.1-0.4-2.6-1.1
		c-0.6-0.7-0.9-2-0.9-3.7C174,77.7,174.3,76.5,174.8,75.7z M174.7,89.9c0.7-0.9,1.6-1.3,2.8-1.3c2.5,0,3.8,1.7,3.8,5.2
		c0,1.9-0.3,3.3-0.9,4.3c-0.6,1-1.6,1.4-2.9,1.4c-1.2,0-2.1-0.4-2.8-1.2s-1-2.3-1-4.4C173.6,92.1,174,90.8,174.7,89.9z"/>
	<polygon points="203,104.4 208.6,104.4 208.6,99.4 211.1,99.4 211.1,94.1 208.6,94.1 208.6,85.3 203,85.3 203,94.1 196.4,94.1 
		206,69.4 200.2,69.4 190.4,94.5 190.4,99.4 203,99.4 	"/>
	<path d="M230.7,102.4c0.8-0.8,1.5-1.7,2-2.7c0.5-1.1,0.7-2.3,0.7-3.7V78c0-1.4-0.2-2.7-0.7-3.7c-0.5-1.1-1.1-2-2-2.8
		c-0.8-0.8-1.8-1.3-2.9-1.7c-1.1-0.4-2.3-0.6-3.5-0.6s-2.3,0.2-3.4,0.6s-2,1-2.9,1.7c-0.8,0.8-1.5,1.7-2,2.8s-0.7,2.3-0.7,3.7v18
		c0,1.4,0.2,2.6,0.7,3.7c0.5,1.1,1.1,2,2,2.7c0.8,0.8,1.8,1.3,2.9,1.7c1.1,0.4,2.2,0.6,3.4,0.6s2.4-0.2,3.4-0.6
		C228.9,103.7,229.8,103.2,230.7,102.4z M224.4,99.4c-1,0-1.9-0.3-2.5-0.9c-0.6-0.6-1-1.5-1-2.6V78c0-1.1,0.3-2,1-2.6
		c0.6-0.6,1.5-0.9,2.5-0.9s1.9,0.3,2.5,0.9c0.6,0.6,1,1.5,1,2.6v17.9c0,1.1-0.3,2-1,2.6S225.4,99.4,224.4,99.4z"/>
	<polygon points="244,77.1 235.8,106 239.1,106 247.4,77.1 	"/>
	<path d="M262,100.8c-0.1-0.1-0.4-0.2-0.7-0.4c-0.3-0.2-0.7-0.3-1.1-0.5s-0.8-0.4-1.1-0.5s-0.6-0.3-0.7-0.4c-0.3,0.5-0.6,1-1,1.3
		s-0.9,0.5-1.5,0.5s-1.1-0.1-1.5-0.4c-0.4-0.3-0.7-0.7-0.9-1.2s-0.4-1.1-0.5-1.8s-0.1-1.5-0.1-2.3s0-1.6,0.1-2.2
		c0.1-0.7,0.2-1.3,0.5-1.8c0.2-0.5,0.5-0.9,1-1.2c0.4-0.3,0.9-0.4,1.6-0.4c1.1,0,2,0.6,2.5,1.8c0.1-0.1,0.3-0.2,0.7-0.4
		s0.7-0.4,1.1-0.5c0.4-0.2,0.8-0.4,1.1-0.5c0.3-0.2,0.6-0.3,0.7-0.4c-0.5-1.2-1.3-2.2-2.4-2.9s-2.4-1-3.8-1c-1.3,0-2.4,0.2-3.3,0.7
		c-0.9,0.5-1.6,1.1-2.2,1.9c-0.6,0.8-1,1.8-1.2,3c-0.3,1.2-0.4,2.4-0.4,3.8c0,1.4,0.1,2.7,0.3,3.9s0.6,2.2,1.1,3s1.3,1.5,2.2,2
		s2.1,0.7,3.5,0.7c1.5,0,2.7-0.3,3.8-1C260.7,103,261.5,102,262,100.8z"/>
	<path d="M270.4,93.3c-1.1,0-2.1,0.2-2.9,0.5s-1.5,0.7-2,1.2s-0.9,1.1-1.2,1.8c-0.3,0.7-0.4,1.4-0.4,2.2c0,1.7,0.4,3,1.3,4.1
		c0.9,1,2.2,1.5,4.1,1.5c0.8,0,1.5-0.1,2.3-0.4s1.4-0.7,1.8-1.3l0.2,0.1v1.4h4.1V91.3c0-1.1-0.2-2-0.5-2.8c-0.3-0.7-0.8-1.3-1.4-1.8
		s-1.3-0.8-2.2-1s-1.7-0.3-2.7-0.3c-1.4,0-2.7,0.3-3.8,0.8c-1.1,0.6-2,1.4-2.6,2.6c0.1,0.1,0.3,0.2,0.6,0.4c0.3,0.2,0.6,0.4,0.9,0.6
		s0.7,0.4,1,0.6c0.3,0.2,0.5,0.3,0.6,0.4c0.3-0.6,0.8-1.1,1.4-1.3s1.2-0.4,1.9-0.4c1,0,1.7,0.2,2.1,0.7s0.6,1,0.6,1.6v1.7h-3.2V93.3
		z M273.7,98.3c0,0.9-0.3,1.6-0.9,2s-1.3,0.6-2.1,0.6c-1,0-1.6-0.2-2.1-0.6c-0.4-0.4-0.6-0.9-0.6-1.5c0-0.8,0.2-1.3,0.7-1.7
		s1.1-0.6,1.9-0.6h3v1.8H273.7z"/>
	<path d="M290.2,85.6c-0.9,0-1.7,0.2-2.5,0.5c-0.7,0.3-1.3,1-1.8,1.9h-0.1v-2.1h-4.1v18.7h4.2V93.4c0-1.3,0.3-2.2,0.9-2.7
		c0.6-0.6,1.5-0.9,2.5-0.9c0.4,0,0.7,0,1,0.1s0.7,0.2,1,0.4l0.8-4.1c-0.3-0.2-0.6-0.3-0.9-0.4C290.9,85.6,290.6,85.6,290.2,85.6z"/>
	<path class="st1" d="M67.5,88.9h-2.8V92h2.8c0.9,0,1.7-0.6,1.7-1.6C69.3,89.5,68.5,88.9,67.5,88.9z"/>
	<path class="st1" d="M21.3,76.1c0,2.3,1.5,4,3.8,4s3.8-1.8,3.8-4c0-1.7-0.8-3.1-2.1-3.7c-0.5-0.2-1-0.4-1.6-0.4s-1.2,0.1-1.7,0.4
		C22.1,73,21.3,74.4,21.3,76.1z"/>
	<path class="st1" d="M26.7,90c0-0.7-0.5-1.2-1.2-1.2H22v2.4h3.5C26.2,91.2,26.7,90.7,26.7,90z"/>
	<path class="st1" d="M25.6,94.2H22v2.6h3.6c0.9,0,1.4-0.5,1.4-1.3C26.9,94.8,26.4,94.2,25.6,94.2z"/>
	<polygon class="st1" points="36.7,94.7 40.6,94.7 38.6,89 	"/>
	<path class="st1" d="M53.7,88.9h-2.8V92h2.8c0.9,0,1.7-0.6,1.7-1.6C55.4,89.5,54.6,88.9,53.7,88.9z"/>
	<path d="M14.1,8.4H7.9v6.3v90.6v6.3h6.3h90.6h6.3v-6.3V14.7V8.4h-6.3H14.1z M104.7,72.4v32.9H14.1V72.4V14.7h90.6V72.4z"/>
	<path d="M25.1,83.3c4.3,0,7.5-3,7.5-7.2c0-1.4-0.4-2.6-1-3.7c-1.3-2.2-3.6-3.5-6.5-3.5s-5.2,1.4-6.5,3.5c-0.6,1.1-1,2.3-1,3.7
		C17.6,80.3,20.8,83.3,25.1,83.3z M25.1,72c0.6,0,1.2,0.1,1.6,0.4c1.3,0.6,2.1,2,2.1,3.7c0,2.3-1.5,4-3.8,4s-3.8-1.8-3.8-4
		c0-1.7,0.8-3.1,2.2-3.7C23.9,72.1,24.5,72,25.1,72z"/>
	<polygon points="38,72.4 38,69.1 34.4,69.1 34.4,72.4 34.4,83 38,83 	"/>
	<path d="M28,92.6c1.3-0.3,2.4-1.5,2.4-3.2c0-1.8-1.3-3.6-4.1-3.6h-7.9v14h8.2c2.7,0,4.1-1.8,4.1-3.8C30.6,94.3,29.4,92.8,28,92.6z
		 M21.9,88.8h3.5c0.7,0,1.2,0.5,1.2,1.2s-0.5,1.2-1.2,1.2h-3.5V88.8z M25.6,96.8H22v-2.6h3.6c0.9,0,1.4,0.6,1.4,1.3
		C26.9,96.3,26.4,96.8,25.6,96.8z"/>
	<path d="M36.4,85.8l-5.3,14H35l0.7-2.1h5.8l0.7,2.1h3.9l-5.3-14H36.4z M36.7,94.7l1.9-5.7l2,5.7H36.7z"/>
	<path d="M59.1,90.5c0-2.6-1.8-4.7-4.9-4.7h-7v14h3.6v-4.7h1.8l2.3,4.7H59l-2.8-5.1C57.6,94.2,59.1,92.9,59.1,90.5z M53.7,92h-2.8
		v-3.1h2.8c0.9,0,1.7,0.6,1.7,1.6C55.4,91.4,54.6,92,53.7,92z"/>
	<path d="M72.9,90.5c0-2.6-1.8-4.7-4.9-4.7h-7v14h3.6v-4.7h1.8l2.3,4.7H73l-2.8-5.1C71.4,94.2,72.9,92.9,72.9,90.5z M67.5,92h-2.8
		v-3.1h2.8c0.9,0,1.7,0.6,1.7,1.6C69.3,91.4,68.5,92,67.5,92z"/>
	<polygon points="74.9,99.8 85.2,99.8 85.2,96.8 78.5,96.8 78.5,94.3 85,94.3 85,91.2 78.5,91.2 78.5,88.9 85.2,88.9 85.2,85.8 
		74.9,85.8 	"/>
	<polygon points="90.9,85.8 87.3,85.8 87.3,99.8 96.5,99.8 96.5,96.7 90.9,96.7 	"/>
	<path class="st1" d="M88.1,45.9c1.6-4.9-3-7.2-5.8-10.1c-0.7-0.7-1.2-1.4-1.7-2.1c-2.2,3.3-4.5,7-4.4,10.4
		C76.4,50.5,86,52.4,88.1,45.9z"/>
	<path class="st1" d="M14.1,72.4v32.9h90.6V72.4V14.7H14.1V72.4z M26.5,99.8h-8.2v-14h7.9c2.8,0,4.1,1.8,4.1,3.6
		c0,1.7-1.1,2.9-2.4,3.2c1.5,0.2,2.7,1.7,2.7,3.4C30.6,98.1,29.3,99.8,26.5,99.8z M42.2,99.8l-0.7-2.1h-5.8L35,99.8h-3.9l5.3-14h4.5
		l5.3,14H42.2z M34.4,72.4v-3.3H38v3.3V83h-3.6V72.4z M55,99.8l-2.3-4.7h-1.8v4.7h-3.6v-14h7c3.1,0,4.9,2.1,4.9,4.7
		c0,2.4-1.5,3.7-2.8,4.2l2.8,5.1H55z M68.9,99.8l-2.3-4.7h-1.8v4.7h-3.6v-14h7c3.1,0,4.9,2.1,4.9,4.7c0,2.4-1.5,3.7-2.8,4.2l2.8,5.1
		H68.9z M85.2,88.9h-6.6v2.3H85v3.1h-6.5v2.5h6.6v3H74.9v-14h10.2L85.2,88.9L85.2,88.9z M96.5,99.8h-9.2v-14h3.6v10.8h5.6V99.8z
		 M49.7,79.9V83h-9.2V72.3V69h3.6v3.3v7.5L49.7,79.9L49.7,79.9z M77.8,26.4c0.6-1,1.5-1.5,2.5-1.5c1.9-1.5,5.4-0.8,5,2.2
		c-0.6,4.5,5,6.4,7.2,9.6c1.7,2.5,2.4,5.5,2.1,8.5c-0.6,5.7-5.1,10.2-10.7,10.9c-5.8,0.8-11.5-2.8-13.3-8.5
		C68.1,40,74.1,32.6,77.8,26.4z M25.1,27.3c0.9-8.1,11.4-8.9,18.8-8.9c0.2-0.1,0.5-0.1,0.7-0.2c8.2-1,21.2,0.5,20.8,11.8
		c-0.1,2.1-0.6,3.7-1.5,5c-0.3,8.2,0,16.4,0.9,24.6c0.3,2.4-1.9,3.4-3.8,2.8c-0.2,0.9-0.9,1.8-2,2.2c-10.2,3.9-21.3,2.8-30.5-3
		c-0.9-0.6-1.3-1.3-1.4-2.2c-1-0.4-1.7-1.3-1.8-2.7c-0.1-8.9-0.1-17.7-0.2-26.6C25.1,29.3,25,28.4,25.1,27.3z M25.1,68.8
		c2.9,0,5.2,1.4,6.5,3.5c0.6,1.1,1,2.3,1,3.7c0,4.3-3.2,7.2-7.5,7.2s-7.5-3-7.5-7.2c0-1.4,0.4-2.6,1-3.7
		C19.9,70.2,22.2,68.8,25.1,68.8z"/>
	<path class="st1" d="M43.7,32.5c2.1,0.2,11.2,2.1,14.2-0.7c0-0.2,0-0.4,0-0.6c0.1-0.9,0.4-1.6,1-2.1c0-0.5-0.1-1-0.3-1.6
		c-0.7-2.2-5.4-3.3-7.5-3.4c-0.3,0-0.7,0-1,0c-0.5,0.4-1.2,0.7-2,0.7c-2.8,0-10.9-0.9-13.2,0.9C28.1,31.1,41.3,32.2,43.7,32.5z"/>
	<path class="st1" d="M32.1,41.8c5.1,2.2,10.5,3,16,2.6c2.7-0.2,2.7,4,0,4.2c-5.7,0.4-11.2-0.5-16.5-2.5v2.8l0,0
		c5,2.9,10.3,4.3,16,4.4c2.7,0,2.7,4.2,0,4.2c-5.6,0-11-1.3-16-3.8v2.7h0.1c8,5,16.9,5.8,25.7,2.4c0.4-0.1,0.7-0.2,1.1-0.2
		c-0.7-6.5-1-13-0.9-19.6c-4.2,0.9-9.2,0.4-12.9,0c-3.5-0.4-8.9-0.7-13.2-2.3c0,1.7,0,3.4,0,5.1C31.8,41.7,31.9,41.7,32.1,41.8z"/>
	<polygon points="44.1,69.1 40.5,69.1 40.5,72.4 40.5,83 49.7,83 49.7,79.9 44.1,79.9 44.1,72.4 	"/>
	<path d="M25.4,56.8c0,1.4,0.8,2.3,1.8,2.7c0.1,0.8,0.5,1.6,1.4,2.2c9.2,5.8,20.3,6.9,30.5,3c1.1-0.4,1.8-1.3,2-2.2
		c1.9,0.5,4.1-0.4,3.8-2.8C64,51.5,63.7,43.3,64,35.1c0.9-1.3,1.4-2.9,1.5-5c0.4-11.3-12.6-12.8-20.8-11.8c-0.3,0-0.5,0.1-0.7,0.2
		c-7.4,0-17.9,0.8-18.8,8.9c-0.1,1.1,0,2,0.1,2.9C25.3,39.1,25.4,47.9,25.4,56.8z M34.8,25.7c2.3-1.8,10.4-0.9,13.2-0.9
		c0.9,0,1.5-0.3,2-0.7c0.3,0,0.7,0,1,0c2,0.1,6.7,1.2,7.5,3.4c0.2,0.6,0.3,1.1,0.3,1.6c-0.5,0.5-0.9,1.2-1,2.1c0,0.2,0,0.4,0,0.6
		c-3,2.8-12.1,1-14.2,0.7C41.3,32.2,28.1,31.1,34.8,25.7z M44.7,38.8c3.7,0.4,8.7,0.9,12.9,0c-0.1,6.5,0.2,13.1,0.9,19.6
		c-0.3,0-0.7,0.1-1.1,0.2c-8.7,3.4-17.7,2.6-25.7-2.4h-0.1v-2.7c5,2.5,10.4,3.8,16,3.8c2.7,0,2.7-4.2,0-4.2c-5.7,0-11.1-1.5-16-4.4
		l0,0v-2.8c5.3,2,10.8,2.9,16.5,2.5c2.7-0.2,2.7-4.4,0-4.2c-5.5,0.4-10.9-0.4-16-2.6c-0.2-0.1-0.3-0.1-0.5-0.1c0-1.7,0-3.4,0-5.1
		C35.8,38.2,41.2,38.4,44.7,38.8z"/>
	<path d="M83.8,56.2C89.4,55.5,94,51,94.5,45.3c0.3-3-0.4-6-2.1-8.5c-2.2-3.2-7.8-5.2-7.2-9.6c0.4-3-3.1-3.7-5-2.2
		c-0.9,0-1.9,0.5-2.5,1.5C74,32.7,68,40.1,70.5,47.7C72.3,53.3,78,56.9,83.8,56.2z M80.6,33.6c0.5,0.8,1.1,1.5,1.7,2.1
		c2.9,2.9,7.4,5.2,5.8,10.1c-2.1,6.6-11.7,4.7-11.9-1.9C76.1,40.6,78.4,36.9,80.6,33.6z"/>
</g>
</svg>
