<?xml version="1.0" encoding="utf-8"?>
<!-- Generator: Adobe Illustrator 23.0.1, SVG Export Plug-In . SVG Version: 6.00 Build 0)  -->
<svg version="1.1" id="Layer_1" xmlns="http://www.w3.org/2000/svg" xmlns:xlink="http://www.w3.org/1999/xlink" x="0px" y="0px"
	 viewBox="0 0 300 120" style="enable-background:new 0 0 300 120;" xml:space="preserve">
<style type="text/css">
	.st0{fill:none;}
	.st1{fill:#FFFFFF;}
</style>
<g>
	<path class="st0" d="M257.6,94.1h-3c-0.8,0-1.5,0.2-1.9,0.6c-0.5,0.4-0.7,1-0.7,1.7c0,0.6,0.2,1.1,0.6,1.5c0.4,0.4,1.1,0.6,2.1,0.6
		c0.8,0,1.5-0.2,2.1-0.6c0.6-0.4,0.9-1.1,0.9-2v-1.8H257.6z"/>
	<path class="st0" d="M184.9,72.1c-1.3,0-2.2,0.4-2.8,1.3c-0.6,0.9-0.9,2.4-0.9,4.5c0,1.5,0.2,2.7,0.7,3.7s1.4,1.4,2.8,1.4
		c1.3,0,2.2-0.5,2.6-1.5c0.5-1,0.7-2.3,0.8-4.1c0-1.7-0.2-3-0.7-4C187.2,72.6,186.3,72.1,184.9,72.1z"/>
	<path class="st0" d="M184.9,31.7c-0.7,0-1.3,0.2-1.8,0.5s-0.8,0.7-1.1,1.2s-0.5,1.1-0.6,1.8c-0.1,0.7-0.2,1.4-0.2,2.2
		c0,1.7,0.2,3.1,0.7,4s1.4,1.4,2.7,1.4s2.2-0.5,2.7-1.4c0.6-0.9,0.8-2.4,0.8-4.4c0-1.6-0.3-2.8-0.7-3.8
		C187.1,32.2,186.2,31.7,184.9,31.7z"/>
	<path class="st0" d="M139.1,87.7V97c1.3-0.2,2.2-0.7,2.6-1.6c0.5-0.8,0.7-1.8,0.7-3c0-1.3-0.3-2.3-0.9-2.9
		C141,88.8,140.2,88.2,139.1,87.7z"/>
	<path class="st0" d="M133.7,22.2c0,0.9,0.3,1.7,0.8,2.3c0.5,0.6,1.3,1.2,2.3,1.6v-8.3c-1,0.2-1.8,0.7-2.3,1.5
		C134,20.2,133.7,21.1,133.7,22.2z"/>
	<path class="st0" d="M139.1,33.2v9.3c1.3-0.2,2.2-0.7,2.6-1.6c0.5-0.8,0.7-1.8,0.7-3c0-1.3-0.3-2.3-0.9-2.9
		C141,34.3,140.2,33.7,139.1,33.2z"/>
	<path class="st0" d="M133.7,76.7c0,0.9,0.3,1.7,0.8,2.3s1.3,1.2,2.3,1.6v-8.3c-1,0.2-1.8,0.7-2.3,1.5
		C134,74.7,133.7,75.6,133.7,76.7z"/>
	<path d="M146.2,31.2c-0.7-0.8-1.6-1.6-2.8-2.3c-1.2-0.7-2.6-1.3-4.3-1.9v-9c1.9,0.3,3.4,1.3,4.4,3.1l4.2-3.1
		c-0.7-1.4-1.8-2.6-3.2-3.6s-3.2-1.6-5.4-1.8V9h-2.3v3.6c-1.3,0.1-2.5,0.5-3.6,1s-2,1.2-2.7,2.1c-0.8,0.9-1.3,1.9-1.8,3
		c-0.4,1.2-0.6,2.4-0.6,3.7c0,1.3,0.2,2.5,0.5,3.4c0.4,1,0.9,1.9,1.6,2.7c0.7,0.8,1.6,1.5,2.7,2.1c1.1,0.6,2.4,1.2,3.9,1.7v10.2
		c-1.1-0.2-2.1-0.6-2.9-1.3c-0.8-0.7-1.5-1.6-2.1-2.6l-4.6,2.9c1,1.8,2.2,3.3,3.8,4.4c1.6,1.1,3.5,1.8,5.8,1.9v4.8h2.3v-4.8
		c3-0.2,5.2-1.2,6.8-3s2.3-4.2,2.3-7.2c0-1.3-0.2-2.5-0.5-3.6C147.4,33,146.9,32,146.2,31.2z M136.8,26.2c-1-0.5-1.8-1-2.3-1.6
		s-0.8-1.4-0.8-2.3c0-1.1,0.3-2.1,0.8-2.8c0.5-0.8,1.3-1.3,2.3-1.5V26.2z M141.7,40.9c-0.5,0.8-1.4,1.4-2.6,1.6v-9.3
		c1.1,0.5,1.9,1,2.5,1.7s0.9,1.7,0.9,2.9C142.5,39.1,142.2,40.1,141.7,40.9z"/>
	<polygon points="166,12.6 160.8,12.6 155.6,16.5 155.6,22.5 160.5,18.9 160.5,47.6 166,47.6 	"/>
	<path d="M193.5,32.8c-0.3-1.2-0.8-2.2-1.4-3.1c-0.6-0.9-1.3-1.5-2.2-2S188.1,27,187,27c-0.4,0-0.8,0-1.2,0.1
		c-0.5,0.1-0.8,0.2-1.2,0.4l-0.2-0.1c0.2-0.4,0.5-0.9,0.8-1.7c0.4-0.8,0.7-1.6,1.2-2.6c0.4-1,0.9-2,1.3-3c0.5-1.1,0.9-2.1,1.3-3
		c0.4-1,0.8-1.8,1.2-2.6c0.4-0.8,0.6-1.4,0.8-1.8h-6.1c-0.1,0.2-0.3,0.6-0.6,1.4c-0.4,0.8-0.8,1.7-1.3,2.8c-0.5,1.1-1,2.3-1.6,3.6
		c-0.6,1.3-1.1,2.5-1.7,3.7c-0.5,1.2-1,2.3-1.4,3.2c-0.4,0.9-0.7,1.6-0.9,2c-0.5,1.1-0.9,2.4-1.2,3.7c-0.3,1.4-0.4,2.8-0.4,4.4
		c0,3.6,0.7,6.2,2.2,7.9c1.4,1.7,3.7,2.5,6.7,2.5c3.3,0,5.6-1,7.1-3s2.2-4.7,2.2-8.1C194,35.3,193.8,34,193.5,32.8z M187.5,41.3
		c-0.6,0.9-1.5,1.4-2.7,1.4c-1.3,0-2.2-0.5-2.7-1.4s-0.7-2.2-0.7-4c0-0.8,0.1-1.5,0.2-2.2c0.1-0.7,0.3-1.3,0.6-1.8s0.6-0.9,1.1-1.2
		c0.5-0.3,1.1-0.5,1.8-0.5c1.3,0,2.2,0.5,2.6,1.4c0.5,1,0.7,2.2,0.7,3.8C188.3,38.9,188,40.4,187.5,41.3z"/>
	<path d="M222.6,22.7l-3.8,7.9h-0.1l-3.8-7.9h-6.4c1.2,2,2.4,4.1,3.6,6.1c1.2,2,2.4,4,3.6,6.1l-7.5,12.7h6.3l4.2-8.4l4.2,8.4h6.3
		l-7.5-12.7l7.2-12.2H222.6z"/>
	<polygon points="257.6,47.6 257.6,12.6 252.4,12.6 247.2,16.5 247.2,22.5 252,18.9 252,47.6 	"/>
	<path d="M276,12.4c-2.6,0-4.7,0.8-6.4,2.5c-1.7,1.6-2.7,4-2.9,7l5.5,0.8c0.1-1.7,0.5-3,1.2-3.8s1.5-1.2,2.5-1.2
		c1.2,0,2.1,0.4,2.6,1.2c0.5,0.8,0.8,1.6,0.8,2.6c0,0.7-0.1,1.4-0.3,2.2c-0.2,0.8-0.5,1.5-1,2.2l-11.3,16.9v5h18.1v-5.3h-11.1
		l9.1-13.6c0.8-1.2,1.4-2.4,1.7-3.6c0.4-1.2,0.6-2.5,0.6-3.8c0-2.8-0.8-5-2.4-6.5C281.2,13.1,278.9,12.4,276,12.4z"/>
	<path d="M146.2,85.7c-0.7-0.8-1.6-1.6-2.8-2.3s-2.6-1.3-4.3-1.9v-9.1c1.9,0.3,3.4,1.3,4.4,3.1l4.2-3.1c-0.7-1.4-1.8-2.6-3.2-3.6
		s-3.2-1.6-5.4-1.8v-3.6h-2.3V67c-1.3,0.1-2.5,0.5-3.6,1s-2,1.2-2.7,2.1c-0.8,0.9-1.3,1.9-1.8,3c-0.4,1.2-0.6,2.4-0.6,3.7
		s0.2,2.5,0.5,3.4c0.4,1,0.9,1.9,1.6,2.7c0.7,0.8,1.6,1.5,2.7,2.1c1.1,0.6,2.4,1.2,3.9,1.7V97c-1.1-0.2-2.1-0.6-2.9-1.3
		c-0.8-0.7-1.5-1.6-2.1-2.6l-4.6,2.9c1,1.8,2.2,3.3,3.8,4.4c1.6,1.1,3.5,1.8,5.8,1.9v4.8h2.3v-4.8c3-0.2,5.2-1.2,6.8-3
		s2.3-4.2,2.3-7.2c0-1.3-0.2-2.5-0.5-3.6C147.4,87.5,146.9,86.5,146.2,85.7z M136.8,80.7c-1-0.5-1.8-1-2.3-1.6s-0.8-1.4-0.8-2.3
		c0-1.1,0.3-2.1,0.8-2.8c0.5-0.8,1.3-1.3,2.3-1.5V80.7z M141.7,95.4c-0.5,0.8-1.4,1.4-2.6,1.6v-9.3c1.1,0.5,1.9,1,2.5,1.7
		s0.9,1.7,0.9,2.9C142.5,93.6,142.2,94.6,141.7,95.4z"/>
	<polygon points="166,102.1 166,67.1 160.8,67.1 155.6,71 155.6,77 160.5,73.4 160.5,102.1 	"/>
	<path d="M191.9,69.6c-1.4-1.8-3.7-2.7-6.9-2.7c-1.6,0-3.1,0.3-4.2,0.8c-1.2,0.5-2.1,1.3-2.9,2.2c-0.8,1-1.3,2.1-1.7,3.5
		s-0.5,2.9-0.5,4.7c0,1.4,0.1,2.8,0.4,3.9c0.3,1.2,0.7,2.2,1.3,3c0.6,0.9,1.3,1.5,2.2,2s1.9,0.7,3.1,0.7c0.4,0,0.8,0,1.2-0.1
		s0.8-0.2,1.1-0.4l0.2,0.1l-6.5,14.8h6.1l7.5-16.7c0.5-1.1,0.9-2.3,1.2-3.8c0.3-1.4,0.5-2.9,0.5-4.5C193.9,74,193.3,71.4,191.9,69.6
		z M187.5,81.6c-0.5,1-1.4,1.5-2.6,1.5c-1.4,0-2.4-0.5-2.8-1.4c-0.5-1-0.7-2.2-0.7-3.7c0-2.1,0.3-3.6,0.9-4.5
		c0.6-0.9,1.5-1.3,2.8-1.3s2.2,0.5,2.7,1.4c0.5,1,0.7,2.3,0.7,4C188.3,79.3,188,80.6,187.5,81.6z"/>
	<path d="M210,80.3l-11.3,16.9v5h18.1v-5.3h-11.1l9.1-13.6c0.8-1.2,1.4-2.4,1.7-3.6c0.4-1.2,0.6-2.5,0.6-3.8c0-2.8-0.8-5-2.4-6.5
		c-1.6-1.5-3.9-2.3-6.7-2.3c-2.6,0-4.7,0.8-6.4,2.5c-1.7,1.6-2.7,4-2.9,7l5.5,0.8c0.1-1.7,0.5-3,1.2-3.8s1.5-1.2,2.5-1.2
		c1.2,0,2.1,0.4,2.6,1.2s0.8,1.6,0.8,2.6c0,0.7-0.1,1.4-0.3,2.2C210.8,78.9,210.5,79.6,210,80.3z"/>
	<polygon points="219.6,103.7 222.9,103.7 231.2,74.8 227.9,74.8 	"/>
	<path d="M237.2,88.7c0.2-0.5,0.5-0.9,1-1.2c0.4-0.3,0.9-0.4,1.6-0.4c1.1,0,2,0.6,2.5,1.8c0.1-0.1,0.3-0.2,0.7-0.4s0.7-0.4,1.1-0.5
		c0.4-0.2,0.8-0.4,1.1-0.5c0.3-0.2,0.6-0.3,0.7-0.4c-0.5-1.2-1.3-2.2-2.4-2.9c-1.1-0.7-2.4-1-3.8-1c-1.3,0-2.4,0.2-3.3,0.7
		c-0.9,0.5-1.6,1.1-2.2,1.9c-0.6,0.8-1,1.8-1.2,3s-0.4,2.4-0.4,3.8c0,1.4,0.1,2.7,0.3,3.9s0.6,2.2,1.1,3s1.3,1.5,2.2,2
		s2.1,0.7,3.5,0.7c1.5,0,2.7-0.3,3.8-1s1.9-1.6,2.4-2.8c-0.1-0.1-0.4-0.2-0.7-0.4s-0.7-0.3-1.1-0.5c-0.4-0.2-0.8-0.4-1.1-0.5
		c-0.3-0.2-0.6-0.3-0.7-0.4c-0.3,0.5-0.6,1-1,1.3s-0.9,0.5-1.5,0.5s-1.1-0.1-1.5-0.4c-0.4-0.3-0.7-0.7-0.9-1.2s-0.4-1.1-0.5-1.8
		s-0.1-1.5-0.1-2.3s0-1.6,0.1-2.2C236.8,89.8,237,89.2,237.2,88.7z"/>
	<path d="M261.7,102.1V89c0-1.1-0.2-2-0.5-2.8c-0.4-0.7-0.8-1.3-1.4-1.8s-1.3-0.8-2.2-1c-0.8-0.2-1.7-0.3-2.7-0.3
		c-1.4,0-2.7,0.3-3.8,0.8c-1.1,0.6-2,1.4-2.6,2.6c0.1,0.1,0.3,0.2,0.6,0.4s0.6,0.4,0.9,0.6c0.3,0.2,0.7,0.4,1,0.6
		c0.3,0.2,0.5,0.3,0.6,0.4c0.3-0.6,0.8-1.1,1.4-1.3c0.6-0.2,1.2-0.4,1.9-0.4c1,0,1.7,0.2,2.1,0.7c0.4,0.4,0.6,1,0.6,1.6v1.7h-3.2
		c-1.1,0-2.1,0.2-2.9,0.5c-0.8,0.3-1.5,0.7-2,1.2s-0.9,1.1-1.2,1.8s-0.4,1.4-0.4,2.2c0,1.7,0.4,3,1.3,4.1c0.9,1,2.2,1.5,4.1,1.5
		c0.8,0,1.5-0.1,2.3-0.4c0.8-0.3,1.4-0.7,1.8-1.3l0.2,0.1v1.4h4.1V102.1z M256.7,98c-0.6,0.4-1.3,0.6-2.1,0.6c-1,0-1.6-0.2-2.1-0.6
		c-0.4-0.4-0.6-0.9-0.6-1.5c0-0.8,0.2-1.3,0.7-1.7s1.1-0.6,1.9-0.6h3V96C257.6,96.9,257.3,97.6,256.7,98z"/>
	<path d="M269.7,90.9c0-1.3,0.3-2.2,0.9-2.7c0.6-0.6,1.5-0.9,2.5-0.9c0.4,0,0.7,0,1,0.1s0.7,0.2,1,0.4l0.8-4.1
		c-0.3-0.2-0.6-0.3-0.9-0.4c-0.3-0.1-0.7-0.1-1.1-0.1c-0.9,0-1.7,0.2-2.5,0.5c-0.7,0.3-1.3,1-1.8,1.9h-0.1v-2.1h-4.1v18.7h4.1V90.9
		H269.7z"/>
	<path class="st1" d="M76.5,73.4h-2.3v7.7h2.3c2.5,0,3.9-1.8,3.9-3.9S79.1,73.4,76.5,73.4z"/>
	<path class="st1" d="M111.6,72.4V14.7H21.1v57.7v32.9h90.6L111.6,72.4L111.6,72.4z M84.6,22.8c1.6-3.5,6.5-0.8,5.6,2.6
		c0,0.2-0.1,0.4-0.1,0.7c-1.5,5.2,6.8,9.4,8.8,13.5c1.2,2.5,1.6,5.4,1.1,8.2c-1,6.5-6.4,11.4-13,11.2s-12-4.9-12.7-11.5
		C73.3,37.9,80.9,30.8,84.6,22.8z M37,58.2c0.7-2.9,1.4-5.8,2-8.8c-0.7-0.5-0.5-1.5,0.3-1.8l0,0c1.5-7.6,2.7-15.3,3.4-23.1
		c-0.6-0.1-1.2-0.2-1.8-0.4c-3.9-0.9-2.3-6.9,1.7-6c2.6,0.6,5.2,1,7.9,1.3c0.1-1.1,0.5-2.2,1.9-2.5c1.6-0.4,3,1.4,2.3,2.8
		c2.3,0.1,4.6,0.1,7,0c4-0.2,4,6.1,0,6.3c-0.1,0-0.1,0-0.2,0c0.5,11.8,2.4,23.3,5.8,34.7c1.2,3.9-4.9,5.5-6,1.7
		c-0.3-0.9-0.5-1.9-0.8-2.8c-4.1-1.4-8-3-11.8-4.8c-1.9,1.1-3.7,2.6-5.2,4.2c-0.1,0.1-0.1,0.1-0.2,0.1c-0.1,0.3-0.1,0.6-0.2,0.8
		C42.1,63.7,36,62.1,37,58.2z M33.5,70c2.6,0,4.3,1.1,5.3,2.4c0.4,0.4,0.7,0.9,0.9,1.4l-3.1,1.5c-0.5-1.1-1.7-2-3.1-2
		c-2.2,0-3.8,1.8-3.8,4s1.6,4,3.8,4c1.4,0,2.6-0.9,3.1-2l3.1,1.5c-0.9,1.8-2.7,3.8-6.2,3.8c-4.2,0-7.5-2.9-7.5-7.2
		c0-2,0.7-3.6,1.8-4.9C29.3,70.9,31.3,70,33.5,70z M33.6,101.2c-4.3,0-7.5-3-7.5-7.2s3.2-7.2,7.5-7.2s7.5,3,7.5,7.2
		S37.8,101.2,33.6,101.2z M46.5,101h-3.6V87h3.6V101z M44.9,79.5v4.7h-3.6V72.4v-2.1h7c2,0,3.4,0.8,4.2,2.1c0.4,0.7,0.7,1.6,0.7,2.5
		c0,2.4-1.5,3.7-2.8,4.2l2.8,5.1h-4.1l-2.3-4.7H44.9z M58.2,101H49V87h3.6v10.8h5.6C58.2,97.8,58.2,101,58.2,101z M68.1,78.5
		c0,3.5-2,5.9-6.5,5.9s-6.5-2.5-6.5-5.9v-6.2v-2.1h3.7v2.1v6.1c0,1.7,0.9,2.8,2.8,2.8c1.9,0,2.8-1.2,2.8-2.8v-6.1v-2.1h3.7v2.1V78.5
		z M76.5,84.2h-5.9V72.4v-2.1h5.9c2.4,0,4.3,0.8,5.7,2.1c1.2,1.2,1.9,2.8,1.9,4.8C84.1,81.5,80.9,84.2,76.5,84.2z M96.1,73.3h-6.6
		v2.3H96v3.1h-6.5v2.5h6.6v3H85.9V72.4v-2.1h10.2v2.1V73.3z"/>
	<path class="st1" d="M33.6,90c-2.3,0-3.8,1.8-3.8,4c0,2.3,1.5,4,3.8,4s3.8-1.8,3.8-4C37.4,91.7,35.9,90,33.6,90z"/>
	<path class="st1" d="M47.8,73.3H45v3.1h2.8c0.9,0,1.7-0.6,1.7-1.6C49.5,73.9,48.7,73.3,47.8,73.3z"/>
	<path d="M111.6,111.6h6.3v-6.3V14.7V8.4h-6.3H21.1h-6.3v6.3v90.6v6.3h6.3H111.6z M21.1,72.4V14.7h90.6v57.7v32.9H21.1V72.4z"/>
	<path d="M33.5,84.5c3.5,0,5.3-1.9,6.2-3.8l-3.1-1.5c-0.5,1.1-1.7,2-3.1,2c-2.2,0-3.8-1.8-3.8-4s1.6-4,3.8-4c1.4,0,2.6,0.9,3.1,2
		l3.1-1.5c-0.2-0.5-0.5-0.9-0.9-1.4c-1.1-1.3-2.7-2.4-5.3-2.4c-2.3,0-4.3,0.9-5.6,2.4c-1.1,1.2-1.8,2.9-1.8,4.9
		C26.1,81.5,29.4,84.5,33.5,84.5z"/>
	<path d="M53.2,84.2l-2.8-5.1c1.3-0.5,2.8-1.8,2.8-4.2c0-0.9-0.2-1.8-0.7-2.5c-0.8-1.3-2.2-2.1-4.2-2.1h-7v2.1v11.8h3.6v-4.7h1.8
		l2.3,4.7H53.2z M47.8,76.4H45v-3.1h2.8c0.9,0,1.7,0.6,1.7,1.6C49.5,75.8,48.7,76.4,47.8,76.4z"/>
	<path d="M33.6,86.8c-4.3,0-7.5,3-7.5,7.2s3.2,7.2,7.5,7.2s7.5-3,7.5-7.2S37.8,86.8,33.6,86.8z M33.6,98c-2.3,0-3.8-1.8-3.8-4
		c0-2.3,1.5-4,3.8-4s3.8,1.8,3.8,4C37.4,96.3,35.9,98,33.6,98z"/>
	<rect x="42.9" y="87" width="3.6" height="14"/>
	<polygon points="52.6,87 49,87 49,101 58.2,101 58.2,97.8 52.6,97.8 	"/>
	<path class="st1" d="M47,40.1c-0.3,1.7-0.6,3.3-0.9,5c1.5-0.6,3-1.2,4.4-2C49.4,42.1,48.1,41.2,47,40.1z"/>
	<path class="st1" d="M52.7,50.6c1.3-0.7,3-1.7,2.2-3.8c-0.2-0.6-1.4-1.5-2.5-2.3c-0.1,0-0.2,0.1-0.3,0.1c-2.1,0.9-4.2,1.7-6.3,2.6
		c-0.2,1.1-0.5,2.2-0.7,3.4c1.3,0.7,2.6,1.3,3.9,2C50.2,51.9,51.4,51.3,52.7,50.6z"/>
	<path class="st1" d="M50.8,35.7c-0.9-0.7-1.9-1.4-2.8-2c-0.1,1-0.2,1.9-0.4,2.9c0.4-0.1,0.9-0.2,1.4-0.4
		C49.5,36,50.2,35.9,50.8,35.7z"/>
	<path class="st1" d="M44.7,52.7c-0.2,1-0.4,1.9-0.6,2.9c0.9-0.7,1.8-1.3,2.7-1.8C46.1,53.4,45.4,53,44.7,52.7z"/>
	<path class="st1" d="M48.9,25.4c-0.1,1.3-0.3,2.6-0.4,3.9c1.4-1.1,2.8-2.3,4-3.6C51.3,25.7,50.1,25.6,48.9,25.4z"/>
	<path class="st1" d="M53.3,35c0.8-0.2,1.7-0.5,2.5-0.7c-0.3-2.8-0.5-5.6-0.6-8.4h-0.1c-1.9,2.2-4,4.1-6.4,5.8
		C50.2,32.8,51.7,33.9,53.3,35z"/>
	<path class="st1" d="M57.4,46.3c-0.2-1.2-0.4-2.5-0.6-3.7c-0.6,0.4-1.3,0.8-2.1,1.1C55.8,44.4,56.8,45.3,57.4,46.3z"/>
	<path class="st1" d="M55.9,51.8c-1.5,0.8-3.2,1.1-4.8,1.7c2.9,1.3,5.8,2.5,8.8,3.5c-0.6-2.4-1.2-4.9-1.7-7.3
		C57.7,50.7,56.9,51.3,55.9,51.8z"/>
	<path class="st1" d="M51.1,37.8c-0.4,0.1-3.1,0.6-3.2,0.9c0.2-0.4,3.4,2.3,3.6,2.4c0.4,0.3,0.9,0.7,1.4,1.1
		c1.1-0.6,1.5-1.9,0.9-3.9c-0.4-0.3-0.8-0.6-1.2-0.9C52.1,37.5,51.6,37.6,51.1,37.8z"/>
	<path class="st1" d="M93,49.5c4-6.5-3.1-10.4-6.5-14.6c-0.4-0.4-0.7-0.9-1-1.4c-1.9,3-3.8,6-4.6,9.4C79.1,50.3,88.4,57.1,93,49.5z"
		/>
	<path d="M64.5,70.2v2.1v6.1c0,1.7-0.9,2.8-2.8,2.8c-1.9,0-2.8-1.2-2.8-2.8v-6.1v-2.1h-3.7v2.1v6.2c0,3.4,2,5.9,6.5,5.9
		s6.5-2.5,6.5-5.9v-6.2v-2.1H64.5z"/>
	<path d="M76.5,70.2h-5.9v2.1v11.8h5.9c4.4,0,7.5-2.7,7.5-7c0-2-0.7-3.6-1.9-4.8C80.9,71,78.9,70.2,76.5,70.2z M76.5,81.1h-2.3v-7.7
		h2.3c2.6,0,3.9,1.7,3.9,3.8C80.4,79.3,79,81.1,76.5,81.1z"/>
	<polygon points="85.9,70.2 85.9,72.4 85.9,84.2 96.1,84.2 96.1,81.2 89.5,81.2 89.5,78.7 96,78.7 96,75.6 89.5,75.6 89.5,73.3 
		96.1,73.3 96.1,72.4 96.1,70.2 	"/>
	<path d="M87.1,59c6.6,0.2,12-4.7,13-11.2c0.4-2.8,0.1-5.7-1.1-8.2c-2-4.1-10.3-8.3-8.8-13.5c0.1-0.2,0.1-0.5,0.1-0.7
		c0.9-3.4-4-6-5.6-2.6c-3.7,8-11.3,15.1-10.3,24.7C75.1,54,80.5,58.8,87.1,59z M80.9,42.9c0.8-3.4,2.7-6.4,4.6-9.4
		c0.3,0.5,0.6,0.9,1,1.4c3.4,4.3,10.5,8.2,6.5,14.6C88.4,57.1,79.1,50.3,80.9,42.9z"/>
	<path d="M43,59.8c0.1-0.3,0.1-0.6,0.2-0.8c0.1,0,0.1-0.1,0.2-0.1c1.6-1.6,3.3-3.1,5.2-4.2c3.8,1.8,7.8,3.5,11.8,4.8
		c0.3,0.9,0.5,1.9,0.8,2.8c1.1,3.9,7.2,2.2,6-1.7c-3.4-11.4-5.3-22.9-5.8-34.7c0.1,0,0.1,0,0.2,0c4-0.2,4-6.5,0-6.3
		c-2.3,0.1-4.7,0.1-7,0c0.7-1.4-0.7-3.2-2.3-2.8c-1.4,0.3-1.8,1.3-1.9,2.5c-2.6-0.3-5.3-0.7-7.9-1.3c-3.9-0.9-5.6,5.1-1.7,6
		c0.6,0.1,1.2,0.2,1.8,0.4c-0.7,7.8-1.8,15.5-3.4,23.1l0,0c-0.8,0.3-1,1.3-0.3,1.8c-0.6,2.9-1.3,5.9-2,8.8
		C36,62.1,42.1,63.7,43,59.8z M59.8,57c-3-1.1-5.9-2.2-8.8-3.5c1.6-0.6,3.3-1,4.8-1.7c1-0.5,1.9-1.1,2.2-2.1
		C58.6,52.2,59.2,54.6,59.8,57z M57.4,46.3c-0.7-1-1.6-1.8-2.7-2.6c0.7-0.3,1.5-0.6,2.1-1.1C57,43.8,57.2,45,57.4,46.3z M55.1,25.9
		L55.1,25.9c0.2,2.8,0.4,5.6,0.7,8.4c-0.8,0.2-1.7,0.5-2.5,0.7c-1.5-1.1-3.1-2.2-4.6-3.3C51.1,30.1,53.2,28.2,55.1,25.9z M52.9,42.2
		c-0.5-0.4-1-0.7-1.4-1.1c-0.2-0.2-3.5-2.9-3.6-2.4c0.1-0.3,2.8-0.8,3.2-0.9c0.5-0.1,1-0.3,1.5-0.4c0.4,0.3,0.8,0.6,1.2,0.9
		C54.3,40.2,54,41.5,52.9,42.2z M48.9,25.4c1.2,0.1,2.4,0.3,3.6,0.4c-1.2,1.3-2.5,2.5-4,3.6C48.6,28,48.8,26.7,48.9,25.4z
		 M47.9,33.7c0.9,0.6,1.9,1.3,2.8,2c-0.6,0.2-1.2,0.3-1.8,0.5c-0.5,0.1-0.9,0.2-1.4,0.4C47.7,35.6,47.8,34.7,47.9,33.7z M47,40.1
		c1.1,1.1,2.4,2,3.5,3c-1.4,0.7-2.9,1.4-4.4,2C46.5,43.4,46.8,41.7,47,40.1z M45.8,47.2c2.1-0.9,4.2-1.7,6.3-2.6
		c0.1,0,0.2-0.1,0.3-0.1c1.1,0.8,2.3,1.8,2.5,2.3c0.9,2.1-0.9,3.1-2.2,3.8s-2.5,1.3-3.7,1.9c-1.3-0.6-2.6-1.3-3.9-2
		C45.3,49.4,45.6,48.3,45.8,47.2z M44.7,52.7c0.7,0.4,1.4,0.7,2.1,1.1c-0.9,0.5-1.8,1.1-2.7,1.8C44.3,54.6,44.4,53.6,44.7,52.7z"/>
</g>
</svg>
