<?xml version="1.0" encoding="utf-8"?>
<!-- Generator: Adobe Illustrator 23.0.1, SVG Export Plug-In . SVG Version: 6.00 Build 0)  -->
<svg version="1.1" id="Layer_1" xmlns="http://www.w3.org/2000/svg" xmlns:xlink="http://www.w3.org/1999/xlink" x="0px" y="0px"
	 viewBox="0 0 300 120" style="enable-background:new 0 0 300 120;" xml:space="preserve">
<style type="text/css">
	.st0{fill:none;}
	.st1{fill:#FFFFFF;}
</style>
<g>
	<path class="st0" d="M138.7,22.6c0,0.9,0.3,1.7,0.8,2.3c0.5,0.6,1.3,1.2,2.3,1.6v-8.3c-1,0.2-1.8,0.7-2.3,1.5
		S138.7,21.5,138.7,22.6z"/>
	<path class="st0" d="M144.1,33.6v9.3c1.3-0.2,2.2-0.7,2.6-1.6c0.5-0.8,0.7-1.8,0.7-3c0-1.3-0.3-2.3-0.9-2.9
		C146,34.6,145.2,34,144.1,33.6z"/>
	<path class="st0" d="M144.1,88.1v9.3c1.3-0.2,2.2-0.7,2.6-1.6c0.5-0.8,0.7-1.8,0.7-3c0-1.3-0.3-2.3-0.9-2.9
		C146,89.1,145.2,88.5,144.1,88.1z"/>
	<path class="st0" d="M138.7,77.1c0,0.9,0.3,1.7,0.8,2.3s1.3,1.2,2.3,1.6v-8.3c-1,0.2-1.8,0.7-2.3,1.5C139,75.1,138.7,76,138.7,77.1
		z"/>
	<path class="st0" d="M257.7,95.1c-0.5,0.4-0.7,1-0.7,1.7c0,0.6,0.2,1.1,0.6,1.5s1.1,0.6,2.1,0.6c0.8,0,1.5-0.2,2.1-0.6
		c0.6-0.4,0.9-1.1,0.9-2v-1.8h-3C258.8,94.5,258.1,94.7,257.7,95.1z"/>
	<path class="st0" d="M258.1,28.9c1.3,0,2.2-0.5,2.6-1.5c0.5-1,0.7-2.3,0.8-4.1c0-1.7-0.2-3-0.7-4s-1.4-1.4-2.7-1.4
		c-1.3,0-2.2,0.4-2.8,1.3s-0.9,2.4-0.9,4.5c0,1.5,0.2,2.7,0.7,3.7C255.7,28.5,256.7,28.9,258.1,28.9z"/>
	<path class="st0" d="M189.8,43c1,0,1.9-0.3,2.5-0.9c0.6-0.6,1-1.5,1-2.6V21.6c0-1.1-0.3-2-1-2.6c-0.6-0.6-1.5-0.9-2.5-0.9
		s-1.9,0.3-2.5,0.9s-1,1.5-1,2.6v17.9c0,1.1,0.3,2,1,2.6C188,42.7,188.8,43,189.8,43z"/>
	<path class="st0" d="M213.2,97.5c1,0,1.9-0.3,2.5-0.9c0.6-0.6,1-1.5,1-2.6V76c0-1.1-0.3-2-1-2.6c-0.6-0.6-1.5-0.9-2.5-0.9
		s-1.9,0.3-2.5,0.9c-0.6,0.6-1,1.5-1,2.6v18c0,1.1,0.3,2,1,2.6C211.4,97.2,212.2,97.5,213.2,97.5z"/>
	<path class="st0" d="M189.8,97.6c1.4,0,2.3-0.5,2.9-1.4c0.6-1,0.9-2.4,0.9-4.3c0-3.5-1.3-5.2-3.8-5.2c-1.2,0-2.2,0.4-2.8,1.3
		c-0.7,0.9-1,2.2-1,4c0,2.1,0.3,3.5,1,4.4C187.7,97.2,188.6,97.6,189.8,97.6z"/>
	<path class="st0" d="M189.8,82c2.4,0,3.5-1.6,3.5-4.9c0-1.5-0.3-2.6-0.8-3.4c-0.6-0.8-1.5-1.2-2.7-1.2s-2.1,0.4-2.7,1.2
		s-0.8,2-0.8,3.5c0,1.7,0.3,2.9,0.9,3.7C187.7,81.7,188.6,82,189.8,82z"/>
	<path class="st1" d="M115.8,72.4v-19c-4.7,1.8-9.5,3.4-14.3,4.7c-3.9,3.6-9.4,5.4-14.8,4.2C80,60.8,75.2,55.4,74.2,49
		c-1.1,0.5-2.1,1.2-3,2c-1.1,1-2.8,1.2-4,0.3c-4.3,2.4-9.7,3.3-14.7,2.9c-10.9-0.9-19.6-9.9-18.1-21.1c1-7.9,7-13.2,14-14.8
		c0.3-0.3,0.6-0.5,1.1-0.6c2.7-1,5.4-1.9,8.2-2.9H25.3v57.7v32.9h90.6L115.8,72.4L115.8,72.4z M67.9,69.1h10.2v3h-6.6v0.3v2.1H78
		v3.1h-6.5v2.5h6.6v3H67.9V72.4V69.1z M55.6,69.1h10.2v3h-6.6v0.3v2.1h6.5v3.1h-6.5v2.5h6.6v3H55.6V72.4V69.1z M35.6,77.6
		c-2.3-0.5-5.5-1-5.5-4.4c0-0.3,0-0.6,0.1-0.9c0.4-2,2.3-3.5,5.5-3.5c2.2,0,4.2,0.7,5.7,1.9l-1.2,1.6l-0.8,1c-0.5-0.4-1.2-0.8-1.8-1
		c-0.7-0.3-1.5-0.4-2.2-0.4s-1.1,0.2-1.4,0.4c-0.2,0.2-0.3,0.4-0.3,0.7c0,0.7,0.9,1,2.4,1.3c2.3,0.5,5.5,1.2,5.5,4.3
		c0,2.8-2.1,4.7-5.8,4.7c-2.8,0-4.8-0.9-6.2-2.2l1.9-2.7c1,1,2.6,1.8,4.5,1.8c1.2,0,2-0.5,2-1.2C38,78.2,37.1,77.9,35.6,77.6z
		 M37.6,95.1h-3.4v4.7h-3.6v-14h7c3.1,0,4.9,2.1,4.9,4.7C42.5,93,40.8,95.1,37.6,95.1z M47.7,99.8h-3.6v-14h3.6V99.8z M50,83h-3.6
		V72.3v-0.2h-3.9V69h11.4v3.1H50v0.2V83z M57.2,95.1h-3.4v4.7h-3.6v-14h7c3.1,0,4.9,2.1,4.9,4.7C62.1,93,60.4,95.1,57.2,95.1z
		 M73.9,88.9h-6.6v2.3h6.5v3.1h-6.5v2.5h6.6v3H63.7v-14h10.2V88.9z M81.2,100.1c-2.8,0-4.8-0.9-6.2-2.2l1.9-2.7c1,1,2.6,1.8,4.5,1.8
		c1.2,0,2-0.5,2-1.2c0-0.8-0.9-1.1-2.4-1.4c-2.3-0.5-5.5-1-5.5-4.4c0-2.3,2-4.4,5.6-4.4c2.2,0,4.2,0.7,5.7,1.9l-2,2.6
		c-1.2-1-2.7-1.4-3.9-1.4c-1.2,0-1.7,0.5-1.7,1.1c0,0.7,0.9,1,2.4,1.3c2.3,0.5,5.5,1.2,5.5,4.3C87.1,98.2,85,100.1,81.2,100.1z
		 M89.5,83h-9.2V72.3V69h3.6v3.3v7.5h5.6V83z"/>
	<path class="st1" d="M37.1,88.9h-2.9V92h2.9c1,0,1.7-0.6,1.7-1.6C38.8,89.5,38.1,88.9,37.1,88.9z"/>
	<path class="st1" d="M56.7,88.9h-2.9V92h2.9c1,0,1.7-0.6,1.7-1.6C58.4,89.5,57.7,88.9,56.7,88.9z"/>
	<path class="st1" d="M107.7,36l8.2-2.6V28c-5.7,2.1-11.4,4.2-17.1,6.5c5.5,3.2,9.4,8,7.7,15.4c0,0.1-0.1,0.2-0.1,0.3
		c3.2-1,6.4-2.2,9.5-3.5V35.5c-2.5,0.8-5.1,1.6-7.6,2.5C106.9,38.4,106.4,36.4,107.7,36z"/>
	<path class="st1" d="M90.9,37.6c-1.1,0.5-2.2,0.9-3.3,1.4c-1.1,0.5-2.1,0.3-3-0.2c-6,4.2-5.9,15.7,4,17.4c2.8,0.5,5.7-0.4,8-2.2
		c0.3-0.6,0.8-1.2,1.6-1.5c1.4-1.6,2.3-3.6,2.4-5.9C100.7,41.4,95.3,39.1,90.9,37.6z"/>
	<path class="st1" d="M112.2,14.7c-10.6,3.9-21.1,7.7-31.7,11.6c-1.3,0.5-1.8-1.6-0.6-2c8.7-3.2,17.4-6.4,26.2-9.6H76.8
		c-1.1,0.4-2.1,0.7-3.2,1.1c-0.3,0.1-0.5,0.1-0.7,0.2c-2.6,0.9-5.2,1.8-7.8,2.7c7.1,3.9,12.1,11,11,19.8l0,0
		c2.9-4.9,8.5-7.7,14.2-7.5c8.4-3.5,16.9-6.8,25.5-9.9v-6.5h-3.6V14.7z"/>
	<path class="st1" d="M57.9,22.5c-0.7,1-1.8,1.6-3.2,1.4c-8-1.2-15.7,5.7-14,14c1.6,7.6,8.8,10.6,16,10.1c8-0.6,15-6.2,12.9-14.9
		C68.2,27.4,63.3,24,57.9,22.5z"/>
	<path d="M115.8,111.6h6.3v-6.3V14.7V8.4h-6.3H25.3H19v6.3v90.6v6.3h6.3H115.8z M108.2,38c2.5-0.8,5.1-1.6,7.6-2.5v11.2
		c-3.1,1.2-6.3,2.4-9.5,3.5c0-0.1,0.1-0.2,0.1-0.3c1.7-7.4-2.2-12.2-7.7-15.4c5.6-2.3,11.4-4.4,17.1-6.5v5.4l-8.2,2.6
		C106.4,36.4,106.9,38.4,108.2,38z M100.5,46.7c-0.1,2.2-1,4.2-2.4,5.9c-0.8,0.3-1.3,0.8-1.6,1.5c-2.2,1.7-5.2,2.6-8,2.2
		c-9.9-1.6-10-13.2-4-17.4c0.8,0.5,1.9,0.6,3,0.2c1.1-0.5,2.2-0.9,3.3-1.4C95.3,39.1,100.7,41.4,100.5,46.7z M90.3,31.1
		c-5.7-0.3-11.3,2.5-14.2,7.5l0,0c1.1-8.8-3.9-15.9-11-19.8c2.6-0.9,5.2-1.8,7.8-2.7c0.2,0,0.5-0.1,0.7-0.2c1.1-0.4,2.1-0.7,3.2-1.1
		h29.3c-8.7,3.2-17.4,6.4-26.2,9.6c-1.3,0.5-0.7,2.5,0.6,2c10.6-3.9,21.1-7.7,31.7-11.6h3.6v6.5C107.2,24.3,98.7,27.6,90.3,31.1z
		 M56.8,48c-7.2,0.5-14.4-2.4-16-10.1c-1.8-8.3,6-15.1,14-14c1.4,0.2,2.6-0.5,3.2-1.4c5.3,1.6,10.2,4.9,11.7,10.6
		C71.8,41.8,64.7,47.4,56.8,48z M25.3,72.4V14.7h32.4c-2.7,1-5.4,1.9-8.2,2.9c-0.4,0.2-0.8,0.4-1.1,0.6c-7.1,1.7-13,6.9-14,14.8
		c-1.5,11.3,7.2,20.3,18.1,21.1c5,0.4,10.3-0.6,14.7-2.9c1.2,0.9,2.9,0.7,4-0.3c0.9-0.8,1.9-1.4,3-2c1,6.4,5.8,11.8,12.5,13.3
		c5.3,1.2,10.9-0.6,14.8-4.2c4.9-1.4,9.6-2.9,14.3-4.7v19v32.9H25.3V72.4z"/>
	<path d="M36,80.2c-1.9,0-3.5-0.8-4.5-1.8l-1.9,2.7c1.4,1.3,3.4,2.2,6.2,2.2c3.8,0,5.8-1.9,5.8-4.7c0-3.2-3.2-3.8-5.5-4.3
		c-1.5-0.3-2.4-0.5-2.4-1.3c0-0.3,0.1-0.5,0.3-0.7c0.3-0.3,0.7-0.4,1.4-0.4s1.4,0.2,2.2,0.4c0.6,0.2,1.2,0.6,1.8,1l0.8-1l1.2-1.6
		c-1.5-1.3-3.4-1.9-5.7-1.9c-3.1,0-5.1,1.6-5.5,3.5c-0.1,0.3-0.1,0.6-0.1,0.9c0,3.3,3.2,3.9,5.5,4.4c1.5,0.3,2.4,0.6,2.4,1.4
		C38,79.7,37.2,80.2,36,80.2z"/>
	<polygon points="53.9,72.2 53.9,69.1 42.4,69.1 42.4,72.2 46.4,72.2 46.4,72.4 46.4,83 50,83 50,72.4 50,72.2 	"/>
	<polygon points="65.8,83 65.8,80 59.2,80 59.2,77.5 65.7,77.5 65.7,74.4 59.2,74.4 59.2,72.4 59.2,72.1 65.8,72.1 65.8,69.1 
		55.6,69.1 55.6,72.4 55.6,83 	"/>
	<polygon points="78.2,83 78.2,80 71.5,80 71.5,77.5 78,77.5 78,74.4 71.5,74.4 71.5,72.4 71.5,72.1 78.2,72.1 78.2,69.1 67.9,69.1 
		67.9,72.4 67.9,83 	"/>
	<polygon points="83.9,72.4 83.9,69.1 80.3,69.1 80.3,72.4 80.3,83 89.5,83 89.5,79.9 83.9,79.9 	"/>
	<path d="M37.6,85.8h-7v14h3.6v-4.7h3.4c3.1,0,4.9-2.1,4.9-4.6S40.8,85.8,37.6,85.8z M37.1,92h-2.9v-3.1h2.9c1,0,1.7,0.6,1.7,1.6
		C38.8,91.4,38.1,92,37.1,92z"/>
	<rect x="44.1" y="85.8" width="3.6" height="14"/>
	<path d="M57.2,85.8h-7v14h3.6v-4.7h3.4c3.1,0,4.9-2.1,4.9-4.6C62.1,88,60.4,85.8,57.2,85.8z M56.7,92h-2.9v-3.1h2.9
		c1,0,1.7,0.6,1.7,1.6C58.4,91.4,57.7,92,56.7,92z"/>
	<polygon points="63.7,99.8 73.9,99.8 73.9,96.8 67.3,96.8 67.3,94.3 73.8,94.3 73.8,91.2 67.3,91.2 67.3,88.9 73.9,88.9 73.9,85.8 
		63.7,85.8 	"/>
	<path d="M81.6,91.1c-1.6-0.3-2.4-0.5-2.4-1.3c0-0.6,0.5-1.1,1.7-1.1s2.8,0.5,3.9,1.4l2-2.6c-1.5-1.3-3.4-1.9-5.7-1.9
		c-3.6,0-5.6,2-5.6,4.4c0,3.3,3.2,3.9,5.5,4.4c1.5,0.3,2.4,0.6,2.4,1.4c0,0.7-0.8,1.2-2,1.2c-1.9,0-3.5-0.8-4.5-1.8L75,97.9
		c1.4,1.3,3.4,2.2,6.2,2.2c3.8,0,5.8-1.9,5.8-4.7C87.1,92.2,83.9,91.6,81.6,91.1z"/>
	<path d="M151.2,31.6c-0.7-0.8-1.6-1.6-2.8-2.3c-1.2-0.7-2.6-1.3-4.3-1.9v-9.1c1.9,0.3,3.4,1.3,4.4,3.1l4.2-3.1
		c-0.7-1.4-1.8-2.6-3.2-3.6s-3.2-1.6-5.4-1.8V9.3h-2.3v3.6c-1.3,0.1-2.5,0.5-3.6,1s-2,1.2-2.7,2.1c-0.8,0.9-1.3,1.9-1.8,3
		s-0.6,2.4-0.6,3.7c0,1.3,0.2,2.5,0.5,3.4c0.4,1,0.9,1.9,1.6,2.7c0.7,0.8,1.6,1.5,2.7,2.1c1.1,0.6,2.4,1.2,3.9,1.7v10.2
		c-1.1-0.2-2.1-0.6-2.9-1.3c-0.8-0.7-1.5-1.6-2.1-2.6l-4.6,2.9c1,1.8,2.2,3.3,3.8,4.4c1.6,1.1,3.5,1.8,5.8,1.9v4.8h2.3v-4.8
		c3-0.2,5.2-1.2,6.8-3s2.3-4.2,2.3-7.2c0-1.3-0.2-2.5-0.5-3.6C152.4,33.4,151.9,32.4,151.2,31.6z M141.9,26.5c-1-0.5-1.8-1-2.3-1.6
		s-0.8-1.4-0.8-2.3c0-1.1,0.3-2.1,0.8-2.8c0.5-0.8,1.3-1.3,2.3-1.5V26.5z M146.8,41.3c-0.5,0.8-1.4,1.4-2.6,1.6v-9.3
		c1.1,0.5,1.9,1,2.5,1.7s0.9,1.7,0.9,2.9C147.5,39.4,147.2,40.4,146.8,41.3z"/>
	<path d="M163.5,19.2c0.7-0.8,1.5-1.2,2.5-1.2c1.2,0,2.1,0.4,2.6,1.2c0.5,0.8,0.8,1.6,0.8,2.6c0,0.7-0.1,1.4-0.3,2.2
		c-0.2,0.8-0.5,1.5-1,2.2L156.9,43v5H175v-5.3h-11.1l9.1-13.6c0.8-1.2,1.4-2.4,1.7-3.6c0.4-1.2,0.6-2.5,0.6-3.8c0-2.8-0.8-5-2.4-6.5
		c-1.6-1.5-3.9-2.3-6.7-2.3c-2.6,0-4.7,0.8-6.4,2.5c-1.7,1.6-2.7,4-2.9,7l5.5,0.8C162.4,21.3,162.8,20,163.5,19.2z"/>
	<path d="M183.5,46c0.8,0.8,1.8,1.3,2.9,1.7c1.1,0.4,2.2,0.6,3.4,0.6s2.4-0.2,3.4-0.6c1.1-0.4,2-1,2.9-1.7c0.8-0.8,1.5-1.7,2-2.7
		c0.5-1.1,0.7-2.3,0.7-3.7v-18c0-1.4-0.2-2.7-0.7-3.7c-0.5-1.1-1.1-2-2-2.8c-0.8-0.8-1.8-1.3-2.9-1.7c-1.1-0.4-2.3-0.6-3.5-0.6
		s-2.3,0.2-3.4,0.6s-2,1-2.9,1.7c-0.8,0.8-1.5,1.7-2,2.8c-0.5,1.1-0.7,2.3-0.7,3.7v18c0,1.4,0.2,2.6,0.7,3.7
		C182.1,44.3,182.7,45.2,183.5,46z M186.4,21.5c0-1.1,0.3-2,1-2.6c0.6-0.6,1.5-0.9,2.5-0.9s1.9,0.3,2.5,0.9s1,1.5,1,2.6v17.9
		c0,1.1-0.3,2-1,2.6c-0.6,0.6-1.5,0.9-2.5,0.9s-1.9-0.3-2.5-0.9c-0.6-0.6-1-1.5-1-2.6V21.5z"/>
	<path d="M219.5,48l4.2-8.4l4.2,8.4h6.3l-7.5-12.7l7.2-12.2h-6.3l-3.8,7.9h-0.1l-3.8-7.9h-6.4c1.2,2,2.4,4.1,3.6,6.1
		c1.2,2,2.4,4,3.6,6.1L213.2,48H219.5z"/>
	<path d="M250.6,30.9c0.6,0.9,1.3,1.5,2.2,2s1.9,0.7,3.1,0.7c0.4,0,0.8,0,1.2-0.1s0.8-0.2,1.1-0.4l0.2,0.1L251.9,48h6.1l7.5-16.7
		c0.5-1.1,0.9-2.3,1.2-3.8c0.3-1.4,0.5-2.9,0.5-4.5c0-3.3-0.7-5.8-2.1-7.6c-1.4-1.8-3.7-2.7-6.9-2.7c-1.6,0-3.1,0.3-4.2,0.8
		c-1.2,0.5-2.1,1.3-2.9,2.2c-0.8,1-1.3,2.1-1.7,3.5s-0.5,2.9-0.5,4.7c0,1.4,0.1,2.8,0.4,3.9C249.6,29,250,30,250.6,30.9z
		 M255.4,19.3c0.6-0.9,1.5-1.3,2.8-1.3s2.2,0.5,2.7,1.4c0.5,1,0.7,2.3,0.7,4s-0.3,3.1-0.8,4.1s-1.4,1.5-2.6,1.5
		c-1.4,0-2.4-0.5-2.8-1.4c-0.5-1-0.7-2.2-0.7-3.7C254.5,21.7,254.8,20.2,255.4,19.3z"/>
	<path d="M151.2,86.1c-0.7-0.8-1.6-1.6-2.8-2.3s-2.6-1.3-4.3-1.9v-9.1c1.9,0.3,3.4,1.3,4.4,3.1l4.2-3.1c-0.7-1.4-1.8-2.6-3.2-3.6
		s-3.2-1.6-5.4-1.8v-3.6h-2.3v3.6c-1.3,0.1-2.5,0.5-3.6,1s-2,1.2-2.7,2.1c-0.8,0.9-1.3,1.9-1.8,3s-0.6,2.4-0.6,3.7s0.2,2.5,0.5,3.4
		c0.4,1,0.9,1.9,1.6,2.7c0.7,0.8,1.6,1.5,2.7,2.1c1.1,0.6,2.4,1.2,3.9,1.7v10.2c-1.1-0.2-2.1-0.6-2.9-1.3c-0.8-0.7-1.5-1.6-2.1-2.6
		l-4.6,2.9c1,1.8,2.2,3.3,3.8,4.4c1.6,1.1,3.5,1.8,5.8,1.9v4.8h2.3v-4.8c3-0.2,5.2-1.2,6.8-3s2.3-4.2,2.3-7.2c0-1.3-0.2-2.5-0.5-3.6
		C152.4,87.9,151.9,86.9,151.2,86.1z M141.9,81c-1-0.5-1.8-1-2.3-1.6s-0.8-1.4-0.8-2.3c0-1.1,0.3-2.1,0.8-2.8
		c0.5-0.8,1.3-1.3,2.3-1.5V81z M146.8,95.8c-0.5,0.8-1.4,1.4-2.6,1.6v-9.3c1.1,0.5,1.9,1,2.5,1.7s0.9,1.7,0.9,2.9
		C147.5,93.9,147.2,94.9,146.8,95.8z"/>
	<polygon points="171,102.5 171,67.5 165.8,67.5 160.6,71.4 160.6,77.4 165.5,73.7 165.5,102.5 	"/>
	<path d="M181.2,87.5c-0.5,1.5-0.8,3.1-0.8,4.9c0,1.9,0.3,3.5,0.8,4.8s1.2,2.4,2,3.2c0.9,0.8,1.8,1.4,3,1.8c1.1,0.4,2.3,0.5,3.6,0.5
		c1.2,0,2.4-0.2,3.5-0.5c1.1-0.4,2.2-0.9,3-1.8c0.9-0.8,1.6-1.9,2.1-3.2s0.8-2.9,0.8-4.8c0-0.9-0.1-1.7-0.2-2.5
		c-0.1-0.8-0.3-1.6-0.6-2.3s-0.6-1.4-1.1-1.9c-0.5-0.6-1.1-1-1.8-1.3v-0.1c1.3-0.7,2.1-1.7,2.6-3c0.5-1.2,0.7-2.6,0.7-4.2
		c0-1.7-0.2-3.2-0.7-4.4s-1.1-2.2-1.9-3c-0.8-0.8-1.8-1.4-2.9-1.8c-1.1-0.4-2.4-0.6-3.7-0.6c-2.7,0-4.9,0.8-6.5,2.5
		c-1.7,1.7-2.5,4.1-2.5,7.3c0,1.6,0.2,3,0.6,4.2c0.4,1.2,1.3,2.2,2.7,3v0.1C182.7,85,181.8,86.1,181.2,87.5z M187.1,73.8
		c0.6-0.8,1.4-1.2,2.7-1.2c1.2,0,2.2,0.4,2.7,1.2c0.6,0.8,0.8,1.9,0.8,3.4c0,3.3-1.2,4.9-3.5,4.9c-1.2,0-2.1-0.4-2.6-1.1
		c-0.6-0.7-0.9-2-0.9-3.7C186.3,75.7,186.6,74.6,187.1,73.8z M186.9,88c0.7-0.9,1.6-1.3,2.8-1.3c2.5,0,3.8,1.7,3.8,5.2
		c0,1.9-0.3,3.3-0.9,4.3c-0.6,1-1.6,1.4-2.9,1.4c-1.2,0-2.1-0.4-2.8-1.2s-1-2.3-1-4.4C185.9,90.2,186.3,88.8,186.9,88z"/>
	<path d="M206.9,100.5c0.8,0.8,1.8,1.3,2.9,1.7c1.1,0.4,2.2,0.6,3.4,0.6s2.4-0.2,3.4-0.6c1.1-0.4,2-1,2.9-1.7c0.8-0.8,1.5-1.7,2-2.7
		c0.5-1.1,0.7-2.3,0.7-3.7v-18c0-1.4-0.2-2.7-0.7-3.7c-0.5-1.1-1.1-2-2-2.8c-0.8-0.8-1.8-1.3-2.9-1.7c-1.1-0.4-2.3-0.6-3.5-0.6
		s-2.3,0.2-3.4,0.6s-2,1-2.9,1.7c-0.8,0.8-1.5,1.7-2,2.8s-0.7,2.3-0.7,3.7v18c0,1.4,0.2,2.6,0.7,3.7
		C205.4,98.8,206.1,99.7,206.9,100.5z M209.8,76c0-1.1,0.3-2,1-2.6c0.6-0.6,1.5-0.9,2.5-0.9s1.9,0.3,2.5,0.9c0.6,0.6,1,1.5,1,2.6v18
		c0,1.1-0.3,2-1,2.6c-0.6,0.6-1.5,0.9-2.5,0.9s-1.9-0.3-2.5-0.9c-0.6-0.6-1-1.5-1-2.6V76z"/>
	<polygon points="224.7,104.1 227.9,104.1 236.2,75.2 232.9,75.2 	"/>
	<path d="M239,100c0.5,0.8,1.3,1.5,2.2,2s2.1,0.7,3.5,0.7c1.5,0,2.7-0.3,3.8-1s1.9-1.6,2.4-2.8c-0.1-0.1-0.4-0.2-0.7-0.4
		s-0.7-0.3-1.1-0.5c-0.4-0.2-0.8-0.4-1.1-0.5c-0.3-0.2-0.6-0.3-0.7-0.4c-0.3,0.5-0.6,1-1,1.3s-0.9,0.5-1.5,0.5s-1.1-0.1-1.5-0.4
		c-0.4-0.3-0.7-0.7-0.9-1.2s-0.4-1.1-0.5-1.8s-0.1-1.5-0.1-2.3s0-1.6,0.1-2.2c0.1-0.7,0.2-1.3,0.5-1.8c0.2-0.5,0.5-0.9,1-1.2
		c0.4-0.3,0.9-0.4,1.6-0.4c1.1,0,2,0.6,2.5,1.8c0.1-0.1,0.3-0.2,0.7-0.4c0.3-0.2,0.7-0.4,1.1-0.5c0.4-0.2,0.8-0.4,1.1-0.5
		c0.3-0.2,0.6-0.3,0.7-0.4c-0.5-1.2-1.3-2.2-2.4-2.9c-1.1-0.7-2.4-1-3.8-1c-1.3,0-2.4,0.2-3.3,0.7c-0.9,0.5-1.6,1.1-2.2,1.9
		c-0.6,0.8-1,1.8-1.2,3c-0.3,1.2-0.4,2.4-0.4,3.8c0,1.4,0.1,2.7,0.3,3.9C238.1,98.1,238.5,99.2,239,100z"/>
	<path d="M259.3,91.3c-1.1,0-2.1,0.2-2.9,0.5c-0.8,0.3-1.5,0.7-2,1.2s-0.9,1.1-1.2,1.8s-0.4,1.4-0.4,2.2c0,1.7,0.4,3,1.3,4.1
		c0.9,1,2.2,1.5,4.1,1.5c0.8,0,1.5-0.1,2.3-0.4c0.8-0.3,1.4-0.7,1.8-1.3l0.2,0.1v1.4h4.2V89.3c0-1.1-0.2-2-0.5-2.8
		c-0.4-0.7-0.8-1.3-1.4-1.8s-1.3-0.8-2.2-1c-0.8-0.2-1.7-0.3-2.7-0.3c-1.4,0-2.7,0.3-3.8,0.8c-1.1,0.6-2,1.4-2.6,2.6
		c0.1,0.1,0.3,0.2,0.6,0.4s0.6,0.4,0.9,0.6c0.3,0.2,0.7,0.4,1,0.6c0.3,0.2,0.5,0.3,0.6,0.4c0.3-0.6,0.8-1.1,1.4-1.3s1.2-0.4,1.9-0.4
		c1,0,1.7,0.2,2.1,0.7c0.4,0.4,0.6,1,0.6,1.6v1.7h-3.3V91.3z M262.6,96.3c0,0.9-0.3,1.6-0.9,2s-1.3,0.6-2.1,0.6
		c-1,0-1.6-0.2-2.1-0.6c-0.4-0.4-0.6-0.9-0.6-1.5c0-0.8,0.2-1.3,0.7-1.7s1.1-0.6,1.9-0.6h3v1.8H262.6z"/>
	<path d="M274.7,91.3c0-1.3,0.3-2.2,0.9-2.7c0.6-0.6,1.5-0.9,2.5-0.9c0.4,0,0.7,0,1,0.1s0.7,0.2,1,0.4l0.8-4.1
		c-0.3-0.2-0.6-0.3-0.9-0.4c-0.3-0.1-0.7-0.1-1.1-0.1c-0.9,0-1.7,0.2-2.5,0.5c-0.7,0.3-1.3,1-1.8,1.9h-0.1v-2.1h-4.1v18.7h4.1V91.3
		H274.7z"/>
</g>
</svg>
