<svg id="Layer_1" data-name="Layer 1" xmlns="http://www.w3.org/2000/svg" viewBox="0 0 113.39 113.39"><defs><style>.cls-1{fill:#a65926;}.cls-1,.cls-2,.cls-3{stroke:#231f20;stroke-miterlimit:10;}.cls-1,.cls-3{stroke-width:0.25px;}.cls-2{fill:#303030;stroke-width:0.5px;}.cls-3{fill:none;}</style></defs><title>Oil Field</title><g id="Platforms"><rect id="Steel_Pipes_Beams" data-name="Steel Pipes Beams" class="cls-1" x="79.27" y="53.58" width="14.38" height="2.21"/><rect id="Tools" class="cls-1" x="99.04" y="53.58" width="7.29" height="2.21"/><rect id="Crude_Oil" data-name="Crude Oil" class="cls-1" x="70.91" y="65.23" width="9.88" height="1.19"/></g><g id="Buildings"><circle class="cls-2" cx="63.36" cy="50.92" r="3.67"/><circle class="cls-2" cx="72.55" cy="50.71" r="3.65"/><polygon class="cls-2" points="78.97 46.53 78.97 41.91 85.91 41.91 91.03 41.91 91.03 46.53 78.97 46.53"/><line class="cls-2" x1="86.68" y1="46.53" x2="86.68" y2="41.91"/><rect class="cls-2" x="87.81" y="43.13" width="2.17" height="2.17"/><line class="cls-3" x1="89.98" y1="43.13" x2="91.07" y2="42.05"/><line class="cls-3" x1="89.98" y1="45.3" x2="91.08" y2="46.41"/><line class="cls-3" x1="87.81" y1="45.3" x2="86.63" y2="46.48"/><line class="cls-3" x1="87.81" y1="43.13" x2="86.69" y2="42.01"/><polygon class="cls-2" points="47.97 85.28 47.97 80.66 54.91 80.66 60.04 80.66 60.04 85.28 47.97 85.28"/><line class="cls-2" x1="55.69" y1="85.28" x2="55.69" y2="80.66"/><rect class="cls-2" x="56.82" y="81.88" width="2.17" height="2.17"/><line class="cls-3" x1="58.99" y1="81.88" x2="60.07" y2="80.8"/><line class="cls-3" x1="58.99" y1="84.05" x2="60.09" y2="85.16"/><line class="cls-3" x1="56.82" y1="84.05" x2="55.64" y2="85.23"/><line class="cls-3" x1="56.82" y1="81.88" x2="55.69" y2="80.76"/><polygon class="cls-2" points="105.34 90.11 100.71 90.11 100.71 83.17 100.71 78.05 105.34 78.05 105.34 90.11"/><line class="cls-2" x1="105.34" y1="82.4" x2="100.71" y2="82.4"/><rect class="cls-2" x="101.94" y="79.1" width="2.17" height="2.17" transform="translate(22.84 183.21) rotate(-90)"/><line class="cls-3" x1="101.94" y1="79.1" x2="100.85" y2="78.01"/><line class="cls-3" x1="104.11" y1="79.1" x2="105.21" y2="78"/><line class="cls-3" x1="104.11" y1="81.27" x2="105.29" y2="82.45"/><line class="cls-3" x1="101.94" y1="81.27" x2="100.82" y2="82.39"/><polygon class="cls-2" points="88 17.03 84.73 20.3 79.82 15.4 76.2 11.77 79.47 8.5 88 17.03"/><line class="cls-2" x1="82.54" y1="11.58" x2="79.27" y2="14.85"/><rect class="cls-2" x="78.26" y="10.57" width="2.17" height="2.17" transform="translate(127.21 75.99) rotate(-135)"/><line class="cls-3" x1="77.81" y1="11.65" x2="76.27" y2="11.65"/><line class="cls-3" x1="79.34" y1="10.12" x2="79.34" y2="8.56"/><line class="cls-3" x1="80.88" y1="11.65" x2="82.54" y2="11.65"/><line class="cls-3" x1="79.34" y1="13.18" x2="79.34" y2="14.77"/><polygon class="cls-2" points="0.71 32.13 3.6 28.51 9.02 32.84 13.03 36.03 10.14 39.65 0.71 32.13"/><line class="cls-2" x1="6.74" y1="36.94" x2="9.63" y2="33.32"/><rect class="cls-2" x="8.83" y="35.43" width="2.17" height="2.17" transform="translate(24.93 1.79) rotate(38.58)"/><line class="cls-3" x1="11.44" y1="36.34" x2="12.97" y2="36.17"/><line class="cls-3" x1="10.09" y1="38.03" x2="10.26" y2="39.58"/><line class="cls-3" x1="8.39" y1="36.68" x2="6.73" y2="36.87"/><line class="cls-3" x1="9.74" y1="34.99" x2="9.56" y2="33.41"/><polygon class="cls-2" points="54.61 26.31 59.22 25.96 59.75 32.87 60.14 37.98 55.53 38.34 54.61 26.31"/><line class="cls-2" x1="55.2" y1="34" x2="59.81" y2="33.65"/><rect class="cls-2" x="56.59" y="34.95" width="2.17" height="2.17" transform="translate(89.2 -24.22) rotate(85.63)"/><line class="cls-3" x1="58.83" y1="37.03" x2="60" y2="38.03"/><line class="cls-3" x1="56.67" y1="37.19" x2="55.66" y2="38.38"/><line class="cls-3" x1="56.51" y1="35.03" x2="55.24" y2="33.95"/><line class="cls-3" x1="58.67" y1="34.87" x2="59.7" y2="33.66"/><polygon class="cls-2" points="91.37 92.29 92.05 96.86 85.18 97.89 80.11 98.64 79.44 94.06 91.37 92.29"/><line class="cls-2" x1="83.74" y1="93.42" x2="84.42" y2="98"/><rect class="cls-2" x="80.8" y="94.95" width="2.17" height="2.17" transform="matrix(-0.99, 0.15, -0.15, -0.99, 177, 178.99)"/><line class="cls-3" x1="80.97" y1="97.27" x2="80.06" y2="98.5"/><line class="cls-3" x1="80.66" y1="95.12" x2="79.4" y2="94.19"/><line class="cls-3" x1="82.8" y1="94.81" x2="83.79" y2="93.47"/><line class="cls-3" x1="83.12" y1="96.95" x2="84.4" y2="97.9"/><polygon class="cls-2" points="104.11 20.15 108.67 20.95 107.46 27.79 106.57 32.83 102.01 32.03 104.11 20.15"/><line class="cls-2" x1="102.77" y1="27.75" x2="107.32" y2="28.55"/><rect class="cls-2" x="103.58" y="29.24" width="2.17" height="2.17" transform="translate(152.75 -67.45) rotate(100.03)"/><line class="cls-3" x1="105.54" y1="31.58" x2="106.42" y2="32.84"/><line class="cls-3" x1="103.41" y1="31.21" x2="102.13" y2="32.1"/><line class="cls-3" x1="103.78" y1="29.07" x2="102.83" y2="27.71"/><line class="cls-3" x1="105.92" y1="29.45" x2="107.22" y2="28.54"/></g></svg>