<svg id="Layer_1" data-name="Layer 1" xmlns="http://www.w3.org/2000/svg" viewBox="0 0 127.56 127.56"><defs><style>.cls-1{fill:#0069a4;}.cls-1,.cls-2,.cls-3,.cls-4,.cls-5,.cls-6{stroke:#231f20;stroke-miterlimit:10;}.cls-1,.cls-4{stroke-width:0.5px;}.cls-2{fill:#673714;}.cls-2,.cls-3,.cls-5,.cls-6{stroke-width:0.25px;}.cls-3{fill:#a65926;}.cls-4,.cls-5{fill:#303030;}.cls-6{fill:none;}</style></defs><title>Sawmill</title><g id="Misc"><path class="cls-1" d="M68.25,112.88c2.8,1.63,2.91,2.79,6.44,4.75,2.25,1.24,4,2.2,6.37,2.25A11.61,11.61,0,0,0,88.5,117a15,15,0,0,0,4.69-7.25c2.06-6,.29-8.32.44-18.37.1-6.87,1-9.38.25-16.38-.46-4.41-1.13-6.42-2.57-8.12-2.54-3-6.28-3.58-9.87-4.13-5-.77-8.78-.06-13.94.94-6,1.17-9,1.75-11.62,4s-3.57,4.59-5.25,8.37a30.16,30.16,0,0,0-3,10,26.13,26.13,0,0,0,3.06,15.13c1.46,2.63,3.8,6.86,8.5,9C62.86,111.85,64.35,110.6,68.25,112.88Z"/><rect class="cls-2" x="62.81" y="52.28" width="2.25" height="14.95"/></g><g id="Platforms"><rect id="Logs" class="cls-3" x="92.56" y="63.72" width="3.54" height="45.87"/><rect id="Beams" class="cls-3" x="20.16" y="7.72" width="3.54" height="23.22"/><rect id="Lumber" class="cls-3" x="20.16" y="38.41" width="3.54" height="23.22"/></g><g id="Buildings"><polygon class="cls-4" points="22.34 29.97 50.19 29.97 50.19 33.94 50.19 38.53 22.34 38.81 21.13 33.72 22.34 29.97"/><polygon class="cls-4" points="50.19 20.84 50.19 53.22 63.83 53.06 77.66 53 77.66 20.84 63.83 19.84 50.19 20.84"/><polygon class="cls-4" points="51.97 19.84 51.97 24.94 51.97 32.16 57.63 32.16 57.63 44.25 64.03 44.25 70.09 44.25 70.09 32.05 75.81 32.05 75.81 24.91 75.81 19.84 51.97 19.84"/><polygon class="cls-4" points="94.59 24.59 95.81 29.41 94.59 36.03 77.78 36.03 77.78 29.38 77.78 24.59 94.59 24.59"/><line class="cls-5" x1="21.13" y1="33.72" x2="50.19" y2="33.72"/><line class="cls-5" x1="95.81" y1="29.41" x2="77.78" y2="29.38"/><polyline class="cls-6" points="63.83 53.06 63.83 44.25 63.83 25.09 52.28 25.09 75.69 25.09"/><polyline class="cls-6" points="57.63 32.16 63.83 25.09 70.31 32.05"/></g></svg>