<svg xmlns="http://www.w3.org/2000/svg" xmlns:xlink="http://www.w3.org/1999/xlink" version="1.1" x="0px" y="0px" viewBox="0 0 1000 1000" enable-background="new 0 0 1000 1000" xml:space="preserve">

<g><g transform="translate(0.000000,512.000000) scale(0.100000,-0.100000)"><path d="M3232.5,2680.1v-392.8h-381.3h-381.3l-7.7-136c-3.8-74.7-3.8-164.8,0-201.2l7.7-65.1h381.3h381.3l3.8-387l5.7-389l197.3-5.7l195.4-5.8v394.7v392.8h392.8h392.8v201.2v201.2h-392.8h-392.8v392.8v392.8h-201.2h-201.2V2680.1z"/><path d="M6409.2,2804.6c-19.2-11.5-120.7-191.6-224.2-398.5c-105.4-208.9-206.9-392.8-226.1-408.1c-19.2-17.2-720.4-402.4-1557.7-858.4c-837.3-456-1529-833.5-1534.7-841.1c-7.7-7.7-17.2-622.7-23-1370l-9.6-1354.6l1371.9,3.8l1371.9,5.8L6411.2-878c457.9,845,841.1,1536.7,852.6,1536.7c11.5,0,193.5,99.6,404.3,220.3c404.3,229.9,431.1,252.9,431.1,379.4c0,53.7-76.6,138-743.4,804.7c-728.1,730-747.3,745.3-829.6,753C6480.1,2821.9,6426.5,2816.1,6409.2,2804.6z M7566.5,1269.9c-7.7-7.7-88.1-53.6-178.2-101.5l-162.9-88.1l-415.8,419.6c-228,229.9-415.8,427.3-415.8,440.7c0,24.9,126.5,285.5,159,323.8c15.3,19.2,134.1-88.1,525-479C7353.8,1509.4,7574.2,1277.6,7566.5,1269.9z M6876.8,783.2c-19.2-30.7-373.6-680.2-787.5-1440.9l-754.9-1385.3h-896.7c-494.3,0-898.6,5.7-898.6,15.3c0,7.7,201.2,214.6,448.3,461.8l448.3,448.3l61.3-23c34.5-11.5,124.5-21.1,199.3-21.1c239.5,0,427.3,118.8,530.7,335.3c166.7,346.8-49.8,751.1-436.9,814.3c-182,30.7-344.9-19.2-486.7-147.5c-155.2-139.9-220.3-369.8-164.8-574.8l26.8-97.7l-467.5-467.5l-465.6-465.6l3.8,915.8l5.7,917.8l1437,779.8l1437,781.7l396.6-394.7l396.6-392.8L6876.8,783.2z M4786.4-406.6c70.9-36.4,120.7-141.8,103.5-220.3c-17.2-76.6-111.1-151.4-195.4-151.4c-159,0-243.3,220.4-124.5,329.6C4654.2-370.2,4700.1-360.7,4786.4-406.6z"/></g></g>
</svg>