<svg xmlns="http://www.w3.org/2000/svg" xmlns:xlink="http://www.w3.org/1999/xlink" version="1.1" x="0px" y="0px" viewBox="0 0 1000 1000" enable-background="new 0 0 1000 1000" xml:space="preserve">
<g><g transform="translate(0.000000,512.000000) scale(0.100000,-0.100000)"><path d="M6758.2,2871.4v-201.2h201.2h203.1l-5.7,197.4L7151,3063l-195.4,5.7l-197.4,5.8V2871.4z"/><path d="M6758.2,2085.8v-201.2h201.2h203.1l-5.7,197.4l-5.8,195.4l-195.4,5.7l-197.4,5.8V2085.8z"/><path d="M6758.2,1300.2v-203.1l197.4,5.8l195.4,5.7v191.6v191.6l-195.4,5.7l-197.4,5.8V1300.2z"/><path d="M6758.2,514.6V311.5l197.4,5.8L7151,323v191.6v191.6l-195.4,5.7l-197.4,5.8V514.6z"/><path d="M6758.2-271v-203.1l197.4,5.7l195.4,5.7V-271v191.6l-195.4,5.7l-197.4,5.8V-271z"/><path d="M5976.4-1836.4l5.7-983h977.2h977.2v977.2V-865l-982.9,5.7l-981,3.8L5976.4-1836.4z M7543.8-1842.2v-584.4h-584.4H6375v584.4v584.4h584.4h584.4V-1842.2z"/><path d="M6758.2-1842.2v-203.1l197.4,5.7l195.4,5.8l5.8,197.4l5.7,195.4h-203.1h-201.2V-1842.2z"/><path d="M2048.4-1836.4l5.7-197.4l197.4-5.8l195.4-5.7v203.1v201.2h-201.2h-203.1L2048.4-1836.4z"/><path d="M2834-1836.4l5.7-197.4l197.4-5.8l195.4-5.7v203.1v201.2h-201.2h-203.1L2834-1836.4z"/><path d="M3619.6-1836.4l5.7-197.4H3817h191.6l5.7,197.4l5.8,195.4H3817h-203.1L3619.6-1836.4z"/><path d="M4405.2-1836.4l5.7-197.4h191.6h191.6l5.7,197.4l5.8,195.4h-203.1h-203.1L4405.2-1836.4z"/><path d="M5190.8-1836.4l5.7-197.4h191.6h191.6l5.7,197.4l5.7,195.4h-203.1h-203.1L5190.8-1836.4z"/></g></g>
</svg>