<svg id="Layer_1" data-name="Layer 1" xmlns="http://www.w3.org/2000/svg" viewBox="0 0 113.39 113.39"><defs><style>.cls-1,.cls-3{fill:#303030;}.cls-1,.cls-2,.cls-3,.cls-4{stroke:#231f20;stroke-miterlimit:10;}.cls-1{stroke-width:0.5px;}.cls-2{fill:none;}.cls-2,.cls-3,.cls-4{stroke-width:0.25px;}.cls-4{fill:#a65926;}</style></defs><title>Ironworks</title><g id="Buildings"><polygon class="cls-1" points="8.31 26.38 8.31 60.63 8.31 70.69 19.19 70.69 19.19 60.88 49.31 60.88 49.31 26.38 8.31 26.38"/><polyline class="cls-1" points="8.31 34.92 49.31 34.92 49.31 49.42 8.31 49.42 8.31 34.92"/><line class="cls-2" x1="8.31" y1="42.17" x2="49.31" y2="42.17"/><polyline class="cls-1" points="8.31 70.81 8.31 75.15 12.34 75.15 12.34 70.81 15.12 70.81 15.12 75.15 19.19 75.15 19.19 70.81"/><circle class="cls-3" cx="10.32" cy="72.82" r="1.22"/><circle class="cls-3" cx="17.16" cy="72.82" r="1.22"/><rect class="cls-1" x="63.42" y="26.38" width="41.25" height="34.96"/><polyline class="cls-1" points="63.54 34.92 104.54 34.92 104.54 49.42 63.54 49.42 63.54 34.92"/><line class="cls-2" x1="63.54" y1="42.17" x2="104.54" y2="42.17"/></g><g id="Platforms"><polygon id="Raw_Iron_Coal" data-name="Raw Iron Coal" class="cls-4" points="31.19 80.75 31.19 84.92 89.1 84.92 89.1 80.75 62.6 80.75 62.6 57.63 58.59 57.63 58.59 80.71 31.19 80.75"/><rect class="cls-4" x="91.78" y="61.33" width="4.13" height="11.48"/><rect id="Tools" class="cls-4" x="38.25" y="7.88" width="13.58" height="3.79"/><polygon id="Steel_Pipes" data-name="Steel Pipes" class="cls-4" points="74.88 7.04 74.88 11.04 97.63 11.04 97.63 23.96 101.92 23.96 101.92 6.83 74.88 7.04"/><rect class="cls-4" x="65.53" y="14.34" width="4.22" height="12.03"/></g></svg>