<svg id="Layer_1" data-name="Layer 1" xmlns="http://www.w3.org/2000/svg" viewBox="0 0 113.39 113.39"><defs><style>.cls-1{fill:#a65926;}.cls-1,.cls-2,.cls-3{stroke:#231f20;stroke-miterlimit:10;}.cls-1,.cls-3{stroke-width:0.25px;}.cls-2,.cls-3{fill:#303030;}.cls-2{stroke-width:0.5px;}</style></defs><title>Logging Camp1</title><g id="Platforms"><rect class="cls-1" x="56.26" y="82.38" width="3.83" height="24.77"/><rect id="Logs2" class="cls-1" x="56.11" y="56.36" width="3.83" height="12.35"/><rect id="Logs1" class="cls-1" x="56.01" y="38.55" width="3.83" height="12.35"/><rect id="Cordwood1" class="cls-1" x="37.42" y="74.11" width="3.83" height="12.35"/><rect id="Cordwood2" class="cls-1" x="37.42" y="90.36" width="3.83" height="12.35"/><rect class="cls-1" x="43.55" y="71.67" width="8.31" height="1.97" transform="translate(-2.51 1.71) rotate(-2)"/><rect class="cls-1" x="45.06" y="107.76" width="8.31" height="1.97" transform="translate(-3.76 1.78) rotate(-2)"/></g><g id="Buildings"><polygon class="cls-2" points="49.34 3.44 54.09 2.5 58.81 3.78 58.22 17.56 53.38 16.44 48.63 17.16 49.34 3.44"/><path class="cls-3" d="M54.09,2.5l-.71,13.94Z"/><polygon class="cls-2" points="20.66 23.72 22.5 23.72 24.78 24.38 26 15.59 23.5 14.84 21.91 15.03 20.66 23.72"/><polygon class="cls-2" points="20.84 30.38 21.91 39.16 23.59 38.81 26 38.78 25.09 29.91 22.97 29.91 20.84 30.38"/><polygon class="cls-2" points="13.94 49.59 13.09 54.13 13.72 59 27.59 59.5 27.09 54.69 27.78 49.94 13.94 49.59"/><polygon class="cls-2" points="21.75 67.63 22.69 76.38 25 76.19 26.81 76.03 26.09 67.22 23.78 67.41 21.75 67.63"/><polygon class="cls-2" points="53.41 69.78 55.63 69.78 57.69 69.78 58.02 78.44 55.84 78.44 53.72 78.44 53.41 69.78"/><polygon class="cls-2" points="70.03 31.66 72.34 31.66 74.16 31.91 73.69 40.75 71.66 40.41 69.41 40.44 70.03 31.66"/><line class="cls-3" x1="23.78" y1="14.93" x2="22.5" y2="23.72"/><line class="cls-3" x1="22.97" y1="29.91" x2="23.59" y2="38.81"/><line class="cls-3" x1="13.09" y1="54.13" x2="27.09" y2="54.69"/><line class="cls-3" x1="23.78" y1="67.41" x2="25" y2="76.19"/><line class="cls-3" x1="55.63" y1="69.78" x2="55.84" y2="78.44"/><line class="cls-3" x1="72.34" y1="31.66" x2="71.66" y2="40.41"/><polygon class="cls-2" points="46.03 25.08 54.83 24.89 54.83 26.92 54.83 29.25 46.16 29.44 46.16 27.16 46.03 25.08"/><line class="cls-3" x1="46.16" y1="27.16" x2="54.83" y2="27.03"/><polygon class="cls-2" points="68.58 45.02 70.71 45.02 72.88 45.21 72.75 54.1 70.73 54.1 68.44 53.96 68.58 45.02"/><line class="cls-3" x1="70.71" y1="45.02" x2="70.73" y2="54.1"/></g></svg>