<svg id="Layer_1" data-name="Layer 1" xmlns="http://www.w3.org/2000/svg" viewBox="0 0 113.39 113.39"><defs><style>.cls-1,.cls-3{fill:#303030;}.cls-1,.cls-2,.cls-3,.cls-4{stroke:#231f20;stroke-miterlimit:10;}.cls-1{stroke-width:0.5px;}.cls-2{fill:none;}.cls-2,.cls-3,.cls-4{stroke-width:0.25px;}.cls-4{fill:#a65926;}</style></defs><title>Iron Mine</title><g id="Buildings"><polygon class="cls-1" points="27 54.13 29.34 54.13 29.34 75.44 16.59 75.44 16.59 54.13 27 54.13"/><polygon class="cls-1" points="2.21 53.75 2.21 63.71 18.04 63.71 18.13 74.29 27.88 74.29 27.88 54.21 2.21 53.75"/><polyline class="cls-2" points="2.21 58.64 14.72 58.64 22.97 58.64 22.97 74.29"/><polygon class="cls-1" points="14.59 54.75 14.59 62.54 22.04 62.54 22.04 54.87 14.59 54.75"/><polygon class="cls-1" points="15.79 54.77 15.79 18.19 20.75 18.19 20.75 54.75 15.79 54.77"/><polygon class="cls-1" points="18.27 18.19 14.02 18.19 14.02 9.69 22.54 9.69 22.54 18.19 18.27 18.19"/><line class="cls-3" x1="18.27" y1="9.69" x2="18.27" y2="18.19"/><line class="cls-3" x1="18.42" y1="54.81" x2="18.42" y2="62.54"/><rect class="cls-1" x="35.16" y="57.56" width="20.09" height="13.75"/><line class="cls-2" x1="35.16" y1="64.44" x2="55.25" y2="64.44"/></g><g id="Platforms"><rect id="Lumber" class="cls-4" x="65.14" y="62.08" width="5.44" height="18.28" transform="translate(139.08 3.36) rotate(90)"/><rect id="Beams" class="cls-4" x="97.36" y="62.24" width="5.44" height="18.28" transform="translate(171.45 -28.71) rotate(90)"/></g></svg>