<svg id="Layer_1" data-name="Layer 1" xmlns="http://www.w3.org/2000/svg" viewBox="0 0 113.39 113.39"><defs><style>.cls-1{fill:#a65926;}.cls-1,.cls-2,.cls-3{stroke:#231f20;stroke-miterlimit:10;}.cls-1,.cls-3{stroke-width:0.25px;}.cls-2{fill:#303030;stroke-width:0.5px;}.cls-3{fill:none;}</style></defs><title>Refinery</title><g id="Platforms"><rect id="Crude_Oil" data-name="Crude Oil" class="cls-1" x="65.77" y="13.14" width="3.41" height="22.56" transform="translate(91.89 -43.05) rotate(90)"/><rect id="Steel_Pipes" data-name="Steel Pipes" class="cls-1" x="35.52" y="19.89" width="3.41" height="22.56" transform="translate(68.39 -6.05) rotate(90)"/><rect id="Lumber" class="cls-1" x="11.13" y="31.86" width="3.41" height="11.28" transform="translate(50.33 24.68) rotate(90)"/><polygon id="Oil_Barrels" data-name="Oil Barrels" class="cls-1" points="76.44 76.5 75.5 76.5 75.5 79.97 98.31 79.97 98.06 65.38 88 65.38 88.06 76.34 86.62 76.33 86.53 65.38 76.44 65.38 76.44 76.5"/></g><g id="Buildings"><rect class="cls-2" x="99.17" y="66.77" width="4.63" height="9.5"/><line class="cls-3" x1="101.48" y1="66.77" x2="101.48" y2="76.27"/><rect class="cls-2" x="96.73" y="42.04" width="12.92" height="8.83"/><line class="cls-3" x1="96.73" y1="46.46" x2="109.69" y2="46.46"/><circle class="cls-2" cx="57.14" cy="32.41" r="5.95"/><circle class="cls-2" cx="72.8" cy="32.41" r="5.95"/><circle class="cls-2" cx="71.54" cy="61.98" r="1.36"/><circle class="cls-2" cx="47.11" cy="61.98" r="1.36"/><polygon class="cls-2" points="43.56 47.44 40.59 47.44 40.59 55.97 48.47 56.19 48.47 49.08 50.25 49.08 50.25 43.13 43.6 43.13 43.56 47.44"/><polygon class="cls-2" points="69.02 47.44 66.05 47.44 66.05 55.97 73.93 56.19 73.93 49.08 75.71 49.08 75.71 43.13 69.06 43.13 69.02 47.44"/><polygon class="cls-2" points="88.65 35.39 88.65 38.36 97.18 38.36 97.4 30.48 90.29 30.48 90.29 28.71 84.33 28.71 84.33 35.36 88.65 35.39"/></g></svg>