<svg version="1.1" viewBox="0.0 0.0 800.0 600.0" fill="none" stroke="none" stroke-linecap="square" stroke-miterlimit="10" xmlns:xlink="http://www.w3.org/1999/xlink" xmlns="http://www.w3.org/2000/svg"><clipPath id="p.0"><path d="m0 0l800.0 0l0 600.0l-800.0 0l0 -600.0z" clip-rule="nonzero"/></clipPath><g clip-path="url(#p.0)"><path fill="#000000" fill-opacity="0.0" d="m0 0l800.0 0l0 600.0l-800.0 0z" fill-rule="evenodd"/><path fill="#b7b7b7" d="m48.160107 90.267715l110.20471 0l0 110.83464l-110.20471 0z" fill-rule="evenodd"/><path stroke="#000000" stroke-width="1.0" stroke-linejoin="round" stroke-linecap="butt" d="m48.160107 90.267715l110.20471 0l0 110.83464l-110.20471 0z" fill-rule="evenodd"/><path fill="#000000" fill-opacity="0.0" d="m170.53543 120.03674l101.95276 0.3149643" fill-rule="evenodd"/><path stroke="#cccccc" stroke-width="1.0" stroke-linejoin="round" stroke-linecap="butt" d="m170.53543 120.03674l101.95276 0.3149643" fill-rule="evenodd"/><path fill="#000000" fill-opacity="0.0" d="m272.09973 120.154854l0.3779602 79.02363" fill-rule="evenodd"/><path stroke="#cccccc" stroke-width="1.0" stroke-linejoin="round" stroke-linecap="butt" d="m272.09973 120.154854l0.3779602 79.02363" fill-rule="evenodd"/><path fill="#000000" fill-opacity="0.0" d="m170.86876 141.6798l-0.12597656 -21.984253" fill-rule="evenodd"/><path stroke="#cccccc" stroke-width="1.0" stroke-linejoin="round" stroke-linecap="butt" d="m170.86876 141.6798l-0.12597656 -21.984253" fill-rule="evenodd"/><path fill="#000000" fill-opacity="0.0" d="m273.07874 199.1811l-101.98425 0" fill-rule="evenodd"/><path stroke="#cccccc" stroke-width="1.0" stroke-linejoin="round" stroke-linecap="butt" d="m273.07874 199.1811l-101.98425 0" fill-rule="evenodd"/><path fill="#000000" fill-opacity="0.0" d="m171.31233 175.97375l-0.03149414 23.716537" fill-rule="evenodd"/><path stroke="#cccccc" stroke-width="1.0" stroke-linejoin="round" stroke-linecap="butt" d="m171.31233 175.97375l-0.03149414 23.716537" fill-rule="evenodd"/><path fill="#000000" fill-opacity="0.0" d="m170.7559 242.4567l-0.12597656 -20.062988" fill-rule="evenodd"/><path stroke="#cccccc" stroke-width="1.0" stroke-linejoin="round" stroke-linecap="butt" d="m170.7559 242.4567l-0.12597656 -20.062988" fill-rule="evenodd"/><path fill="#000000" fill-opacity="0.0" d="m170.25197 222.3937l101.07088 -0.5669403" fill-rule="evenodd"/><path stroke="#cccccc" stroke-width="1.0" stroke-linejoin="round" stroke-linecap="butt" d="m170.25197 222.3937l101.07088 -0.5669403" fill-rule="evenodd"/><path fill="#000000" fill-opacity="0.0" d="m271.14697 246.33858l0.06298828 -24.850388" fill-rule="evenodd"/><path stroke="#cccccc" stroke-width="1.0" stroke-linejoin="round" stroke-linecap="butt" d="m271.14697 246.33858l0.06298828 -24.850388" fill-rule="evenodd"/><path fill="#000000" fill-opacity="0.0" d="m272.31235 303.58792l-152.0945 -1.2913208" fill-rule="evenodd"/><path stroke="#cccccc" stroke-width="1.0" stroke-linejoin="round" stroke-linecap="butt" d="m272.31235 303.58792l-152.0945 -1.2913208" fill-rule="evenodd"/><path fill="#000000" fill-opacity="0.0" d="m86.18372 302.2966l-50.20472 -0.3779602" fill-rule="evenodd"/><path stroke="#cccccc" stroke-width="1.0" stroke-linejoin="round" stroke-linecap="butt" d="m86.18372 302.2966l-50.20472 -0.3779602" fill-rule="evenodd"/><path fill="#000000" fill-opacity="0.0" d="m5.624672 252.02887l0 18.047241" fill-rule="evenodd"/><path stroke="#cccccc" stroke-width="1.0" stroke-linejoin="round" stroke-linecap="butt" d="m5.624672 252.02887l0 18.047241" fill-rule="evenodd"/><path fill="#000000" fill-opacity="0.0" d="m5.624672 270.0735l30.677166 31.685059" fill-rule="evenodd"/><path stroke="#cccccc" stroke-width="1.0" stroke-linejoin="round" stroke-linecap="butt" d="m5.624672 270.0735l30.677166 31.685059" fill-rule="evenodd"/><path fill="#666666" d="m218.29921 351.9449l26.425201 0l0 70.236206l-26.425201 0z" fill-rule="evenodd"/><path stroke="#000000" stroke-width="1.0" stroke-linejoin="round" stroke-linecap="butt" d="m218.29921 351.9449l26.425201 0l0 70.236206l-26.425201 0z" fill-rule="evenodd"/><path fill="#666666" d="m251.58792 315.19684l29.637787 0l0 21.259857l-29.637787 0z" fill-rule="evenodd"/><path stroke="#000000" stroke-width="1.0" stroke-linejoin="round" stroke-linecap="butt" d="m251.58792 315.19684l29.637787 0l0 21.259857l-29.637787 0z" fill-rule="evenodd"/><path fill="#666666" d="m240.85564 336.4567l32.88188 0l0 15.496063l-32.88188 0z" fill-rule="evenodd"/><path stroke="#000000" stroke-width="1.0" stroke-linejoin="round" stroke-linecap="butt" d="m240.85564 336.4567l32.88188 0l0 15.496063l-32.88188 0z" fill-rule="evenodd"/><path fill="#cccccc" d="m220.87665 326.14172l16.125977 0l0 24.850403l-16.125977 0z" fill-rule="evenodd"/><path stroke="#000000" stroke-width="1.0" stroke-linejoin="round" stroke-linecap="butt" d="m220.87665 326.14172l16.125977 0l0 24.850403l-16.125977 0z" fill-rule="evenodd"/><path fill="#a65926" d="m271.14697 29.041994l19.338593 0l0 70.23622l-19.338593 0z" fill-rule="evenodd"/><path stroke="#000000" stroke-width="1.0" stroke-linejoin="round" stroke-linecap="butt" d="m271.14697 29.041994l19.338593 0l0 70.23622l-19.338593 0z" fill-rule="evenodd"/><path fill="#a65926" d="m273.73752 232.06036l19.338593 0l0 70.23624l-19.338593 0z" fill-rule="evenodd"/><path stroke="#000000" stroke-width="1.0" stroke-linejoin="round" stroke-linecap="butt" d="m273.73752 232.06036l19.338593 0l0 70.23624l-19.338593 0z" fill-rule="evenodd"/><path fill="#a65926" d="m0.8897638 1.1076115l19.338583 0l0 70.23622l-19.338583 0z" fill-rule="evenodd"/><path stroke="#000000" stroke-width="1.0" stroke-linejoin="round" stroke-linecap="butt" d="m0.8897638 1.1076115l19.338583 0l0 70.23622l-19.338583 0z" fill-rule="evenodd"/><path fill="#000000" fill-opacity="0.0" d="m270.5013 19.375328l-36.094482 -0.62992096" fill-rule="evenodd"/><path stroke="#cccccc" stroke-width="1.0" stroke-linejoin="round" stroke-linecap="butt" d="m270.5013 19.375328l-36.094482 -0.62992096" fill-rule="evenodd"/><path fill="#000000" fill-opacity="0.0" d="m270.5013 99.908134l-45.85826 -0.25196838" fill-rule="evenodd"/><path stroke="#cccccc" stroke-width="1.0" stroke-linejoin="round" stroke-linecap="butt" d="m270.5013 99.908134l-45.85826 -0.25196838" fill-rule="evenodd"/><path fill="#000000" fill-opacity="0.0" d="m224.64305 70.01837l-0.6299286 29.637794" fill-rule="evenodd"/><path stroke="#cccccc" stroke-width="1.0" stroke-linejoin="round" stroke-linecap="butt" d="m224.64305 70.01837l-0.6299286 29.637794" fill-rule="evenodd"/><path fill="#000000" fill-opacity="0.0" d="m272.31235 303.20996l-152.0945 -1.2913208" fill-rule="evenodd"/><path stroke="#cccccc" stroke-width="1.0" stroke-linejoin="round" stroke-linecap="butt" d="m272.31235 303.20996l-152.0945 -1.2913208" fill-rule="evenodd"/><path fill="#666666" d="m244.72441 351.92126l52.850388 0l0 63.811005l-52.850388 0z" fill-rule="evenodd"/><path stroke="#000000" stroke-width="1.0" stroke-linejoin="round" stroke-linecap="butt" d="m244.72441 351.92126l52.850388 0l0 63.811005l-52.850388 0z" fill-rule="evenodd"/><path fill="#967b6f" d="m4.8635173 242.74016l0 0c0 -11.237045 9.165823 -20.34645 20.47244 -20.34645l0 0c5.4296284 0 10.636873 2.143631 14.476202 5.9593353c3.839325 3.8157043 5.9962387 8.990906 5.9962387 14.3871155l0 0c0 11.23703 -9.165825 20.34645 -20.47244 20.34645l0 0c-11.306618 0 -20.47244 -9.109421 -20.47244 -20.34645z" fill-rule="evenodd"/><path stroke="#000000" stroke-width="1.0" stroke-linejoin="round" stroke-linecap="butt" d="m4.8635173 242.74016l0 0c0 -11.237045 9.165823 -20.34645 20.47244 -20.34645l0 0c5.4296284 0 10.636873 2.143631 14.476202 5.9593353c3.839325 3.8157043 5.9962387 8.990906 5.9962387 14.3871155l0 0c0 11.23703 -9.165825 20.34645 -20.47244 20.34645l0 0c-11.306618 0 -20.47244 -9.109421 -20.47244 -20.34645z" fill-rule="evenodd"/></g></svg>