<svg class="svg-icon" style="width: 1em; height: 1em;vertical-align: middle;fill: currentColor;overflow: hidden;" viewBox="0 0 1024 1024" version="1.1" xmlns="http://www.w3.org/2000/svg"><path d="M760 128.8z m-209.8-13.6c-18.8-11.8-46.6-19.2-75.8-19.2-28.6 0-60.6 5-93.4 18.4-93 38-148 90.8-162.2 104.8-14 14-33.6 36-45.8 53.2-12.2 17.4 3.8 42-12.2 58s-49.4 0-49.4 0c-2.8 0-5.8 1-7.8 3.2l-68.2 67.8c-4.4 4.2-4.4 11.4 0 15.6l127 126.2c2.2 2.2 5 3.2 7.8 3.2s5.8-1 7.8-3.2l66.4-69.6c4.4-4.2 4.4-11.4 0-15.6 0 0-10.6-10.4-24.2-24s1.6-38.6 10.6-46.8c9-8.2 23.2-13.6 42.2-13.6 8.6 0 14.8 1.4 22.8 3.6 24.4 6.8 51.6 31.8 101.8 81.6l-7.8 13c-4.6 7.6-1.8 16.6 2.6 20.8 0 0-10-9.8 26.2 26.2l100-94.4c-38.2-37.8-29-28.2-29-28.2-2.8-2.8-7.6-4.6-12.6-4.6-2.8 0-5.8 0.6-8.4 2l-11.2 6c-56-55.6-70.6-80.4-68.6-123.4 2.2-44.8 24.6-74.2 61-105.4 49.4-42.2 121.2-30.4 121.2-30.4 16-0.2-8.4-17.2-20.8-25.2z m374.8 684.6s-137.8-114.4-260.4-231.4l-95.4 101.2c117 121.2 229.8 255.2 229.8 255.2 2.2 2.2 5 3.2 7.8 3.2s5.8-1 7.8-3.2l110.2-109.4c4.4-4.2 4.4-11.4 0.2-15.6z"  /><path d="M958.4 250.6l-104.8 105.2-102.2-18.6-18.4-102.2 104.8-105.2c-22.2-22.2-53.6-33.2-78-33.2-1.4 0-2.8 0-4 0.2-25 1.2-78.4 15.4-119.8 59.4-40 42.2-82.2 121.2-44.8 208.6 4.4 10.6 9.4 24.4-5.4 39.4-3 2.8-19.8 18.8-45 42.6-7.2 6.8-14.8 14-23.2 22-16 15.2-34.2 32.4-53.6 50.4-7.6 7.2-15.4 14.4-23.2 22-114 107.6-253.8 239-253.8 239-36 31-33.4 88.2-0.2 121.6 17 16.8 40 25.6 62.6 25.6 22 0 43.8-8.4 59-26.2 0 0 131-139.6 238.6-253.8 7.4-8 14.8-15.6 22-23.4 18.6-19.8 36-38.2 51.6-54.6 7.8-8.4 15.2-16.2 22-23.2 23-24.4 38.6-40.8 42-44 8-7.8 15.4-10.2 22.2-10.2 6.6 0 12.4 2.4 17.2 4.8 19.8 10.2 42 14.6 64.8 14.6 53.4 0 110-24.8 144.2-59 48.8-48.8 57.6-95.8 59.2-120 1.2-23.6-7.2-55.2-33.8-81.8zM274.8 852.2c-11 10.8-28.8 10.8-39.6 0-10.8-11-10.8-28.8 0-39.6 11-10.8 28.8-10.8 39.6 0 10.8 11 10.8 28.8 0 39.6z"  /></svg>